<svg width="73" height="74" viewBox="0 0 73 74" fill="none" xmlns="http://www.w3.org/2000/svg">
<path fill-rule="evenodd" clip-rule="evenodd" d="M26.8412 7.12287C25.9644 7.12287 25.2536 7.83368 25.2536 8.71051V8.77343H25.1296C24.4103 8.77343 23.7425 9.00277 23.42 9.63959C23.1208 10.2304 23.2114 11.0107 23.544 11.8844L24.1685 13.7566C23.4599 13.739 22.5123 13.9819 21.7167 14.4934C20.8443 15.0543 20.0951 15.9811 20.0952 17.3083L20.0952 17.342C20.0952 17.8479 20.0951 18.3839 20.2564 18.906C20.4284 19.4631 20.7704 19.9721 21.3932 20.4694C21.5346 20.5824 21.7282 20.6043 21.8912 20.5258C22.0543 20.4474 22.158 20.2824 22.158 20.1015C22.158 19.3868 22.73 18.8398 23.5804 18.8398C23.778 18.8398 24.0106 18.8444 24.2532 18.8572C23.9062 19.1499 23.71 19.5124 23.6178 19.8844C23.4282 20.6488 23.6779 21.4419 23.8543 21.8496C23.9559 22.0841 24.2259 22.1949 24.4629 22.0992C26.2418 21.3806 27.7192 21.6335 28.8583 22.2307C30.0159 22.8375 30.8365 23.8087 31.2374 24.5177C31.2446 24.5304 31.2517 24.5431 31.2587 24.5558L31.2594 24.5571C31.8365 25.5959 32.0739 27.0326 32.1012 28.3274C32.1147 28.9683 32.0764 29.5571 32.0093 30.0209C31.9757 30.2531 31.9358 30.448 31.8938 30.5994C31.8495 30.7593 31.8109 30.8402 31.7939 30.8664C31.7522 30.9305 31.7269 31.0036 31.7199 31.0792H29.8421C29.582 31.0792 29.3712 31.2901 29.3712 31.5501V34.656C28.6856 34.9489 27.7059 35.2259 26.7346 35.2231C25.6418 35.2199 24.6216 34.8682 23.978 33.8541C23.3045 32.7929 23.2629 31.6745 23.4987 30.6815C23.7368 29.6785 24.2535 28.8303 24.6454 28.3692C24.803 28.1836 24.7933 27.9085 24.6228 27.7346L10.3473 13.1711C10.1963 13.0172 9.96016 12.9854 9.77389 13.0939C9.39275 13.316 9.02952 13.7877 8.7639 14.4163C8.49155 15.0608 8.30078 15.9169 8.30078 16.9733C8.30078 17.2334 8.51161 17.4442 8.77169 17.4442C9.03177 17.4442 9.24261 17.2334 9.24261 16.9733C9.24261 16.0289 9.41327 15.2993 9.63145 14.7829C9.74992 14.5026 9.87713 14.2966 9.99077 14.1529L23.6624 28.1003C23.2497 28.6763 22.8095 29.5072 22.5824 30.4639C22.303 31.6404 22.3416 33.0333 23.1828 34.3588C24.054 35.7315 25.4366 36.1611 26.7319 36.1649C27.6892 36.1677 28.6322 35.9411 29.3712 35.6689V37.4952C29.0322 37.7307 28.5283 37.8943 27.9613 37.9906C27.3186 38.0997 26.6757 38.1094 26.2897 38.0852C26.16 38.0771 26.0326 38.123 25.9379 38.212C25.8432 38.301 25.7894 38.4252 25.7894 38.5552V43.0399C25.7894 43.3 26.0003 43.5108 26.2603 43.5108C26.5204 43.5108 26.7312 43.3 26.7312 43.0399V39.0377C27.1352 39.0348 27.6254 39.0029 28.119 38.9191C28.5284 38.8496 28.969 38.7397 29.3712 38.5642V43.1891C28.4842 43.2793 27.3745 43.6055 26.2475 44.1024C24.9009 44.696 23.4799 45.5548 22.3195 46.6185C21.1302 47.7087 20.1944 49.3763 19.537 50.939C18.8784 52.5044 18.471 54.0329 18.374 54.8917C18.3449 55.1502 18.5307 55.3833 18.7891 55.4125C19.0476 55.4417 19.2807 55.2558 19.3099 54.9974C19.3937 54.2553 19.7687 52.8168 20.4051 51.3043C21.0426 49.789 21.9143 48.2677 22.956 47.3128C24.0266 46.3314 25.3557 45.5248 26.6274 44.9642C27.6676 44.5056 28.6371 44.2258 29.3712 44.1367V46.5999C27.2487 47.1723 26.0293 48.0645 24.6442 49.3292C23.8701 50.0359 23.3023 50.9535 22.9068 51.7947C22.5108 52.6373 22.274 53.4327 22.176 53.9226C22.125 54.1776 22.2904 54.4257 22.5454 54.4767C22.8004 54.5277 23.0485 54.3624 23.0995 54.1073C23.1823 53.6935 23.3948 52.9706 23.7592 52.1954C24.1242 51.4189 24.6279 50.6194 25.2792 50.0247C26.5371 48.8762 27.5906 48.099 29.3712 47.5781V48.6699C29.3712 49.1676 29.4465 49.6022 29.5829 49.9781C29.3651 50.0795 29.0834 50.2202 28.7673 50.4012C28.0481 50.8131 27.1308 51.445 26.3859 52.3141C25.831 52.9614 25.4727 53.8825 25.2546 54.7402C25.0774 55.437 24.9825 56.1331 24.9598 56.6801L15.8459 59.2947C15.5959 59.3664 15.4514 59.6272 15.5231 59.8772C15.5948 60.1272 15.8556 60.2718 16.1056 60.2L25.5563 57.4888C25.7624 57.4297 25.9025 57.2389 25.8973 57.0246C25.8855 56.5447 25.9652 55.7674 26.1674 54.9723C26.3713 54.1702 26.6844 53.413 27.1009 52.9271C27.7504 52.1694 28.5682 51.6006 29.2354 51.2185C29.5586 51.0334 29.8418 50.8947 30.046 50.8017C30.7945 51.7202 31.9622 51.9039 32.6494 51.8521H35.5067C36.06 51.8521 36.5347 52.1196 36.9217 52.5009C37.2779 52.8519 37.5294 53.2712 37.6602 53.5675V72.5291C37.6602 72.7892 37.871 73 38.1311 73C38.1455 73 38.1597 72.9994 38.1738 72.9981C38.1878 72.9994 38.202 73 38.2164 73C38.4765 73 38.6873 72.7892 38.6873 72.5291V53.5675C38.8181 53.2712 39.0696 52.8519 39.4258 52.5009C39.8129 52.1196 40.2875 51.8521 40.8408 51.8521H43.6981C44.3853 51.9039 45.553 51.7202 46.3015 50.8017C46.5057 50.8947 46.7889 51.0334 47.1121 51.2185C47.7793 51.6006 48.5971 52.1694 49.2466 52.9271C49.6631 53.413 49.9762 54.1702 50.1801 54.9723C50.3823 55.7674 50.462 56.5447 50.4502 57.0246C50.445 57.2389 50.5851 57.4297 50.7912 57.4888L60.0002 60.1307C60.0705 60.8302 60.29 61.4864 60.6266 62.0662C61.4629 63.5069 63.0236 64.4775 64.8115 64.4775C66.5994 64.4775 68.1601 63.5069 68.9964 62.0662C69.4104 61.353 69.6473 60.5243 69.6473 59.6417C69.6473 59.0555 69.5428 58.4927 69.351 57.9716C69.2122 57.5944 69.0278 57.2395 68.8047 56.9134C68.1884 56.013 67.2745 55.331 66.2044 55.0096C66.3875 54.7402 66.4945 54.4149 66.4945 54.0646C66.4945 53.135 65.741 52.3814 64.8114 52.3814C63.8818 52.3814 63.1282 53.135 63.1282 54.0646C63.1282 54.4149 63.2353 54.7403 63.4184 55.0097C62.3484 55.3311 61.4346 56.0131 60.8184 56.9134C60.3738 57.563 60.0835 58.3268 60.0004 59.1509L51.3877 56.6801C51.365 56.1331 51.2701 55.437 51.0929 54.7402C50.8748 53.8826 50.5165 52.9614 49.9616 52.3141C49.2167 51.445 48.2994 50.8131 47.5802 50.4012C47.2641 50.2202 46.9824 50.0795 46.7646 49.9781C46.901 49.6022 46.9763 49.1676 46.9763 48.6699V47.5781C48.7569 48.099 49.8104 48.8762 51.0683 50.0247C51.7196 50.6194 52.2233 51.4189 52.5883 52.1954C52.9527 52.9706 53.1652 53.6935 53.248 54.1073C53.299 54.3624 53.5471 54.5277 53.8021 54.4767C54.0571 54.4257 54.2225 54.1776 54.1715 53.9226C54.0735 53.4327 53.8367 52.6373 53.4407 51.7947C53.0453 50.9535 52.4774 50.0359 51.7033 49.3292C50.3182 48.0645 49.0988 47.1723 46.9763 46.5999V44.1367C47.7104 44.2258 48.6799 44.5056 49.7201 44.9642C50.9918 45.5248 52.3209 46.3314 53.3915 47.3128C54.4332 48.2677 55.3049 49.789 55.9424 51.3043C56.5788 52.8168 56.9538 54.2553 57.0376 54.9974C57.0668 55.2558 57.2999 55.4417 57.5584 55.4125C57.8168 55.3833 58.0027 55.1502 57.9735 54.8917C57.8765 54.0329 57.4691 52.5044 56.8105 50.939C56.1531 49.3763 55.2173 47.7087 54.028 46.6185C52.8676 45.5548 51.4466 44.696 50.1 44.1024C48.973 43.6055 47.8633 43.2793 46.9763 43.1891V38.5642C47.3785 38.7397 47.8191 38.8496 48.2285 38.9191C48.7221 39.0029 49.2123 39.0348 49.6163 39.0377V43.0399C49.6163 43.3 49.8271 43.5108 50.0872 43.5108C50.3472 43.5108 50.5581 43.3 50.5581 43.0399V38.5552C50.5581 38.4252 50.5043 38.301 50.4096 38.212C50.3149 38.123 50.1875 38.0771 50.0578 38.0852C49.6718 38.1094 49.0289 38.0997 48.3862 37.9906C47.8192 37.8943 47.3153 37.7307 46.9763 37.4952V35.6689C47.7153 35.9411 48.6583 36.1677 49.6156 36.1649C50.9109 36.1611 52.2935 35.7315 53.1647 34.3588C54.0059 33.0333 54.0445 31.6404 53.7651 30.4639C53.538 29.5072 53.0978 28.6763 52.6851 28.1003L66.3567 14.1529C66.4704 14.2966 66.5976 14.5026 66.716 14.7829C66.9342 15.2993 67.1049 16.0289 67.1049 16.9733C67.1049 17.2334 67.3157 17.4442 67.5758 17.4442C67.8359 17.4442 68.0467 17.2334 68.0467 16.9733C68.0467 15.9169 67.8559 15.0608 67.5836 14.4163C67.318 13.7877 66.9548 13.316 66.5736 13.0939C66.3873 12.9854 66.1512 13.0172 66.0002 13.1711L51.7247 27.7346C51.5542 27.9085 51.5445 28.1836 51.7021 28.3692C52.094 28.8303 52.6107 29.6785 52.8488 30.6815C53.0846 31.6745 53.043 32.7929 52.3695 33.8541C51.7259 34.8682 50.7057 35.2199 49.6129 35.2231C48.6416 35.2259 47.6619 34.9489 46.9763 34.656V31.5501C46.9763 31.2901 46.7655 31.0792 46.5054 31.0792H44.6276C44.6206 31.0036 44.5953 30.9305 44.5536 30.8664C44.5366 30.8402 44.4981 30.7593 44.4537 30.5994C44.4117 30.448 44.3718 30.2531 44.3382 30.0209C44.2711 29.5571 44.2328 28.9683 44.2463 28.3274C44.2736 27.0326 44.511 25.5959 45.0881 24.5571L45.0888 24.5558C45.0958 24.5431 45.1029 24.5304 45.1101 24.5177C45.511 23.8087 46.3316 22.8375 47.4892 22.2307C48.6283 21.6335 50.1057 21.3806 51.8846 22.0992C52.1216 22.1949 52.3916 22.0841 52.4932 21.8496C52.6696 21.4419 52.9193 20.6488 52.7297 19.8844C52.6375 19.5124 52.4413 19.1499 52.0943 18.8572C52.3369 18.8444 52.5695 18.8398 52.7671 18.8398C53.6175 18.8398 54.1895 19.3868 54.1895 20.1015C54.1895 20.2824 54.2932 20.4474 54.4563 20.5258C54.6193 20.6043 54.8129 20.5824 54.9543 20.4694C55.5771 19.9721 55.9191 19.4631 56.0911 18.906C56.2524 18.3839 56.2523 17.8479 56.2523 17.342V17.3083C56.2524 15.9811 55.5032 15.0543 54.6308 14.4934C53.8352 13.9819 52.8876 13.739 52.1791 13.7566L52.8035 11.8844C53.1361 11.0107 53.2267 10.2304 52.9275 9.63959C52.6051 9.00277 51.9372 8.77343 51.2179 8.77343H51.0939V8.71051C51.0939 7.83368 50.3831 7.12287 49.5063 7.12287C48.6294 7.12287 47.9186 7.83368 47.9186 8.71051V8.77343H47.7447C47.0255 8.77343 46.3576 9.00277 46.0351 9.63959C45.736 10.2304 45.8266 11.0107 46.1592 11.8844L46.7859 13.7635H40.3116C40.1501 13.7635 40 13.8462 39.9136 13.9826C39.8273 14.119 39.8169 14.2901 39.886 14.436C40.325 15.3629 41.1524 15.9668 41.958 16.3311C42.2967 16.4843 42.643 16.6004 42.9729 16.6819C42.585 17.0323 42.1513 17.4762 41.7027 17.9996C40.8247 19.0239 39.8661 20.3797 39.0569 21.998C38.6547 22.8024 38.372 23.701 38.1738 24.6109C37.9755 23.701 37.6928 22.8024 37.2906 21.998C36.4814 20.3797 35.5228 19.0239 34.6448 17.9996C34.1962 17.4762 33.7625 17.0323 33.3747 16.6819C33.7045 16.6004 34.0508 16.4843 34.3895 16.3311C35.1951 15.9668 36.0225 15.3629 36.4615 14.436C36.5306 14.2901 36.5202 14.119 36.4339 13.9826C36.3475 13.8462 36.1974 13.7635 36.0359 13.7635H29.5616L30.1883 11.8844C30.5209 11.0107 30.6115 10.2304 30.3124 9.63959C29.9899 9.00277 29.322 8.77343 28.6028 8.77343H28.4289V8.71051C28.4289 7.83368 27.7181 7.12287 26.8412 7.12287ZM26.1954 8.77343H27.487V8.71051C27.487 8.35383 27.1979 8.0647 26.8412 8.0647C26.4846 8.0647 26.1954 8.35384 26.1954 8.71051V8.77343ZM25.1636 13.7635H28.5687L29.3013 11.5673L29.3049 11.5577C29.6146 10.7479 29.5865 10.291 29.4721 10.0651C29.3799 9.88297 29.1541 9.71526 28.6028 9.71526H25.1296C24.5783 9.71526 24.3524 9.88297 24.2602 10.0651C24.1458 10.291 24.1177 10.7479 24.4274 11.5577L24.431 11.5673L25.1636 13.7635ZM25.8898 19.1891C25.4059 19.2561 25.0981 19.3936 24.9028 19.5431C24.6955 19.7018 24.5852 19.8963 24.532 20.111C24.4569 20.4139 24.4962 20.7575 24.5743 21.0555C26.0042 20.583 27.2834 20.6485 28.3715 21.005C27.5206 20.2317 26.6483 19.6033 25.8898 19.1891ZM32.0575 24.0545C32.062 24.0624 32.0664 24.0703 32.0708 24.0782L32.0831 24.1003C32.7674 25.3325 33.0141 26.9462 33.0428 28.3075C33.0573 28.9947 33.0167 29.6355 32.9414 30.1557C32.9038 30.4156 32.8568 30.6514 32.8014 30.8511C32.78 30.9282 32.756 31.0051 32.7287 31.0792H37.6604C37.6612 30.9736 37.6646 30.8358 37.6688 30.6701L37.6688 30.6698C37.6856 29.9942 37.714 28.8541 37.6231 27.5309C37.5066 25.8347 37.1964 23.9157 36.4482 22.4193C35.6769 20.8767 34.763 19.5846 33.9298 18.6126C33.1568 17.7108 32.4726 17.1069 32.0532 16.8292H27.6279L27.1518 17.306C27.0607 17.3972 26.9362 17.4471 26.8074 17.4441C26.6785 17.441 26.5565 17.3852 26.4699 17.2898L26.0518 16.8292H25.1182C24.8581 16.8292 24.6473 16.6184 24.6473 16.3583C24.6473 16.0982 24.8581 15.8874 25.1182 15.8874H32.1887C32.1943 15.8874 32.1999 15.8875 32.2055 15.8877C32.6087 15.9021 33.3115 15.785 34.0015 15.4729C34.4265 15.2808 34.8221 15.026 35.1354 14.7053H24.2865C24.2731 14.7053 24.2597 14.7048 24.2463 14.7036C23.7541 14.6614 22.9265 14.8353 22.226 15.2857C21.5414 15.7258 21.037 16.3879 21.037 17.3082V17.3087C21.0371 17.8534 21.0408 18.2543 21.1563 18.6281C21.2104 18.8034 21.2921 18.9803 21.4224 19.163C21.7976 18.3762 22.6405 17.898 23.5804 17.898C23.9437 17.898 24.4292 17.9125 24.8974 17.9639C25.3471 18.0133 25.8484 18.1031 26.1992 18.2866C28.0841 19.2725 30.616 21.487 32.0575 24.0545ZM38.1737 32.0191C38.1597 32.0204 38.1455 32.021 38.1311 32.021H30.313V48.6699C30.313 49.2543 30.4407 49.6758 30.6197 49.981C31.0807 50.767 32.0113 50.9602 32.5917 50.9119C32.6047 50.9108 32.6178 50.9102 32.6308 50.9102H35.5067C36.3865 50.9102 37.0852 51.3399 37.5827 51.83C37.8165 52.0604 38.0138 52.3114 38.1738 52.5544C38.3337 52.3114 38.531 52.0604 38.7648 51.83C39.2623 51.3399 39.961 50.9102 40.8408 50.9102H43.7167C43.7297 50.9102 43.7428 50.9108 43.7558 50.9119C44.3362 50.9602 45.2668 50.767 45.7278 49.981C45.9068 49.6758 46.0345 49.2543 46.0345 48.6699V32.021H38.2164C38.202 32.021 38.1878 32.0204 38.1737 32.0191ZM64.8115 55.7478C63.8311 55.7478 62.9352 56.1099 62.2503 56.7085H67.3728C66.6879 56.1099 65.7919 55.7478 64.8115 55.7478ZM68.1585 57.6503H67.5024L66.0972 61.3589H67.3251L68.4081 58.1462C68.3365 57.9744 68.253 57.8087 68.1585 57.6503ZM68.3468 61.2766L68.6147 60.4817C68.5538 60.759 68.4633 61.0251 68.3468 61.2766ZM64.8115 63.5356C65.9337 63.5356 66.9453 63.0611 67.6563 62.3007H61.9667C62.6777 63.0611 63.6894 63.5356 64.8115 63.5356ZM61.8945 61.3589H62.8877L64.1532 57.6503H63.3318L61.8945 61.3589ZM62.3217 57.6503H61.4645C61.1171 58.2328 60.9176 58.9134 60.9176 59.6417C60.9176 60.0498 60.9802 60.4429 61.0964 60.812L62.3217 57.6503ZM65.1484 57.6503L63.8828 61.3589H65.09L66.4953 57.6503H65.1484ZM43.5461 30.8511C43.5675 30.9282 43.5915 31.0051 43.6188 31.0792H38.6871C38.6863 30.9735 38.6829 30.8357 38.6787 30.6698C38.6619 29.9942 38.6335 28.8541 38.7244 27.5309C38.8409 25.8347 39.1511 23.9157 39.8993 22.4193C40.6706 20.8767 41.5845 19.5846 42.4177 18.6126C43.1907 17.7108 43.8749 17.1069 44.2943 16.8292H48.7196L49.1957 17.306C49.2868 17.3972 49.4113 17.4471 49.5401 17.4441C49.669 17.441 49.791 17.3852 49.8776 17.2898L50.2957 16.8292H51.2293C51.4894 16.8292 51.7002 16.6184 51.7002 16.3583C51.7002 16.0982 51.4894 15.8874 51.2293 15.8874H44.1588C44.1532 15.8874 44.1476 15.8875 44.142 15.8877C43.7388 15.9021 43.0361 15.785 42.346 15.4729C41.921 15.2808 41.5255 15.026 41.2121 14.7053H52.061C52.0744 14.7053 52.0878 14.7048 52.1012 14.7036C52.5934 14.6614 53.421 14.8353 54.1215 15.2857C54.8061 15.7258 55.3105 16.3879 55.3105 17.3082V17.3087C55.3104 17.8535 55.3067 18.2542 55.1912 18.6281C55.1371 18.8034 55.0555 18.9803 54.9251 19.163C54.5499 18.3762 53.707 17.898 52.7671 17.898C52.4038 17.898 51.9183 17.9125 51.4501 17.9639C51.0004 18.0133 50.4991 18.1031 50.1484 18.2866C48.2634 19.2724 45.7318 21.4868 44.2902 24.0542C44.7636 23.217 45.7061 22.1021 47.0519 21.3965C47.3421 21.2444 47.6505 21.1117 47.976 21.005C48.8269 20.2317 49.6992 19.6033 50.4578 19.1891C50.9416 19.2561 51.2494 19.3936 51.4447 19.5431C51.6521 19.7018 51.7623 19.8963 51.8156 20.111C51.8906 20.4139 51.8513 20.7575 51.7732 21.0555C50.3433 20.583 49.0641 20.6485 47.976 21.005C46.8937 21.9886 45.846 23.2067 45.1108 24.5164L44.7002 24.2859L44.2895 24.0554L44.29 24.0545C44.2813 24.0699 44.2728 24.0852 44.2644 24.1004C43.5801 25.3325 43.3334 26.9462 43.3047 28.3075C43.2902 28.9947 43.3308 29.6355 43.4061 30.1557C43.4437 30.4156 43.4907 30.6514 43.5461 30.8511ZM51.9165 11.5673L51.9201 11.5577C52.2298 10.7479 52.2017 10.291 52.0873 10.0651C51.9951 9.88297 51.7692 9.71526 51.2179 9.71526H47.7447C47.1934 9.71526 46.9676 9.88297 46.8754 10.0651C46.761 10.291 46.7329 10.7479 47.0426 11.5577L47.0462 11.5673L47.7788 13.7635H51.1839L51.9165 11.5673ZM50.1521 8.77343V8.71051C50.1521 8.35384 49.8629 8.0647 49.5063 8.0647C49.1496 8.0647 48.8605 8.35384 48.8605 8.71051V8.77343H50.1521ZM64.8114 53.3233C64.4019 53.3233 64.07 53.6552 64.07 54.0646C64.07 54.4739 64.402 54.8059 64.8115 54.8059C65.2209 54.8059 65.5527 54.4741 65.5527 54.0646C65.5527 53.6552 65.2208 53.3233 64.8114 53.3233Z" fill="#0EADFF"/>
<path d="M46.0991 18.4227L45.7868 18.0702L45.4745 17.7177L45.4742 17.718L45.4736 17.7185L45.4717 17.7202L45.4651 17.726C45.4595 17.7311 45.4514 17.7383 45.441 17.7478C45.4202 17.7666 45.39 17.7941 45.3514 17.8298C45.2743 17.9011 45.1638 18.0051 45.0277 18.1376C44.7558 18.4024 44.3812 18.782 43.9682 19.2435C43.1473 20.1607 42.1535 21.4245 41.5247 22.7658C40.6737 24.5813 40.3863 26.3083 40.311 27.5805C40.2734 28.2172 40.2887 28.7422 40.3139 29.1107C40.3265 29.295 40.3415 29.4404 40.3537 29.5413C40.3598 29.5918 40.3652 29.6311 40.3692 29.6587C40.3712 29.6725 40.3728 29.6833 40.374 29.6911L40.3755 29.7005L40.3762 29.7046L40.3763 29.705C40.3763 29.705 40.3763 29.7053 40.8408 29.6277L41.3052 29.55L41.3046 29.5458L41.3037 29.5401C41.3031 29.5359 41.3023 29.5305 41.3013 29.5238C41.2983 29.5034 41.2939 29.4713 41.2888 29.4284C41.2784 29.3426 41.2649 29.2135 41.2535 29.0465C41.2307 28.7123 41.2162 28.2277 41.2512 27.6361C41.3213 26.4518 41.589 24.8478 42.3775 23.1656C42.9492 21.9459 43.8733 20.7618 44.67 19.8716C45.0659 19.4293 45.4251 19.0652 45.6848 18.8123C45.8146 18.6859 45.9193 18.5875 45.991 18.5211C46.0269 18.488 46.0545 18.4628 46.0728 18.4462C46.082 18.438 46.0888 18.4318 46.0932 18.4278L46.098 18.4236L46.0991 18.4227Z" fill="#0EADFF"/>
<path d="M30.873 17.7177C30.6783 17.5452 30.3807 17.5632 30.2082 17.7579L30.2485 18.4227L30.2495 18.4236L30.2543 18.4278C30.2587 18.4318 30.2655 18.438 30.2747 18.4462C30.293 18.4628 30.3206 18.488 30.3565 18.5211C30.4282 18.5875 30.5329 18.6859 30.6627 18.8123C30.9224 19.0652 31.2816 19.4293 31.6775 19.8716C32.4742 20.7618 33.3983 21.9459 33.97 23.1656C34.7585 24.8478 35.0263 26.4518 35.0963 27.6361C35.1313 28.2277 35.1168 28.7123 35.094 29.0465C35.0826 29.2135 35.0691 29.3426 35.0587 29.4284C35.0564 29.4479 35.0542 29.4651 35.0522 29.48C35.0499 29.498 35.0478 29.5127 35.0462 29.5238L35.0453 29.5301C35.0442 29.5372 35.0434 29.5424 35.0429 29.5458L35.0423 29.55L35.0422 29.5502L35.0422 29.5505C34.9996 29.8068 35.1727 30.0492 35.429 30.0921C35.6856 30.135 35.9283 29.9619 35.9712 29.7053L35.5067 29.6277C35.9712 29.7053 35.9712 29.705 35.9712 29.705L35.9713 29.7046L35.972 29.7005L35.9735 29.6911C35.9747 29.6833 35.9763 29.6725 35.9783 29.6587C35.9823 29.6311 35.9877 29.5918 35.9938 29.5413C36.006 29.4404 36.021 29.295 36.0336 29.1107C36.0588 28.7422 36.0741 28.2172 36.0365 27.5805C35.9612 26.3083 35.6738 24.5813 34.8228 22.7658C34.194 21.4245 33.2002 20.1607 32.3793 19.2435C31.9663 18.782 31.5917 18.4024 31.3198 18.1376C31.1837 18.0051 31.0732 17.9011 30.9961 17.8298C30.9575 17.7941 30.9274 17.7666 30.9065 17.7478C30.8961 17.7383 30.888 17.7311 30.8824 17.726L30.8758 17.7202L30.8733 17.718L30.873 17.7177Z" fill="#0EADFF"/>
<path fill-rule="evenodd" clip-rule="evenodd" d="M36.338 2.61757C36.338 2.80094 36.365 2.97809 36.4152 3.14521H35.8132C34.8579 3.14521 34.0606 3.51183 33.6924 4.37055C33.3526 5.16303 33.4375 6.25805 33.8675 7.58935L34.9371 11.3767H41.236L42.3056 7.58935C42.7355 6.25805 42.8204 5.16303 42.4807 4.37055C42.1125 3.51183 41.3152 3.14521 40.3598 3.14521H39.928C39.9781 2.97809 40.0051 2.80094 40.0051 2.61757C40.0051 1.60493 39.1842 0.784027 38.1716 0.784027C37.1589 0.784027 36.338 1.60493 36.338 2.61757ZM38.1716 1.72586C37.6791 1.72586 37.2799 2.12509 37.2799 2.61757C37.2799 2.81509 37.3437 2.99728 37.4526 3.14518H38.8906C38.9994 2.99728 39.0633 2.81509 39.0633 2.61757C39.0633 2.12509 38.6641 1.72586 38.1716 1.72586ZM37.251 4.08704H35.8132C35.1052 4.08704 34.7327 4.3343 34.558 4.74169C34.3557 5.21364 34.3538 6.03398 34.7663 7.30779L34.769 7.31628L34.869 7.67052H41.304L41.404 7.31628L41.4068 7.30779C41.8192 6.03398 41.8174 5.21364 41.615 4.74169C41.4404 4.3343 41.0678 4.08704 40.3598 4.08704H39.1291H37.251ZM41.038 8.61235H35.135L35.6497 10.4349H40.5233L41.038 8.61235Z" fill="#0EADFF"/>
<path d="M46.1393 17.7579C45.9668 17.5632 45.6692 17.5452 45.4745 17.7177L45.7868 18.0702L46.0991 18.4227C46.2937 18.2502 46.3117 17.9526 46.1393 17.7579Z" fill="#0EADFF"/>
<path d="M44.7002 24.2859L45.1108 24.5164C45.846 23.2067 46.8937 21.9886 47.976 21.005C47.6505 21.1117 47.3421 21.2444 47.0519 21.3965C45.7061 22.1021 44.7636 23.217 44.2902 24.0542L44.7002 24.2859Z" fill="#0EADFF"/>
<path d="M40.9185 30.0921C41.1749 30.0492 41.348 29.8067 41.3053 29.5502L40.8408 29.6277L40.3763 29.7053C40.4192 29.9619 40.662 30.135 40.9185 30.0921Z" fill="#0EADFF"/>
<path fill-rule="evenodd" clip-rule="evenodd" d="M38.1737 33.6375C38.1597 33.6362 38.1455 33.6356 38.1311 33.6356H32.321C32.0609 33.6356 31.8501 33.8464 31.8501 34.1065V48.9053C31.8501 49.1654 32.0609 49.3763 32.321 49.3763H35.5067C36.4824 49.3763 37.0283 49.6699 37.3236 49.921C37.4752 50.0499 37.5704 50.1759 37.6259 50.2643C37.6537 50.3085 37.6713 50.3431 37.681 50.3635C37.6858 50.3737 37.6885 50.3803 37.6895 50.3826L37.688 50.3786L37.6876 50.3775L37.6874 50.3769C37.6874 50.3769 37.6873 50.3766 37.7638 50.3494L37.6895 50.3826C37.7648 50.5861 37.9665 50.7073 38.1738 50.6883C38.381 50.7073 38.5827 50.5862 38.658 50.3827L38.5837 50.3494C38.6602 50.3766 38.6601 50.3769 38.6601 50.3769L38.6599 50.3775L38.6595 50.3786L38.658 50.3827C38.659 50.3804 38.6617 50.3737 38.6665 50.3635C38.6762 50.3431 38.6938 50.3085 38.7216 50.2643C38.7771 50.1759 38.8724 50.0499 39.0239 49.921C39.3192 49.6699 39.8651 49.3763 40.8408 49.3763H44.0265C44.2866 49.3763 44.4974 49.1654 44.4974 48.9053V34.1065C44.4974 33.8464 44.2866 33.6356 44.0265 33.6356H38.2164C38.202 33.6356 38.1878 33.6362 38.1737 33.6375ZM32.7919 34.5774V48.4344H35.5067C36.6903 48.4344 37.4566 48.7977 37.9338 49.2035C38.0253 49.2814 38.1049 49.3597 38.1738 49.4356C38.2426 49.3597 38.3222 49.2814 38.4137 49.2035C38.8909 48.7977 39.6572 48.4344 40.8408 48.4344H43.5556V34.5774H38.2164C38.202 34.5774 38.1878 34.5767 38.1737 34.5755C38.1597 34.5767 38.1455 34.5774 38.1311 34.5774H32.7919Z" fill="#0EADFF"/>
<path d="M54.9983 35.2547C54.8171 35.0682 54.5189 35.0638 54.3324 35.245C54.1458 35.4262 54.1414 35.7244 54.3227 35.9109L63.0109 44.8561C62.945 44.9158 62.8587 44.9831 62.7482 45.0539C62.4215 45.2633 61.893 45.4966 61.0843 45.6544C60.829 45.7042 60.6625 45.9515 60.7123 46.2068C60.7621 46.4621 61.0094 46.6286 61.2647 46.5788C62.1665 46.4028 62.8113 46.1321 63.2563 45.8469C63.6855 45.5719 63.9681 45.257 64.0695 44.9697C64.129 44.801 64.0879 44.6131 63.9632 44.4848L54.9983 35.2547Z" fill="#0EADFF"/>
<path d="M53.8179 36.5044C53.6933 36.2761 53.4072 36.1921 53.1789 36.3167C52.9506 36.4413 52.8666 36.7274 52.9912 36.9557L58.6514 47.3243C58.5846 47.3477 58.5073 47.3719 58.4188 47.3957C58.0585 47.4926 57.5394 47.5751 56.8463 47.5751C56.5862 47.5751 56.3753 47.786 56.3753 48.0461C56.3753 48.3061 56.5862 48.517 56.8463 48.517C57.6132 48.517 58.2153 48.4257 58.6633 48.3053C59.0971 48.1887 59.4194 48.0357 59.5987 47.8864C59.7714 47.7424 59.8183 47.4963 59.7105 47.2989L53.8179 36.5044Z" fill="#0EADFF"/>
<path d="M52.2408 37.5915C52.1693 37.3414 51.9087 37.1966 51.6586 37.2681C51.4085 37.3395 51.2637 37.6002 51.3352 37.8502L53.257 44.5772C53.3284 44.8273 53.589 44.9721 53.8391 44.9007C54.0892 44.8292 54.234 44.5686 54.1625 44.3185L52.2408 37.5915Z" fill="#0EADFF"/>
<path d="M55.8601 33.7041C55.6379 33.569 55.3482 33.6396 55.2131 33.8619C55.078 34.0841 55.1487 34.3738 55.3709 34.5089L66.537 41.2963C66.1738 41.7171 65.5423 42.2832 64.7096 42.5997C64.4665 42.6922 64.3444 42.9641 64.4368 43.2073C64.5292 43.4504 64.8012 43.5725 65.0443 43.4801C66.4156 42.9588 67.3242 41.9021 67.6256 41.4078C67.6907 41.3011 67.7107 41.1728 67.6812 41.0514C67.6517 40.9299 67.575 40.8251 67.4682 40.7602L55.8601 33.7041Z" fill="#0EADFF"/>
<path d="M56.1528 31.979C55.9021 31.9097 55.6427 32.0567 55.5734 32.3074C55.5042 32.5581 55.6512 32.8175 55.9019 32.8867L69.4857 36.6414C69.1115 37.2363 68.567 38.0266 68.0948 38.4989C67.9109 38.6828 67.9109 38.9809 68.0948 39.1648C68.2788 39.3487 68.5769 39.3487 68.7608 39.1648C69.4899 38.4356 70.306 37.1333 70.6185 36.5866C70.6906 36.4604 70.7004 36.3079 70.645 36.1735C70.5896 36.0391 70.4752 35.9378 70.3351 35.899L56.1528 31.979Z" fill="#0EADFF"/>
<path d="M56.0273 30.2271C55.7673 30.2271 55.5564 30.4379 55.5564 30.698C55.5564 30.9581 55.7673 31.1689 56.0273 31.1689H71.0718C71.0265 31.4229 70.954 31.736 70.8448 32.0686C70.6429 32.6838 70.3305 33.3196 69.8766 33.7735C69.6927 33.9574 69.6927 34.2555 69.8766 34.4394C70.0605 34.6234 70.3587 34.6234 70.5426 34.4395C71.1423 33.8398 71.5142 33.0491 71.7397 32.3623C71.9657 31.6737 72.0594 31.0429 72.0744 30.7199C72.0804 30.5913 72.0335 30.4659 71.9447 30.3728C71.8558 30.2798 71.7327 30.2271 71.604 30.2271H56.0273Z" fill="#0EADFF"/>
<path d="M72.0673 24.8035C72.0437 24.6746 71.9676 24.5614 71.8572 24.491C71.7467 24.4206 71.612 24.3994 71.4852 24.4324L55.4967 28.6004C55.2451 28.666 55.0942 28.9232 55.1598 29.1748C55.2255 29.4265 55.4827 29.5773 55.7343 29.5117L71.2105 25.4774C71.246 25.8282 71.2642 26.2483 71.2385 26.6679C71.1973 27.3394 71.0488 27.9067 70.7796 28.2248C70.6116 28.4234 70.6364 28.7205 70.835 28.8885C71.0335 29.0565 71.3307 29.0317 71.4986 28.8331C71.9731 28.2724 72.1345 27.4429 72.1785 26.7256C72.2239 25.9872 72.1504 25.2582 72.0673 24.8035Z" fill="#0EADFF"/>
<path d="M70.3516 18.571C70.3107 18.4321 70.2082 18.3197 70.0737 18.2662C69.9391 18.2127 69.7874 18.2241 69.6624 18.2971L54.4231 27.1927C54.1984 27.3238 54.1226 27.6122 54.2538 27.8368C54.3849 28.0614 54.6732 28.1372 54.8979 28.0061L69.5912 19.4292C69.764 20.2779 69.9263 21.6271 69.7435 22.8987C69.7065 23.1561 69.8852 23.3948 70.1426 23.4318C70.4 23.4688 70.6387 23.2901 70.6757 23.0327C70.9363 21.2208 70.57 19.3139 70.3516 18.571Z" fill="#0EADFF"/>
<path d="M32.7919 55.903C32.7919 55.6429 32.5811 55.4321 32.321 55.4321C32.0609 55.4321 31.8501 55.6429 31.8501 55.903C31.8501 57.4699 31.1347 58.4247 30.2415 59.0603C29.3847 59.6701 28.3754 59.9787 27.637 60.2045C27.587 60.2198 27.5382 60.2347 27.4909 60.2493L19.9984 62.0788C19.8566 62.1135 19.7388 62.2119 19.6796 62.3454C19.6204 62.4788 19.6265 62.6322 19.696 62.7606C20.1684 63.6326 20.9306 64.1285 21.669 64.39C22.4012 64.6492 23.1408 64.6902 23.6368 64.6304C23.895 64.5993 24.0791 64.3647 24.048 64.1065C24.0168 63.8483 23.7823 63.6642 23.5241 63.6953C23.1636 63.7388 22.5709 63.7102 21.9834 63.5022C21.5873 63.3619 21.2083 63.1459 20.9015 62.8278L27.7279 61.1609C27.7322 61.1598 27.7365 61.1587 27.7408 61.1575C27.7456 61.1562 27.7503 61.1549 27.755 61.1534C27.8083 61.137 27.8647 61.1198 27.9239 61.1018C28.6513 60.8803 29.7998 60.5306 30.7876 59.8276C31.8828 59.0482 32.7919 57.8273 32.7919 55.903Z" fill="#0EADFF"/>
<path d="M31.671 53.0018C30.5421 53.0018 29.6438 53.7304 29.0755 54.538C28.5137 55.3364 28.1767 56.3493 28.292 57.1069C28.3312 57.3641 28.5713 57.5408 28.8284 57.5017C29.0856 57.4625 29.2623 57.2224 29.2231 56.9653C29.1577 56.5351 29.3629 55.7663 29.8458 55.08C30.3223 54.4028 30.971 53.9436 31.671 53.9436C32.4965 53.9436 33.1274 54.0602 33.6086 54.2935C34.0774 54.5207 34.432 54.8721 34.6901 55.4024C35.2286 56.5088 35.3437 58.3787 35.0382 61.4043C34.5666 66.0756 31.6467 69.2907 30.2824 70.29C30.1772 70.3671 30.1086 70.4845 30.0931 70.614C30.0776 70.7436 30.1166 70.8737 30.2007 70.9735C30.4792 71.3039 30.994 71.5575 31.5714 71.687C32.1688 71.821 32.9013 71.8387 33.6731 71.6319C34.1992 71.4909 34.7516 71.103 35.1869 70.7258C35.6284 70.3431 36.0226 69.9066 36.2189 69.5953C36.3576 69.3753 36.2917 69.0845 36.0717 68.9458C35.8517 68.8071 35.5609 68.873 35.4222 69.093C35.2928 69.2981 34.972 69.6656 34.57 70.0141C34.1617 70.3679 33.7423 70.6383 33.4293 70.7222C32.8136 70.8872 32.2359 70.8708 31.7775 70.768C31.6127 70.7311 31.4707 70.6848 31.3515 70.6356C32.9724 69.2137 35.5223 65.985 35.9753 61.4989C36.2798 58.4823 36.2049 56.3627 35.537 54.9902C35.1919 54.2811 34.6891 53.7706 34.0195 53.446C33.3622 53.1273 32.5735 53.0018 31.671 53.0018Z" fill="#0EADFF"/>
<path d="M41.3093 61.4043C41.0038 58.3787 41.1189 56.5088 41.6574 55.4024C41.9155 54.8721 42.2701 54.5207 42.7389 54.2935C43.2201 54.0602 43.8511 53.9436 44.6765 53.9436C45.3765 53.9436 46.0252 54.4028 46.5017 55.08C46.9846 55.7663 47.1898 56.5351 47.1244 56.9653C47.0852 57.2224 47.262 57.4625 47.5191 57.5017C47.7762 57.5408 48.0163 57.3641 48.0555 57.1069C48.1708 56.3493 47.8338 55.3364 47.272 54.538C46.7037 53.7304 45.8054 53.0018 44.6765 53.0018C43.774 53.0018 42.9853 53.1273 42.328 53.446C41.6584 53.7706 41.1557 54.2811 40.8105 54.9902C40.1426 56.3627 40.0677 58.4823 40.3723 61.4989C40.8252 65.985 43.3751 69.2137 44.996 70.6356C44.8768 70.6848 44.7348 70.7311 44.57 70.768C44.1116 70.8708 43.5339 70.8872 42.9182 70.7222C42.6052 70.6383 42.1858 70.3679 41.7775 70.0141C41.3756 69.6656 41.0547 69.2981 40.9253 69.093C40.7866 68.873 40.4958 68.8071 40.2758 68.9458C40.0558 69.0845 39.9899 69.3753 40.1287 69.5953C40.3249 69.9066 40.7192 70.3431 41.1606 70.7258C41.5959 71.103 42.1483 71.4909 42.6744 71.6319C43.4462 71.8387 44.1787 71.821 44.7761 71.687C45.3536 71.5575 45.8683 71.3039 46.1468 70.9735C46.2309 70.8737 46.2699 70.7436 46.2544 70.614C46.2389 70.4845 46.1703 70.3671 46.0651 70.29C44.7008 69.2907 41.7809 66.0756 41.3093 61.4043Z" fill="#0EADFF"/>
<path d="M44.1864 60.9711C44.045 60.7528 43.7534 60.6905 43.5351 60.8318C43.3168 60.9732 43.2544 61.2648 43.3958 61.4831C43.7635 62.0509 44.4636 62.733 45.301 63.3874C46.1477 64.049 47.1709 64.7104 48.2171 65.2277C49.265 65.7458 50.1459 66.0357 50.8361 66.2253C51.109 66.3003 51.3539 66.3601 51.5609 66.4106C51.6092 66.4224 51.6554 66.4337 51.6995 66.4445C51.1232 67.2048 49.6884 68.189 47.2769 67.8035C47.0201 67.7624 46.7786 67.9374 46.7376 68.1942C46.6965 68.451 46.8714 68.6925 47.1283 68.7335C50.4482 69.2642 52.4114 67.5147 52.8404 66.3172C52.9253 66.0804 52.8089 65.8187 52.5763 65.7229C52.3973 65.6493 52.1709 65.5908 51.9366 65.533C51.8854 65.5203 51.8327 65.5074 51.7784 65.4942C51.5724 65.4439 51.344 65.3882 51.0857 65.3172C50.4389 65.1394 49.6167 64.8691 48.6346 64.3835C47.6508 63.897 46.6816 63.271 45.8809 62.6453C45.0709 62.0123 44.4686 61.407 44.1864 60.9711Z" fill="#0EADFF"/>
<path d="M44.0265 55.4321C43.7664 55.4321 43.5556 55.6429 43.5556 55.903C43.5556 57.8273 44.4647 59.0482 45.5599 59.8276C46.5477 60.5306 47.6962 60.8803 48.4236 61.1018C48.4828 61.1198 48.5392 61.137 48.5925 61.1534C48.6014 61.1562 48.6105 61.1587 48.6196 61.1609L55.4461 62.8278C55.1393 63.1459 54.7602 63.3619 54.3641 63.5022C53.7766 63.7102 53.1839 63.7388 52.8234 63.6953C52.5652 63.6642 52.3307 63.8483 52.2995 64.1065C52.2684 64.3647 52.4525 64.5993 52.7107 64.6304C53.2067 64.6902 53.9463 64.6492 54.6785 64.39C55.4169 64.1285 56.1792 63.6326 56.6515 62.7606C56.721 62.6322 56.7271 62.4788 56.6679 62.3454C56.6087 62.2119 56.4909 62.1135 56.3491 62.0788L48.8566 60.2493C48.8093 60.2347 48.7605 60.2198 48.7105 60.2045C47.9721 59.9787 46.9628 59.6701 46.106 59.0603C45.2128 58.4247 44.4974 57.4699 44.4974 55.903C44.4974 55.6429 44.2866 55.4321 44.0265 55.4321Z" fill="#0EADFF"/>
<path fill-rule="evenodd" clip-rule="evenodd" d="M3.16879 41.7726C1.69486 41.7726 0.5 42.9674 0.5 44.4414C0.5 45.9153 1.69486 47.1102 3.16879 47.1102C3.7207 47.1102 4.23347 46.9426 4.65904 46.6557L13.6518 55.6483L14.3177 54.9824L5.33537 46C5.65141 45.5615 5.83759 45.0232 5.83759 44.4414C5.83759 42.9674 4.64273 41.7726 3.16879 41.7726ZM3.16879 42.7144C2.21502 42.7144 1.44183 43.4876 1.44183 44.4414C1.44183 45.3952 2.21502 46.1683 3.16879 46.1683C4.12257 46.1683 4.89576 45.3952 4.89576 44.4414C4.89576 43.4876 4.12257 42.7144 3.16879 42.7144Z" fill="#0EADFF"/>
<path d="M23.3563 36.9557C23.4809 36.7274 23.3969 36.4413 23.1686 36.3167C22.9403 36.1921 22.6543 36.2761 22.5296 36.5044L16.637 47.2989C16.5292 47.4963 16.5761 47.7424 16.7488 47.8864C16.9281 48.0357 17.2504 48.1887 17.6842 48.3053C18.1322 48.4257 18.7343 48.517 19.5012 48.517C19.7613 48.517 19.9722 48.3061 19.9722 48.0461C19.9722 47.786 19.7613 47.5751 19.5012 47.5751C18.8081 47.5751 18.289 47.4926 17.9287 47.3957C17.8402 47.3719 17.7629 47.3477 17.6961 47.3243L23.3563 36.9557Z" fill="#0EADFF"/>
<path d="M25.0123 37.8502C25.0838 37.6002 24.939 37.3395 24.6889 37.2681C24.4388 37.1966 24.1782 37.3414 24.1067 37.5915L22.185 44.3185C22.1135 44.5686 22.2583 44.8292 22.5084 44.9007C22.7585 44.9721 23.0191 44.8273 23.0906 44.5772L25.0123 37.8502Z" fill="#0EADFF"/>
<path d="M22.0249 35.9109C22.2061 35.7244 22.2017 35.4262 22.0152 35.245C21.8286 35.0638 21.5305 35.0682 21.3493 35.2547L12.3843 44.4848C12.2596 44.6131 12.2185 44.801 12.278 44.9697C12.3794 45.257 12.662 45.5719 13.0912 45.8469C13.5362 46.1321 14.1811 46.4028 15.0828 46.5788C15.3381 46.6286 15.5854 46.4621 15.6352 46.2068C15.685 45.9515 15.5185 45.7042 15.2632 45.6544C14.4545 45.4966 13.926 45.2633 13.5993 45.0539C13.4888 44.9831 13.4025 44.9158 13.3366 44.8561L22.0249 35.9109Z" fill="#0EADFF"/>
<path d="M20.9766 34.5089C21.1988 34.3738 21.2695 34.0841 21.1344 33.8619C20.9993 33.6396 20.7096 33.569 20.4874 33.7041L8.8793 40.7602C8.77247 40.8251 8.69585 40.9299 8.66631 41.0514C8.63678 41.1728 8.65677 41.3011 8.72186 41.4078C9.02333 41.9021 9.93192 42.9588 11.3032 43.4801C11.5463 43.5725 11.8183 43.4504 11.9107 43.2073C12.0031 42.9641 11.881 42.6922 11.6379 42.5997C10.8052 42.2832 10.1737 41.7171 9.81049 41.2963L20.9766 34.5089Z" fill="#0EADFF"/>
<path d="M20.4456 32.8867C20.6963 32.8175 20.8434 32.5581 20.7741 32.3074C20.7048 32.0567 20.4454 31.9097 20.1947 31.979L6.01244 35.899C5.8723 35.9378 5.75791 36.0391 5.70251 36.1735C5.64711 36.3079 5.6569 36.4604 5.72905 36.5866C6.04149 37.1333 6.85756 38.4356 7.58668 39.1648C7.77057 39.3487 8.06874 39.3487 8.25265 39.1648C8.43657 38.9809 8.43659 38.6828 8.2527 38.4989C7.78049 38.0266 7.23597 37.2363 6.86176 36.6414L20.4456 32.8867Z" fill="#0EADFF"/>
<path d="M4.74348 30.2271C4.61479 30.2271 4.49171 30.2798 4.40285 30.3728C4.31399 30.4659 4.2671 30.5913 4.27307 30.7199C4.28808 31.0429 4.38179 31.6737 4.60783 32.3623C4.83326 33.0491 5.20524 33.8398 5.80492 34.4395C5.98883 34.6234 6.287 34.6234 6.4709 34.4394C6.65479 34.2555 6.65478 33.9574 6.47087 33.7735C6.01695 33.3196 5.70462 32.6838 5.50269 32.0686C5.3935 31.736 5.32097 31.4229 5.27573 31.1689H20.3202C20.5802 31.1689 20.7911 30.9581 20.7911 30.698C20.7911 30.4379 20.5802 30.2271 20.3202 30.2271H4.74348Z" fill="#0EADFF"/>
<path d="M4.86227 24.4324C4.73554 24.3994 4.60078 24.4206 4.49035 24.491C4.37991 24.5614 4.30378 24.6746 4.28024 24.8035C4.19712 25.2582 4.12363 25.9872 4.16896 26.7256C4.21299 27.4429 4.37441 28.2724 4.84886 28.8331C5.01685 29.0317 5.31398 29.0565 5.51253 28.8885C5.71108 28.7205 5.73587 28.4234 5.56788 28.2248C5.29872 27.9067 5.15025 27.3394 5.10902 26.6679C5.08326 26.2483 5.10152 25.8282 5.13699 25.4774L20.6132 29.5117C20.8649 29.5773 21.1221 29.4265 21.1877 29.1748C21.2533 28.9232 21.1024 28.666 20.8508 28.6004L4.86227 24.4324Z" fill="#0EADFF"/>
<path d="M6.68513 18.2971C6.56008 18.2241 6.4084 18.2127 6.27384 18.2662C6.13928 18.3197 6.0368 18.4321 5.99595 18.571C5.77747 19.3139 5.41124 21.2208 5.67177 23.0327C5.70879 23.2901 5.94748 23.4688 6.20492 23.4318C6.46235 23.3948 6.64103 23.1561 6.60402 22.8987C6.42119 21.6271 6.58354 20.2779 6.75632 19.4292L21.4497 28.0061C21.6743 28.1372 21.9626 28.0614 22.0938 27.8368C22.2249 27.6122 22.1491 27.3238 21.9245 27.1927L6.68513 18.2971Z" fill="#0EADFF"/>
<path d="M16.8242 56.4646C17.0756 56.3978 17.2252 56.1399 17.1585 55.8885C17.0917 55.6372 16.8338 55.4875 16.5824 55.5543L12.8807 56.5376C12.6293 56.6043 12.4796 56.8622 12.5464 57.1136C12.6132 57.365 12.8711 57.5146 13.1224 57.4478L16.8242 56.4646Z" fill="#0EADFF"/>
<path d="M18.2124 57.7949C18.4637 57.7281 18.6134 57.4702 18.5466 57.2188C18.4799 56.9675 18.222 56.8178 17.9706 56.8846L14.2688 57.8679C14.0174 57.9347 13.8678 58.1926 13.9346 58.4439C14.0013 58.6953 14.2592 58.8449 14.5106 58.7781L18.2124 57.7949Z" fill="#0EADFF"/>
<path d="M32.9517 61.4831C33.0931 61.2648 33.0307 60.9732 32.8124 60.8318C32.5941 60.6905 32.3025 60.7528 32.1611 60.9711C31.8789 61.407 31.2766 62.0123 30.4666 62.6453C29.6659 63.271 28.6967 63.897 27.7129 64.3835C26.7308 64.8691 25.9086 65.1394 25.2618 65.3172C25.0035 65.3882 24.775 65.4439 24.5691 65.4942C24.5148 65.5074 24.4621 65.5203 24.4109 65.533C24.1766 65.5908 23.9502 65.6493 23.7712 65.7229C23.5386 65.8187 23.4222 66.0804 23.5071 66.3172C23.9361 67.5147 25.8994 69.2642 29.2192 68.7335C29.4761 68.6925 29.651 68.451 29.6099 68.1942C29.5689 67.9374 29.3274 67.7624 29.0706 67.8035C26.6591 68.189 25.2243 67.2048 24.648 66.4445C24.6899 66.4342 24.7338 66.4235 24.7795 66.4123L24.7866 66.4106L24.7871 66.4105C24.994 66.36 25.2387 66.3003 25.5114 66.2253C26.2016 66.0357 27.0825 65.7458 28.1304 65.2277C29.1766 64.7104 30.1999 64.049 31.0465 63.3874C31.8839 62.733 32.584 62.0509 32.9517 61.4831Z" fill="#0EADFF"/>
<path d="M32.0708 24.0782C32.0664 24.0703 32.062 24.0624 32.0575 24.0545C30.616 21.487 28.0841 19.2725 26.1992 18.2866C25.8484 18.1031 25.3471 18.0133 24.8974 17.9639C24.4292 17.9125 23.9437 17.898 23.5804 17.898C22.6405 17.898 21.7976 18.3762 21.4224 19.163C21.2921 18.9803 21.2104 18.8034 21.1563 18.6281C21.0408 18.2543 21.0371 17.8534 21.037 17.3087V17.3082C21.037 16.3879 21.5414 15.7258 22.226 15.2857C22.9265 14.8353 23.7541 14.6614 24.2463 14.7036C24.2597 14.7048 24.2731 14.7053 24.2865 14.7053H35.1354C34.8221 15.026 34.4265 15.2808 34.0015 15.4729C33.3115 15.785 32.6087 15.9021 32.2055 15.8877C32.1999 15.8875 32.1943 15.8874 32.1887 15.8874H25.1182C24.8581 15.8874 24.6473 16.0982 24.6473 16.3583C24.6473 16.6184 24.8581 16.8292 25.1182 16.8292H26.0518L26.4699 17.2898C26.5565 17.3852 26.6785 17.441 26.8074 17.4441C26.9362 17.4471 27.0607 17.3972 27.1518 17.306L27.6279 16.8292H32.0532C32.4726 17.1069 33.1568 17.7108 33.9298 18.6126C34.763 19.5846 35.6769 20.8767 36.4482 22.4193C37.1964 23.9157 37.5066 25.8347 37.6231 27.5309C37.714 28.8541 37.6856 29.9942 37.6688 30.6698L37.6687 30.6701C37.6646 30.8358 37.6612 30.9736 37.6604 31.0792H32.7287C32.756 31.0051 32.78 30.9282 32.8014 30.8511C32.8568 30.6514 32.9038 30.4156 32.9414 30.1557C33.0167 29.6355 33.0573 28.9947 33.0428 28.3075C33.0141 26.9462 32.7674 25.3325 32.0831 24.1003M32.0708 24.0782C32.0749 24.0856 32.079 24.093 32.0831 24.1003M32.0708 24.0782L32.0831 24.1003M44.2644 24.1004C43.5801 25.3325 43.3334 26.9462 43.3047 28.3075C43.2902 28.9947 43.3308 29.6355 43.4061 30.1557C43.4437 30.4156 43.4907 30.6514 43.5461 30.8511C43.5675 30.9282 43.5915 31.0051 43.6188 31.0792H38.6871C38.6863 30.9735 38.6829 30.8357 38.6787 30.6698C38.6619 29.9942 38.6335 28.8541 38.7244 27.5309C38.8409 25.8347 39.1511 23.9157 39.8993 22.4193C40.6706 20.8767 41.5845 19.5846 42.4177 18.6126C43.1907 17.7108 43.8749 17.1069 44.2943 16.8292H48.7196L49.1957 17.306C49.2868 17.3972 49.4113 17.4471 49.5401 17.4441C49.669 17.441 49.791 17.3852 49.8776 17.2898L50.2957 16.8292H51.2293C51.4894 16.8292 51.7002 16.6184 51.7002 16.3583C51.7002 16.0982 51.4894 15.8874 51.2293 15.8874H44.1588C44.1532 15.8874 44.1476 15.8875 44.142 15.8877C43.7388 15.9021 43.0361 15.785 42.346 15.4729C41.921 15.2808 41.5255 15.026 41.2121 14.7053H52.061C52.0744 14.7053 52.0878 14.7048 52.1012 14.7036C52.5934 14.6614 53.421 14.8353 54.1215 15.2857C54.8061 15.7258 55.3105 16.3879 55.3105 17.3082V17.3087C55.3104 17.8535 55.3067 18.2542 55.1912 18.6281C55.1371 18.8034 55.0555 18.9803 54.9251 19.163C54.5499 18.3762 53.707 17.898 52.7671 17.898C52.4038 17.898 51.9183 17.9125 51.4501 17.9639C51.0004 18.0133 50.4991 18.1031 50.1484 18.2866M44.2644 24.1004L44.2641 24.101M44.2644 24.1004C44.2728 24.0852 44.2813 24.0699 44.29 24.0545M44.29 24.0545L44.2895 24.0554L44.7002 24.2859M44.29 24.0545L44.2902 24.0542M44.29 24.0545C45.7315 21.487 48.2634 19.2725 50.1484 18.2866M44.7002 24.2859L45.1108 24.5164C45.846 23.2067 46.8937 21.9886 47.976 21.005M44.7002 24.2859L44.2902 24.0542M47.976 21.005C49.0641 20.6485 50.3433 20.583 51.7732 21.0555M47.976 21.005C48.8269 20.2317 49.6992 19.6033 50.4578 19.1891C50.9416 19.2561 51.2494 19.3936 51.4447 19.5431C51.6521 19.7018 51.7623 19.8963 51.8156 20.111C51.8906 20.4139 51.8513 20.7575 51.7732 21.0555M47.976 21.005C47.6505 21.1117 47.3421 21.2444 47.0519 21.3965C45.7061 22.1021 44.7636 23.217 44.2902 24.0542M51.7732 21.0555C51.7321 21.2123 51.8247 20.9365 51.7732 21.0555ZM44.2902 24.0542C45.7318 21.4868 48.2634 19.2724 50.1484 18.2866M30.873 17.7177C30.6783 17.5452 30.3807 17.5632 30.2082 17.7579M30.873 17.7177L30.5607 18.0702C30.873 17.7177 30.873 17.7177 30.873 17.7177ZM30.873 17.7177L30.8733 17.718L30.8758 17.7202L30.8824 17.726C30.888 17.7311 30.8961 17.7383 30.9065 17.7478C30.9274 17.7666 30.9575 17.7941 30.9961 17.8298C31.0732 17.9011 31.1837 18.0051 31.3198 18.1376C31.5917 18.4024 31.9663 18.782 32.3793 19.2435C33.2002 20.1607 34.194 21.4245 34.8228 22.7658C35.6738 24.5813 35.9612 26.3083 36.0365 27.5805C36.0741 28.2172 36.0588 28.7422 36.0336 29.1107C36.021 29.295 36.006 29.4404 35.9938 29.5413C35.9877 29.5918 35.9823 29.6311 35.9783 29.6587C35.9763 29.6725 35.9747 29.6833 35.9735 29.6911L35.972 29.7005L35.9713 29.7046L35.9712 29.705C35.9712 29.705 35.9712 29.7053 35.5067 29.6277L35.9712 29.7053C35.9283 29.9619 35.6856 30.135 35.429 30.0921C35.1727 30.0492 34.9996 29.8068 35.0422 29.5505L35.0422 29.5502L35.0423 29.55L35.0429 29.5458C35.0434 29.5424 35.0442 29.5372 35.0453 29.5301M30.2082 17.7579L30.2485 18.4227M30.2082 17.7579C30.0358 17.9525 30.0539 18.2502 30.2485 18.4227M35.0462 29.5238C35.0478 29.5127 35.0499 29.498 35.0522 29.48C35.0542 29.4651 35.0564 29.4479 35.0587 29.4284C35.0691 29.3426 35.0826 29.2135 35.094 29.0465C35.1168 28.7123 35.1313 28.2277 35.0963 27.6361C35.0263 26.4518 34.7585 24.8478 33.97 23.1656C33.3983 21.9459 32.4742 20.7618 31.6775 19.8716C31.2816 19.4293 30.9224 19.0652 30.6627 18.8123C30.5329 18.6859 30.4282 18.5875 30.3565 18.5211C30.3206 18.488 30.293 18.4628 30.2747 18.4462C30.2655 18.438 30.2587 18.4318 30.2543 18.4278L30.2495 18.4236L30.2485 18.4227M35.0462 29.5238L35.0453 29.5301M35.0462 29.5238C35.0459 29.5261 35.0456 29.5282 35.0453 29.5301M45.4745 17.7177C45.6692 17.5452 45.9668 17.5632 46.1393 17.7579C46.3117 17.9526 46.2937 18.2502 46.0991 18.4227M45.4745 17.7177L45.4742 17.718L45.4736 17.7185L45.4717 17.7202L45.4651 17.726C45.4595 17.7311 45.4514 17.7383 45.441 17.7478C45.4202 17.7666 45.39 17.7941 45.3514 17.8298C45.2743 17.9011 45.1638 18.0051 45.0277 18.1376C44.7558 18.4024 44.3812 18.782 43.9682 19.2435C43.1473 20.1607 42.1535 21.4245 41.5247 22.7658C40.6737 24.5813 40.3863 26.3083 40.311 27.5805C40.2734 28.2172 40.2887 28.7422 40.3139 29.1107C40.3265 29.295 40.3415 29.4404 40.3537 29.5413C40.3598 29.5918 40.3652 29.6311 40.3692 29.6587C40.3712 29.6725 40.3728 29.6833 40.374 29.6911L40.3755 29.7005L40.3762 29.7046L40.3763 29.705C40.3763 29.705 40.3763 29.7053 40.8408 29.6277M45.4745 17.7177C45.4745 17.7177 45.4745 17.7177 45.7868 18.0702M45.4745 17.7177L45.7868 18.0702M46.0991 18.4227L45.7868 18.0702M46.0991 18.4227C46.0991 18.4227 46.0991 18.4227 45.7868 18.0702M46.0991 18.4227L46.098 18.4236L46.0932 18.4278C46.0888 18.4318 46.082 18.438 46.0728 18.4462C46.0545 18.4628 46.0269 18.488 45.991 18.5211C45.9193 18.5875 45.8146 18.6859 45.6848 18.8123C45.4251 19.0652 45.0659 19.4293 44.67 19.8716C43.8733 20.7618 42.9492 21.9459 42.3775 23.1656C41.589 24.8478 41.3213 26.4518 41.2512 27.6361C41.2162 28.2277 41.2307 28.7123 41.2535 29.0465C41.2649 29.2135 41.2784 29.3426 41.2888 29.4284C41.2939 29.4713 41.2983 29.5034 41.3013 29.5238C41.3023 29.5305 41.3031 29.5359 41.3037 29.5401M41.3046 29.5458L41.3052 29.55M41.3046 29.5458L41.3037 29.5401M41.3046 29.5458C41.3044 29.5443 41.3041 29.5424 41.3037 29.5401M41.3052 29.55L40.8408 29.6277M41.3052 29.55L41.3053 29.5502M40.8408 29.6277L40.3763 29.7053C40.4192 29.9619 40.662 30.135 40.9185 30.0921C41.1749 30.0492 41.348 29.8067 41.3053 29.5502M40.8408 29.6277L41.3053 29.5502M37.6895 50.3826C37.6885 50.3803 37.6858 50.3737 37.681 50.3635C37.6713 50.3431 37.6537 50.3085 37.6259 50.2643C37.5704 50.1759 37.4752 50.0499 37.3236 49.921C37.0283 49.6699 36.4824 49.3763 35.5067 49.3763H32.321C32.0609 49.3763 31.8501 49.1654 31.8501 48.9053V34.1065C31.8501 33.8464 32.0609 33.6356 32.321 33.6356H38.1311C38.1455 33.6356 38.1597 33.6362 38.1737 33.6375C38.1878 33.6362 38.202 33.6356 38.2164 33.6356H44.0265C44.2866 33.6356 44.4974 33.8464 44.4974 34.1065V48.9053C44.4974 49.1654 44.2866 49.3763 44.0265 49.3763H40.8408C39.8651 49.3763 39.3192 49.6699 39.0239 49.921C38.8724 50.0499 38.7771 50.1759 38.7216 50.2643C38.6938 50.3085 38.6762 50.3431 38.6665 50.3635C38.6617 50.3737 38.659 50.3804 38.658 50.3827M37.6895 50.3826C37.7648 50.5861 37.9665 50.7073 38.1738 50.6883C38.381 50.7073 38.5827 50.5862 38.658 50.3827M37.6895 50.3826L37.7638 50.3494C37.6873 50.3766 37.6874 50.3769 37.6874 50.3769L37.6876 50.3775L37.688 50.3786L37.6895 50.3826ZM38.658 50.3827L38.5837 50.3494C38.6602 50.3766 38.6601 50.3769 38.6601 50.3769L38.6599 50.3775L38.6595 50.3786L38.658 50.3827ZM24.7866 66.4106L24.7795 66.4123M24.7866 66.4106L24.7871 66.4105C24.994 66.36 25.2387 66.3003 25.5114 66.2253C26.2016 66.0357 27.0825 65.7458 28.1304 65.2277C29.1766 64.7104 30.1999 64.049 31.0465 63.3874C31.8839 62.733 32.584 62.0509 32.9517 61.4831C33.0931 61.2648 33.0307 60.9732 32.8124 60.8318C32.5941 60.6905 32.3025 60.7528 32.1612 60.9711C31.8789 61.407 31.2766 62.0123 30.4666 62.6453C29.6659 63.271 28.6967 63.897 27.7129 64.3835C26.7308 64.8691 25.9086 65.1394 25.2618 65.3172C25.0035 65.3882 24.775 65.4439 24.5691 65.4942C24.5148 65.5074 24.4621 65.5203 24.4109 65.533C24.1766 65.5908 23.9502 65.6493 23.7712 65.7229C23.5386 65.8187 23.4222 66.0804 23.5071 66.3172C23.9361 67.5147 25.8994 69.2642 29.2192 68.7335C29.4761 68.6925 29.651 68.451 29.6099 68.1942C29.5689 67.9374 29.3274 67.7624 29.0706 67.8035C26.6591 68.189 25.2243 67.2048 24.648 66.4445C24.6899 66.4342 24.7338 66.4235 24.7795 66.4123M24.7866 66.4106C24.7843 66.4112 24.7819 66.4117 24.7795 66.4123M37.2799 2.61757C37.2799 2.12509 37.6791 1.72586 38.1716 1.72586C38.6641 1.72586 39.0633 2.12509 39.0633 2.61757C39.0633 2.8151 38.9994 2.99728 38.8906 3.14518H37.4526C37.3437 2.99728 37.2799 2.81509 37.2799 2.61757ZM36.338 2.61757C36.338 2.80094 36.365 2.97809 36.4152 3.14521H35.8132C34.8579 3.14521 34.0606 3.51183 33.6924 4.37055C33.3526 5.16303 33.4375 6.25805 33.8675 7.58935L34.9371 11.3767H41.236L42.3056 7.58935C42.7355 6.25805 42.8204 5.16303 42.4807 4.37055C42.1125 3.51183 41.3152 3.14521 40.3598 3.14521H39.928C39.9781 2.97809 40.0051 2.80094 40.0051 2.61757C40.0051 1.60493 39.1842 0.784027 38.1716 0.784027C37.1589 0.784027 36.338 1.60493 36.338 2.61757ZM37.251 4.08704H35.8132C35.1052 4.08704 34.7327 4.3343 34.558 4.74169C34.3557 5.21364 34.3538 6.03398 34.7663 7.30779L34.769 7.31628L34.869 7.67052H41.304L41.404 7.31628L41.4068 7.30779C41.8192 6.03398 41.8174 5.21364 41.615 4.74169C41.4404 4.3343 41.0678 4.08704 40.3598 4.08704H39.1291H37.251ZM35.135 8.61235H41.038L40.5233 10.4349H35.6497L35.135 8.61235ZM26.8412 7.12287C25.9644 7.12287 25.2536 7.83368 25.2536 8.71051V8.77343H25.1296C24.4103 8.77343 23.7425 9.00277 23.42 9.63959C23.1208 10.2304 23.2114 11.0107 23.544 11.8844L24.1685 13.7566C23.4599 13.739 22.5123 13.9819 21.7167 14.4934C20.8443 15.0543 20.0951 15.9811 20.0952 17.3083L20.0952 17.342C20.0952 17.8479 20.0951 18.3839 20.2564 18.906C20.4284 19.4631 20.7704 19.9721 21.3932 20.4694C21.5346 20.5824 21.7282 20.6043 21.8912 20.5258C22.0543 20.4474 22.158 20.2824 22.158 20.1015C22.158 19.3868 22.73 18.8398 23.5804 18.8398C23.778 18.8398 24.0106 18.8444 24.2532 18.8572C23.9062 19.1499 23.71 19.5124 23.6178 19.8844C23.4282 20.6488 23.6779 21.4419 23.8543 21.8496C23.9559 22.0841 24.2259 22.1949 24.4629 22.0992C26.2418 21.3806 27.7192 21.6335 28.8583 22.2307C30.0159 22.8375 30.8365 23.8087 31.2374 24.5177C31.2446 24.5304 31.2517 24.5431 31.2587 24.5558L31.2594 24.5571C31.8365 25.5959 32.0739 27.0326 32.1012 28.3274C32.1147 28.9683 32.0764 29.5571 32.0093 30.0209C31.9757 30.2531 31.9358 30.448 31.8938 30.5994C31.8495 30.7593 31.8109 30.8402 31.7939 30.8664C31.7522 30.9305 31.7269 31.0036 31.7199 31.0792H29.8421C29.582 31.0792 29.3712 31.29 29.3712 31.5501V34.656C28.6856 34.9489 27.7059 35.2259 26.7346 35.2231C25.6418 35.2199 24.6216 34.8682 23.978 33.8541C23.3045 32.7929 23.2629 31.6745 23.4987 30.6815C23.7368 29.6785 24.2535 28.8303 24.6454 28.3692C24.803 28.1836 24.7933 27.9085 24.6228 27.7346L10.3473 13.1711C10.1963 13.0172 9.96016 12.9854 9.77389 13.0939C9.39275 13.316 9.02952 13.7877 8.7639 14.4163C8.49155 15.0608 8.30078 15.9169 8.30078 16.9733C8.30078 17.2334 8.51161 17.4442 8.77169 17.4442C9.03177 17.4442 9.24261 17.2334 9.24261 16.9733C9.24261 16.0289 9.41327 15.2993 9.63145 14.7829C9.74992 14.5026 9.87713 14.2966 9.99077 14.1529L23.6624 28.1003C23.2497 28.6763 22.8095 29.5072 22.5824 30.4639C22.303 31.6404 22.3416 33.0333 23.1828 34.3588C24.054 35.7315 25.4366 36.1611 26.7319 36.1649C27.6892 36.1677 28.6322 35.9411 29.3712 35.6689V37.4952C29.0322 37.7307 28.5283 37.8943 27.9613 37.9906C27.3186 38.0997 26.6757 38.1094 26.2897 38.0852C26.16 38.0771 26.0326 38.123 25.9379 38.212C25.8432 38.301 25.7894 38.4252 25.7894 38.5552V43.0399C25.7894 43.3 26.0003 43.5108 26.2603 43.5108C26.5204 43.5108 26.7312 43.3 26.7312 43.0399V39.0377C27.1352 39.0348 27.6254 39.0029 28.119 38.9191C28.5284 38.8496 28.969 38.7397 29.3712 38.5642V43.1891C28.4842 43.2793 27.3745 43.6055 26.2475 44.1024C24.9009 44.696 23.4799 45.5548 22.3195 46.6185C21.1302 47.7087 20.1944 49.3763 19.537 50.939C18.8784 52.5044 18.471 54.0329 18.374 54.8917C18.3449 55.1501 18.5307 55.3833 18.7891 55.4125C19.0476 55.4417 19.2807 55.2558 19.3099 54.9974C19.3937 54.2553 19.7687 52.8168 20.4051 51.3043C21.0426 49.789 21.9143 48.2677 22.956 47.3128C24.0266 46.3314 25.3557 45.5248 26.6274 44.9642C27.6676 44.5056 28.6371 44.2258 29.3712 44.1367V46.5999C27.2487 47.1723 26.0293 48.0645 24.6442 49.3292C23.8701 50.0359 23.3023 50.9535 22.9068 51.7947C22.5108 52.6373 22.274 53.4327 22.176 53.9226C22.125 54.1776 22.2904 54.4257 22.5454 54.4767C22.8004 54.5277 23.0485 54.3623 23.0995 54.1073C23.1823 53.6935 23.3948 52.9706 23.7592 52.1954C24.1242 51.4189 24.6279 50.6194 25.2792 50.0247C26.5371 48.8762 27.5906 48.099 29.3712 47.5781V48.6699C29.3712 49.1676 29.4465 49.6022 29.5829 49.9781C29.3651 50.0795 29.0834 50.2202 28.7673 50.4012C28.0481 50.8131 27.1308 51.445 26.3859 52.3141C25.831 52.9614 25.4727 53.8825 25.2546 54.7402C25.0774 55.437 24.9825 56.1331 24.9598 56.6801L15.8459 59.2947C15.5959 59.3664 15.4514 59.6272 15.5231 59.8772C15.5948 60.1272 15.8556 60.2717 16.1056 60.2L25.5563 57.4888C25.7624 57.4297 25.9025 57.2389 25.8973 57.0246C25.8855 56.5447 25.9652 55.7674 26.1674 54.9723C26.3713 54.1702 26.6844 53.413 27.1009 52.9271C27.7504 52.1694 28.5682 51.6006 29.2354 51.2185C29.5586 51.0334 29.8418 50.8947 30.046 50.8017C30.7945 51.7202 31.9622 51.9039 32.6494 51.8521H35.5067C36.06 51.8521 36.5347 52.1196 36.9217 52.5009C37.2779 52.8519 37.5294 53.2712 37.6602 53.5675V72.5291C37.6602 72.7892 37.871 73 38.1311 73C38.1455 73 38.1597 72.9994 38.1738 72.9981C38.1878 72.9994 38.202 73 38.2164 73C38.4765 73 38.6873 72.7892 38.6873 72.5291V53.5675C38.8181 53.2712 39.0696 52.8519 39.4258 52.5009C39.8129 52.1196 40.2875 51.8521 40.8408 51.8521H43.6981C44.3853 51.9039 45.553 51.7202 46.3015 50.8017C46.5057 50.8947 46.7889 51.0334 47.1121 51.2185C47.7793 51.6006 48.5971 52.1694 49.2466 52.9271C49.6631 53.413 49.9762 54.1702 50.1801 54.9723C50.3823 55.7674 50.462 56.5447 50.4502 57.0246C50.445 57.2389 50.5851 57.4297 50.7912 57.4888L60.0002 60.1307C60.0705 60.8302 60.29 61.4864 60.6266 62.0662C61.4629 63.5069 63.0236 64.4775 64.8115 64.4775C66.5994 64.4775 68.1601 63.5069 68.9964 62.0662C69.4104 61.353 69.6473 60.5243 69.6473 59.6417C69.6473 59.0555 69.5428 58.4927 69.351 57.9716C69.2122 57.5944 69.0278 57.2395 68.8047 56.9134C68.1884 56.013 67.2745 55.331 66.2044 55.0096C66.3875 54.7402 66.4945 54.4149 66.4945 54.0646C66.4945 53.135 65.741 52.3814 64.8114 52.3814C63.8818 52.3814 63.1282 53.135 63.1282 54.0646C63.1282 54.4149 63.2353 54.7403 63.4184 55.0097C62.3484 55.3311 61.4346 56.0131 60.8184 56.9134C60.3738 57.563 60.0835 58.3268 60.0004 59.1509L51.3877 56.6801C51.365 56.1331 51.2701 55.437 51.0929 54.7402C50.8748 53.8826 50.5165 52.9614 49.9616 52.3141C49.2167 51.445 48.2994 50.8131 47.5802 50.4012C47.2641 50.2202 46.9824 50.0795 46.7646 49.9781C46.901 49.6022 46.9763 49.1676 46.9763 48.6699V47.5781C48.7569 48.099 49.8104 48.8762 51.0683 50.0247C51.7196 50.6194 52.2233 51.4189 52.5883 52.1954C52.9527 52.9706 53.1652 53.6935 53.248 54.1073C53.299 54.3623 53.5471 54.5277 53.8021 54.4767C54.0571 54.4257 54.2225 54.1776 54.1715 53.9226C54.0735 53.4327 53.8367 52.6373 53.4407 51.7947C53.0453 50.9535 52.4774 50.0359 51.7033 49.3292C50.3182 48.0645 49.0988 47.1723 46.9763 46.5999V44.1367C47.7104 44.2258 48.6799 44.5056 49.7201 44.9642C50.9918 45.5248 52.3209 46.3314 53.3915 47.3128C54.4332 48.2677 55.3049 49.789 55.9424 51.3043C56.5788 52.8168 56.9538 54.2553 57.0376 54.9974C57.0668 55.2558 57.2999 55.4417 57.5584 55.4125C57.8168 55.3833 58.0027 55.1501 57.9735 54.8917C57.8765 54.0329 57.4691 52.5044 56.8105 50.939C56.1531 49.3763 55.2173 47.7087 54.028 46.6185C52.8676 45.5548 51.4466 44.696 50.1 44.1024C48.973 43.6055 47.8633 43.2793 46.9763 43.1891V38.5642C47.3785 38.7397 47.8191 38.8496 48.2285 38.9191C48.7221 39.0029 49.2123 39.0348 49.6163 39.0377V43.0399C49.6163 43.3 49.8271 43.5108 50.0872 43.5108C50.3472 43.5108 50.5581 43.3 50.5581 43.0399V38.5552C50.5581 38.4252 50.5043 38.301 50.4096 38.212C50.3149 38.123 50.1875 38.0771 50.0578 38.0852C49.6718 38.1094 49.0289 38.0997 48.3862 37.9906C47.8192 37.8943 47.3153 37.7307 46.9763 37.4952V35.6689C47.7153 35.9411 48.6583 36.1677 49.6156 36.1649C50.9109 36.1611 52.2935 35.7315 53.1647 34.3588C54.0059 33.0333 54.0445 31.6404 53.7652 30.4639C53.538 29.5072 53.0978 28.6763 52.6851 28.1003L66.3567 14.1529C66.4704 14.2966 66.5976 14.5026 66.7161 14.7829C66.9342 15.2993 67.1049 16.0289 67.1049 16.9733C67.1049 17.2334 67.3157 17.4442 67.5758 17.4442C67.8359 17.4442 68.0467 17.2334 68.0467 16.9733C68.0467 15.9169 67.856 15.0608 67.5836 14.4163C67.318 13.7877 66.9548 13.316 66.5736 13.0939C66.3873 12.9854 66.1512 13.0172 66.0002 13.1711L51.7247 27.7346C51.5542 27.9085 51.5445 28.1836 51.7021 28.3692C52.094 28.8303 52.6107 29.6785 52.8488 30.6815C53.0846 31.6745 53.043 32.7929 52.3695 33.8541C51.7259 34.8682 50.7057 35.2199 49.6129 35.2231C48.6416 35.2259 47.6619 34.9489 46.9763 34.656V31.5501C46.9763 31.29 46.7655 31.0792 46.5054 31.0792H44.6276C44.6206 31.0036 44.5953 30.9305 44.5536 30.8664C44.5366 30.8402 44.4981 30.7593 44.4537 30.5994C44.4117 30.448 44.3718 30.2531 44.3382 30.0209C44.2711 29.5571 44.2328 28.9683 44.2463 28.3274C44.2736 27.0326 44.511 25.5959 45.0881 24.5571L45.0888 24.5558C45.0958 24.5431 45.1029 24.5304 45.1101 24.5177C45.511 23.8087 46.3317 22.8375 47.4892 22.2307C48.6283 21.6335 50.1057 21.3806 51.8846 22.0992C52.1216 22.1949 52.3916 22.0841 52.4932 21.8496C52.6696 21.4419 52.9193 20.6488 52.7297 19.8844C52.6375 19.5124 52.4413 19.1499 52.0943 18.8572C52.3369 18.8444 52.5695 18.8398 52.7671 18.8398C53.6175 18.8398 54.1895 19.3868 54.1895 20.1015C54.1895 20.2824 54.2932 20.4474 54.4563 20.5258C54.6193 20.6043 54.8129 20.5824 54.9543 20.4694C55.5771 19.9721 55.9191 19.4631 56.0911 18.906C56.2524 18.3839 56.2523 17.8479 56.2523 17.342V17.3083C56.2524 15.9811 55.5032 15.0543 54.6308 14.4934C53.8352 13.9819 52.8876 13.739 52.179 13.7566L52.8035 11.8844C53.1361 11.0107 53.2267 10.2304 52.9275 9.63959C52.6051 9.00277 51.9372 8.77343 51.2179 8.77343H51.0939V8.71051C51.0939 7.83368 50.3831 7.12287 49.5063 7.12287C48.6294 7.12287 47.9186 7.83368 47.9186 8.71051V8.77343H47.7447C47.0255 8.77343 46.3576 9.00277 46.0351 9.63959C45.736 10.2304 45.8266 11.0107 46.1592 11.8844L46.7859 13.7635H40.3116C40.1501 13.7635 40 13.8462 39.9136 13.9826C39.8273 14.119 39.8169 14.2901 39.886 14.436C40.325 15.3629 41.1524 15.9668 41.958 16.3311C42.2967 16.4843 42.643 16.6004 42.9729 16.6819C42.585 17.0323 42.1513 17.4762 41.7027 17.9996C40.8247 19.0239 39.8661 20.3797 39.0569 21.998C38.6547 22.8024 38.372 23.701 38.1738 24.6109C37.9755 23.701 37.6928 22.8024 37.2906 21.998C36.4814 20.3797 35.5228 19.0239 34.6448 17.9996C34.1962 17.4762 33.7625 17.0323 33.3747 16.6819C33.7045 16.6004 34.0508 16.4843 34.3895 16.3311C35.1951 15.9668 36.0225 15.3629 36.4615 14.436C36.5306 14.2901 36.5202 14.119 36.4339 13.9826C36.3475 13.8462 36.1974 13.7635 36.0359 13.7635H29.5616L30.1883 11.8844C30.5209 11.0107 30.6115 10.2304 30.3124 9.63959C29.9899 9.00277 29.322 8.77343 28.6028 8.77343H28.4289V8.71051C28.4289 7.83368 27.7181 7.12287 26.8412 7.12287ZM27.487 8.77343H26.1954V8.71051C26.1954 8.35384 26.4846 8.0647 26.8412 8.0647C27.1979 8.0647 27.487 8.35383 27.487 8.71051V8.77343ZM28.5687 13.7635H25.1636L24.431 11.5673L24.4274 11.5577C24.1177 10.7479 24.1458 10.291 24.2602 10.0651C24.3524 9.88297 24.5783 9.71526 25.1296 9.71526H28.6028C29.1541 9.71526 29.3799 9.88297 29.4721 10.0651C29.5865 10.291 29.6146 10.7479 29.3049 11.5577L29.3013 11.5673L28.5687 13.7635ZM24.9028 19.5431C25.0981 19.3936 25.4059 19.2561 25.8898 19.1891C26.6483 19.6033 27.5206 20.2317 28.3715 21.005C27.2834 20.6485 26.0042 20.583 24.5743 21.0555C24.4962 20.7575 24.4569 20.4139 24.532 20.111C24.5852 19.8963 24.6955 19.7018 24.9028 19.5431ZM38.1311 32.021C38.1455 32.021 38.1597 32.0204 38.1737 32.0191C38.1878 32.0204 38.202 32.021 38.2164 32.021H46.0345V48.6699C46.0345 49.2543 45.9068 49.6758 45.7278 49.981C45.2668 50.767 44.3362 50.9602 43.7558 50.9119C43.7428 50.9108 43.7297 50.9102 43.7167 50.9102H40.8408C39.961 50.9102 39.2623 51.3399 38.7648 51.83C38.531 52.0604 38.3337 52.3114 38.1738 52.5544C38.0138 52.3114 37.8165 52.0604 37.5827 51.83C37.0852 51.3399 36.3865 50.9102 35.5067 50.9102H32.6308C32.6178 50.9102 32.6047 50.9108 32.5917 50.9119C32.0113 50.9602 31.0807 50.767 30.6197 49.981C30.4407 49.6758 30.313 49.2543 30.313 48.6699V32.021H38.1311ZM62.2503 56.7085C62.9352 56.1099 63.8311 55.7478 64.8115 55.7478C65.7919 55.7478 66.6879 56.1099 67.3728 56.7085H62.2503ZM67.5024 57.6503H68.1585C68.253 57.8087 68.3365 57.9744 68.4081 58.1462L67.3252 61.3589H66.0972L67.5024 57.6503ZM68.3468 61.2766L68.6147 60.4817C68.5538 60.759 68.4633 61.0251 68.3468 61.2766ZM67.6563 62.3007C66.9453 63.0611 65.9337 63.5356 64.8115 63.5356C63.6894 63.5356 62.6777 63.0611 61.9667 62.3007H67.6563ZM62.8877 61.3589H61.8945L63.3318 57.6503H64.1532L62.8877 61.3589ZM61.4645 57.6503H62.3217L61.0964 60.812C60.9802 60.4429 60.9176 60.0498 60.9176 59.6417C60.9176 58.9134 61.1171 58.2328 61.4645 57.6503ZM63.8828 61.3589L65.1484 57.6503H66.4953L65.09 61.3589H63.8828ZM51.1839 13.7635H47.7788L47.0462 11.5673L47.0426 11.5577C46.7329 10.7479 46.761 10.291 46.8754 10.0651C46.9676 9.88297 47.1934 9.71526 47.7447 9.71526H51.2179C51.7692 9.71526 51.9951 9.88297 52.0873 10.0651C52.2017 10.291 52.2298 10.7479 51.9201 11.5577L51.9165 11.5673L51.1839 13.7635ZM50.1521 8.71051V8.77343H48.8605V8.71051C48.8605 8.35384 49.1496 8.0647 49.5063 8.0647C49.8629 8.0647 50.1521 8.35384 50.1521 8.71051ZM6.68513 18.2971C6.56008 18.2242 6.4084 18.2127 6.27384 18.2662C6.13928 18.3197 6.0368 18.4321 5.99595 18.571C5.77747 19.3139 5.41124 21.2208 5.67177 23.0327C5.70879 23.2901 5.94748 23.4688 6.20492 23.4318C6.46235 23.3948 6.64103 23.1561 6.60402 22.8987C6.42119 21.6271 6.58354 20.2779 6.75632 19.4292L21.4497 28.0061C21.6743 28.1372 21.9626 28.0614 22.0938 27.8368C22.2249 27.6122 22.1491 27.3238 21.9245 27.1927L6.68513 18.2971ZM70.3516 18.571C70.3107 18.4321 70.2082 18.3197 70.0737 18.2662C69.9391 18.2127 69.7874 18.2242 69.6624 18.2971L54.4231 27.1927C54.1984 27.3238 54.1226 27.6122 54.2538 27.8368C54.3849 28.0614 54.6732 28.1372 54.8979 28.0061L69.5912 19.4292C69.764 20.2779 69.9263 21.6271 69.7435 22.8987C69.7065 23.1561 69.8852 23.3948 70.1426 23.4318C70.4 23.4688 70.6387 23.2901 70.6757 23.0327C70.9363 21.2208 70.57 19.3139 70.3516 18.571ZM4.86227 24.4324C4.73554 24.3994 4.60078 24.4206 4.49034 24.491C4.37991 24.5614 4.30378 24.6746 4.28024 24.8035C4.19712 25.2582 4.12363 25.9872 4.16896 26.7256C4.21299 27.4429 4.37441 28.2724 4.84886 28.8331C5.01685 29.0317 5.31398 29.0565 5.51253 28.8885C5.71108 28.7205 5.73587 28.4234 5.56788 28.2248C5.29872 27.9067 5.15025 27.3394 5.10902 26.6679C5.08326 26.2483 5.10152 25.8282 5.13699 25.4774L20.6132 29.5117C20.8649 29.5773 21.1221 29.4265 21.1877 29.1748C21.2533 28.9232 21.1024 28.666 20.8508 28.6004L4.86227 24.4324ZM72.0673 24.8035C72.0437 24.6746 71.9676 24.5614 71.8572 24.491C71.7467 24.4206 71.612 24.3994 71.4852 24.4324L55.4967 28.6004C55.2451 28.666 55.0942 28.9232 55.1598 29.1748C55.2255 29.4265 55.4827 29.5773 55.7343 29.5117L71.2105 25.4774C71.246 25.8282 71.2642 26.2483 71.2385 26.6679C71.1973 27.3394 71.0488 27.9067 70.7796 28.2248C70.6116 28.4234 70.6364 28.7205 70.835 28.8885C71.0335 29.0565 71.3307 29.0317 71.4986 28.8331C71.9731 28.2724 72.1345 27.4429 72.1785 26.7256C72.2239 25.9872 72.1504 25.2582 72.0673 24.8035ZM4.74348 30.2271C4.61479 30.2271 4.49171 30.2798 4.40285 30.3728C4.31399 30.4659 4.2671 30.5913 4.27307 30.7199C4.28808 31.0429 4.38179 31.6737 4.60783 32.3623C4.83326 33.0491 5.20524 33.8398 5.80492 34.4395C5.98883 34.6234 6.287 34.6234 6.4709 34.4394C6.65479 34.2555 6.65478 33.9574 6.47087 33.7735C6.01695 33.3196 5.70462 32.6838 5.50269 32.0686C5.3935 31.736 5.32097 31.4229 5.27573 31.1689H20.3202C20.5802 31.1689 20.7911 30.9581 20.7911 30.698C20.7911 30.4379 20.5802 30.2271 20.3202 30.2271H4.74348ZM56.0273 30.2271C55.7673 30.2271 55.5564 30.4379 55.5564 30.698C55.5564 30.9581 55.7673 31.1689 56.0273 31.1689H71.0718C71.0265 31.4229 70.954 31.736 70.8448 32.0686C70.6429 32.6838 70.3305 33.3196 69.8766 33.7735C69.6927 33.9574 69.6927 34.2555 69.8766 34.4394C70.0605 34.6234 70.3587 34.6234 70.5426 34.4395C71.1423 33.8398 71.5142 33.0491 71.7397 32.3623C71.9657 31.6737 72.0594 31.0429 72.0744 30.7199C72.0804 30.5913 72.0335 30.4659 71.9447 30.3728C71.8558 30.2798 71.7327 30.2271 71.604 30.2271H56.0273ZM20.4456 32.8867C20.6963 32.8175 20.8434 32.5581 20.7741 32.3074C20.7048 32.0567 20.4454 31.9097 20.1947 31.979L6.01244 35.899C5.8723 35.9378 5.75791 36.0391 5.70251 36.1735C5.64711 36.3079 5.6569 36.4604 5.72905 36.5866C6.04149 37.1333 6.85756 38.4356 7.58668 39.1648C7.77057 39.3487 8.06874 39.3487 8.25265 39.1648C8.43657 38.9809 8.43659 38.6828 8.2527 38.4989C7.78049 38.0266 7.23597 37.2363 6.86176 36.6414L20.4456 32.8867ZM56.1528 31.979C55.9021 31.9097 55.6427 32.0567 55.5734 32.3074C55.5042 32.5581 55.6512 32.8175 55.9019 32.8867L69.4857 36.6414C69.1115 37.2363 68.567 38.0266 68.0948 38.4989C67.9109 38.6828 67.9109 38.9809 68.0949 39.1648C68.2788 39.3487 68.5769 39.3487 68.7608 39.1648C69.4899 38.4356 70.306 37.1333 70.6185 36.5866C70.6906 36.4604 70.7004 36.3079 70.645 36.1735C70.5896 36.0391 70.4752 35.9378 70.3351 35.899L56.1528 31.979ZM20.9766 34.5089C21.1988 34.3738 21.2695 34.0841 21.1344 33.8619C20.9993 33.6396 20.7096 33.569 20.4874 33.7041L8.8793 40.7602C8.77247 40.8251 8.69585 40.9299 8.66631 41.0514C8.63678 41.1728 8.65677 41.3011 8.72186 41.4078C9.02333 41.9021 9.93192 42.9588 11.3032 43.4801C11.5463 43.5725 11.8183 43.4504 11.9107 43.2073C12.0031 42.9642 11.881 42.6922 11.6379 42.5997C10.8052 42.2832 10.1737 41.7171 9.81049 41.2963L20.9766 34.5089ZM55.8601 33.7041C55.6379 33.569 55.3482 33.6396 55.2131 33.8619C55.078 34.0841 55.1487 34.3738 55.3709 34.5089L66.537 41.2963C66.1738 41.7171 65.5423 42.2832 64.7096 42.5997C64.4665 42.6922 64.3444 42.9642 64.4368 43.2073C64.5292 43.4504 64.8012 43.5725 65.0443 43.4801C66.4156 42.9588 67.3242 41.9021 67.6256 41.4078C67.6907 41.3011 67.7107 41.1728 67.6812 41.0514C67.6517 40.9299 67.575 40.8251 67.4682 40.7602L55.8601 33.7041ZM32.7919 48.4344V34.5774H38.1311C38.1455 34.5774 38.1597 34.5767 38.1737 34.5755C38.1878 34.5767 38.202 34.5774 38.2164 34.5774H43.5556V48.4344H40.8408C39.6572 48.4344 38.8909 48.7977 38.4137 49.2035C38.3222 49.2814 38.2426 49.3597 38.1738 49.4356C38.1049 49.3597 38.0253 49.2814 37.9338 49.2035C37.4566 48.7977 36.6903 48.4344 35.5067 48.4344H32.7919ZM22.0249 35.9109C22.2061 35.7244 22.2017 35.4262 22.0152 35.245C21.8286 35.0638 21.5305 35.0682 21.3493 35.2547L12.3843 44.4848C12.2596 44.6131 12.2185 44.801 12.278 44.9697C12.3794 45.257 12.662 45.5719 13.0912 45.8469C13.5362 46.1321 14.1811 46.4028 15.0828 46.5788C15.3381 46.6286 15.5854 46.4621 15.6352 46.2068C15.685 45.9515 15.5185 45.7042 15.2632 45.6544C14.4545 45.4966 13.926 45.2633 13.5993 45.0539C13.4888 44.9831 13.4025 44.9158 13.3366 44.8561L22.0249 35.9109ZM54.9983 35.2547C54.8171 35.0682 54.5189 35.0638 54.3324 35.245C54.1458 35.4262 54.1414 35.7244 54.3227 35.9109L63.0109 44.8561C62.945 44.9158 62.8587 44.9831 62.7482 45.0539C62.4215 45.2633 61.893 45.4966 61.0843 45.6544C60.829 45.7042 60.6625 45.9515 60.7123 46.2068C60.7621 46.4621 61.0094 46.6286 61.2647 46.5788C62.1665 46.4028 62.8113 46.1321 63.2563 45.8469C63.6855 45.5719 63.9681 45.257 64.0695 44.9697C64.129 44.801 64.0879 44.6131 63.9632 44.4848L54.9983 35.2547ZM23.3563 36.9557C23.4809 36.7274 23.3969 36.4413 23.1686 36.3167C22.9403 36.1921 22.6543 36.2761 22.5296 36.5044L16.637 47.2989C16.5292 47.4963 16.5761 47.7424 16.7488 47.8864C16.9281 48.0357 17.2504 48.1887 17.6842 48.3053C18.1322 48.4257 18.7343 48.517 19.5012 48.517C19.7613 48.517 19.9722 48.3061 19.9722 48.0461C19.9722 47.786 19.7613 47.5751 19.5012 47.5751C18.8081 47.5751 18.289 47.4926 17.9287 47.3957C17.8402 47.3719 17.7629 47.3477 17.6961 47.3243L23.3563 36.9557ZM53.8179 36.5044C53.6933 36.2761 53.4072 36.1921 53.1789 36.3167C52.9506 36.4413 52.8666 36.7274 52.9912 36.9557L58.6514 47.3243C58.5846 47.3477 58.5073 47.3719 58.4188 47.3957C58.0585 47.4926 57.5394 47.5751 56.8463 47.5751C56.5862 47.5751 56.3753 47.786 56.3753 48.0461C56.3753 48.3061 56.5862 48.517 56.8463 48.517C57.6132 48.517 58.2153 48.4257 58.6633 48.3053C59.0971 48.1887 59.4194 48.0357 59.5987 47.8864C59.7714 47.7424 59.8183 47.4963 59.7105 47.2989L53.8179 36.5044ZM25.0123 37.8502C25.0838 37.6002 24.939 37.3395 24.6889 37.2681C24.4388 37.1966 24.1782 37.3414 24.1067 37.5915L22.185 44.3185C22.1135 44.5686 22.2583 44.8292 22.5084 44.9007C22.7585 44.9721 23.0191 44.8273 23.0906 44.5772L25.0123 37.8502ZM52.2408 37.5915C52.1693 37.3414 51.9087 37.1966 51.6586 37.2681C51.4085 37.3395 51.2637 37.6002 51.3352 37.8502L53.2569 44.5772C53.3284 44.8273 53.589 44.9721 53.8391 44.9007C54.0892 44.8292 54.234 44.5686 54.1625 44.3185L52.2408 37.5915ZM1.44183 44.4414C1.44183 43.4876 2.21502 42.7144 3.16879 42.7144C4.12257 42.7144 4.89576 43.4876 4.89576 44.4414C4.89576 45.3952 4.12257 46.1683 3.16879 46.1683C2.21502 46.1683 1.44183 45.3952 1.44183 44.4414ZM3.16879 41.7726C1.69486 41.7726 0.5 42.9674 0.5 44.4414C0.5 45.9153 1.69486 47.1102 3.16879 47.1102C3.7207 47.1102 4.23347 46.9426 4.65904 46.6557L13.6518 55.6483L14.3177 54.9824L5.33537 46C5.65141 45.5615 5.83759 45.0232 5.83759 44.4414C5.83759 42.9674 4.64273 41.7726 3.16879 41.7726ZM64.07 54.0646C64.07 53.6552 64.4019 53.3233 64.8114 53.3233C65.2208 53.3233 65.5527 53.6552 65.5527 54.0646C65.5527 54.4741 65.2209 54.8059 64.8115 54.8059C64.402 54.8059 64.07 54.4739 64.07 54.0646ZM31.671 53.0018C30.5421 53.0018 29.6438 53.7304 29.0755 54.538C28.5137 55.3364 28.1767 56.3493 28.292 57.1069C28.3312 57.3641 28.5713 57.5408 28.8284 57.5017C29.0856 57.4625 29.2623 57.2224 29.2231 56.9653C29.1577 56.5351 29.3629 55.7663 29.8458 55.08C30.3223 54.4028 30.971 53.9436 31.671 53.9436C32.4965 53.9436 33.1274 54.0602 33.6086 54.2935C34.0774 54.5207 34.432 54.8721 34.6901 55.4024C35.2286 56.5088 35.3437 58.3787 35.0382 61.4043C34.5666 66.0756 31.6467 69.2907 30.2824 70.29C30.1772 70.3671 30.1086 70.4844 30.0931 70.614C30.0776 70.7436 30.1166 70.8737 30.2007 70.9735C30.4792 71.3039 30.994 71.5575 31.5714 71.687C32.1688 71.821 32.9013 71.8387 33.6731 71.6319C34.1992 71.4909 34.7516 71.103 35.1869 70.7258C35.6284 70.3431 36.0226 69.9066 36.2189 69.5953C36.3576 69.3753 36.2917 69.0845 36.0717 68.9458C35.8517 68.8071 35.5609 68.873 35.4222 69.093C35.2928 69.2981 34.972 69.6657 34.57 70.0141C34.1617 70.3679 33.7423 70.6383 33.4293 70.7222C32.8136 70.8872 32.2359 70.8708 31.7775 70.768C31.6127 70.7311 31.4707 70.6848 31.3515 70.6356C32.9724 69.2137 35.5223 65.985 35.9752 61.4989C36.2798 58.4823 36.2049 56.3627 35.537 54.9902C35.1919 54.2811 34.6891 53.7706 34.0195 53.446C33.3622 53.1273 32.5735 53.0018 31.671 53.0018ZM41.3093 61.4043C41.0038 58.3787 41.1189 56.5088 41.6574 55.4024C41.9155 54.8721 42.2701 54.5207 42.7389 54.2935C43.2201 54.0602 43.8511 53.9436 44.6765 53.9436C45.3765 53.9436 46.0252 54.4028 46.5017 55.08C46.9846 55.7663 47.1898 56.5351 47.1244 56.9653C47.0852 57.2224 47.262 57.4625 47.5191 57.5017C47.7762 57.5408 48.0163 57.3641 48.0555 57.1069C48.1708 56.3493 47.8338 55.3364 47.272 54.538C46.7037 53.7304 45.8054 53.0018 44.6765 53.0018C43.774 53.0018 42.9853 53.1273 42.328 53.446C41.6584 53.7706 41.1556 54.2811 40.8105 54.9902C40.1426 56.3627 40.0677 58.4823 40.3723 61.4989C40.8252 65.985 43.3751 69.2137 44.996 70.6356C44.8768 70.6848 44.7348 70.7311 44.57 70.768C44.1116 70.8708 43.5339 70.8872 42.9182 70.7222C42.6052 70.6383 42.1858 70.3679 41.7775 70.0141C41.3756 69.6657 41.0547 69.2981 40.9253 69.093C40.7866 68.873 40.4958 68.8071 40.2758 68.9458C40.0558 69.0845 39.9899 69.3753 40.1286 69.5953C40.3249 69.9066 40.7192 70.3431 41.1606 70.7258C41.5959 71.103 42.1483 71.4909 42.6744 71.6319C43.4462 71.8387 44.1787 71.821 44.7761 71.687C45.3536 71.5575 45.8683 71.3039 46.1468 70.9735C46.2309 70.8737 46.2699 70.7436 46.2544 70.614C46.2389 70.4844 46.1703 70.3671 46.0651 70.29C44.7008 69.2907 41.781 66.0756 41.3093 61.4043ZM32.7919 55.903C32.7919 55.6429 32.5811 55.4321 32.321 55.4321C32.0609 55.4321 31.8501 55.6429 31.8501 55.903C31.8501 57.4699 31.1347 58.4247 30.2415 59.0603C29.3847 59.6701 28.3754 59.9787 27.637 60.2045C27.587 60.2198 27.5382 60.2347 27.4909 60.2493L19.9984 62.0788C19.8566 62.1135 19.7388 62.2119 19.6796 62.3454C19.6204 62.4788 19.6265 62.6322 19.696 62.7606C20.1683 63.6326 20.9306 64.1285 21.669 64.39C22.4012 64.6492 23.1408 64.6902 23.6368 64.6304C23.895 64.5993 24.0791 64.3647 24.048 64.1065C24.0168 63.8483 23.7823 63.6642 23.5241 63.6953C23.1636 63.7388 22.5709 63.7102 21.9834 63.5022C21.5873 63.3619 21.2083 63.1459 20.9015 62.8278L27.7279 61.1609C27.7322 61.1598 27.7365 61.1587 27.7408 61.1575C27.7456 61.1562 27.7503 61.1549 27.755 61.1534C27.8083 61.137 27.8647 61.1198 27.9239 61.1018C28.6513 60.8803 29.7998 60.5306 30.7876 59.8276C31.8828 59.0482 32.7919 57.8273 32.7919 55.903ZM44.0265 55.4321C43.7665 55.4321 43.5556 55.6429 43.5556 55.903C43.5556 57.8273 44.4647 59.0482 45.5599 59.8276C46.5477 60.5306 47.6962 60.8803 48.4236 61.1018C48.4828 61.1198 48.5392 61.137 48.5925 61.1534C48.6014 61.1562 48.6105 61.1587 48.6196 61.1609L55.4461 62.8278C55.1393 63.1459 54.7602 63.3619 54.3641 63.5022C53.7766 63.7102 53.1839 63.7388 52.8234 63.6953C52.5652 63.6642 52.3307 63.8483 52.2995 64.1065C52.2684 64.3647 52.4525 64.5993 52.7107 64.6304C53.2067 64.6902 53.9463 64.6492 54.6785 64.39C55.4169 64.1285 56.1792 63.6326 56.6515 62.7606C56.721 62.6322 56.7271 62.4788 56.6679 62.3454C56.6087 62.2119 56.4909 62.1135 56.3491 62.0788L48.8566 60.2493C48.8093 60.2347 48.7605 60.2198 48.7105 60.2045C47.9721 59.9787 46.9628 59.6701 46.106 59.0603C45.2128 58.4247 44.4974 57.4699 44.4974 55.903C44.4974 55.6429 44.2866 55.4321 44.0265 55.4321ZM16.8242 56.4646C17.0756 56.3978 17.2252 56.1399 17.1585 55.8885C17.0917 55.6372 16.8338 55.4875 16.5824 55.5543L12.8807 56.5376C12.6293 56.6043 12.4796 56.8622 12.5464 57.1136C12.6132 57.365 12.8711 57.5146 13.1224 57.4478L16.8242 56.4646ZM18.2124 57.7949C18.4637 57.7281 18.6134 57.4702 18.5466 57.2188C18.4799 56.9675 18.222 56.8178 17.9706 56.8846L14.2688 57.8679C14.0174 57.9347 13.8678 58.1925 13.9346 58.4439C14.0013 58.6953 14.2592 58.8449 14.5106 58.7781L18.2124 57.7949ZM44.1864 60.9711C44.045 60.7528 43.7534 60.6905 43.5351 60.8318C43.3168 60.9732 43.2544 61.2648 43.3958 61.4831C43.7635 62.0509 44.4636 62.733 45.301 63.3874C46.1477 64.049 47.1709 64.7104 48.2171 65.2277C49.265 65.7458 50.1459 66.0357 50.8361 66.2253C51.109 66.3003 51.3539 66.3601 51.5609 66.4106C51.6092 66.4224 51.6554 66.4337 51.6995 66.4445C51.1232 67.2048 49.6884 68.189 47.2769 67.8035C47.0201 67.7624 46.7786 67.9374 46.7376 68.1942C46.6965 68.451 46.8714 68.6925 47.1283 68.7335C50.4481 69.2642 52.4114 67.5147 52.8404 66.3172C52.9253 66.0804 52.8089 65.8187 52.5763 65.7229C52.3973 65.6493 52.1709 65.5908 51.9366 65.533C51.8854 65.5203 51.8327 65.5074 51.7784 65.4942C51.5724 65.4439 51.344 65.3882 51.0857 65.3172C50.4389 65.1394 49.6167 64.8691 48.6346 64.3835C47.6508 63.897 46.6816 63.271 45.8809 62.6453C45.0709 62.0123 44.4686 61.407 44.1864 60.9711Z" stroke="#0EADFF" stroke-width="0.7"/>
</svg>
