<svg width="129" height="9" viewBox="0 0 129 9" fill="none" xmlns="http://www.w3.org/2000/svg">
<path d="M3.51521 8.3672C2.51181 8.3672 1.67344 8.05034 1.0001 7.41661C0.333368 6.77628 0 5.95441 0 4.95101C0 3.9476 0.333368 3.12904 1.0001 2.49531C1.67344 1.85498 2.51181 1.53481 3.51521 1.53481C4.74967 1.53481 5.67055 2.07282 6.27788 3.14884L5.06983 3.74296C4.9246 3.4657 4.71006 3.23796 4.4262 3.05972C4.14894 2.87488 3.84528 2.78247 3.51521 2.78247C2.91449 2.78247 2.41939 2.98711 2.02991 3.39639C1.64043 3.80567 1.44569 4.32388 1.44569 4.95101C1.44569 5.57813 1.64043 6.09634 2.02991 6.50562C2.41939 6.91491 2.91449 7.11955 3.51521 7.11955C3.84528 7.11955 4.14894 7.03043 4.4262 6.85219C4.71006 6.67396 4.9246 6.44291 5.06983 6.15905L6.27788 6.74327C5.65075 7.82589 4.72986 8.3672 3.51521 8.3672Z" fill="white"/>
<path d="M8.4714 8.24838H7.11483V1.64373H8.52091V5.9115L11.5806 1.64373H13.0263V8.24838H11.6202V3.82218L8.4714 8.24838Z" fill="white"/>
<path d="M17.5269 8.3672C16.5235 8.3672 15.6852 8.05034 15.0118 7.41661C14.3451 6.77628 14.0117 5.95441 14.0117 4.95101C14.0117 3.9476 14.3451 3.12904 15.0118 2.49531C15.6852 1.85498 16.5235 1.53481 17.5269 1.53481C18.7614 1.53481 19.6823 2.07282 20.2896 3.14884L19.0816 3.74296C18.9363 3.4657 18.7218 3.23796 18.4379 3.05972C18.1607 2.87488 17.857 2.78247 17.5269 2.78247C16.9262 2.78247 16.4311 2.98711 16.0416 3.39639C15.6522 3.80567 15.4574 4.32388 15.4574 4.95101C15.4574 5.57813 15.6522 6.09634 16.0416 6.50562C16.4311 6.91491 16.9262 7.11955 17.5269 7.11955C17.857 7.11955 18.1607 7.03043 18.4379 6.85219C18.7218 6.67396 18.9363 6.44291 19.0816 6.15905L20.2896 6.74327C19.6625 7.82589 18.7416 8.3672 17.5269 8.3672Z" fill="white"/>
<path d="M24.0675 8.24838H22.6515V2.88149H20.7206V1.64373H25.9884V2.88149H24.0675V8.24838Z" fill="white"/>
<path d="M31.5636 8.24838H26.8898V1.64373H31.5636V2.88149H28.2959V4.27767H31.4943V5.51542H28.2959V7.01062H31.5636V8.24838Z" fill="white"/>
<path d="M39.822 8.24838H38.406V3.62414L36.5444 8.24838H35.9305L34.0689 3.62414V8.24838H32.6628V1.64373H34.6333L36.2374 5.63425L37.8415 1.64373H39.822V8.24838Z" fill="white"/>
<path d="M47.0749 8.24838H45.6589V5.47581H42.5397V8.24838H41.1337V1.64373H42.5397V4.23806H45.6589V1.64373H47.0749V8.24838Z" fill="white"/>
<path d="M48.3764 1.64373H49.7825V3.99051H51.4659C52.1524 3.99051 52.6937 4.19515 53.0898 4.60444C53.4859 5.01372 53.6839 5.51872 53.6839 6.11944C53.6839 6.72677 53.4859 7.23507 53.0898 7.64435C52.7003 8.04704 52.159 8.24838 51.4659 8.24838H48.3764V1.64373ZM51.2777 5.22826H49.7825V7.01062H51.2777C51.5616 7.01062 51.7926 6.93141 51.9709 6.77298C52.1557 6.60794 52.2481 6.3901 52.2481 6.11944C52.2481 5.84879 52.1557 5.63425 51.9709 5.47581C51.7926 5.31078 51.5616 5.22826 51.2777 5.22826ZM55.6544 8.24838H54.2384V1.64373H55.6544V8.24838Z" fill="white"/>
<path d="M58.3199 8.24838H56.9633V1.64373H58.3694V5.9115L61.4291 1.64373H62.8748V8.24838H61.4688V3.82218L58.3199 8.24838ZM61.6569 0.465395C61.2278 1.04631 60.6502 1.33677 59.924 1.33677C59.2045 1.33677 58.6236 1.04631 58.1813 0.465395L58.7358 0C59.0263 0.409283 59.4223 0.613925 59.924 0.613925C60.4125 0.613925 60.8053 0.409283 61.1024 0L61.6569 0.465395Z" fill="white"/>
<path d="M68.0672 8.24838H66.7106V1.64373H68.1167V5.9115L71.1764 1.64373H72.6221V8.24838H71.216V3.82218L68.0672 8.24838Z" fill="white"/>
<path d="M79.8656 8.24838H78.4496V5.47581H75.3305V8.24838H73.9244V1.64373H75.3305V4.23806H78.4496V1.64373H79.8656V8.24838Z" fill="white"/>
<path d="M84.1081 8.24838H82.6921V2.88149H80.7612V1.64373H86.0291V2.88149H84.1081V8.24838Z" fill="white"/>
<path d="M91.6042 8.24838H86.9305V1.64373H91.6042V2.88149H88.3365V4.27767H91.5349V5.51542H88.3365V7.01062H91.6042V8.24838Z" fill="white"/>
<path d="M94.1095 8.24838H92.7034V1.64373H97.3772V2.88149H94.1095V8.24838Z" fill="white"/>
<path d="M99.7664 8.24838H98.3603V1.64373H101.45C102.143 1.64373 102.684 1.84838 103.074 2.25766C103.47 2.66034 103.668 3.16534 103.668 3.77267C103.668 4.37339 103.47 4.87839 103.074 5.28767C102.678 5.69696 102.136 5.9016 101.45 5.9016H99.7664V8.24838ZM101.262 4.66385C101.545 4.66385 101.777 4.58463 101.955 4.4262C102.14 4.26117 102.232 4.04332 102.232 3.77267C102.232 3.50201 102.14 3.28747 101.955 3.12904C101.777 2.964 101.545 2.88149 101.262 2.88149H99.7664V4.66385H101.262Z" fill="white"/>
<path d="M109.964 8.24838H108.359L107.953 7.12945H105.121L104.706 8.24838H103.101L105.656 1.64373H107.419L109.964 8.24838ZM107.567 5.8917L106.537 3.04982L105.508 5.8917H107.567Z" fill="white"/>
<path d="M112.876 8.24838H111.46V2.88149H109.529V1.64373H114.797V2.88149H112.876V8.24838Z" fill="white"/>
<path d="M118.586 8.3672C117.589 8.3672 116.764 8.04704 116.11 7.4067C115.463 6.75977 115.14 5.94121 115.14 4.95101C115.14 3.96081 115.463 3.14554 116.11 2.50521C116.764 1.85828 117.589 1.53481 118.586 1.53481C119.589 1.53481 120.414 1.85498 121.061 2.49531C121.715 3.13564 122.042 3.9542 122.042 4.95101C122.042 5.94781 121.715 6.76637 121.061 7.4067C120.414 8.04704 119.589 8.3672 118.586 8.3672ZM117.13 6.50562C117.5 6.91491 117.985 7.11955 118.586 7.11955C119.187 7.11955 119.672 6.91491 120.041 6.50562C120.411 6.09634 120.596 5.57813 120.596 4.95101C120.596 4.32388 120.411 3.80567 120.041 3.39639C119.672 2.98711 119.187 2.78247 118.586 2.78247C117.985 2.78247 117.5 2.98711 117.13 3.39639C116.767 3.80567 116.586 4.32388 116.586 4.95101C116.586 5.57813 116.767 6.09634 117.13 6.50562Z" fill="white"/>
<path d="M124.434 8.24838H123.028V1.64373H126.118C126.811 1.64373 127.352 1.84838 127.742 2.25766C128.138 2.66034 128.336 3.16534 128.336 3.77267C128.336 4.37339 128.138 4.87839 127.742 5.28767C127.346 5.69696 126.804 5.9016 126.118 5.9016H124.434V8.24838ZM125.93 4.66385C126.213 4.66385 126.445 4.58463 126.623 4.4262C126.808 4.26117 126.9 4.04332 126.9 3.77267C126.9 3.50201 126.808 3.28747 126.623 3.12904C126.445 2.964 126.213 2.88149 125.93 2.88149H124.434V4.66385H125.93Z" fill="white"/>
</svg>
