<svg width="168" height="29" viewBox="0 0 168 29" fill="none" xmlns="http://www.w3.org/2000/svg">
<path d="M62.1587 14.5949L58.4264 17.3092C58.86 18.2894 59.5009 19.1848 60.3491 19.9953C61.1974 20.787 62.1964 21.4091 63.3463 21.8615C64.515 22.3327 65.7779 22.5683 67.1351 22.5683C68.0964 22.5683 69.0389 22.427 69.9626 22.1442C70.8862 21.8803 71.7062 21.4845 72.4225 20.9567C73.1576 20.41 73.7325 19.7314 74.1472 18.9209C74.5808 18.1103 74.7975 17.1773 74.7975 16.1217C74.7975 15.33 74.675 14.6137 74.43 13.9728C74.1849 13.3319 73.8362 12.7664 73.3838 12.2763C72.9314 11.7674 72.3942 11.3338 71.7721 10.9757C71.169 10.5987 70.4998 10.2782 69.7646 10.0143C68.9164 9.71274 68.1624 9.43941 67.5027 9.19436C66.8618 8.93046 66.3528 8.65714 65.9758 8.37439C65.6177 8.0728 65.4386 7.70522 65.4386 7.27168C65.4386 6.89468 65.5988 6.59308 65.9193 6.36688C66.2397 6.14069 66.6733 6.02759 67.2199 6.02759C67.6535 6.02759 68.0776 6.11241 68.4923 6.28206C68.907 6.45171 69.2934 6.69676 69.6515 7.0172C70.0285 7.3188 70.3584 7.70522 70.6412 8.17647L74.7693 5.88621C74.4111 5.20762 73.9022 4.53845 73.2424 3.8787C72.5827 3.20011 71.7439 2.64404 70.726 2.21049C69.7081 1.75809 68.5017 1.53189 67.1068 1.53189C65.7685 1.53189 64.5527 1.75809 63.4594 2.21049C62.3661 2.66289 61.4895 3.32263 60.8298 4.18972C60.1701 5.03797 59.8402 6.08414 59.8402 7.32823C59.8402 8.30842 60.0193 9.15666 60.3774 9.87296C60.7544 10.5893 61.2162 11.1924 61.7629 11.6825C62.3284 12.1726 62.9127 12.5779 63.5159 12.8984C64.1191 13.2 64.6657 13.445 65.1558 13.6335C66.1549 14.0105 66.9277 14.331 67.4744 14.5949C68.0399 14.8587 68.4357 15.1226 68.6619 15.3865C68.8881 15.6316 69.0012 15.9426 69.0012 16.3196C69.0012 16.8474 68.8033 17.2527 68.4075 17.5354C68.0116 17.7993 67.5121 17.9313 66.9089 17.9313C66.2868 17.9313 65.6836 17.7993 65.0993 17.5354C64.515 17.2715 63.9777 16.8945 63.4876 16.4044C62.9975 15.8955 62.5546 15.2923 62.1587 14.5949Z" fill="#444089"/>
<path d="M91.6052 8.82679H86.6571L83.7506 16.1125L80.8325 8.82679H75.5168L81.3414 21.0132L78.2877 28.0537H83.1227L91.6052 8.82679Z" fill="#444089"/>
<path d="M93.5539 16.8851L91.7726 20.2215C92.4512 20.6551 93.1581 21.0415 93.8932 21.3808C94.6283 21.7201 95.4106 21.984 96.24 22.1725C97.0882 22.361 97.9836 22.4552 98.9261 22.4552C100.547 22.4552 101.791 22.1065 102.658 21.4091C103.544 20.7116 103.987 19.6278 103.987 18.1575C103.987 17.3469 103.808 16.6966 103.45 16.2065C103.111 15.7164 102.658 15.3206 102.093 15.019C101.546 14.6985 100.943 14.4158 100.283 14.1707C99.5859 13.9068 99.0109 13.6995 98.5585 13.5487C98.1061 13.3979 97.7669 13.2471 97.5407 13.0963C97.3145 12.9266 97.2014 12.7099 97.2014 12.446C97.2014 12.2575 97.2768 12.0972 97.4276 11.9653C97.5972 11.8333 97.8611 11.7674 98.2192 11.7674C98.7847 11.7674 99.4351 11.937 100.17 12.2763C100.924 12.5968 101.603 13.0209 102.206 13.5487L103.648 10.2971C103.064 9.95778 102.47 9.66561 101.867 9.42056C101.263 9.15666 100.623 8.94932 99.944 8.79852C99.2843 8.62887 98.568 8.54404 97.7951 8.54404C96.7961 8.54404 95.9196 8.69484 95.1656 8.99644C94.4116 9.27919 93.8178 9.70331 93.3843 10.2688C92.9507 10.8155 92.7339 11.494 92.7339 12.3046C92.7339 13.1528 92.9036 13.8503 93.2429 14.3969C93.601 14.9247 94.0629 15.3488 94.6283 15.6693C95.1938 15.9709 95.7876 16.2254 96.4097 16.4327C97.1637 16.6778 97.7291 16.8851 98.1061 17.0548C98.502 17.2244 98.7659 17.3941 98.8978 17.5637C99.0486 17.7145 99.124 17.903 99.124 18.1292C99.124 18.3931 99.0392 18.6004 98.8696 18.7512C98.6999 18.902 98.436 18.9774 98.0779 18.9774C97.8517 18.9774 97.5312 18.9303 97.1165 18.8361C96.7018 18.7418 96.2023 18.5439 95.618 18.2423C95.0336 17.9407 94.3456 17.4883 93.5539 16.8851Z" fill="#444089"/>
<path d="M107.088 4.30282V8.82679V12.7853V21.8332H111.754V12.7853V8.82679V4.30282H107.088Z" fill="#444089"/>
<path d="M152.94 13.4073C152.94 12.3706 152.818 11.494 152.572 10.7778C152.327 10.0426 151.913 9.48654 151.328 9.10954C150.744 8.71369 149.924 8.51577 148.868 8.51577C147.983 8.51577 147.181 8.70427 146.465 9.08126C145.768 9.43941 145.174 9.93893 144.684 10.5798C144.42 9.90123 143.996 9.39229 143.411 9.05299C142.827 8.69484 142.017 8.51577 140.98 8.51577C140.056 8.51577 139.274 8.72312 138.633 9.13781C138.011 9.53366 137.521 10.0803 137.163 10.7778V8.82679H132.497V21.8332H137.163V13.9163C137.163 13.4262 137.229 13.0303 137.361 12.7287C137.493 12.4083 137.681 12.1726 137.926 12.0218C138.171 11.871 138.444 11.7956 138.746 11.7956C139.255 11.7956 139.613 11.9841 139.821 12.3611C140.047 12.7193 140.16 13.2377 140.16 13.9163V21.8332H145.051V13.9163C145.051 13.4262 145.117 13.0303 145.249 12.7287C145.381 12.4083 145.57 12.1726 145.815 12.0218C146.06 11.871 146.333 11.7956 146.635 11.7956C147.144 11.7956 147.502 11.9841 147.709 12.3611C147.935 12.7193 148.048 13.2377 148.048 13.9163V21.8332H152.94V13.4073Z" fill="#444089"/>
<path d="M156.758 16.8851L154.977 20.2215C155.655 20.6551 156.362 21.0415 157.097 21.3808C157.832 21.7201 158.615 21.984 159.444 22.1725C160.292 22.361 161.188 22.4552 162.13 22.4552C163.751 22.4552 164.995 22.1065 165.863 21.4091C166.748 20.7116 167.191 19.6278 167.191 18.1575C167.191 17.3469 167.012 16.6966 166.654 16.2065C166.315 15.7164 165.863 15.3206 165.297 15.019C164.75 14.6985 164.147 14.4158 163.487 14.1707C162.79 13.9068 162.215 13.6995 161.763 13.5487C161.31 13.3979 160.971 13.2471 160.745 13.0963C160.519 12.9266 160.405 12.7099 160.405 12.446C160.405 12.2575 160.481 12.0972 160.632 11.9653C160.801 11.8333 161.065 11.7674 161.423 11.7674C161.989 11.7674 162.639 11.937 163.374 12.2763C164.128 12.5968 164.807 13.0209 165.41 13.5487L166.852 10.2971C166.268 9.95778 165.674 9.66561 165.071 9.42056C164.468 9.15666 163.827 8.94932 163.148 8.79852C162.488 8.62887 161.772 8.54404 160.999 8.54404C160 8.54404 159.124 8.69484 158.37 8.99644C157.616 9.27919 157.022 9.70331 156.588 10.2688C156.155 10.8155 155.938 11.494 155.938 12.3046C155.938 13.1528 156.108 13.8503 156.447 14.3969C156.805 14.9247 157.267 15.3488 157.832 15.6693C158.398 15.9709 158.992 16.2254 159.614 16.4327C160.368 16.6778 160.933 16.8851 161.31 17.0548C161.706 17.2244 161.97 17.3941 162.102 17.5637C162.253 17.7145 162.328 17.903 162.328 18.1292C162.328 18.3931 162.243 18.6004 162.074 18.7512C161.904 18.902 161.64 18.9774 161.282 18.9774C161.056 18.9774 160.735 18.9303 160.321 18.8361C159.906 18.7418 159.406 18.5439 158.822 18.2423C158.238 17.9407 157.55 17.4883 156.758 16.8851Z" fill="#444089"/>
<path d="M3.92368 21.8332H13.9047V17.394H3.92368V21.8332ZM3.92368 6.47997H13.9047V2.04083H3.92368V6.47997ZM3.92368 13.69H13.3392V9.39228H3.92368V13.69ZM0.191406 2.04083V21.8332H3.92368V2.04083H0.191406Z" fill="#00A0DC"/>
<path d="M28.8378 2.04083L26.0103 7.29994L23.2393 2.04083H16.4251L22.6173 11.7391L15.7182 21.8332H22.5325L25.9537 15.7541L29.2619 21.8332H36.1044L29.3467 11.7391L35.6803 2.04083H28.8378Z" fill="#00A0DC"/>
<path d="M46.8101 10.1557L49.4397 16.0934L49.1287 17.5071L51.3907 21.8332H57.6111L46.8101 0.711914L36.0374 21.8332H42.2579L44.5482 17.3092L44.2089 16.0934L46.8101 10.1557Z" fill="#00A0DC"/>
<path d="M43.8754 18.6381H49.72L49.1287 17.5071L49.4397 16.0934L48.7761 14.5948H44.8654L44.2089 16.0934L44.5482 17.3092L43.8754 18.6381Z" fill="#00A0DC"/>
<path fill-rule="evenodd" clip-rule="evenodd" d="M122.861 22.1159C124.595 22.1159 126.056 21.7861 127.243 21.1263C128.45 20.4666 129.402 19.4675 130.099 18.1292L125.688 17.2527C125.405 17.7428 125.01 18.1198 124.501 18.3837C124.011 18.6287 123.407 18.7512 122.691 18.7512C122.107 18.7512 121.617 18.6193 121.221 18.3554C120.825 18.0727 120.523 17.6768 120.316 17.1679L120.094 16.3479H129.929C129.948 16.1782 129.958 15.9897 129.958 15.7824C129.977 15.5562 129.986 15.33 129.986 15.1038C129.986 13.6901 129.703 12.5025 129.138 11.5412C128.572 10.561 127.752 9.81641 126.678 9.30746C125.603 8.79852 124.274 8.54404 122.691 8.54404C121.108 8.54404 119.75 8.81737 118.62 9.36401C117.489 9.91066 116.621 10.6929 116.018 11.7108C115.415 12.7099 115.113 13.9163 115.113 15.33C115.113 16.7249 115.424 17.9313 116.047 18.9492C116.669 19.9482 117.555 20.7305 118.704 21.296C119.873 21.8426 121.258 22.1159 122.861 22.1159ZM121.164 12.0501C120.787 12.314 120.505 12.7193 120.316 13.2659L120.161 13.8314H124.772C124.741 13.4383 124.651 13.099 124.501 12.8135C124.331 12.4365 124.077 12.1538 123.737 11.9653C123.417 11.7579 123.03 11.6543 122.578 11.6543C122.012 11.6543 121.541 11.7862 121.164 12.0501Z" fill="#444089"/>
<path d="M114.101 12.7853V8.82679H111.754V12.7853H114.101Z" fill="#444089"/>
<path d="M104.742 8.82679V12.7853H107.088V8.82679H104.742Z" fill="#444089"/>
</svg>
