<svg width="65" height="66" viewBox="0 0 65 66" fill="none" xmlns="http://www.w3.org/2000/svg">
<g clip-path="url(#clip0_1327_11166)">
<path d="M60.7068 25.0511L62.6109 23.1471C63.1615 22.5967 63.4646 21.8648 63.4646 21.0865C63.4646 20.3081 63.1615 19.5762 62.611 19.0259L60.4301 16.845C59.8797 16.2946 59.1478 15.9915 58.3696 15.9915C57.5911 15.9915 56.8594 16.2946 56.3091 16.845L54.4049 18.7491C51.8917 17.0181 49.04 15.7456 45.9704 15.0533V12.2389H47.129C48.6977 12.2389 49.9741 10.9625 49.9741 9.39374V5.4356C49.9741 3.86672 48.6977 2.59033 47.129 2.59033H34.0302C32.4615 2.59033 31.1851 3.86672 31.1851 5.4356V9.39361C31.1851 10.9624 32.4615 12.2388 34.0302 12.2388H35.1887V15.061C32.1332 15.7552 29.2941 17.0249 26.791 18.749L24.8868 16.8449C24.3365 16.2945 23.6046 15.9914 22.8264 15.9914C22.0479 15.9914 21.3161 16.2945 20.7658 16.8449L18.5849 19.0258C17.4488 20.162 17.4488 22.0107 18.5849 23.1469L18.9224 23.4845H9.92352C9.22249 23.4845 8.654 24.0529 8.654 24.754C8.654 25.4552 9.22249 26.0236 9.92352 26.0236H19.8526C18.9067 27.5471 18.1235 29.1815 17.5283 30.9032H1.26953C0.568495 30.9032 0 31.4716 0 32.1728C0 32.8739 0.568495 33.4423 1.26953 33.4423H16.8025C16.4443 35.017 16.2389 36.6489 16.2026 38.322H8.12498C7.42395 38.322 6.85545 38.8904 6.85545 39.5915C6.85545 40.2927 7.42395 40.861 8.12498 40.861H16.2785C16.4158 42.5411 16.7241 44.1732 17.1857 45.7407H6.34764C5.64661 45.7407 5.07811 46.3091 5.07811 47.0103C5.07811 47.7114 5.64661 48.2798 6.34764 48.2798H18.0888C21.7822 57.0708 30.4805 63.2602 40.5979 63.2602C54.0532 63.2602 65 52.3135 65 38.8581C65 33.737 63.413 28.9802 60.7068 25.0511ZM58.1044 18.6404C58.1952 18.5496 58.2987 18.5305 58.3696 18.5305C58.4405 18.5305 58.5441 18.5496 58.6348 18.6404L60.8158 20.8213C60.9065 20.912 60.9256 21.0156 60.9256 21.0865C60.9256 21.1573 60.9065 21.2609 60.8156 21.3517L59.1466 23.0207C58.3148 22.048 57.4081 21.1413 56.4354 20.3095L58.1044 18.6404ZM33.7241 9.39374V5.4356C33.7241 5.26675 33.8615 5.12939 34.0302 5.12939H47.129C47.2977 5.12939 47.435 5.26675 47.435 5.4356V9.39361C47.435 9.56246 47.2977 9.69969 47.129 9.69969H44.7009H36.4582H34.0302C33.8615 9.69982 33.7241 9.56246 33.7241 9.39374ZM37.7277 12.2389H43.4313V14.6214C42.5014 14.5134 41.5564 14.456 40.598 14.456C39.6269 14.456 38.6696 14.5148 37.7278 14.6256V12.2389H37.7277ZM20.3801 20.8211L22.561 18.6402C22.6518 18.5495 22.7553 18.5304 22.8263 18.5304C22.8971 18.5304 23.0007 18.5495 23.0915 18.6402L24.7605 20.3094C23.7878 21.1412 22.8811 22.0479 22.0493 23.0206L20.3801 21.3516C20.2339 21.2054 20.2339 20.9674 20.3801 20.8211ZM40.5979 60.721C28.5426 60.721 18.7348 50.9133 18.7348 38.858C18.7348 26.8027 28.5426 16.9949 40.5979 16.9949C52.6532 16.9949 62.4609 26.8027 62.4609 38.858C62.4609 50.9133 52.6532 60.721 40.5979 60.721Z" fill="#0EADFF"/>
<path d="M48.9779 28.6833L42.9767 34.6845C42.2749 34.2831 41.4635 34.0523 40.5987 34.0523C37.9488 34.0523 35.793 36.2081 35.793 38.8581C35.793 41.508 37.9488 43.6638 40.5987 43.6638C43.2485 43.6638 45.4043 41.508 45.4043 38.8581C45.4043 37.9933 45.1735 37.1818 44.7721 36.48L50.7733 30.4788C51.2691 29.9831 51.2691 29.1792 50.7733 28.6833C50.2774 28.1876 49.4738 28.1876 48.9779 28.6833ZM40.5987 41.1249C39.3488 41.1249 38.332 40.1081 38.332 38.8583C38.332 37.6084 39.3489 36.5915 40.5987 36.5915C41.8484 36.5915 42.8653 37.6084 42.8653 38.8583C42.8653 40.1081 41.8485 41.1249 40.5987 41.1249Z" fill="#0EADFF"/>
<path d="M40.5977 22.3983C40.9315 22.3983 41.2591 22.2625 41.4951 22.0263C41.7312 21.7902 41.8672 21.4627 41.8672 21.1288C41.8672 20.7949 41.7314 20.4674 41.4951 20.2312C41.2591 19.9951 40.9315 19.8593 40.5977 19.8593C40.2638 19.8593 39.9362 19.9951 39.7001 20.2312C39.464 20.4674 39.3281 20.7949 39.3281 21.1288C39.3281 21.4639 39.4638 21.7902 39.7001 22.0263C39.9364 22.2625 40.2638 22.3983 40.5977 22.3983Z" fill="#0EADFF"/>
<path d="M40.5977 55.3173C40.2638 55.3173 39.9362 55.4531 39.7001 55.6892C39.464 55.9254 39.3281 56.2529 39.3281 56.5868C39.3281 56.9219 39.4638 57.2482 39.7001 57.4844C39.9362 57.7218 40.2638 57.8563 40.5977 57.8563C40.9315 57.8563 41.2591 57.7218 41.4951 57.4844C41.7312 57.2482 41.8672 56.9207 41.8672 56.5868C41.8672 56.2529 41.7314 55.9254 41.4951 55.6892C41.2591 55.4531 40.9315 55.3173 40.5977 55.3173Z" fill="#0EADFF"/>
<path d="M28.0625 25.0516C27.7286 25.0516 27.4011 25.1875 27.1649 25.4236C26.9288 25.6597 26.793 25.9873 26.793 26.3212C26.793 26.6563 26.9287 26.9826 27.1649 27.22C27.4011 27.4561 27.7286 27.5907 28.0625 27.5907C28.3964 27.5907 28.7239 27.4561 28.9599 27.22C29.1961 26.9826 29.332 26.6563 29.332 26.3212C29.332 25.9873 29.1962 25.661 28.9599 25.4236C28.7239 25.1875 28.3964 25.0516 28.0625 25.0516Z" fill="#0EADFF"/>
<path d="M53.1348 50.1249C52.7995 50.1249 52.4733 50.2607 52.2359 50.4968C51.9998 50.733 51.8652 51.0605 51.8652 51.3944C51.8652 51.7283 51.9998 52.0558 52.2359 52.292C52.4733 52.5281 52.7995 52.6639 53.1348 52.6639C53.4687 52.6639 53.7962 52.5281 54.0322 52.292C54.2683 52.0558 54.4043 51.7283 54.4043 51.3944C54.4043 51.0605 54.2685 50.733 54.0322 50.4968C53.7962 50.2607 53.4687 50.1249 53.1348 50.1249Z" fill="#0EADFF"/>
<path d="M28.0625 50.1249C27.7286 50.1249 27.4011 50.2607 27.1649 50.4968C26.9288 50.733 26.793 51.0605 26.793 51.3944C26.793 51.7283 26.9287 52.0558 27.1649 52.292C27.4012 52.5281 27.7286 52.6639 28.0625 52.6639C28.3964 52.6639 28.7239 52.5281 28.9599 52.292C29.1961 52.0558 29.332 51.7283 29.332 51.3944C29.332 51.0605 29.1962 50.733 28.9599 50.4968C28.7239 50.2607 28.3964 50.1249 28.0625 50.1249Z" fill="#0EADFF"/>
<path d="M22.8691 37.5884C22.534 37.5884 22.2077 37.7242 21.9716 37.9604C21.7343 38.1965 21.5996 38.524 21.5996 38.8579C21.5996 39.1918 21.7343 39.5193 21.9716 39.7555C22.2077 39.9929 22.5341 40.1274 22.8691 40.1274C23.203 40.1274 23.5306 39.9929 23.7667 39.7555C24.0027 39.5193 24.1387 39.1918 24.1387 38.8579C24.1387 38.524 24.0028 38.1965 23.7667 37.9604C23.5306 37.7242 23.203 37.5884 22.8691 37.5884Z" fill="#0EADFF"/>
<path d="M59.2257 37.9604C58.9896 37.7242 58.662 37.5884 58.3281 37.5884C57.993 37.5884 57.6667 37.7242 57.4307 37.9604C57.1946 38.1965 57.0586 38.524 57.0586 38.8579C57.0586 39.1931 57.1944 39.5193 57.4307 39.7555C57.6667 39.9916 57.9942 40.1274 58.3281 40.1274C58.662 40.1274 58.9896 39.9916 59.2257 39.7555C59.4618 39.5193 59.5977 39.1918 59.5977 38.8579C59.5975 38.524 59.4618 38.1966 59.2257 37.9604Z" fill="#0EADFF"/>
<path d="M1.26953 45.7412C0.935645 45.7412 0.608105 45.8758 0.371973 46.1119C0.13584 46.3493 0 46.6756 0 47.0107C0 47.3446 0.135713 47.6709 0.371973 47.9083C0.608105 48.1444 0.935645 48.2803 1.26953 48.2803C1.60342 48.2803 1.93096 48.1444 2.16696 47.9083C2.4031 47.6722 2.53906 47.3446 2.53906 47.0107C2.53906 46.6756 2.40322 46.348 2.16696 46.1119C1.93096 45.8758 1.60342 45.7412 1.26953 45.7412Z" fill="#0EADFF"/>
<path d="M57.9533 35.0032C58.6252 34.803 59.0077 34.096 58.8075 33.424C57.9099 30.4124 56.2534 27.6411 54.0171 25.4095C51.7805 23.1776 49.0051 21.5271 45.991 20.6363C45.3188 20.4375 44.6126 20.8215 44.4138 21.4939C44.2149 22.1662 44.599 22.8724 45.2714 23.0711C50.6281 24.6544 54.7787 28.7957 56.3741 34.1491C56.5383 34.7 57.0433 35.0563 57.5902 35.0563C57.7102 35.0564 57.8323 35.0391 57.9533 35.0032Z" fill="#0EADFF"/>
</g>
<defs>
<clipPath id="clip0_1327_11166">
<rect width="65" height="65" fill="white" transform="translate(0 0.425171)"/>
</clipPath>
</defs>
</svg>
