<svg width="79" height="77" viewBox="0 0 79 77" fill="none" xmlns="http://www.w3.org/2000/svg">
<path d="M25.1669 21.0791C24.7727 21.0791 24.3856 20.8891 24.1463 20.5372L20.3666 14.9978C19.9794 14.4347 20.1272 13.6605 20.6903 13.2804C21.2534 12.8932 22.0277 13.0411 22.4077 13.6041L26.1875 19.1435C26.5746 19.7066 26.4268 20.4808 25.8637 20.8609C25.6455 21.0158 25.4062 21.0791 25.1669 21.0791Z" fill="#0EADFF"/>
<path d="M33.2258 19.8193C32.6275 19.8193 32.1067 19.3899 32.0081 18.7846L30.2415 7.95219C30.1288 7.27648 30.5934 6.64301 31.262 6.53039C31.9378 6.41778 32.5712 6.88232 32.6838 7.55099L34.4505 18.3834C34.5631 19.0591 34.0986 19.6926 33.4299 19.8052C33.3595 19.8193 33.2892 19.8193 33.2258 19.8193Z" fill="#0EADFF"/>
<path d="M41.2849 19.8192C41.2286 19.8192 41.1723 19.8192 41.116 19.8051C40.4403 19.7136 39.9687 19.0872 40.0602 18.4115L41.5735 7.5791C41.665 6.9034 42.2844 6.43181 42.9671 6.52332C43.6428 6.61482 44.1144 7.24125 44.0229 7.91696L42.5096 18.7564C42.4251 19.3758 41.8973 19.8192 41.2849 19.8192Z" fill="#0EADFF"/>
<path d="M48.8436 21.0791C48.6184 21.0791 48.3861 21.0158 48.175 20.8821C47.5978 20.516 47.4289 19.7488 47.8019 19.1717L52.0814 12.4991C52.4474 11.929 53.2146 11.76 53.7918 12.126C54.3689 12.4921 54.5308 13.2593 54.1648 13.8364L49.8853 20.516C49.646 20.8821 49.2519 21.0791 48.8436 21.0791Z" fill="#0EADFF"/>
<path d="M11.0537 48.5437C10.934 48.5437 10.8143 48.5296 10.7017 48.4944L3.14228 46.221C2.81851 46.1224 2.544 45.8972 2.39619 45.5945C2.24134 45.2919 2.22023 44.9399 2.33285 44.6232L9.89229 23.4652C10.0119 23.1414 10.2513 22.881 10.575 22.7473C10.8918 22.6135 11.2507 22.6135 11.5675 22.7543L18.8735 26.0272C19.3592 26.2454 19.6548 26.7522 19.5985 27.2801C18.5779 37.5283 12.3769 47.5442 12.1094 47.9665C11.8772 48.3255 11.476 48.5437 11.0537 48.5437ZM5.09901 44.229L10.4835 45.8409C11.8983 43.3774 16.0088 35.6772 17.0294 27.9066L11.7716 25.5486L5.09901 44.229Z" fill="#0EADFF"/>
<path d="M62.4491 48.5437C62.069 48.5437 61.696 48.3677 61.4567 48.051C54.5659 38.8586 52.4965 28.5823 52.4121 28.1459C52.3135 27.6461 52.5317 27.1393 52.9611 26.8648L59.2606 22.8317C59.5562 22.6417 59.9152 22.5924 60.2531 22.6769C60.5909 22.7684 60.8725 23.0007 61.0344 23.3103L71.1136 43.2084C71.2685 43.5041 71.2896 43.856 71.177 44.1727C71.0643 44.4895 70.8321 44.7499 70.5294 44.8907L62.97 48.417C62.801 48.5015 62.6251 48.5437 62.4491 48.5437ZM55.0304 28.4767C55.6358 30.9543 57.8036 38.6756 62.8433 45.7494L68.3193 43.1944L59.4436 25.6542L55.0304 28.4767Z" fill="#0EADFF"/>
<path d="M55.6424 50.5567C55.3398 50.5567 55.0371 50.4441 54.7978 50.2259C49.0825 44.8977 39.6226 36.1839 38.5879 35.5012C37.9967 35.1141 36.8705 35.2689 36.1244 35.4801C35.4909 36.7259 33.7313 39.7032 31.0285 40.4423C29.1492 40.9561 27.5303 40.7238 26.4815 39.7947C25.658 39.0698 25.285 37.9788 25.4539 36.8104C25.6862 35.1985 26.6786 34.009 27.2628 33.4319C27.3895 32.3972 27.7626 30.2786 28.7761 29.1172C30.1346 27.5617 34.407 25.0982 34.8856 24.8237C34.9701 24.7744 35.0545 24.7392 35.1531 24.711C35.3431 24.6547 39.8971 23.3456 43.2827 24.7533C45.5561 25.7035 47.0342 26.6607 47.7099 27.1464L53.5379 26.6818C54.1995 26.6255 54.8119 27.1323 54.8682 27.8151C54.9245 28.4978 54.4177 29.089 53.735 29.1454L47.4354 29.6521C47.1187 29.6803 46.7949 29.5747 46.5415 29.3706C46.5274 29.3636 45.1056 28.2022 42.3254 27.0408C40.0167 26.0836 36.6734 26.8719 35.9766 27.0479C34.2733 28.0262 31.4367 29.8281 30.6343 30.7431C30.1135 31.3414 29.7615 33.0799 29.6771 34.1287C29.6489 34.4736 29.48 34.7903 29.2055 35.0015C29.1984 35.0085 28.0793 35.9235 27.9033 37.1553C27.8541 37.5002 27.9244 37.7676 28.1215 37.9366C28.4312 38.2111 29.1844 38.38 30.3809 38.0562C32.1758 37.5635 33.7102 34.8818 34.1114 33.9738C34.2451 33.6782 34.4844 33.4389 34.7871 33.3192C35.1038 33.1925 37.9615 32.1227 39.9534 33.4389C41.3541 34.368 52.4891 44.7006 55.741 47.7272L60.3512 44.3769C60.9002 43.9757 61.6745 44.0953 62.0827 44.6514C62.4839 45.2074 62.3643 45.9746 61.8082 46.3829L56.3744 50.3386C56.1562 50.4793 55.8958 50.5567 55.6424 50.5567Z" fill="#0EADFF"/>
<path d="M30.8315 30.1519C30.7963 30.1519 30.7611 30.1519 30.7329 30.1449L18.2605 29.1383C17.5778 29.082 17.071 28.4838 17.1273 27.8081C17.1836 27.1253 17.7678 26.6115 18.4576 26.6748L30.93 27.6814C31.6127 27.7377 32.1195 28.3359 32.0632 29.0117C32.0139 29.6592 31.472 30.1519 30.8315 30.1519Z" fill="#0EADFF"/>
<path d="M54.2557 54.977C52.9466 54.977 51.6655 54.3506 50.8842 53.7875C50.8561 53.7664 50.835 53.7452 50.8068 53.7241L39.721 44.2079C39.2002 43.7645 39.1439 42.9832 39.5873 42.4624C40.0307 41.9415 40.812 41.8852 41.3329 42.3286L52.3694 51.8026C52.6017 51.9574 54.2205 52.9851 55.0229 52.1897C55.8465 51.3732 54.8611 50.2893 54.7484 50.1696C54.2768 49.6769 54.298 48.8886 54.7907 48.4241C55.2834 47.9525 56.0717 47.9736 56.5362 48.4663C57.6554 49.6417 58.6408 52.0771 56.7615 53.9423C56.0154 54.7025 55.1285 54.977 54.2557 54.977Z" fill="#0EADFF"/>
<path d="M49.836 58.7355C48.921 58.7355 47.83 58.3836 46.5561 57.37C44.8175 55.9764 35.3647 47.7694 34.9635 47.4174C34.4497 46.967 34.3934 46.1857 34.8438 45.6719C35.2943 45.1581 36.0756 45.1018 36.5894 45.5522C36.688 45.6367 46.4012 54.076 48.1045 55.4414C49.7797 56.7788 50.378 56.1805 50.737 55.8215C51.6731 54.8784 50.7651 53.7029 50.6525 53.5762C50.2232 53.0483 50.3006 52.267 50.8285 51.8377C51.3564 51.4083 52.1377 51.4858 52.567 52.0136C53.4116 53.0554 54.4886 55.5541 52.4826 57.5671C51.9547 58.102 51.0608 58.7355 49.836 58.7355Z" fill="#0EADFF"/>
<path d="M44.2555 60.9175C42.9322 60.9175 41.7216 60.2348 41.0529 59.6506L35.774 55.2655C35.2461 54.8291 35.1757 54.0479 35.6121 53.527C36.0485 52.9991 36.8297 52.9287 37.3506 53.3651L42.6507 57.7713C42.9181 58.0036 44.2273 59.0101 45.2127 57.9684C45.9306 57.2082 44.9241 56.0116 44.8819 55.9553C44.4385 55.4345 44.4948 54.6602 45.0156 54.2168C45.5294 53.7734 46.3037 53.8226 46.7542 54.3364C47.634 55.343 48.8235 57.7572 47.0216 59.6717C46.1488 60.5867 45.1775 60.9175 44.2555 60.9175Z" fill="#0EADFF"/>
<path d="M38.1454 61.544C36.5828 61.544 34.5909 60.9738 32.1837 59.1649C31.6347 58.7567 31.5291 57.9824 31.9373 57.4334C32.3456 56.8844 33.1198 56.7788 33.6688 57.1871C38.2298 60.6078 40.2569 58.3555 40.3344 58.2569C40.7708 57.7431 41.552 57.6727 42.0729 58.1021C42.5937 58.5314 42.6782 59.2916 42.2559 59.8125C42.2348 59.8477 40.8271 61.544 38.1454 61.544Z" fill="#0EADFF"/>
<path d="M27.1503 58.7637C26.3479 58.7637 25.5737 58.5173 24.905 58.0598C23.1313 56.821 22.6949 54.3716 23.9337 52.5979L25.7215 50.0288C26.4535 48.98 27.6571 48.3466 28.9452 48.3466C29.7476 48.3466 30.5288 48.5929 31.1905 49.0504C32.0492 49.6487 32.6263 50.5496 32.8094 51.5773C32.9924 52.6119 32.7671 53.6537 32.1618 54.5124L30.374 57.0814C29.642 58.1372 28.4384 58.7637 27.1503 58.7637ZM28.9452 50.8241C28.4736 50.8241 28.0231 51.0564 27.7556 51.4435L25.9678 54.0126C25.5103 54.6672 25.6722 55.5752 26.3268 56.0327C26.9603 56.4761 27.9035 56.3002 28.3469 55.6737L30.1347 53.1046C30.3529 52.7879 30.4373 52.4008 30.374 52.0207C30.3036 51.6406 30.0925 51.3098 29.7757 51.0846C29.5294 50.9156 29.2408 50.8241 28.9452 50.8241Z" fill="#0EADFF"/>
<path d="M22.5964 56.1524C21.8151 56.1524 21.062 55.9131 20.4215 55.4697C18.697 54.2661 18.2747 51.887 19.4712 50.1626L20.8156 48.2269C21.5265 47.2064 22.6949 46.594 23.9478 46.594C24.7291 46.594 25.4822 46.8333 26.1227 47.2767C26.9603 47.8609 27.5164 48.7337 27.6994 49.7332C27.8753 50.7327 27.6571 51.7462 27.0729 52.5838L25.7286 54.5194C25.0106 55.5471 23.8422 56.1524 22.5964 56.1524ZM23.9478 49.0716C23.5114 49.0716 23.0961 49.2827 22.8498 49.6417L21.5054 51.5773C21.0831 52.1826 21.2309 53.0202 21.8362 53.4425C22.4204 53.8508 23.2932 53.6959 23.7014 53.1117L25.0458 51.1761C25.2499 50.8805 25.3274 50.5286 25.264 50.1766C25.2007 49.8247 25.0036 49.515 24.708 49.3109C24.4827 49.156 24.2223 49.0716 23.9478 49.0716Z" fill="#0EADFF"/>
<path d="M18.5718 53.2525C17.868 53.2525 17.1852 53.0414 16.601 52.6331C15.8479 52.1052 15.3411 51.3169 15.1792 50.4089C15.0174 49.501 15.2215 48.5859 15.7423 47.8328L16.6222 46.5659C17.2627 45.6438 18.3255 45.0878 19.4517 45.0878C20.1555 45.0878 20.8383 45.2989 21.4225 45.7072C22.978 46.7911 23.3651 48.9449 22.2741 50.5004L21.3943 51.7674C20.7538 52.6965 19.698 53.2525 18.5718 53.2525ZM19.4587 47.5654C19.142 47.5654 18.8393 47.7202 18.6634 47.9806L17.7835 49.2476C17.6357 49.4587 17.5794 49.7192 17.6216 49.9726C17.6639 50.2259 17.8117 50.4512 18.0228 50.599C18.4522 50.8946 19.0786 50.782 19.3742 50.3597L20.2541 49.0927C20.5638 48.6563 20.4512 48.044 20.0148 47.7413C19.8458 47.6287 19.6558 47.5654 19.4587 47.5654Z" fill="#0EADFF"/>
<path d="M31.2958 60.9246C30.5919 60.9246 29.9162 60.7134 29.3391 60.3122C27.7906 59.2353 27.4105 57.0956 28.4874 55.5471L29.9937 53.3863C30.6342 52.4713 31.6829 51.9222 32.8021 51.9222C33.5059 51.9222 34.1816 52.1334 34.7588 52.5346C35.5119 53.0555 36.0117 53.8438 36.1735 54.7447C36.3354 55.6457 36.1313 56.5536 35.6105 57.3068L34.1112 59.4606C33.4637 60.3756 32.4149 60.9246 31.2958 60.9246ZM32.8021 54.3998C32.4924 54.3998 32.1967 54.5547 32.0208 54.8081L30.5216 56.9619C30.2189 57.3912 30.3245 57.9825 30.7538 58.2851C31.1691 58.5737 31.7885 58.4611 32.0771 58.0458L33.5763 55.892C33.7241 55.6808 33.7734 55.4345 33.7312 55.1811C33.6889 54.9348 33.5482 54.7166 33.337 54.5687C33.1821 54.4561 32.9921 54.3998 32.8021 54.3998Z" fill="#0EADFF"/>
<path d="M16.1576 49.8176C15.9464 49.8176 15.7352 49.7613 15.5382 49.6487L11.1672 47.1218C10.576 46.7769 10.3718 46.0238 10.7167 45.4326C11.0616 44.8413 11.8147 44.6372 12.406 44.9821L16.777 47.509C17.3682 47.8539 17.5723 48.607 17.2274 49.1982C17.0022 49.5924 16.5869 49.8176 16.1576 49.8176Z" fill="#0EADFF"/>
</svg>
