<svg width="17" height="9" viewBox="0 0 17 9" fill="none" xmlns="http://www.w3.org/2000/svg">
<path fill-rule="evenodd" clip-rule="evenodd" d="M0.183617 8.56858C0.241674 8.62678 0.310644 8.67296 0.386575 8.70447C0.462507 8.73598 0.543908 8.7522 0.626117 8.7522C0.708326 8.7522 0.789728 8.73598 0.865659 8.70447C0.941591 8.67296 1.01056 8.62678 1.06862 8.56858L8.12612 1.50983L15.1836 8.56858C15.2417 8.62669 15.3107 8.67279 15.3866 8.70423C15.4626 8.73568 15.5439 8.75187 15.6261 8.75187C15.7083 8.75187 15.7897 8.73568 15.8656 8.70423C15.9415 8.67279 16.0105 8.62669 16.0686 8.56858C16.1267 8.51047 16.1728 8.44148 16.2043 8.36556C16.2357 8.28964 16.2519 8.20826 16.2519 8.12608C16.2519 8.0439 16.2357 7.96253 16.2043 7.8866C16.1728 7.81068 16.1267 7.74169 16.0686 7.68358L8.56862 0.183581C8.51056 0.125377 8.44159 0.0791988 8.36566 0.0476907C8.28973 0.0161827 8.20833 -3.58818e-05 8.12612 -3.58818e-05C8.04391 -3.58818e-05 7.96251 0.0161827 7.88658 0.0476907C7.81064 0.0791988 7.74167 0.125377 7.68362 0.183581L0.183617 7.68358C0.125413 7.74164 0.0792347 7.81061 0.0477266 7.88654C0.0162186 7.96247 0 8.04387 0 8.12608C0 8.20829 0.0162186 8.28969 0.0477266 8.36562C0.0792347 8.44155 0.125413 8.51052 0.183617 8.56858V8.56858Z" fill="#0EADFF"/>
</svg>
