<svg width="25" height="21" viewBox="0 0 25 21" fill="none" xmlns="http://www.w3.org/2000/svg">
<path fill-rule="evenodd" clip-rule="evenodd" d="M4.16137 2.79801C3.56387 2.79801 3.07047 3.29141 3.07047 3.88891V16.9797C3.07047 17.5772 3.56387 18.0706 4.16137 18.0706H21.6158C22.2133 18.0706 22.7067 17.5772 22.7067 16.9797V3.88891C22.7067 3.29141 22.2133 2.79801 21.6158 2.79801H4.16137ZM0.888672 3.88891C0.888672 2.08643 2.3589 0.616211 4.16137 0.616211H21.6158C23.4183 0.616211 24.8885 2.08643 24.8885 3.88891V16.9797C24.8885 18.7822 23.4183 20.2524 21.6158 20.2524H4.16137C2.3589 20.2524 0.888672 18.7822 0.888672 16.9797V3.88891Z" fill="#0EADFF"/>
<path fill-rule="evenodd" clip-rule="evenodd" d="M1.08597 3.26326C1.43147 2.76968 2.11168 2.64964 2.60526 2.99515L12.8887 10.1935L23.1721 2.99515C23.6657 2.64964 24.3459 2.76968 24.6914 3.26326C25.0369 3.75683 24.9168 4.43704 24.4233 4.78255L13.5143 12.4188C13.1386 12.6818 12.6387 12.6818 12.2631 12.4188L1.35408 4.78255C0.860499 4.43704 0.740461 3.75683 1.08597 3.26326Z" fill="#0EADFF"/>
</svg>
