<svg width="24" height="25" viewBox="0 0 24 25" fill="none" xmlns="http://www.w3.org/2000/svg">
<path fill-rule="evenodd" clip-rule="evenodd" d="M12 2.72625C6.57757 2.72625 2.18182 7.122 2.18182 12.5444C2.18182 17.9669 6.57757 22.3626 12 22.3626C17.4224 22.3626 21.8182 17.9669 21.8182 12.5444C21.8182 7.122 17.4224 2.72625 12 2.72625ZM0 12.5444C0 5.91702 5.37258 0.544434 12 0.544434C18.6274 0.544434 24 5.91702 24 12.5444C24 19.1719 18.6274 24.5444 12 24.5444C5.37258 24.5444 0 19.1719 0 12.5444Z" fill="#0EADFF"/>
<path fill-rule="evenodd" clip-rule="evenodd" d="M11.9991 4.90796C12.6016 4.90796 13.09 5.39638 13.09 5.99887V12.0925L17.1341 16.1366C17.5602 16.5626 17.5602 17.2533 17.1341 17.6793C16.7081 18.1054 16.0174 18.1054 15.5914 17.6793L11.2277 13.3157C11.0231 13.1111 10.9082 12.8337 10.9082 12.5443V5.99887C10.9082 5.39638 11.3966 4.90796 11.9991 4.90796Z" fill="#0EADFF"/>
</svg>
