<svg width="16" height="20" viewBox="0 0 16 20" fill="none" xmlns="http://www.w3.org/2000/svg">
<path fill-rule="evenodd" clip-rule="evenodd" d="M2.09564 13.3751C-2.29838 8.43246 1.21097 0.619385 7.82438 0.619385C14.4378 0.619385 17.9471 8.43246 13.5531 13.3751L8.46198 19.1019C8.30009 19.284 8.06805 19.3882 7.82438 19.3882C7.58072 19.3882 7.34868 19.284 7.18678 19.1019L2.09564 13.3751L2.73325 12.8083L2.09564 13.3751ZM7.82438 2.32564C2.68284 2.32564 -0.044693 8.39947 3.37085 12.2415L7.82438 17.2511L12.2779 12.2415C15.6934 8.39947 12.9659 2.32564 7.82438 2.32564Z" fill="#0EADFF"/>
<path fill-rule="evenodd" clip-rule="evenodd" d="M7.82463 6.59127C6.88229 6.59127 6.11837 7.35519 6.11837 8.29753C6.11837 9.23987 6.88229 10.0038 7.82463 10.0038C8.76697 10.0038 9.53089 9.23987 9.53089 8.29753C9.53089 7.35519 8.76697 6.59127 7.82463 6.59127ZM4.41211 8.29753C4.41211 6.41285 5.93995 4.88501 7.82463 4.88501C9.70931 4.88501 11.2371 6.41285 11.2371 8.29753C11.2371 10.1822 9.70931 11.71 7.82463 11.71C5.93995 11.71 4.41211 10.1822 4.41211 8.29753Z" fill="#0EADFF"/>
</svg>
