<svg width="23" height="24" viewBox="0 0 23 24" fill="none" xmlns="http://www.w3.org/2000/svg">
<path d="M13.9381 5.61621C14.9149 5.80678 15.8125 6.28447 16.5162 6.98815C17.2199 7.69182 17.6976 8.58948 17.8881 9.56621M13.9381 1.61621C15.9674 1.84165 17.8597 2.75039 19.3044 4.19322C20.749 5.63605 21.6601 7.52722 21.8881 9.55621M20.8881 17.5362V20.5362C20.8892 20.8147 20.8322 21.0904 20.7206 21.3456C20.6091 21.6007 20.4454 21.8298 20.2402 22.0181C20.035 22.2064 19.7927 22.3497 19.5289 22.4389C19.265 22.5281 18.9855 22.5613 18.7081 22.5362C15.631 22.2019 12.6751 21.1504 10.0781 19.4662C7.66194 17.9309 5.61345 15.8824 4.07812 13.4662C2.38809 10.8574 1.33636 7.88721 1.00812 4.79621C0.983127 4.51968 1.01599 4.24097 1.10462 3.97784C1.19324 3.7147 1.33569 3.4729 1.52288 3.26783C1.71008 3.06276 1.93792 2.89892 2.19191 2.78673C2.44589 2.67455 2.72046 2.61647 2.99812 2.61621H5.99812C6.48342 2.61143 6.95391 2.78329 7.32188 3.09974C7.68985 3.4162 7.93019 3.85566 7.99812 4.33621C8.12474 5.29628 8.35957 6.23894 8.69812 7.14621C8.83266 7.50413 8.86178 7.89313 8.78202 8.26709C8.70227 8.64106 8.51698 8.98432 8.24812 9.25621L6.97812 10.5262C8.40167 13.0298 10.4746 15.1027 12.9781 16.5262L14.2481 15.2562C14.52 14.9873 14.8633 14.8021 15.2372 14.7223C15.6112 14.6425 16.0002 14.6717 16.3581 14.8062C17.2654 15.1448 18.2081 15.3796 19.1681 15.5062C19.6539 15.5747 20.0975 15.8194 20.4146 16.1937C20.7318 16.568 20.9003 17.0458 20.8881 17.5362Z" stroke="#0EADFF" stroke-width="2" stroke-linecap="round" stroke-linejoin="round"/>
</svg>
