<svg width="12" height="15" viewBox="0 0 12 15" fill="none" xmlns="http://www.w3.org/2000/svg">
<path fill-rule="evenodd" clip-rule="evenodd" d="M1.57173 10.177C-1.72379 6.46998 0.908229 0.610168 5.86829 0.610168C10.8283 0.610168 13.4604 6.46998 10.1648 10.177L6.34649 14.4721C6.22507 14.6087 6.05104 14.6868 5.86829 14.6868C5.68554 14.6868 5.51151 14.6087 5.39009 14.4721L1.57173 10.177L2.04993 9.75186L1.57173 10.177ZM5.86829 1.88986C2.01213 1.88986 -0.0335197 6.44523 2.52814 9.32674L5.86829 13.0839L9.20844 9.32674C11.7701 6.44523 9.72443 1.88986 5.86829 1.88986Z" fill="#0EADFF"/>
<path fill-rule="evenodd" clip-rule="evenodd" d="M5.86798 5.08908C5.16123 5.08908 4.58829 5.66202 4.58829 6.36878C4.58829 7.07553 5.16123 7.64847 5.86798 7.64847C6.57474 7.64847 7.14768 7.07553 7.14768 6.36878C7.14768 5.66202 6.57474 5.08908 5.86798 5.08908ZM3.30859 6.36878C3.30859 4.95526 4.45447 3.80939 5.86798 3.80939C7.28149 3.80939 8.42737 4.95526 8.42737 6.36878C8.42737 7.78229 7.28149 8.92817 5.86798 8.92817C4.45447 8.92817 3.30859 7.78229 3.30859 6.36878Z" fill="#0EADFF"/>
</svg>
