<svg width="19" height="19" viewBox="0 0 19 19" fill="none" xmlns="http://www.w3.org/2000/svg">
<path d="M11.3302 9.49598L4.22232 16.6041C4.0266 16.7994 3.91894 17.0605 3.91894 17.3388C3.91894 17.6173 4.0266 17.8782 4.22232 18.0738L4.84515 18.6963C5.04055 18.8922 5.30176 19 5.58012 19C5.85848 19 6.11938 18.8922 6.31494 18.6963L14.778 10.2334C14.9743 10.0373 15.0818 9.77511 15.0811 9.49645C15.0818 9.21655 14.9745 8.95471 14.778 8.75838L6.32282 0.303692C6.12726 0.107821 5.86636 0 5.58785 0C5.30949 0 5.04859 0.107821 4.85287 0.303692L4.2302 0.926212C3.82502 1.33139 3.82502 1.99098 4.2302 2.39601L11.3302 9.49598Z" fill="#F5F5F5"/>
</svg>
