<svg width="39" height="38" viewBox="0 0 39 38" fill="none" xmlns="http://www.w3.org/2000/svg">
<g clip-path="url(#clip0_2065_18101)">
<path d="M31.9507 26.5884C31.8542 27.9207 32.2788 29.4848 31.0243 30.2957C30.0208 30.9329 28.6699 31.0681 27.3189 31.4543C26.9715 32.5742 28.2067 32.5549 28.7471 32.9025C29.4997 32.5742 30.1173 32.1687 30.7735 32.0336C32.4332 31.7053 33.9192 32.8638 34.1315 34.5244C34.3438 36.185 33.1473 37.7104 31.5261 37.8455C29.7892 37.9807 28.3611 36.7642 28.3032 35.0457C28.2839 34.5437 28.2839 34.1189 27.6856 33.9258C26.354 33.5203 25.582 32.748 26.0645 31.1453C24.1732 31.1453 22.3976 31.1453 20.6221 31.1453C20.3905 31.7053 20.5449 31.9949 21.1046 32.2846C22.4748 32.9797 23.0538 34.3313 22.6871 35.7409C22.359 36.996 21.1625 37.8842 19.8309 37.8842C18.4992 37.8842 17.3027 36.9766 16.9939 35.7216C16.6272 34.312 17.2641 33.0376 18.5957 32.246C18.9045 32.0722 19.0782 31.686 19.3098 31.3964C19.2519 31.3191 19.1747 31.2419 19.1168 31.1646C17.3606 31.1646 15.6236 31.1646 13.8288 31.1646C13.8095 31.2033 13.713 31.2998 13.7323 31.3577C13.9832 32.748 13.3463 33.5397 12.0726 33.9065C11.4357 34.0803 11.4164 34.5244 11.4164 35.0844C11.3971 36.5325 10.355 37.6718 8.90754 37.9421C7.5759 38.1931 6.16707 37.4014 5.64599 36.1271C5.12491 34.8334 5.54949 33.3466 6.66884 32.5163C7.90399 31.6088 9.25493 31.7632 10.8182 32.999C11.455 32.5163 12.7674 32.5935 12.3042 31.184C8.11628 30.5854 8.11628 30.5854 7.711 26.376C7.24782 26.5691 6.68814 26.6271 6.47585 26.936C6.14777 27.4187 5.62669 27.9207 6.32146 28.6738C7.22852 29.6586 7.09342 31.2805 6.22496 32.3039C5.3565 33.3273 3.85117 33.6362 2.63532 33.0183C1.45808 32.4197 0.801906 31.0874 1.07209 29.7937C1.34228 28.4614 2.48093 27.5153 3.87047 27.438C4.12136 27.4187 4.37225 27.438 4.64243 27.438C5.3179 26.1829 5.62669 24.4838 7.7303 25.2175C7.7303 23.2866 7.7303 21.5102 7.7303 19.7531C7.13202 19.5214 6.84254 19.7144 6.57235 20.2551C5.89688 21.6067 4.50734 22.186 3.0985 21.8191C1.86336 21.4716 0.975598 20.2744 0.994898 18.9228C0.994898 17.5905 1.92126 16.3933 3.1757 16.0844C4.56524 15.7561 5.89688 16.3161 6.57235 17.6484C6.84254 18.1697 7.11272 18.4207 7.7303 18.1697C7.7303 16.4512 7.7303 14.6941 7.7303 12.7825C5.74248 13.3811 5.24071 11.9136 4.70033 10.562C2.59673 10.6392 1.30368 9.94412 0.879103 8.01323C0.608915 6.75815 1.40018 5.32929 2.63532 4.78864C3.90907 4.22868 5.4337 4.63416 6.26356 5.71547C7.22852 6.98986 7.09342 8.28356 5.81968 9.94412C6.28286 10.6006 6.22496 11.8171 7.38291 11.4888C7.76889 10.1758 7.90399 8.8049 8.54086 7.78152C9.33212 6.52644 10.9147 6.97055 12.42 6.85469C12.2656 6.37197 12.227 5.7927 11.9568 5.61892C11.455 5.29067 10.934 4.7114 10.1234 5.42583C9.10053 6.33335 7.518 6.19819 6.49515 5.32929C5.4723 4.46038 5.18281 2.9736 5.78108 1.73782C6.34076 0.579287 7.7303 -0.077217 9.00404 0.193108C10.3357 0.482742 11.262 1.62197 11.3585 2.9929C11.3778 3.34047 11.5515 3.82319 11.8217 3.97766C13.5007 4.98173 13.5007 4.96242 13.713 6.85469C15.45 6.85469 17.2062 6.85469 18.9817 6.85469C19.3291 6.19819 18.9431 5.92786 18.4027 5.65754C17.1483 5.02034 16.6079 3.68803 16.936 2.31709C17.2255 1.15856 18.3062 0.231726 19.5028 0.115872C20.873 -0.0192902 22.0696 0.695141 22.5713 1.95022C23.1503 3.39839 22.5906 4.96242 21.1239 5.69616C20.5835 5.96648 20.3905 6.25612 20.6221 6.85469C22.359 6.85469 24.096 6.85469 25.8136 6.85469C25.9873 6.14026 25.9487 5.30998 26.354 4.80795C26.7785 4.2866 27.6084 4.09351 28.2453 3.74595C28.3032 1.50612 29.0751 0.386198 30.7349 0.0579456C32.0665 -0.21238 33.4946 0.540669 34.035 1.81506C34.5754 3.08945 34.1894 4.61486 33.0894 5.44514C31.8349 6.39128 30.4261 6.25612 28.9786 5.03965C27.3961 5.52238 27.2996 5.63823 27.3575 6.56506C28.6506 6.95124 30.0208 7.0864 31.0436 7.7429C32.2981 8.53457 31.8349 10.1179 31.9507 11.3923C33.4174 11.8943 33.3209 10.562 33.7262 10.0986C33.3981 9.28762 32.9543 8.61181 32.8385 7.87807C32.5876 6.23681 33.8806 4.76933 35.521 4.65347C37.1422 4.53762 38.5703 5.77339 38.6668 7.35673C38.7633 9.05591 37.5668 10.4268 35.8877 10.5427C35.5403 10.562 35.0386 10.6972 34.8649 10.9482C33.7648 12.6474 33.7841 12.6667 31.9507 12.937C31.9507 14.6748 31.9507 16.4319 31.9507 18.1697C32.6648 18.5366 32.8964 18.0925 33.1666 17.5712C33.8034 16.374 35.0772 15.8334 36.4281 16.1037C37.6054 16.3547 38.5703 17.4553 38.6668 18.6911C38.7826 20.0234 38.1071 21.1819 36.8913 21.7033C35.4439 22.3212 33.842 21.7612 33.0701 20.2551C32.7999 19.7144 32.4911 19.5407 31.9121 19.7917C31.9121 21.5295 31.9121 23.2866 31.9121 25.0244C32.0086 25.0823 32.0665 25.1403 32.1051 25.121C33.5332 24.8699 34.3245 25.5457 34.7105 26.8394C34.8456 27.3029 35.1158 27.438 35.6368 27.438C37.2773 27.438 38.3966 28.3842 38.7054 29.9289C38.9563 31.2033 38.2229 32.6128 37.0071 33.1728C35.714 33.7714 34.1508 33.3659 33.3016 32.2266C32.4332 31.0488 32.5297 29.5813 33.5525 28.3455C33.6104 28.2683 33.6683 28.1911 33.7648 28.0752C33.3595 27.438 33.456 26.1636 31.9507 26.5884ZM9.10053 18.9421C9.10053 21.8577 9.10053 24.7734 9.10053 27.689C9.10053 29.3303 9.50582 29.7165 11.1655 29.7358C16.9746 29.7358 22.7643 29.7358 28.5734 29.7358C30.1559 29.7358 30.5805 29.311 30.5805 27.747C30.5805 21.9157 30.5805 16.0844 30.5805 10.2338C30.5805 8.66973 30.1559 8.24494 28.5734 8.24494C22.7643 8.24494 16.9746 8.24494 11.1655 8.24494C9.50582 8.24494 9.10053 8.65043 9.10053 10.2724C9.08123 13.1687 9.10053 16.0651 9.10053 18.9421ZM8.42506 1.4675C7.5373 1.4675 6.84254 2.20124 6.86183 3.07014C6.88113 3.91973 7.5566 4.57624 8.40577 4.59555C9.31282 4.61486 10.0076 3.93904 10.0076 3.05083C10.0076 2.16262 9.31283 1.4675 8.42506 1.4675ZM32.7999 3.01221C32.7806 2.124 32.0472 1.44819 31.1594 1.48681C30.2717 1.52543 29.6155 2.23986 29.6541 3.12807C29.6927 3.97766 30.3682 4.61486 31.2366 4.61486C32.1244 4.59555 32.7999 3.90043 32.7999 3.01221ZM5.4337 7.62705C5.453 6.73884 4.75823 6.02441 3.87047 6.02441C3.04061 6.02441 2.34584 6.70022 2.30724 7.53051C2.26864 8.41872 2.94411 9.15246 3.83187 9.17177C4.73893 9.19108 5.4337 8.53457 5.4337 7.62705ZM35.7719 6.02441C34.8842 6.02441 34.1894 6.73884 34.2087 7.62705C34.228 8.49595 34.8649 9.15246 35.714 9.17177C36.6018 9.19108 37.3159 8.53457 37.3352 7.62705C37.3545 6.73884 36.6597 6.02441 35.7719 6.02441ZM5.4337 30.3923C5.4337 29.4848 4.75823 28.809 3.85117 28.809C2.96341 28.8283 2.26864 29.5234 2.30724 30.4116C2.32654 31.2612 3.00201 31.937 3.85117 31.937C4.73893 31.9756 5.4337 31.2998 5.4337 30.3923ZM35.7719 28.8283C34.8649 28.8283 34.2087 29.5041 34.2087 30.4309C34.2087 31.2805 34.8649 31.9563 35.714 31.9756C36.6018 31.9949 37.3159 31.2998 37.3352 30.4309C37.3545 29.5234 36.6597 28.8283 35.7719 28.8283ZM8.38647 36.5325C9.27423 36.5518 9.98829 35.8567 10.0076 34.9878C10.0269 34.0803 9.35142 33.4045 8.44436 33.4045C7.5952 33.4045 6.90043 34.0417 6.88113 34.8913C6.82324 35.7602 7.51801 36.4939 8.38647 36.5325ZM32.7999 35.0071C32.8192 34.1189 32.1437 33.4045 31.2366 33.4045C30.3682 33.4045 29.6927 34.0224 29.6541 34.872C29.6155 35.7602 30.2717 36.4939 31.1594 36.5325C32.0279 36.5518 32.7613 35.876 32.7999 35.0071ZM19.8502 4.59555C20.7572 4.57624 21.4134 3.90042 21.3941 2.9929C21.3748 2.14331 20.7186 1.48681 19.8502 1.4675C18.9624 1.44819 18.2676 2.14331 18.2676 3.03152C18.2676 3.93904 18.9238 4.59555 19.8502 4.59555ZM5.4337 18.9614C5.4144 18.0539 4.73893 17.3974 3.83187 17.4167C2.98271 17.436 2.32654 18.1118 2.32654 18.9614C2.30724 19.8496 3.00201 20.5447 3.88977 20.5447C4.77753 20.564 5.453 19.8882 5.4337 18.9614ZM37.3352 19.0386C37.3545 18.1311 36.6983 17.436 35.7912 17.436C34.9228 17.4167 34.2473 18.0539 34.2087 18.9035C34.1701 19.811 34.807 20.5254 35.6947 20.564C36.6018 20.6027 37.3159 19.9462 37.3352 19.0386ZM19.8502 33.3852C18.9431 33.3659 18.2676 34.0417 18.2676 34.9492C18.2676 35.8567 18.9624 36.5325 19.8502 36.5132C20.6993 36.4939 21.3555 35.8567 21.3941 34.9878C21.4134 34.0996 20.7572 33.4045 19.8502 33.3852Z" fill="#0EADFF"/>
<path d="M19.8303 25.1983C18.6145 25.1983 17.3986 25.2176 16.1828 25.1983C15.0442 25.179 14.4459 24.5997 14.4266 23.4798C14.388 21.742 14.4073 20.0235 14.4266 18.2857C14.4266 17.3974 14.8319 16.7796 15.7389 16.5092C15.9705 16.432 16.2214 16.0651 16.2407 15.7948C16.3372 15.0997 16.26 14.3853 16.3565 13.6901C16.5688 11.9909 18.0934 10.7166 19.8303 10.7166C21.5866 10.7166 23.0919 11.9909 23.3235 13.6708C23.3814 14.0184 23.4007 14.3659 23.4007 14.7328C23.42 15.621 23.1498 16.5865 24.52 16.8761C24.8481 16.9533 25.2148 17.8029 25.2341 18.305C25.3306 20.0042 25.292 21.7033 25.2534 23.4025C25.2341 24.6383 24.6358 25.1983 23.4007 25.2369C22.2041 25.2176 21.0076 25.1983 19.8303 25.1983ZM15.8547 17.8802C15.8547 19.9269 15.8547 21.8385 15.8547 23.7501C18.5566 23.7501 21.1813 23.7501 23.7867 23.7501C23.7867 21.742 23.7867 19.8304 23.7867 17.8802C21.1234 17.8802 18.518 17.8802 15.8547 17.8802ZM22.0304 16.3934C22.0304 15.872 22.0497 15.3893 22.0304 14.9259C22.0111 14.5397 22.0111 14.1535 21.9532 13.7867C21.7603 12.744 20.8918 12.0489 19.8303 12.0489C18.7689 12.0489 17.8618 12.7247 17.7267 13.7674C17.6302 14.617 17.7074 15.4666 17.7074 16.3934C19.1356 16.3934 20.5251 16.3934 22.0304 16.3934Z" fill="#0EADFF"/>
<path d="M18.9238 20.6026C19.1747 20.1392 19.3291 19.7337 19.5993 19.4441C19.6765 19.3475 20.2941 19.5213 20.3134 19.6178C20.3906 20.255 20.3906 20.9115 20.3327 21.5487C20.3134 21.6646 19.7151 21.8577 19.6379 21.7804C19.3677 21.4522 19.194 21.0467 18.9238 20.6026Z" fill="#0EADFF"/>
</g>
<defs>
<clipPath id="clip0_2065_18101">
<rect width="38" height="38" fill="white" transform="translate(0.822266)"/>
</clipPath>
</defs>
</svg>
