<svg width="38" height="39" viewBox="0 0 38 39" fill="none" xmlns="http://www.w3.org/2000/svg">
<g clip-path="url(#clip0_2065_18108)">
<path d="M23.5483 32.4798C23.6856 33.3365 23.8058 34.1246 23.9431 34.9641C25.3848 34.7585 25.6938 36.0263 26.3288 36.8144C26.6893 37.2769 27.2042 37.9794 27.0668 38.3906C26.8266 39.1444 25.9341 38.7846 25.3162 38.7846C20.888 38.8189 16.477 38.8017 12.0488 38.7846C11.6369 38.7846 11.2421 38.5448 10.8302 38.4248C10.9846 38.0308 11.1048 37.6025 11.3279 37.2255C11.6025 36.763 11.9973 36.3689 12.2891 35.9235C12.6838 35.3067 13.1301 34.8613 14.0226 35.0154C14.1599 34.176 14.2972 33.3707 14.4517 32.4798C14.0397 32.4798 13.7308 32.4798 13.4219 32.4798C9.74887 32.4798 6.05872 32.4798 2.38573 32.4798C0.669377 32.4798 0.0171635 31.8117 0.0171635 30.0984C0 23.6566 0 17.2319 0 10.79C0 9.1967 0.68654 8.49426 2.28275 8.47713C4.1364 8.46 5.99006 8.47713 7.84372 8.47713C8.15267 8.47713 8.46161 8.47713 8.87353 8.47713C8.87353 6.64395 8.87353 4.93069 8.87353 3.2003C8.87353 0.579023 8.61608 0.887409 11.2078 0.887409C16.7344 0.887409 22.2782 0.887409 27.8049 0.887409C29.075 0.887409 29.1265 0.921674 29.1265 2.17235C29.1265 3.97127 29.1265 5.75305 29.1265 7.55197C29.1265 7.82609 29.1265 8.10021 29.1265 8.47713C30.4995 8.47713 31.7697 8.47713 33.0569 8.47713C34.1039 8.47713 35.168 8.46 36.215 8.52853C37.2791 8.59706 37.9142 9.31662 37.9828 10.3617C38 10.5673 37.9828 10.7558 37.9828 10.9613C37.9828 17.2833 37.9828 23.6052 37.9828 29.9271C37.9828 31.8802 37.3821 32.497 35.4426 32.497C31.8211 32.497 28.1996 32.497 24.5781 32.497C24.2864 32.4798 23.9774 32.4798 23.5483 32.4798ZM8.87353 9.74494C6.6766 9.74494 4.63415 9.74494 2.57453 9.74494C1.39024 9.74494 1.30443 9.8306 1.30443 10.9956C1.30443 16.1525 1.30443 21.2923 1.30443 26.4492C1.30443 26.7576 1.33875 27.0488 1.35592 27.3743C13.1644 27.3743 24.8871 27.3743 36.6441 27.3743C36.6612 27.1859 36.6956 27.0488 36.6956 26.9118C36.6956 21.4979 36.6956 16.1011 36.7127 10.6872C36.7127 9.98479 36.4038 9.72781 35.7173 9.74494C33.9494 9.76207 32.1816 9.74494 30.4137 9.74494C30.0018 9.74494 29.5899 9.74494 29.1265 9.74494C29.1265 11.5781 29.1265 13.24 29.1265 14.919C29.1265 15.9298 28.9892 16.0497 27.9937 16.0497C22.0036 16.0497 16.0136 16.0497 10.0235 16.0497C8.95935 16.0497 8.85637 15.9469 8.85637 14.8504C8.87353 13.1886 8.87353 11.5267 8.87353 9.74494ZM10.1951 2.22375C10.1951 6.40409 10.1951 10.5502 10.1951 14.7305C16.0822 14.7305 21.935 14.7305 27.8049 14.7305C27.8049 10.533 27.8049 6.38696 27.8049 2.22375C21.9178 2.22375 16.0822 2.22375 10.1951 2.22375ZM36.5583 28.7449C24.8699 28.7449 13.1301 28.7449 1.40741 28.7449C0.97832 30.9722 1.14995 31.1949 3.26107 31.1949C13.7308 31.1949 24.1834 31.1949 34.6531 31.1949C36.8672 31.1949 36.953 31.0921 36.6441 28.8649C36.6441 28.8306 36.6098 28.8135 36.5583 28.7449ZM22.2439 32.5312C20.0126 32.5312 17.9015 32.5312 15.7389 32.5312C15.6016 33.3536 15.4815 34.1417 15.3613 34.9641C17.8672 34.9641 20.2014 34.9641 22.6387 34.9641C22.5014 34.1074 22.3812 33.3365 22.2439 32.5312ZM12.8383 37.4483C16.9575 37.4483 21.0253 37.4483 25.1617 37.4483C24.7669 36.6259 24.3207 36.2319 23.3939 36.249C20.4589 36.3175 17.5239 36.3175 14.589 36.249C13.6622 36.2319 13.1987 36.6088 12.8383 37.4483Z" fill="#0EADFF"/>
<path d="M21.592 19.8877C21.4547 21.0013 21.4547 21.0013 19.7212 21.2069C19.704 21.3954 19.6697 21.5838 19.6525 21.7723C19.6525 21.9436 19.6868 22.0978 19.6868 22.252C19.7727 22.3034 19.807 22.3548 19.8585 22.3548C21.3345 22.4062 21.5405 22.0807 21.5233 24.188C21.5062 26.3981 21.5748 26.1754 19.5324 26.1754C18.8115 26.1754 18.1078 26.1582 17.3869 26.1754C16.6832 26.2096 16.4086 25.8841 16.4258 25.1988C16.4429 24.6506 16.4258 24.1194 16.4258 23.5712C16.4258 22.4919 16.5288 22.3891 17.5757 22.3719C17.7645 22.3719 17.9705 22.3719 18.2279 22.3719C18.2279 21.9607 18.2279 21.6181 18.2279 21.2069C17.4728 21.0013 16.1855 21.4982 16.4258 19.8877C14.7438 19.8877 13.1304 19.8877 11.517 19.8877C11.0879 21.1384 11.0879 21.1384 9.68052 21.1384C7.65523 21.1384 5.62993 21.1213 3.60464 21.1384C2.81512 21.1384 2.43752 20.8643 2.48901 20.0248C2.52334 19.408 2.50618 18.7741 2.48901 18.1402C2.48901 17.5748 2.74647 17.3007 3.31286 17.3007C5.69859 17.3007 8.10148 17.3178 10.4872 17.3007C11.3282 17.3007 11.2939 17.9175 11.414 18.5C13.0446 18.5 14.6579 18.5 16.34 18.5C16.2713 17.3521 16.9578 17.2322 17.8675 17.2836C18.6399 17.335 19.4122 17.3178 20.1674 17.2836C20.9913 17.2493 21.6435 17.3521 21.4547 18.4828C23.171 18.4828 24.8016 18.4828 26.5179 18.4828C26.3978 17.3864 27.0328 17.2664 27.891 17.2836C29.9678 17.335 32.0446 17.3007 34.1385 17.3007C35.2885 17.3007 35.3915 17.4035 35.3915 18.5856C35.3915 19.0996 35.3743 19.6136 35.3915 20.1276C35.4258 20.8643 35.0653 21.1384 34.3616 21.1384C32.1132 21.1213 29.8648 21.1041 27.5992 21.1384C26.7067 21.1555 26.4836 20.6415 26.4836 19.8706C24.8874 19.8877 23.274 19.8877 21.592 19.8877ZM10.0753 18.6199C7.94701 18.6199 5.92171 18.6199 3.86209 18.6199C3.86209 19.0482 3.86209 19.4251 3.86209 19.7849C5.9732 19.7849 7.9985 19.7849 10.0753 19.7849C10.0753 19.3909 10.0753 19.0482 10.0753 18.6199ZM34.1557 18.637C32.0274 18.637 29.9849 18.637 27.9253 18.637C27.9253 19.0653 27.9253 19.408 27.9253 19.7849C30.0193 19.7849 32.0789 19.7849 34.1557 19.7849C34.1557 19.3909 34.1557 19.0653 34.1557 18.637ZM20.2361 18.6542C19.3607 18.6542 18.5712 18.6542 17.7989 18.6542C17.7989 19.0825 17.7989 19.4423 17.7989 19.7849C18.6399 19.7849 19.4294 19.7849 20.2361 19.7849C20.2361 19.408 20.2361 19.0653 20.2361 18.6542ZM17.7817 23.6911C17.7817 24.0852 17.7817 24.445 17.7817 24.8219C18.6227 24.8219 19.3951 24.8219 20.2018 24.8219C20.2018 24.4107 20.2018 24.068 20.2018 23.6911C19.3779 23.6911 18.6055 23.6911 17.7817 23.6911Z" fill="#0EADFF"/>
<path d="M20.2873 2.56641C20.6992 2.70347 21.0768 2.84053 21.4887 2.97759C20.2186 6.76388 18.9657 10.5159 17.6956 14.3365C17.2665 14.1994 16.9061 14.0795 16.4941 13.9424C17.7642 10.139 19.0172 6.4041 20.2873 2.56641Z" fill="#0EADFF"/>
<path d="M12.7013 8.40861C14.0058 9.64216 15.1214 10.6872 16.2885 11.7837C15.9796 12.1092 15.7221 12.3834 15.396 12.726C14.1087 11.4411 12.8215 10.1904 11.6029 8.88833C11.4656 8.73413 11.4827 8.18589 11.6372 8.01457C12.8558 6.74676 14.1087 5.53035 15.4303 4.22827C15.7049 4.51952 15.9452 4.79365 16.2885 5.15343C15.1214 6.21565 13.9714 7.26073 12.7013 8.40861Z" fill="#0EADFF"/>
<path d="M25.2649 8.44288C24.012 7.295 22.862 6.24991 21.6777 5.18769C22.0382 4.81078 22.2785 4.55379 22.5702 4.22827C23.8575 5.51321 25.1104 6.74676 26.3462 7.9803C26.6895 8.32295 26.638 8.6656 26.2947 9.00825C25.0933 10.2247 23.909 11.4411 22.6217 12.7431C22.3128 12.4005 22.0553 12.1092 21.7807 11.8009C22.9135 10.7215 24.012 9.65929 25.2649 8.44288Z" fill="#0EADFF"/>
</g>
<defs>
<clipPath id="clip0_2065_18108">
<rect width="38" height="38" fill="white" transform="translate(0 0.870361)"/>
</clipPath>
</defs>
</svg>
