<svg width="38" height="39" viewBox="0 0 38 39" fill="none" xmlns="http://www.w3.org/2000/svg">
<g clip-path="url(#clip0_2065_18083)">
<path d="M0.0159448 32.7053C3.89383 32.7053 7.68886 32.7053 11.5502 32.7053C11.5502 33.0816 11.5502 33.4237 11.5502 33.8856C8.15288 33.8856 4.75559 33.8856 1.30857 33.8856C1.30857 34.7237 1.20914 35.4935 1.34172 36.229C1.45772 36.9987 1.98803 37.529 2.80007 37.6487C3.14809 37.7001 3.51267 37.683 3.87726 37.683C13.8703 37.683 23.8633 37.683 33.8398 37.683C36.2593 37.683 36.6902 37.2553 36.6736 34.7751C36.6736 34.5185 36.6736 34.279 36.6736 33.9369C33.21 33.9369 29.8127 33.9369 26.3657 33.9369C26.3657 33.4922 26.3657 33.1501 26.3657 32.7395C30.2104 32.7395 34.022 32.7395 37.9994 32.7395C37.9331 34.0737 37.9662 35.4251 37.7508 36.708C37.5685 37.8027 36.7565 38.5382 35.6958 38.829C35.2318 38.9658 34.7181 39.0001 34.2209 39.0001C24.0456 39.0172 13.8537 39.0172 3.6784 39.0001C3.03208 39.0001 2.33605 38.9145 1.75602 38.6408C0.695404 38.1619 0.0988057 37.2382 0.032517 36.0408C-0.0337717 34.9632 0.0159448 33.8856 0.0159448 32.7053Z" fill="#0EADFF"/>
<path d="M19.6058 2.36038C21.8927 2.39459 24.0471 2.15512 26.0524 1.19722C26.533 0.974856 27.0467 0.803803 27.4444 0.478803C28.3228 -0.205408 29.0685 -0.154092 30.0131 0.461698C32.1178 1.83012 34.471 2.32617 36.9403 2.34328C37.2386 2.34328 37.5369 2.34328 37.9346 2.34328C37.9346 3.0617 37.9346 3.7117 37.9346 4.3617C37.9346 6.80775 37.9512 9.25381 37.9346 11.6828C37.8683 17.8064 32.8967 22.117 27.0467 21.1249C23.0528 20.4406 19.7052 16.5749 19.6224 12.4183C19.5561 9.09986 19.6058 5.78144 19.6058 2.36038ZM36.758 3.74591C36.4763 3.67749 36.3603 3.62617 36.2608 3.60907C33.7419 3.52354 31.3886 2.77091 29.1845 1.52222C28.9194 1.36828 28.4222 1.4367 28.157 1.60775C26.4998 2.56565 24.7266 3.14722 22.8705 3.45512C22.2076 3.57486 21.5116 3.59196 20.799 3.66038C20.799 6.29459 20.8156 8.84328 20.799 11.392C20.7824 14.0091 21.6276 16.2499 23.55 17.9775C25.8369 20.0301 28.4719 20.5775 31.3389 19.5683C34.0899 18.5933 36.062 16.592 36.4431 13.6328C36.8077 10.3828 36.6586 7.06433 36.758 3.74591Z" fill="#0EADFF"/>
<path d="M12.8269 31.388C11.6668 31.388 10.5234 31.4051 9.36331 31.388C8.08725 31.3709 7.39122 30.6525 7.37465 29.3354C7.35807 27.3512 7.32493 25.367 7.39122 23.3828C7.40779 22.8696 7.6398 22.2196 7.98782 21.9117C8.48498 21.4841 8.58442 21.0393 8.55127 20.4578C8.48498 19.0722 8.66728 17.738 9.59532 16.6262C10.8051 15.1722 12.5286 14.6933 14.2852 15.3262C15.9259 15.9078 17.0528 17.4814 17.1357 19.3117C17.1522 19.688 17.1688 20.0472 17.1357 20.4235C17.1025 21.0393 17.1688 21.5183 17.7323 21.9459C18.0637 22.2025 18.2791 22.8183 18.2957 23.263C18.3454 25.3328 18.3454 27.4025 18.3123 29.4722C18.2957 30.6354 17.5831 31.3709 16.4396 31.388C15.2464 31.4051 14.0367 31.388 12.8269 31.388ZM12.8269 22.5788C11.7331 22.5788 10.6228 22.5959 9.52903 22.5788C8.81643 22.5617 8.5347 22.8867 8.55127 23.588C8.56784 25.4354 8.56784 27.2828 8.55127 29.113C8.55127 29.8314 8.81643 30.1564 9.52903 30.1564C11.7497 30.1393 13.9869 30.1393 16.2076 30.1564C16.8705 30.1564 17.1522 29.8485 17.1522 29.1643C17.1357 27.2999 17.1357 25.4183 17.1522 23.5538C17.1522 22.8183 16.8208 22.5446 16.1413 22.5617C15.031 22.5959 13.9372 22.5788 12.8269 22.5788ZM15.843 21.2617C15.9756 19.4485 16.0419 17.738 14.3018 16.6946C13.3075 16.0959 11.9651 16.1985 11.0371 16.9341C9.89362 17.8406 9.46274 19.4999 9.94333 21.2617C11.8823 21.2617 13.8212 21.2617 15.843 21.2617Z" fill="#0EADFF"/>
<path d="M2.43538 31.3539C2.02108 31.3539 1.68964 31.3539 1.24219 31.3539C1.24219 31.046 1.24219 30.7382 1.24219 30.4474C1.24219 24.3921 1.24219 18.3539 1.24219 12.2987C1.24219 9.88684 2.41881 8.67236 4.73892 8.67236C8.99797 8.67236 13.2736 8.67236 17.5326 8.67236C17.7481 8.67236 17.9635 8.67236 18.2452 8.67236C18.2452 9.09999 18.2452 9.47631 18.2452 9.97236C17.9138 9.97236 17.5989 9.97236 17.2841 9.97236C13.1576 9.97236 9.03111 9.97236 4.90464 9.97236C3.06513 9.97236 2.43538 10.6224 2.43538 12.521C2.43538 18.4566 2.43538 24.3921 2.43538 30.3276C2.43538 30.6355 2.43538 30.9434 2.43538 31.3539Z" fill="#0EADFF"/>
<path d="M18.2953 11.2209C18.2953 11.6828 18.2953 12.0078 18.2953 12.4354C13.854 12.4354 9.42923 12.4354 4.92159 12.4354C4.92159 18.7815 4.92159 25.042 4.92159 31.3367C4.47415 31.3367 4.12613 31.3367 3.66211 31.3367C3.66211 31.0288 3.66211 30.7552 3.66211 30.4815C3.66211 24.6828 3.66211 18.8841 3.66211 13.1025C3.66211 11.5288 3.97698 11.2209 5.51819 11.2209C9.47894 11.2209 13.4397 11.2209 17.4004 11.2209C17.6822 11.2209 17.9639 11.2209 18.2953 11.2209Z" fill="#0EADFF"/>
<path d="M12.844 32.7053C16.9539 32.7053 20.9478 32.7053 25.0245 32.7053C25.0245 33.4408 25.0908 34.1764 25.008 34.8948C24.892 35.8527 24.1794 36.4343 23.1353 36.4514C20.3678 36.4856 17.5836 36.4856 14.8161 36.4514C13.5732 36.4343 12.9103 35.6987 12.8606 34.3987C12.8274 33.8856 12.844 33.3382 12.844 32.7053ZM23.7485 33.954C20.55 33.954 17.3682 33.954 14.1863 33.954C14.0206 35.0145 14.1366 35.1685 15.0812 35.1856C17.6665 35.2027 20.2517 35.1685 22.837 35.2027C23.649 35.2027 23.9473 34.8606 23.7485 33.954Z" fill="#0EADFF"/>
<path d="M36.624 31.354C36.2428 31.354 35.8948 31.354 35.5137 31.354C35.5137 27.3856 35.5137 23.4513 35.5137 19.4658C35.8783 19.4658 36.2097 19.4658 36.624 19.4658C36.624 23.4171 36.624 27.3685 36.624 31.354Z" fill="#0EADFF"/>
<path d="M33.0605 21.3303C33.4583 21.3303 33.7732 21.3303 34.1875 21.3303C34.1875 24.683 34.1875 28.0014 34.1875 31.354C33.8063 31.354 33.4583 31.354 33.0605 31.354C33.0605 28.0185 33.0605 24.7001 33.0605 21.3303Z" fill="#0EADFF"/>
<path d="M10.9707 36.4171C10.5895 36.4171 10.2415 36.4171 9.84375 36.4171C9.84375 36.0407 9.84375 35.6815 9.84375 35.2539C10.1918 35.2539 10.5564 35.2539 10.9707 35.2539C10.9707 35.6131 10.9707 35.9723 10.9707 36.4171Z" fill="#0EADFF"/>
<path d="M4.95508 36.4C4.95508 35.9894 4.95508 35.6302 4.95508 35.2368C5.33624 35.2368 5.68425 35.2368 6.06541 35.2368C6.06541 35.6473 6.06541 36.0237 6.06541 36.4C5.66768 36.4 5.30309 36.4 4.95508 36.4Z" fill="#0EADFF"/>
<path d="M8.53511 36.4171C8.12081 36.4171 7.78936 36.4171 7.4082 36.4171C7.4082 36.0236 7.4082 35.6644 7.4082 35.2539C7.78936 35.2539 8.13738 35.2539 8.53511 35.2539C8.53511 35.6302 8.53511 35.9894 8.53511 36.4171Z" fill="#0EADFF"/>
<path d="M22.0074 4.84094C24.3275 4.61858 26.3824 3.93437 28.3545 2.94226C28.5534 2.83963 28.9014 2.82252 29.1003 2.92515C31.0889 3.93436 33.1604 4.63568 35.4308 4.85805C35.4474 5.08042 35.4971 5.26858 35.4805 5.45673C35.4308 7.9541 35.5468 10.4686 35.3148 12.9488C35 16.2331 32.1495 18.6962 28.9014 18.7817C25.703 18.8673 22.6371 16.4041 22.1565 13.1883C21.9411 11.7344 22.0405 10.2462 22.0074 8.77516C21.9908 7.45805 22.0074 6.19226 22.0074 4.84094ZM23.2668 6.20936C23.2668 7.88568 23.2668 9.69884 23.2668 11.512C23.2668 11.9054 23.2668 12.3159 23.3166 12.7094C23.648 15.3949 26.1173 17.5844 28.7854 17.5502C31.5198 17.5159 33.9725 15.2923 34.1382 12.5383C34.2708 10.5541 34.2211 8.56989 34.2045 6.58568C34.2045 6.36331 33.9228 6.02121 33.6908 5.93568C32.1993 5.38831 30.6746 4.89226 29.15 4.41331C28.918 4.34489 28.6031 4.31068 28.3711 4.3791C26.7304 4.92647 25.0732 5.54226 23.2668 6.20936Z" fill="#0EADFF"/>
<path d="M13.5232 28.8225C13.0094 28.8225 12.6448 28.8225 12.1808 28.8225C12.3631 27.9672 12.0482 27.437 11.4682 26.9067C10.739 26.2396 10.8882 25.008 11.6174 24.3238C12.3134 23.6567 13.3906 23.6738 14.0866 24.358C14.8158 25.0593 14.9318 26.2909 14.1861 26.9409C13.606 27.4541 13.3409 27.9672 13.5232 28.8225ZM13.6723 25.6751C13.2746 25.4185 13.0426 25.1449 12.8437 25.162C12.6283 25.1962 12.4626 25.5212 12.2803 25.7093C12.4957 25.9146 12.678 26.2396 12.91 26.2738C13.0757 26.308 13.3077 25.983 13.6723 25.6751Z" fill="#0EADFF"/>
<path d="M28.007 12.846C29.3162 10.896 30.5756 9.01445 31.8848 7.06445C32.2329 7.30393 32.5312 7.5263 32.9123 7.78287C31.3545 10.075 29.8299 12.3158 28.2555 14.625C27.2612 13.8381 26.3 13.1026 25.3223 12.3329C25.5708 12.0079 25.7863 11.7171 26.0514 11.3579C26.6978 11.8539 27.3109 12.3158 28.007 12.846Z" fill="#0EADFF"/>
</g>
<defs>
<clipPath id="clip0_2065_18083">
<rect width="38" height="39" fill="white"/>
</clipPath>
</defs>
</svg>
