<svg width="39" height="39" viewBox="0 0 39 39" fill="none" xmlns="http://www.w3.org/2000/svg">
<g clip-path="url(#clip0_2065_18117)">
<path d="M20.2561 30.3431C14.5466 30.238 10.01 28.8187 6.16347 25.5772C4.19706 23.9476 2.43764 22.0552 0.643727 20.2329C0.471235 20.0577 0.453986 19.3919 0.643727 19.2167C3.55884 16.1853 6.37046 13.0314 10.2688 11.1916C18.0309 7.51193 27.1903 8.75599 33.5725 14.4507C35.2111 15.905 36.6601 17.5696 38.1952 19.1115C38.5575 19.4795 38.6437 19.8474 38.2642 20.2505C35.4009 23.2117 32.71 26.3656 28.8807 28.1704C25.8966 29.5547 22.7745 30.2205 20.2561 30.3431ZM10.424 19.7248C10.3378 24.5258 14.4431 28.9589 19.0659 29.0465C24.5511 29.1517 28.7772 25.1741 28.8807 19.8299C28.9842 14.7135 24.9306 10.5082 19.8248 10.4206C14.5811 10.2979 10.5275 14.328 10.424 19.7248ZM12.7354 11.6471C8.45762 13.0314 5.577 15.7999 2.00641 19.7073C5.09402 23.5621 10.3723 27.5221 12.5112 27.5922C7.52616 22.6335 8.47487 15.502 12.7354 11.6471ZM26.966 27.452C30.0364 26.7336 34.1762 23.0365 36.9188 19.6722C33.9692 16.0101 29.2429 12.348 27.0523 12.0326C31.3128 18.1653 31.2956 21.2317 26.966 27.452Z" fill="#0EADFF"/>
<path d="M21.1341 16.3957C20.8409 16.641 20.5304 16.8864 20.1854 17.1492C19.9784 16.9564 19.7369 16.7287 19.4437 16.4658C19.1505 16.7111 18.8917 16.9564 18.5467 17.2543C18.288 16.9389 18.0638 16.6586 17.8223 16.3607C18.9435 14.4683 19.5817 14.4508 21.1341 16.3957Z" fill="#0EADFF"/>
<path d="M16.4087 21.039C14.563 19.462 14.563 19.1816 16.5122 17.6572C16.7192 17.9551 16.9262 18.253 17.2021 18.6385C17.0642 18.7962 16.8399 19.0765 16.5812 19.3919C16.8227 19.6723 17.0642 19.9526 17.3401 20.2855C17.0297 20.5308 16.7537 20.7586 16.4087 21.039Z" fill="#0EADFF"/>
<path d="M22.3075 19.3742C22.066 19.0938 21.8245 18.831 21.5312 18.4981C21.8245 18.2002 22.1005 17.9374 22.3765 17.6746C24.3084 19.1815 24.3084 19.4443 22.3937 21.0914C22.135 20.8461 21.8762 20.5832 21.5485 20.2678C21.79 19.9875 22.0315 19.7071 22.3075 19.3742Z" fill="#0EADFF"/>
<path d="M19.4456 25.507C19.7216 25.2617 19.9459 25.0515 20.2218 24.8062C20.3943 24.9463 20.5668 25.069 20.7221 25.2267C20.8601 25.3669 20.9808 25.5246 21.1188 25.6647C19.4974 27.5746 19.4629 27.5746 17.7207 25.6122C18.0139 25.3669 18.3072 25.1216 18.6694 24.8237C18.8764 24.9989 19.1179 25.2267 19.4456 25.507Z" fill="#0EADFF"/>
<path d="M13.2866 17.6572C13.5281 17.9901 13.7523 18.288 14.0111 18.6385C13.8731 18.7962 13.6488 19.0765 13.4074 19.3744C13.6488 19.6372 13.8731 19.9 14.1318 20.1979C13.8213 20.4608 13.5281 20.7061 13.2176 20.9689C11.4064 19.7599 11.3892 19.3744 13.2866 17.6572Z" fill="#0EADFF"/>
<path d="M25.5848 21.0214C25.2571 20.741 24.9983 20.5308 24.7051 20.2855C24.9811 19.9525 25.2226 19.6722 25.4813 19.3743C25.2398 19.1115 25.0156 18.8486 24.7396 18.5333C25.0156 18.2354 25.2916 17.9725 25.5503 17.7097C27.4822 19.1465 27.4649 19.7773 25.5848 21.0214Z" fill="#0EADFF"/>
<path d="M21.1357 13.1715C20.8597 13.4169 20.5838 13.6622 20.2733 13.96C20.0145 13.7322 19.7386 13.5045 19.4281 13.2416C19.1521 13.4869 18.9106 13.7147 18.5311 14.0476C18.2896 13.7147 18.0481 13.3993 17.8066 13.0664C19.2901 11.2091 19.5661 11.2091 21.1357 13.1715Z" fill="#0EADFF"/>
<path d="M19.4453 22.3006C19.7386 22.0378 19.9628 21.8275 20.325 21.4771C20.5493 21.81 20.7563 22.1429 20.9805 22.4933C19.3591 24.5785 19.3591 24.1754 17.8066 22.4408C18.0826 22.1779 18.3586 21.9151 18.6863 21.6172C18.8761 21.7924 19.1348 22.0202 19.4453 22.3006Z" fill="#0EADFF"/>
</g>
<defs>
<clipPath id="clip0_2065_18117">
<rect width="38" height="38" fill="white" transform="translate(0.822266 0.870361)"/>
</clipPath>
</defs>
</svg>
