<svg width="20" height="20" viewBox="0 0 20 20" fill="none" xmlns="http://www.w3.org/2000/svg">
<path fill-rule="evenodd" clip-rule="evenodd" d="M7.50608 7.52246C7.77328 7.34433 7.93378 7.04444 7.93378 6.7233V2.88142C7.93378 1.29005 6.64372 0 5.05236 0H1.21047C0.680018 0 0.25 0.430018 0.25 0.960472C0.25 10.5086 8.95079 19.2094 18.499 19.2094C19.0294 19.2094 19.4594 18.7794 19.4594 18.249V14.4071C19.4594 12.8157 18.1694 11.5257 16.578 11.5257H12.7361C12.415 11.5257 12.1151 11.6862 11.937 11.9534L10.1069 14.6984C8.11376 13.4096 6.36748 11.7074 5.02426 9.74779L4.76103 9.3525L7.50608 7.52246ZM13.2502 13.4466H16.578C17.1085 13.4466 17.5385 13.8766 17.5385 14.4071V17.2552C15.6778 17.1264 13.8619 16.6288 12.1683 15.8397L11.7796 15.6524L13.2502 13.4466ZM11.7757 3.84189C13.8975 3.84189 15.6176 5.56196 15.6176 7.68378C15.6176 8.21423 15.1875 8.64425 14.6571 8.64425C14.1645 8.64425 13.7585 8.27347 13.7031 7.79579L13.6913 7.54041C13.618 6.54646 12.7883 5.76283 11.7757 5.76283C11.2452 5.76283 10.8152 5.33281 10.8152 4.80236C10.8152 4.27191 11.2452 3.84189 11.7757 3.84189ZM11.7757 0C16.0193 0 19.4594 3.44014 19.4594 7.68378C19.4594 8.21423 19.0294 8.64425 18.499 8.64425C17.9685 8.64425 17.5385 8.21423 17.5385 7.68378C17.5385 4.50105 14.9584 1.92094 11.7757 1.92094C11.2452 1.92094 10.8152 1.49093 10.8152 0.960472C10.8152 0.430018 11.2452 0 11.7757 0ZM5.05236 1.92094C5.58281 1.92094 6.01283 2.35096 6.01283 2.88142V6.20927L3.80699 7.67983C2.90938 5.8766 2.3429 3.92474 2.20425 1.92094H5.05236Z" fill="#0EADFF"/>
</svg>
