<svg width="28" height="24" viewBox="0 0 28 24" fill="none" xmlns="http://www.w3.org/2000/svg">
<path d="M18.8576 17.7141C18.8576 18.107 18.7177 18.4433 18.4379 18.7231C18.1582 19.0028 17.8218 19.1427 17.429 19.1427C17.0361 19.1427 16.6998 19.0028 16.4201 18.7231C16.1403 18.4433 16.0004 18.107 16.0004 17.7141C16.0004 17.3213 16.1403 16.985 16.4201 16.7052C16.6998 16.4255 17.0361 16.2856 17.429 16.2856C17.8218 16.2856 18.1582 16.4255 18.4379 16.7052C18.7177 16.985 18.8576 17.3213 18.8576 17.7141ZM23.429 17.7141C23.429 18.107 23.2891 18.4433 23.0093 18.7231C22.7296 19.0028 22.3933 19.1427 22.0004 19.1427C21.6076 19.1427 21.2713 19.0028 20.9915 18.7231C20.7117 18.4433 20.5718 18.107 20.5718 17.7141C20.5718 17.3213 20.7117 16.985 20.9915 16.7052C21.2713 16.4255 21.6076 16.2856 22.0004 16.2856C22.3933 16.2856 22.7296 16.4255 23.0093 16.7052C23.2891 16.985 23.429 17.3213 23.429 17.7141ZM25.429 20.5713V14.857C25.429 14.7022 25.3724 14.5683 25.2593 14.4552C25.1463 14.3421 25.0123 14.2856 24.8576 14.2856H3.14328C2.98851 14.2856 2.85458 14.3421 2.74149 14.4552C2.62839 14.5683 2.57185 14.7022 2.57185 14.857V20.5713C2.57185 20.7261 2.62839 20.86 2.74149 20.9731C2.85458 21.0862 2.98851 21.1427 3.14328 21.1427H24.8576C25.0123 21.1427 25.1463 21.0862 25.2593 20.9731C25.3724 20.86 25.429 20.7261 25.429 20.5713ZM3.4647 11.9999H24.5361L21.7326 3.39272C21.6849 3.23796 21.5897 3.10998 21.4468 3.00879C21.304 2.9076 21.1492 2.857 20.9826 2.857H7.01828C6.85161 2.857 6.69685 2.9076 6.55399 3.00879C6.41113 3.10998 6.3159 3.23796 6.26828 3.39272L3.4647 11.9999ZM27.7147 14.857V20.5713C27.7147 21.357 27.4349 22.0296 26.8754 22.5891C26.3159 23.1487 25.6433 23.4284 24.8576 23.4284H3.14328C2.35756 23.4284 1.68494 23.1487 1.12542 22.5891C0.565895 22.0296 0.286133 21.357 0.286133 20.5713V14.857C0.286133 14.5594 0.381371 14.113 0.571847 13.5177L4.0897 2.69629C4.29209 2.06534 4.66709 1.55343 5.2147 1.16057C5.76232 0.767717 6.36351 0.571289 7.01828 0.571289H20.9826C21.6373 0.571289 22.2385 0.767717 22.7861 1.16057C23.3338 1.55343 23.7088 2.06534 23.9111 2.69629L27.429 13.5177C27.6195 14.113 27.7147 14.5594 27.7147 14.857Z" fill="#0EADFF"/>
</svg>
