<svg width="24" height="18" viewBox="0 0 24 18" fill="none" xmlns="http://www.w3.org/2000/svg">
<path d="M9.18945 4.31543H11.0632V9.93677H9.18945V4.31543Z" fill="#0EADFF"/>
<path d="M5.44141 4.31543H7.31519V9.93677H5.44141V4.31543Z" fill="#0EADFF"/>
<path d="M16.6846 4.31543H18.5584V9.93677H16.6846V4.31543Z" fill="#0EADFF"/>
<path d="M12.9365 4.31543H14.8103V9.93677H12.9365V4.31543Z" fill="#0EADFF"/>
<path d="M0 3.7666L0.274384 4.04099C0.942324 4.70893 0.942324 5.79572 0.274384 6.4636L0 6.73804V13.6843H1.87378V13.7497H14.4676V13.6843H2.03728V17.4319H22.1262V13.6843H24V6.73804L23.7256 6.46366C23.0577 5.79572 23.0577 4.70892 23.7256 4.04105L24 3.76666V0.567871H0V3.7666ZM20.2524 15.5581H3.91106V13.6843H20.2524V15.5581ZM1.87378 7.481C2.9063 6.18072 2.9063 4.32393 1.87378 3.02365V2.44165H22.1262V3.02365C21.0937 4.32393 21.0937 6.18072 22.1262 7.481V11.8106H1.87378V7.481Z" fill="#0EADFF"/>
</svg>
