<svg width="28" height="24" viewBox="0 0 28 24" fill="none" xmlns="http://www.w3.org/2000/svg">
<path d="M25 6C23.7 6 22.6 6.825 22.175 8H19V4H17V1H15V4H13V1H11V4H9V8H4V5.825C5.175 5.4 6 4.3 6 3C6 1.35 4.65 0 3 0C1.35 0 0 1.35 0 3C0 4.3 0.825 5.4 2 5.825V10H9V12H2V16.175C0.825 16.6 0 17.7 0 19C0 20.65 1.35 22 3 22C4.65 22 6 20.65 6 19C6 17.7 5.175 16.6 4 16.175V14H9V18H11V21H13V18H15V21H17V18H19V14H21V18.175C19.825 18.6 19 19.7 19 21C19 22.65 20.35 24 22 24C23.65 24 25 22.65 25 21C25 19.7 24.175 18.6 23 18.175V12H19V10H22.175C22.6 11.175 23.7 12 25 12C26.65 12 28 10.65 28 9C28 7.35 26.65 6 25 6ZM3 4C2.45 4 2 3.55 2 3C2 2.45 2.45 2 3 2C3.55 2 4 2.45 4 3C4 3.55 3.55 4 3 4ZM3 20C2.45 20 2 19.55 2 19C2 18.45 2.45 18 3 18C3.55 18 4 18.45 4 19C4 19.55 3.55 20 3 20ZM17 16H11V6H17V16ZM22 20C22.55 20 23 20.45 23 21C23 21.55 22.55 22 22 22C21.45 22 21 21.55 21 21C21 20.45 21.45 20 22 20ZM25 10C24.45 10 24 9.55 24 9C24 8.45 24.45 8 25 8C25.55 8 26 8.45 26 9C26 9.55 25.55 10 25 10Z" fill="#0EADFF"/>
<path d="M14 12H12V14H14V12Z" fill="#0EADFF"/>
</svg>
