<svg width="24" height="24" viewBox="0 0 24 24" fill="none" xmlns="http://www.w3.org/2000/svg">
<g clip-path="url(#clip0_2176_16155)">
<path d="M24 2.8125C24 1.26169 22.7383 0 21.1875 0H2.8125C1.26169 0 0 1.26169 0 2.8125V6.5625C0 7.28231 0.272109 7.9395 0.718453 8.4375C0.272109 8.9355 0 9.59269 0 10.3125V14.0625C0 15.6133 1.26169 16.875 2.8125 16.875H11.0625V18.375H7.3125V20.25H0V22.125H7.3125V24H16.6875V22.125H24V20.25H16.6875V18.375H12.9375V16.875H21.1875C22.7383 16.875 24 15.6133 24 14.0625V10.3125C24 9.59269 23.7279 8.9355 23.2815 8.4375C23.7279 7.9395 24 7.28231 24 6.5625V2.8125ZM14.8125 22.125H9.1875V20.25H14.8125V22.125ZM1.875 2.8125C1.875 2.29556 2.29556 1.875 2.8125 1.875H21.1875C21.7044 1.875 22.125 2.29556 22.125 2.8125V6.5625C22.125 7.07944 21.7044 7.5 21.1875 7.5H2.8125C2.29556 7.5 1.875 7.07944 1.875 6.5625V2.8125ZM22.125 14.0625C22.125 14.5794 21.7044 15 21.1875 15H2.8125C2.29556 15 1.875 14.5794 1.875 14.0625V10.3125C1.875 9.79556 2.29556 9.375 2.8125 9.375H21.1875C21.7044 9.375 22.125 9.79556 22.125 10.3125V14.0625Z" fill="#0EADFF"/>
<path d="M8.25 13.125C8.76777 13.125 9.1875 12.7053 9.1875 12.1875C9.1875 11.6697 8.76777 11.25 8.25 11.25C7.73223 11.25 7.3125 11.6697 7.3125 12.1875C7.3125 12.7053 7.73223 13.125 8.25 13.125Z" fill="#0EADFF"/>
<path d="M4.5 13.125C5.01777 13.125 5.4375 12.7053 5.4375 12.1875C5.4375 11.6697 5.01777 11.25 4.5 11.25C3.98223 11.25 3.5625 11.6697 3.5625 12.1875C3.5625 12.7053 3.98223 13.125 4.5 13.125Z" fill="#0EADFF"/>
<path d="M8.25 5.625C8.76777 5.625 9.1875 5.20527 9.1875 4.6875C9.1875 4.16973 8.76777 3.75 8.25 3.75C7.73223 3.75 7.3125 4.16973 7.3125 4.6875C7.3125 5.20527 7.73223 5.625 8.25 5.625Z" fill="#0EADFF"/>
<path d="M4.5 5.625C5.01777 5.625 5.4375 5.20527 5.4375 4.6875C5.4375 4.16973 5.01777 3.75 4.5 3.75C3.98223 3.75 3.5625 4.16973 3.5625 4.6875C3.5625 5.20527 3.98223 5.625 4.5 5.625Z" fill="#0EADFF"/>
<path d="M14.8125 3.75H20.4375V5.625H14.8125V3.75Z" fill="#0EADFF"/>
<path d="M14.8125 11.25H20.4375V13.125H14.8125V11.25Z" fill="#0EADFF"/>
</g>
<defs>
<clipPath id="clip0_2176_16155">
<rect width="24" height="24" fill="white"/>
</clipPath>
</defs>
</svg>
