<svg width="24" height="24" viewBox="0 0 24 24" fill="none" xmlns="http://www.w3.org/2000/svg">
<path d="M6.375 22.765C5.44674 22.765 4.5565 22.3963 3.90013 21.7399C3.24375 21.0835 2.875 20.1933 2.875 19.265V3.875C2.875 3.60978 2.98036 3.35543 3.16789 3.16789C3.35543 2.98036 3.60978 2.875 3.875 2.875C4.14022 2.875 4.39457 2.98036 4.58211 3.16789C4.76964 3.35543 4.875 3.60978 4.875 3.875V19.27C4.875 19.6678 5.03304 20.0494 5.31434 20.3307C5.59564 20.612 5.97718 20.77 6.375 20.77C6.77282 20.77 7.15436 20.612 7.43566 20.3307C7.71696 20.0494 7.875 19.6678 7.875 19.27V8.33C7.91795 6.91117 8.51176 5.56485 9.53056 4.57643C10.5493 3.58801 11.913 3.03521 13.3325 3.03521C14.752 3.03521 16.1157 3.58801 17.1344 4.57643C18.1532 5.56485 18.7471 6.91117 18.79 8.33V10.77C18.79 11.0352 18.6846 11.2896 18.4971 11.4771C18.3096 11.6646 18.0552 11.77 17.79 11.77C17.5248 11.77 17.2704 11.6646 17.0829 11.4771C16.8954 11.2896 16.79 11.0352 16.79 10.77V8.33C16.756 7.43577 16.3768 6.58949 15.7321 5.96886C15.0875 5.34822 14.2274 5.00151 13.3325 5.00151C12.4376 5.00151 11.5775 5.34822 10.9329 5.96886C10.2882 6.58949 9.90901 7.43577 9.875 8.33V19.27C9.87368 20.1974 9.50434 21.0863 8.84811 21.7416C8.19187 22.3969 7.30239 22.765 6.375 22.765Z" fill="#0EADFF"/>
<path d="M21.5003 18.3001H14.0853C13.6504 18.3001 13.2332 18.1273 12.9257 17.8198C12.6181 17.5122 12.4453 17.0951 12.4453 16.6601V13.2701C12.4466 12.3661 12.8063 11.4995 13.4455 10.8603C14.0848 10.2211 14.9513 9.86143 15.8553 9.86011H19.7153C20.6193 9.86143 21.4859 10.2211 22.1251 10.8603C22.7643 11.4995 23.124 12.3661 23.1253 13.2701V16.6601C23.1253 17.0925 22.9546 17.5074 22.6503 17.8145C22.346 18.1216 21.9327 18.2962 21.5003 18.3001ZM14.4603 16.3001H21.1253V13.2701C21.1253 12.8962 20.9768 12.5375 20.7123 12.2731C20.4479 12.0087 20.0893 11.8601 19.7153 11.8601H15.8553C15.4814 11.8601 15.1227 12.0087 14.8583 12.2731C14.5939 12.5375 14.4453 12.8962 14.4453 13.2701L14.4603 16.3001Z" fill="#0EADFF"/>
<path d="M20.0304 23.125H15.5304C15.0998 23.1224 14.6874 22.9506 14.3825 22.6465C14.0775 22.3425 13.9043 21.9307 13.9004 21.5V17.3C13.9004 17.0348 14.0057 16.7805 14.1933 16.5929C14.3808 16.4054 14.6352 16.3 14.9004 16.3H20.6654C20.9306 16.3 21.185 16.4054 21.3725 16.5929C21.56 16.7805 21.6654 17.0348 21.6654 17.3V21.5C21.6614 21.9315 21.4876 22.3441 21.1816 22.6483C20.8755 22.9524 20.4619 23.1238 20.0304 23.125ZM15.9004 21.125H19.6654V18.3H15.9004V21.125Z" fill="#0EADFF"/>
</svg>
