<svg width="22" height="19" viewBox="0 0 22 19" fill="none" xmlns="http://www.w3.org/2000/svg">
<g clip-path="url(#clip0_2176_16139)">
<path d="M10.9846 19C8.82996 19 6.67017 19 4.51553 19C2.21141 19 0.412437 17.5362 0.0464578 15.3602C0.0103753 15.1476 0.00522064 14.9349 0.00522064 14.7173C0.00522064 11.2358 6.59989e-05 7.75922 0.00522064 4.2777C0.00522064 2.17593 1.45367 0.484628 3.59285 0.0791098C3.86605 0.0247111 4.15471 0.00492971 4.43821 0.00492971C8.80935 -1.5632e-05 13.1856 -1.5632e-05 17.5568 0.00492971C20.0258 0.00987505 21.9691 1.83965 21.9846 4.20847C22.0052 7.73944 22.0052 11.2655 21.9846 14.7964C21.9691 17.1653 20.0258 18.995 17.5568 19C15.366 19.0049 13.1753 19 10.9846 19ZM2.19079 7.39821C2.19079 7.50207 2.19079 7.58119 2.19079 7.66032C2.19079 9.98463 2.19079 12.3089 2.19079 14.6382C2.19079 15.9932 3.11862 16.8834 4.53099 16.8834C8.83512 16.8834 13.1392 16.8834 17.4434 16.8834C17.6341 16.8834 17.8248 16.8784 18.0052 16.8438C19.0877 16.6312 19.7887 15.7855 19.7887 14.6679C19.7939 12.3238 19.7887 9.98463 19.7887 7.64054C19.7887 7.56141 19.7784 7.48229 19.7733 7.39327C13.9176 7.39821 8.07739 7.39821 2.19079 7.39821ZM19.8248 5.27172C19.799 4.75246 19.83 4.24803 19.732 3.76833C19.531 2.75454 18.6289 2.11659 17.4795 2.11164C13.1856 2.11164 8.88666 2.11164 4.59285 2.11164C4.50007 2.11164 4.40213 2.11164 4.30934 2.11659C3.50522 2.1611 2.90213 2.52211 2.49491 3.17489C2.08254 3.83262 2.20625 4.55464 2.2011 5.27172C8.07739 5.27172 13.9176 5.27172 19.8248 5.27172Z" fill="#0EADFF"/>
<path d="M7.80438 3.78808C7.80954 4.25789 7.41779 4.64362 6.93325 4.64362C6.45387 4.64857 6.04665 4.25789 6.05181 3.79797C6.05181 3.33805 6.43325 2.96715 6.91263 2.96221C7.40748 2.95726 7.79923 3.31827 7.80438 3.78808Z" fill="#0EADFF"/>
<path d="M9.78867 2.96216C10.2784 2.96216 10.6753 3.34789 10.665 3.81276C10.6598 4.26773 10.2681 4.64357 9.79382 4.64852C9.30929 4.65346 8.90723 4.27267 8.90723 3.80781C8.90723 3.33306 9.29898 2.96216 9.78867 2.96216Z" fill="#0EADFF"/>
<path d="M3.30376 3.80781C3.29861 3.33306 3.68005 2.96216 4.1749 2.96216C4.66459 2.96216 5.06149 3.338 5.06149 3.80287C5.05634 4.25289 4.66974 4.63368 4.19552 4.64357C3.70582 4.65841 3.30892 4.27762 3.30376 3.80781Z" fill="#0EADFF"/>
</g>
<defs>
<clipPath id="clip0_2176_16139">
<rect width="22" height="19" fill="white"/>
</clipPath>
</defs>
</svg>
