<svg width="32" height="32" viewBox="0 0 32 32" fill="none" xmlns="http://www.w3.org/2000/svg">
<path d="M30.6643 23.9959H19.9995C19.263 23.9959 18.6664 23.3993 18.6664 22.6628C18.1458 22.1422 17.9345 21.509 18.1951 21.249L21.9658 17.4783C22.2258 17.2177 22.859 17.429 23.3796 17.9496C23.9002 18.4702 24.1115 19.1034 23.8508 19.3633L21.8845 21.3297H30.6643C31.4009 21.3297 31.9974 21.9262 31.9974 22.6628C31.9974 23.3993 31.4009 23.9959 30.6643 23.9959ZM26.665 16.6638V17.3304H26.4804C26.2491 17.727 25.8238 17.9969 25.3319 17.9969C24.84 17.9969 24.4147 17.727 24.1834 17.3304H23.9988V14.9254C21.5712 15.9806 17.7012 16.6638 13.334 16.6638C8.96672 16.6638 5.09672 15.9806 2.66914 14.9254V19.9966H3.54299C4.50082 20.7571 8.66877 21.3297 13.6672 21.3297C14.2352 21.3297 14.7904 21.3217 15.3336 21.307V21.3297C16.0702 21.3297 16.6667 21.9262 16.6667 22.6628C16.6667 23.3993 16.0702 23.9959 15.3336 23.9959C15.2196 23.9959 15.1117 23.9772 15.0057 23.9506C14.4564 23.9745 13.9039 23.9959 13.334 23.9959C8.96672 23.9959 5.09672 23.3127 2.66914 22.2575V27.9952H0.00292969V3.99931H0.0549207C0.580164 1.76303 6.31784 0 13.334 0C20.3501 0 26.0878 1.76303 26.613 3.99931H26.665V4.33259V16.6638ZM23.9988 4.33259C23.9981 3.41208 19.3729 2.66621 13.6672 2.66621C7.96156 2.66621 3.33569 3.41208 3.33569 4.33259C3.33569 5.2531 7.96156 5.99897 13.6672 5.99897C19.3729 5.99897 23.9981 5.2531 23.9988 4.33259ZM23.9988 6.92414C21.5672 7.9793 17.7019 8.66518 13.334 8.66518C8.96606 8.66518 5.10072 7.9793 2.66914 6.92414V12.6645H3.54299C4.50082 13.425 8.66877 13.9976 13.6672 13.9976C18.6657 13.9976 22.8337 13.425 23.7915 12.6645H23.9988V6.92414ZM13.6672 29.3283C14.2352 29.3283 14.7904 29.3203 15.3336 29.3056V29.3283C16.0702 29.3283 16.6667 29.9249 16.6667 30.6614C16.6667 31.3979 16.0702 31.9945 15.3336 31.9945C15.221 31.9945 15.113 31.9765 15.0084 31.9498C14.4578 31.9732 13.9045 31.9945 13.334 31.9945C6.31784 31.9945 0.580164 30.2315 0.0549207 27.9952H3.54299C4.50082 28.7557 8.66877 29.3283 13.6672 29.3283ZM19.3329 25.329H30.0811C30.8176 25.329 31.4142 25.9255 31.4142 26.6621C31.4142 26.6674 31.4129 26.6721 31.4129 26.6774C31.9348 27.2 32.1467 27.8326 31.8841 28.0932L28.0681 31.8879C27.8048 32.1498 27.1643 31.9372 26.637 31.4133C26.1104 30.8894 25.8971 30.2521 26.1604 29.9902L28.1668 27.9952H19.3329C18.5964 27.9952 17.9998 27.3986 17.9998 26.6621C17.9998 25.9255 18.5964 25.329 19.3329 25.329Z" fill="#0EADFF"/>
</svg>
