<svg width="32" height="32" viewBox="0 0 32 32" fill="none" xmlns="http://www.w3.org/2000/svg">
<path d="M19.9998 22.6667C19.7361 22.6667 19.4783 22.7449 19.2591 22.8914C19.0398 23.0379 18.8689 23.2461 18.768 23.4898C18.6671 23.7334 18.6407 24.0015 18.6921 24.2601C18.7436 24.5188 18.8706 24.7564 19.057 24.9428C19.2435 25.1293 19.4811 25.2563 19.7397 25.3077C19.9984 25.3592 20.2664 25.3328 20.5101 25.2319C20.7537 25.1309 20.962 24.96 21.1085 24.7408C21.255 24.5215 21.3332 24.2637 21.3332 24C21.3332 23.6464 21.1927 23.3073 20.9426 23.0572C20.6926 22.8072 20.3535 22.6667 19.9998 22.6667ZM11.9998 22.6667H7.99984C7.64621 22.6667 7.30708 22.8072 7.05703 23.0572C6.80698 23.3073 6.6665 23.6464 6.6665 24C6.6665 24.3536 6.80698 24.6928 7.05703 24.9428C7.30708 25.1929 7.64621 25.3334 7.99984 25.3334H11.9998C12.3535 25.3334 12.6926 25.1929 12.9426 24.9428C13.1927 24.6928 13.3332 24.3536 13.3332 24C13.3332 23.6464 13.1927 23.3073 12.9426 23.0572C12.6926 22.8072 12.3535 22.6667 11.9998 22.6667ZM23.9998 22.6667C23.7361 22.6667 23.4783 22.7449 23.2591 22.8914C23.0398 23.0379 22.8689 23.2461 22.768 23.4898C22.6671 23.7334 22.6407 24.0015 22.6921 24.2601C22.7436 24.5188 22.8706 24.7564 23.057 24.9428C23.2435 25.1293 23.4811 25.2563 23.7397 25.3077C23.9984 25.3592 24.2664 25.3328 24.5101 25.2319C24.7537 25.1309 24.962 24.96 25.1085 24.7408C25.255 24.5215 25.3332 24.2637 25.3332 24C25.3332 23.6464 25.1927 23.3073 24.9426 23.0572C24.6926 22.8072 24.3535 22.6667 23.9998 22.6667ZM19.9998 14.6667C19.7361 14.6667 19.4783 14.7449 19.2591 14.8914C19.0398 15.0379 18.8689 15.2461 18.768 15.4898C18.6671 15.7334 18.6407 16.0015 18.6921 16.2601C18.7436 16.5188 18.8706 16.7564 19.057 16.9428C19.2435 17.1293 19.4811 17.2563 19.7397 17.3077C19.9984 17.3592 20.2664 17.3328 20.5101 17.2319C20.7537 17.1309 20.962 16.96 21.1085 16.7408C21.255 16.5215 21.3332 16.2637 21.3332 16C21.3332 15.6464 21.1927 15.3073 20.9426 15.0572C20.6926 14.8072 20.3535 14.6667 19.9998 14.6667ZM11.9998 14.6667H7.99984C7.64621 14.6667 7.30708 14.8072 7.05703 15.0572C6.80698 15.3073 6.6665 15.6464 6.6665 16C6.6665 16.3536 6.80698 16.6928 7.05703 16.9428C7.30708 17.1929 7.64621 17.3334 7.99984 17.3334H11.9998C12.3535 17.3334 12.6926 17.1929 12.9426 16.9428C13.1927 16.6928 13.3332 16.3536 13.3332 16C13.3332 15.6464 13.1927 15.3073 12.9426 15.0572C12.6926 14.8072 12.3535 14.6667 11.9998 14.6667ZM23.9998 6.66669C23.7361 6.66669 23.4783 6.74488 23.2591 6.89139C23.0398 7.0379 22.8689 7.24614 22.768 7.48978C22.6671 7.73341 22.6407 8.0015 22.6921 8.26014C22.7436 8.51878 22.8706 8.75636 23.057 8.94283C23.2435 9.1293 23.4811 9.25629 23.7397 9.30773C23.9984 9.35918 24.2664 9.33278 24.5101 9.23186C24.7537 9.13094 24.962 8.96004 25.1085 8.74078C25.255 8.52151 25.3332 8.26373 25.3332 8.00002C25.3332 7.6464 25.1927 7.30726 24.9426 7.05721C24.6926 6.80716 24.3535 6.66669 23.9998 6.66669ZM23.9998 14.6667C23.7361 14.6667 23.4783 14.7449 23.2591 14.8914C23.0398 15.0379 22.8689 15.2461 22.768 15.4898C22.6671 15.7334 22.6407 16.0015 22.6921 16.2601C22.7436 16.5188 22.8706 16.7564 23.057 16.9428C23.2435 17.1293 23.4811 17.2563 23.7397 17.3077C23.9984 17.3592 24.2664 17.3328 24.5101 17.2319C24.7537 17.1309 24.962 16.96 25.1085 16.7408C25.255 16.5215 25.3332 16.2637 25.3332 16C25.3332 15.6464 25.1927 15.3073 24.9426 15.0572C24.6926 14.8072 24.3535 14.6667 23.9998 14.6667ZM29.3332 6.66669C29.3332 5.60582 28.9117 4.58841 28.1616 3.83826C27.4115 3.08811 26.394 2.66669 25.3332 2.66669H6.6665C5.60564 2.66669 4.58822 3.08811 3.83808 3.83826C3.08793 4.58841 2.6665 5.60582 2.6665 6.66669V9.33335C2.67238 10.3201 3.04279 11.2698 3.7065 12C3.04279 12.7302 2.67238 13.6799 2.6665 14.6667V17.3334C2.67238 18.3201 3.04279 19.2698 3.7065 20C3.04279 20.7302 2.67238 21.6799 2.6665 22.6667V25.3334C2.6665 26.3942 3.08793 27.4116 3.83808 28.1618C4.58822 28.9119 5.60564 29.3334 6.6665 29.3334H25.3332C26.394 29.3334 27.4115 28.9119 28.1616 28.1618C28.9117 27.4116 29.3332 26.3942 29.3332 25.3334V22.6667C29.3273 21.6799 28.9569 20.7302 28.2932 20C28.9569 19.2698 29.3273 18.3201 29.3332 17.3334V14.6667C29.3273 13.6799 28.9569 12.7302 28.2932 12C28.9569 11.2698 29.3273 10.3201 29.3332 9.33335V6.66669ZM26.6665 25.3334C26.6665 25.687 26.526 26.0261 26.276 26.2762C26.0259 26.5262 25.6868 26.6667 25.3332 26.6667H6.6665C6.31288 26.6667 5.97374 26.5262 5.72369 26.2762C5.47365 26.0261 5.33317 25.687 5.33317 25.3334V22.6667C5.33317 22.3131 5.47365 21.9739 5.72369 21.7239C5.97374 21.4738 6.31288 21.3334 6.6665 21.3334H25.3332C25.6868 21.3334 26.0259 21.4738 26.276 21.7239C26.526 21.9739 26.6665 22.3131 26.6665 22.6667V25.3334ZM26.6665 17.3334C26.6665 17.687 26.526 18.0261 26.276 18.2762C26.0259 18.5262 25.6868 18.6667 25.3332 18.6667H6.6665C6.31288 18.6667 5.97374 18.5262 5.72369 18.2762C5.47365 18.0261 5.33317 17.687 5.33317 17.3334V14.6667C5.33317 14.3131 5.47365 13.9739 5.72369 13.7239C5.97374 13.4738 6.31288 13.3334 6.6665 13.3334H25.3332C25.6868 13.3334 26.0259 13.4738 26.276 13.7239C26.526 13.9739 26.6665 14.3131 26.6665 14.6667V17.3334ZM26.6665 9.33335C26.6665 9.68697 26.526 10.0261 26.276 10.2762C26.0259 10.5262 25.6868 10.6667 25.3332 10.6667H6.6665C6.31288 10.6667 5.97374 10.5262 5.72369 10.2762C5.47365 10.0261 5.33317 9.68697 5.33317 9.33335V6.66669C5.33317 6.31306 5.47365 5.97393 5.72369 5.72388C5.97374 5.47383 6.31288 5.33335 6.6665 5.33335H25.3332C25.6868 5.33335 26.0259 5.47383 26.276 5.72388C26.526 5.97393 26.6665 6.31306 26.6665 6.66669V9.33335ZM19.9998 6.66669C19.7361 6.66669 19.4783 6.74488 19.2591 6.89139C19.0398 7.0379 18.8689 7.24614 18.768 7.48978C18.6671 7.73341 18.6407 8.0015 18.6921 8.26014C18.7436 8.51878 18.8706 8.75636 19.057 8.94283C19.2435 9.1293 19.4811 9.25629 19.7397 9.30773C19.9984 9.35918 20.2664 9.33278 20.5101 9.23186C20.7537 9.13094 20.962 8.96004 21.1085 8.74078C21.255 8.52151 21.3332 8.26373 21.3332 8.00002C21.3332 7.6464 21.1927 7.30726 20.9426 7.05721C20.6926 6.80716 20.3535 6.66669 19.9998 6.66669ZM11.9998 6.66669H7.99984C7.64621 6.66669 7.30708 6.80716 7.05703 7.05721C6.80698 7.30726 6.6665 7.6464 6.6665 8.00002C6.6665 8.35364 6.80698 8.69278 7.05703 8.94283C7.30708 9.19288 7.64621 9.33335 7.99984 9.33335H11.9998C12.3535 9.33335 12.6926 9.19288 12.9426 8.94283C13.1927 8.69278 13.3332 8.35364 13.3332 8.00002C13.3332 7.6464 13.1927 7.30726 12.9426 7.05721C12.6926 6.80716 12.3535 6.66669 11.9998 6.66669Z" fill="#0EADFF"/>
</svg>
