<svg width="28" height="24" viewBox="0 0 28 24" fill="none" xmlns="http://www.w3.org/2000/svg">
<path d="M18.8571 17.7143C18.8571 18.1072 18.7172 18.4435 18.4374 18.7232C18.1577 19.003 17.8214 19.1429 17.4285 19.1429C17.0356 19.1429 16.6993 19.003 16.4196 18.7232C16.1398 18.4435 15.9999 18.1072 15.9999 17.7143C15.9999 17.3214 16.1398 16.9851 16.4196 16.7054C16.6993 16.4256 17.0356 16.2857 17.4285 16.2857C17.8214 16.2857 18.1577 16.4256 18.4374 16.7054C18.7172 16.9851 18.8571 17.3214 18.8571 17.7143ZM23.4285 17.7143C23.4285 18.1072 23.2886 18.4435 23.0089 18.7232C22.7291 19.003 22.3928 19.1429 21.9999 19.1429C21.6071 19.1429 21.2708 19.003 20.991 18.7232C20.7112 18.4435 20.5714 18.1072 20.5714 17.7143C20.5714 17.3214 20.7112 16.9851 20.991 16.7054C21.2708 16.4256 21.6071 16.2857 21.9999 16.2857C22.3928 16.2857 22.7291 16.4256 23.0089 16.7054C23.2886 16.9851 23.4285 17.3214 23.4285 17.7143ZM25.4285 20.5714V14.8572C25.4285 14.7024 25.372 14.5685 25.2589 14.4554C25.1458 14.3423 25.0118 14.2857 24.8571 14.2857H3.14279C2.98803 14.2857 2.8541 14.3423 2.741 14.4554C2.62791 14.5685 2.57136 14.7024 2.57136 14.8572V20.5714C2.57136 20.7262 2.62791 20.8601 2.741 20.9732C2.8541 21.0863 2.98803 21.1429 3.14279 21.1429H24.8571C25.0118 21.1429 25.1458 21.0863 25.2589 20.9732C25.372 20.8601 25.4285 20.7262 25.4285 20.5714V20.5714ZM3.46422 12H24.5356L21.7321 3.39287C21.6845 3.23811 21.5892 3.11013 21.4464 3.00894C21.3035 2.90775 21.1487 2.85716 20.9821 2.85716H7.01779C6.85112 2.85716 6.69636 2.90775 6.5535 3.00894C6.41064 3.11013 6.31541 3.23811 6.26779 3.39287L3.46422 12ZM27.7142 14.8572V20.5714C27.7142 21.3572 27.4345 22.0298 26.8749 22.5893C26.3154 23.1488 25.6428 23.4286 24.8571 23.4286H3.14279C2.35707 23.4286 1.68445 23.1488 1.12493 22.5893C0.565406 22.0298 0.285645 21.3572 0.285645 20.5714V14.8572C0.285645 14.5595 0.380882 14.1131 0.571359 13.5179L4.08922 2.69644C4.2916 2.06549 4.6666 1.55358 5.21422 1.16073C5.76184 0.76787 6.36303 0.571442 7.01779 0.571442H20.9821C21.6368 0.571442 22.238 0.76787 22.7856 1.16073C23.3333 1.55358 23.7083 2.06549 23.9106 2.69644L27.4285 13.5179C27.619 14.1131 27.7142 14.5595 27.7142 14.8572V14.8572Z" fill="#0EADFF"/>
</svg>
