<svg width="32" height="24" viewBox="0 0 32 24" fill="none" xmlns="http://www.w3.org/2000/svg">
<path d="M12.2529 5.75406H14.7513V13.2492H12.2529V5.75406Z" fill="#0EADFF"/>
<path d="M7.25586 5.75406H9.75423V13.2492H7.25586V5.75406Z" fill="#0EADFF"/>
<path d="M22.2466 5.75406H24.745V13.2492H22.2466V5.75406Z" fill="#0EADFF"/>
<path d="M17.25 5.75406H19.7484V13.2492H17.25V5.75406Z" fill="#0EADFF"/>
<path d="M0 5.0223L0.365846 5.38814C1.25643 6.27873 1.25643 7.72779 0.365846 8.61829L0 8.98422V18.2459H2.49837V18.3331H19.2901V18.2459H2.71637V23.2427H29.5016V18.2459H32V8.98422L31.6341 8.61837C30.7436 7.72779 30.7436 6.27873 31.6341 5.38823L32 5.02238V0.757324H0V5.0223ZM27.0033 20.7443H5.21475V18.2459H27.0033V20.7443ZM2.49837 9.97482C3.87506 8.24112 3.87506 5.7654 2.49837 4.03169V3.2557H29.5016V4.03169C28.1249 5.7654 28.1249 8.24112 29.5016 9.97482V15.7476H2.49837V9.97482Z" fill="#0EADFF"/>
</svg>
