<svg width="32" height="32" viewBox="0 0 32 32" fill="none" xmlns="http://www.w3.org/2000/svg">
<path d="M28 25.19C28 24.9248 28.1054 24.6704 28.2929 24.4829C28.4804 24.2954 28.7348 24.19 29 24.19C29.2652 24.19 29.5196 24.2954 29.7071 24.4829C29.8946 24.6704 30 24.9248 30 25.19V27.5C30 27.8978 29.842 28.2794 29.5607 28.5607C29.2794 28.842 28.8978 29 28.5 29H3.5C3.10218 29 2.72064 28.842 2.43934 28.5607C2.15804 28.2794 2 27.8978 2 27.5V4.5C2 4.10218 2.15804 3.72064 2.43934 3.43934C2.72064 3.15804 3.10218 3 3.5 3H28.5C28.8978 3 29.2794 3.15804 29.5607 3.43934C29.842 3.72064 30 4.10218 30 4.5V9.692H4V27H28V25.19ZM28 7.692V5H4V7.692H28Z" fill="#0EADFF"/>
<path d="M20.0598 12.658C20.1505 12.4087 20.3365 12.2056 20.577 12.0935C20.8174 11.9813 21.0925 11.9693 21.3418 12.06C21.5911 12.1507 21.7942 12.3367 21.9063 12.5771C22.0185 12.8175 22.0305 13.0927 21.9398 13.342L17.9398 24.342C17.8491 24.5913 17.6631 24.7943 17.4226 24.9065C17.1822 25.0186 16.9071 25.0307 16.6578 24.94C16.4085 24.8493 16.2054 24.6632 16.0933 24.4228C15.9811 24.1824 15.9691 23.9073 16.0598 23.658L20.0598 12.658ZM24.2558 14.669C24.1679 14.5713 24.1002 14.4572 24.0564 14.3333C24.0126 14.2094 23.9937 14.0782 24.0007 13.9469C24.0147 13.682 24.1335 13.4334 24.3308 13.256C24.5281 13.0785 24.7878 12.9868 25.0528 13.0008C25.184 13.0078 25.3126 13.0405 25.4312 13.0972C25.5497 13.1538 25.6559 13.2333 25.7438 13.331L29.6948 17.726C29.8598 17.9095 29.9511 18.1477 29.9511 18.3945C29.9511 18.6413 29.8598 18.8794 29.6948 19.063L25.7438 23.458C25.656 23.5557 25.5498 23.6351 25.4313 23.6918C25.3128 23.7485 25.1843 23.7813 25.0532 23.7883C24.922 23.7953 24.7908 23.7764 24.6669 23.7327C24.543 23.689 24.429 23.6213 24.3313 23.5335C24.2336 23.4457 24.1541 23.3395 24.0975 23.221C24.0408 23.1025 24.008 22.974 24.001 22.8429C23.994 22.7117 24.0129 22.5804 24.0566 22.4566C24.1003 22.3327 24.168 22.2187 24.2558 22.121L27.6068 18.395L24.2568 14.669H24.2558ZM13.6948 14.669C13.7827 14.5713 13.8504 14.4574 13.8942 14.3335C13.938 14.2097 13.957 14.0785 13.9501 13.9473C13.9432 13.8161 13.9105 13.6876 13.8539 13.5691C13.7973 13.4506 13.7179 13.3443 13.6203 13.2565C13.5227 13.1686 13.4087 13.1009 13.2849 13.0571C13.161 13.0133 13.0298 12.9943 12.8986 13.0012C12.7675 13.0081 12.6389 13.0408 12.5204 13.0974C12.4019 13.154 12.2957 13.2333 12.2078 13.331L8.2558 17.726C8.0908 17.9095 7.99951 18.1477 7.99951 18.3945C7.99951 18.6413 8.0908 18.8794 8.2558 19.063L12.2078 23.458C12.2948 23.5583 12.401 23.6403 12.52 23.6991C12.6391 23.758 12.7687 23.7925 12.9013 23.8008C13.0338 23.809 13.1667 23.7907 13.2921 23.747C13.4176 23.7033 13.533 23.6351 13.6318 23.5463C13.7305 23.4575 13.8106 23.3499 13.8674 23.2298C13.9241 23.1097 13.9563 22.9795 13.9622 22.8469C13.9681 22.7142 13.9474 22.5816 13.9015 22.457C13.8556 22.3324 13.7853 22.2181 13.6948 22.121L10.3448 18.395L13.6948 14.669Z" fill="#0EADFF"/>
</svg>
