<svg width="25" height="25" viewBox="0 0 25 25" fill="none" xmlns="http://www.w3.org/2000/svg">
<path d="M12.6862 0.294922C5.88552 0.294922 0.372559 5.80789 0.372559 12.6086C0.372559 19.4093 5.88552 24.9223 12.6862 24.9223C19.4869 24.9223 24.9999 19.4093 24.9999 12.6086C24.9999 5.80789 19.4869 0.294922 12.6862 0.294922Z" fill="#40B3E0"/>
<path d="M18.6779 7.37841L16.4785 18.4672C16.4785 18.4672 16.171 19.2362 15.3251 18.8671L10.2497 14.9759L8.40421 14.084L5.29751 13.0381C5.29751 13.0381 4.82074 12.869 4.77456 12.4998C4.72848 12.1307 5.3129 11.9308 5.3129 11.9308L17.6627 7.08615C17.6627 7.08615 18.6779 6.64017 18.6779 7.37841Z" fill="white"/>
<path d="M9.85972 18.3423C9.85972 18.3423 9.71157 18.3284 9.52696 17.7439C9.34244 17.1595 8.4043 14.0836 8.4043 14.0836L15.8634 9.34668C15.8634 9.34668 16.2941 9.08521 16.2787 9.34668C16.2787 9.34668 16.3556 9.39276 16.1249 9.60806C15.8942 9.82345 10.2652 14.8833 10.2652 14.8833" fill="#D2E5F1"/>
<path d="M12.1955 16.4679L10.188 18.2983C10.188 18.2983 10.0311 18.4173 9.85938 18.3427L10.2438 14.9429" fill="#B5CFE4"/>
</svg>
