<svg width="25" height="24" viewBox="0 0 25 24" fill="none" xmlns="http://www.w3.org/2000/svg">
<g clip-path="url(#clip0_2044_10835)">
<path d="M6.37519 20.5551L6.76753 20.7491C8.40253 21.7186 10.2336 22.1711 12.0647 22.1711C17.8195 22.1711 22.528 17.5171 22.528 11.829C22.528 9.11418 21.4163 6.46399 19.4544 4.52481C17.4925 2.58563 14.8766 1.48682 12.0647 1.48682C6.30985 1.48682 1.60125 6.14078 1.66669 11.8936C1.66669 13.8327 2.25525 15.7073 3.23616 17.3232L3.49772 17.7111L2.45147 21.5248L6.37519 20.5551Z" fill="#00E676"/>
<path d="M20.5661 3.49047C18.3426 1.22817 15.269 0 12.13 0C5.45968 0 0.0971758 5.36497 0.16252 11.8934C0.16252 13.9619 0.751082 15.9657 1.73208 17.7756L0.0317383 23.9162L6.37514 22.3003C8.14083 23.2699 10.1026 23.7224 12.0646 23.7224C18.6696 23.7224 24.0321 18.3573 24.0321 11.8289C24.0321 8.66159 22.7896 5.68819 20.5662 3.49047H20.5661ZM12.13 21.7186C10.3643 21.7186 8.59861 21.2662 7.09449 20.3613L6.70214 20.1673L2.90921 21.1369L3.89011 17.4525L3.62855 17.0647C0.751082 12.4754 2.12443 6.3992 6.83293 3.55506C11.5414 0.711012 17.6233 2.06845 20.5007 6.72241C23.3781 11.3764 22.0048 17.3878 17.2964 20.2319C15.7921 21.2015 13.9611 21.7185 12.13 21.7185V21.7186ZM17.8848 14.5438L17.1655 14.2206C17.1655 14.2206 16.1192 13.7681 15.4652 13.4449C15.3998 13.4449 15.3345 13.3802 15.269 13.3802C15.0728 13.3802 14.942 13.4449 14.8112 13.5096C14.8112 13.5096 14.7459 13.5742 13.8303 14.6084C13.7649 14.7377 13.6341 14.8024 13.5033 14.8024H13.4379C13.3726 14.8024 13.2418 14.7377 13.1763 14.6731L12.8493 14.5438C12.13 14.2206 11.4761 13.8327 10.9529 13.3156C10.8221 13.1864 10.6259 13.0571 10.4951 12.9278C10.0373 12.4754 9.57952 11.9582 9.25261 11.3765L9.18718 11.2472C9.12183 11.1825 9.12183 11.1179 9.05639 10.9887C9.05639 10.8594 9.05639 10.7301 9.12183 10.6655C9.12183 10.6655 9.3834 10.3422 9.57952 10.1484C9.71039 10.019 9.77574 9.82518 9.90652 9.69591C10.0373 9.50196 10.1027 9.24343 10.0373 9.04948C9.97196 8.72627 9.18718 6.98104 8.99105 6.59324C8.86018 6.39929 8.72949 6.3347 8.53327 6.27002H7.81393C7.68305 6.27002 7.55236 6.3347 7.42149 6.3347L7.35605 6.39929C7.22527 6.46397 7.09449 6.59324 6.96371 6.65782C6.83293 6.78718 6.76749 6.91636 6.63671 7.04572C6.17893 7.62746 5.91736 8.33847 5.91736 9.04948C5.91736 9.56655 6.04814 10.0837 6.24436 10.5362L6.3098 10.7301C6.89836 11.9582 7.68305 13.0571 8.72949 14.0267L8.99105 14.2852C9.18718 14.4791 9.3834 14.6084 9.51418 14.8023C10.8875 15.9658 12.457 16.8061 14.2227 17.2586C14.4189 17.3232 14.6805 17.3232 14.8767 17.3879H15.5306C15.8576 17.3879 16.2499 17.2586 16.5116 17.1293C16.7077 17.0001 16.8385 17.0001 16.9693 16.8708L17.1001 16.7414C17.2309 16.6122 17.3617 16.5476 17.4925 16.4183C17.6233 16.2891 17.754 16.1598 17.8195 16.0304C17.9503 15.7719 18.0156 15.4487 18.0811 15.1256V14.6731C18.0811 14.6731 18.0156 14.6084 17.8848 14.5438Z" fill="white"/>
</g>
<defs>
<clipPath id="clip0_2044_10835">
<rect width="24" height="24" fill="white" transform="translate(0.0317383)"/>
</clipPath>
</defs>
</svg>
