<svg width="26" height="26" viewBox="0 0 26 26" fill="none" xmlns="http://www.w3.org/2000/svg">
<path d="M12.3687 5.49731H9.62003V9.62028H5.49707V12.3689H9.62003V16.4919H12.3687V12.3689H16.4916V9.62028H12.3687V5.49731Z" fill="white"/>
<path d="M10.9946 0C4.93244 0 0 4.93244 0 10.9946C0 17.0567 4.93244 21.9891 10.9946 21.9891C13.5316 21.9891 15.8638 21.1164 17.7246 19.6693L23.7661 25.7108L25.7094 23.7675L19.6679 17.726C21.1164 15.8638 21.9891 13.5316 21.9891 10.9946C21.9891 4.93244 17.0567 0 10.9946 0ZM10.9946 19.2405C6.44694 19.2405 2.74864 15.5422 2.74864 10.9946C2.74864 6.44694 6.44694 2.74864 10.9946 2.74864C15.5422 2.74864 19.2405 6.44694 19.2405 10.9946C19.2405 15.5422 15.5422 19.2405 10.9946 19.2405Z" fill="white"/>
</svg>
