<svg width="25" height="26" viewBox="0 0 25 26" xmlns="http://www.w3.org/2000/svg">
<path d="M23.4373 7.53125C23.4395 8.35235 23.2789 9.16575 22.9647 9.92436C22.6505 10.683 22.189 11.3717 21.6068 11.9508L10.349 23.3422C9.9134 23.7785 9.39591 24.1244 8.82624 24.3601C8.25658 24.5958 7.64596 24.7166 7.02946 24.7156C6.41416 24.7167 5.80472 24.5961 5.23613 24.361C4.66754 24.1258 4.151 23.7807 3.71618 23.3453C2.83851 22.4655 2.34561 21.2736 2.34561 20.0309C2.34561 18.7882 2.83851 17.5962 3.71618 16.7164L11.849 8.62969C13.0701 7.41641 15.0107 7.37656 16.1771 8.54141C16.4595 8.82477 16.6803 9.16337 16.8257 9.53602C16.9712 9.90866 17.0382 10.3073 17.0224 10.707C16.9967 11.5203 16.6604 12.2928 16.0826 12.8656L8.36462 20.5836C8.21813 20.7301 8.01944 20.8124 7.81227 20.8124C7.6051 20.8124 7.40642 20.7301 7.25993 20.5836C7.11344 20.4371 7.03114 20.2384 7.03114 20.0312C7.03114 19.8241 7.11344 19.6254 7.25993 19.4789L14.9779 11.7609C15.2771 11.4617 15.449 11.0711 15.4607 10.6609C15.4693 10.4742 15.4392 10.2877 15.3724 10.113C15.3056 9.93842 15.2035 9.77946 15.0724 9.64609C14.5138 9.08984 13.5623 9.12969 12.9513 9.7375L4.81931 17.8227C4.23486 18.4094 3.90684 19.2038 3.90713 20.032C3.90742 20.8601 4.23601 21.6543 4.82087 22.2406C5.40753 22.8256 6.20218 23.154 7.03063 23.154C7.85908 23.154 8.65374 22.8256 9.2404 22.2406L20.4982 10.8492C21.3873 9.96016 21.8748 8.78359 21.8748 7.53125C21.8748 6.27891 21.3873 5.10234 20.5021 4.21719C19.6162 3.33125 18.4396 2.84375 17.1873 2.84375C15.9349 2.84375 14.7584 3.33125 13.8724 4.21719L2.8943 15.1172C2.82146 15.1895 2.7351 15.2467 2.64014 15.2856C2.54518 15.3245 2.44349 15.3443 2.34088 15.3439C2.13363 15.3431 1.9352 15.26 1.78923 15.1129C1.64325 14.9658 1.5617 14.7667 1.56251 14.5595C1.56331 14.3522 1.64641 14.1538 1.79352 14.0078L12.7701 3.11016C13.9482 1.93125 15.5177 1.28125 17.1873 1.28125C18.8568 1.28125 20.4263 1.93125 21.6068 3.1125C22.189 3.69135 22.6506 4.37997 22.9648 5.13846C23.279 5.89696 23.4396 6.71025 23.4373 7.53125Z" />
</svg>
