<svg width="24" height="19" viewBox="0 0 24 19" xmlns="http://www.w3.org/2000/svg">
<path d="M17.4694 2.33552C16.9602 2.38227 16.4816 2.42384 16.0081 2.47059C15.3665 2.53294 14.73 2.60048 14.0885 2.65762C13.9306 2.66801 13.8593 2.72516 13.788 2.87063C13.121 4.32011 11.288 4.49675 10.3613 3.19793C10.2747 3.07844 10.1983 3.04207 10.0507 3.05766C8.91519 3.17715 7.77463 3.28105 6.63916 3.39016C6.57296 3.39535 6.51186 3.41094 6.42021 3.42652C6.45585 3.52523 6.48131 3.60316 6.51186 3.68109C7.795 6.70473 9.06285 9.73876 10.3765 12.752C10.6871 13.4638 10.6515 14.1443 10.4835 14.8457C9.87245 17.381 7.63715 19.085 5.06579 18.9967C2.61154 18.9084 0.498444 17.0069 0.0554569 14.4924C-0.0514709 13.895 -0.0107365 13.3339 0.238762 12.752C1.69502 9.38549 3.11563 6.00857 4.54133 2.63165C4.71446 2.22122 4.97923 2.01861 5.42222 1.97704C6.89884 1.84716 8.37037 1.68611 9.84699 1.54584C10.0048 1.53025 10.071 1.4731 10.1321 1.31725C10.4224 0.579519 10.957 0.11714 11.736 0.0184304C12.5711 -0.0854749 13.2279 0.252217 13.676 0.974358C13.7728 1.12502 13.8644 1.151 14.0223 1.13541C15.504 0.984749 16.9857 0.834086 18.4725 0.693814C18.946 0.647057 19.2108 0.80811 19.3941 1.24971C20.8911 4.85522 22.383 8.45553 23.88 12.0559C24.0989 12.5806 23.9716 13.1157 23.8647 13.6352C23.3403 16.1653 21.1151 17.9421 18.5438 17.9057C16.059 17.8693 13.8848 15.9939 13.4214 13.4794C13.3043 12.8403 13.3451 12.2377 13.6098 11.6143C14.8828 8.63217 16.115 5.62931 17.3574 2.63165C17.393 2.54852 17.4236 2.4602 17.4694 2.33552ZM18.6609 3.39535C17.4949 6.20079 16.3594 8.93869 15.2137 11.6974C17.5356 11.6974 19.8116 11.6974 22.1131 11.6974C20.9624 8.9335 19.8218 6.1956 18.6609 3.39535ZM5.3051 4.66819C4.14417 7.40609 3.0087 10.0765 1.86814 12.7728C4.17472 12.7728 6.44567 12.7728 8.74716 12.7728C7.59641 10.0713 6.46603 7.3957 5.3051 4.66819ZM14.9388 13.2508C14.9643 14.773 16.7871 16.3471 18.5845 16.3991C20.4023 16.451 22.2608 14.9236 22.3932 13.2508C19.9084 13.2508 17.4236 13.2508 14.9388 13.2508ZM1.56772 14.3314C1.79176 15.8432 3.28366 17.5784 5.47823 17.4641C7.26545 17.3706 9.03739 15.7912 9.02212 14.3314C6.5475 14.3314 4.0678 14.3314 1.56772 14.3314ZM11.9855 1.51986C11.7157 1.51986 11.4815 1.74845 11.4764 2.0238C11.4713 2.29395 11.6953 2.53813 11.9652 2.54852C12.2401 2.55891 12.4896 2.30954 12.4845 2.029C12.4845 1.75884 12.2554 1.51986 11.9855 1.51986Z"/>
</svg>
