<svg width="24" height="25" viewBox="0 0 24 25" xmlns="http://www.w3.org/2000/svg">
<path d="M8.72714 15.7727C8.27527 15.7727 7.90896 16.139 7.90896 16.5909C7.90896 17.0428 8.27527 17.4091 8.72714 17.4091H14.4544C14.9063 17.4091 15.2726 17.0428 15.2726 16.5909C15.2726 16.139 14.9063 15.7727 14.4544 15.7727H8.72714Z"/>
<path d="M7.90896 13.3182C7.90896 12.8663 8.27527 12.5 8.72714 12.5H14.4544C14.9063 12.5 15.2726 12.8663 15.2726 13.3182C15.2726 13.7701 14.9063 14.1364 14.4544 14.1364H8.72714C8.27527 14.1364 7.90896 13.7701 7.90896 13.3182Z"/>
<path d="M8.72714 9.22727C8.27527 9.22727 7.90896 9.59359 7.90896 10.0455C7.90896 10.4973 8.27527 10.8636 8.72714 10.8636H9.54532C9.99719 10.8636 10.3635 10.4973 10.3635 10.0455C10.3635 9.59359 9.99719 9.22727 9.54532 9.22727H8.72714Z"/>
<path fill-rule="evenodd" clip-rule="evenodd" d="M4.63623 5.95455C4.63623 4.59894 5.73517 3.5 7.09078 3.5H12.1403C12.2871 3.5 12.4326 3.51316 12.5751 3.53882C12.6519 3.51359 12.7335 3.5 12.818 3.5C13.1184 3.5 13.3809 3.67131 13.5232 3.92666C13.6487 4.01227 13.7669 4.10994 13.8759 4.21891L18.6446 8.98761C19.1049 9.44795 19.3635 10.0723 19.3635 10.7233V19.0455C19.3635 20.4011 18.2646 21.5 16.909 21.5H7.09078C5.73518 21.5 4.63623 20.4011 4.63623 19.0455V5.95455ZM7.09078 5.13636H11.9999V9.99733C11.9999 10.4758 12.3662 10.8636 12.818 10.8636H17.7271V19.0455C17.7271 19.4973 17.3609 19.8636 16.909 19.8636H7.09078C6.6389 19.8636 6.27259 19.4973 6.27259 19.0455V5.95455C6.27259 5.50268 6.63891 5.13636 7.09078 5.13636ZM13.6362 6.29344L16.4738 9.13102H13.6362V6.29344Z"/>
</svg>
