<svg width="9" height="5" viewBox="0 0 9 5" xmlns="http://www.w3.org/2000/svg">
<path d="M4.81712 3.16775L1.82421 0.174971C1.742 0.0925645 1.63208 0.0472316 1.51488 0.0472316C1.39761 0.0472316 1.28775 0.0925646 1.20541 0.174971L0.943299 0.437215C0.860828 0.519491 0.81543 0.629475 0.81543 0.746678C0.81543 0.863882 0.860828 0.973735 0.943299 1.05608L4.50662 4.61946C4.58922 4.70213 4.69959 4.74739 4.81693 4.74707C4.93478 4.74739 5.04502 4.70219 5.12769 4.61946L8.68756 1.05939C8.77003 0.977052 8.81543 0.867199 8.81543 0.74993C8.81543 0.632727 8.77003 0.522873 8.68756 0.440467L8.42545 0.178288C8.25484 0.00768629 7.97712 0.0076863 7.80658 0.178288L4.81712 3.16775Z"/>
</svg>
