<svg width="18" height="19" viewBox="0 0 18 19" xmlns="http://www.w3.org/2000/svg">
<path d="M9 18.5624C4.0293 18.5624 0 14.5331 0 9.56238C0 4.59168 4.0293 0.562378 9 0.562378C13.9707 0.562378 18 4.59168 18 9.56238C18 14.5331 13.9707 18.5624 9 18.5624ZM9 16.7624C10.9096 16.7624 12.7409 16.0038 14.0912 14.6535C15.4414 13.3033 16.2 11.4719 16.2 9.56238C16.2 7.65282 15.4414 5.82147 14.0912 4.47121C12.7409 3.12095 10.9096 2.36238 9 2.36238C7.09044 2.36238 5.25909 3.12095 3.90883 4.47121C2.55857 5.82147 1.8 7.65282 1.8 9.56238C1.8 11.4719 2.55857 13.3033 3.90883 14.6535C5.25909 16.0038 7.09044 16.7624 9 16.7624ZM9 7.76238C9.23869 7.76238 9.46761 7.8572 9.6364 8.02598C9.80518 8.19476 9.9 8.42368 9.9 8.66238V13.1624C9.9 13.4011 9.80518 13.63 9.6364 13.7988C9.46761 13.9676 9.23869 14.0624 9 14.0624C8.7613 14.0624 8.53239 13.9676 8.3636 13.7988C8.19482 13.63 8.1 13.4011 8.1 13.1624V8.66238C8.1 8.42368 8.19482 8.19476 8.3636 8.02598C8.53239 7.8572 8.7613 7.76238 9 7.76238ZM9 6.86238C8.7613 6.86238 8.53239 6.76756 8.3636 6.59877C8.19482 6.42999 8.1 6.20107 8.1 5.96238C8.1 5.72368 8.19482 5.49476 8.3636 5.32598C8.53239 5.1572 8.7613 5.06238 9 5.06238C9.23869 5.06238 9.46761 5.1572 9.6364 5.32598C9.80518 5.49476 9.9 5.72368 9.9 5.96238C9.9 6.20107 9.80518 6.42999 9.6364 6.59877C9.46761 6.76756 9.23869 6.86238 9 6.86238Z" />
</svg>
