<svg width="31" height="24" viewBox="0 0 31 24" fill="none" xmlns="http://www.w3.org/2000/svg">
<path d="M17.7097 15.4189C16.9549 15.9221 16.078 16.1882 15.174 16.1882C14.27 16.1882 13.3931 15.9221 12.6382 15.4189L0.204712 7.12963C0.136074 7.08373 0.0687069 7.03597 0.00268555 6.98639L0.00268555 20.5692C0.00268555 22.1265 1.26646 23.3625 2.79592 23.3625H27.5519C29.1092 23.3625 30.3452 22.0987 30.3452 20.5692V6.98633C30.279 7.03604 30.2115 7.08391 30.1427 7.12986L17.7097 15.4189Z" fill="white"/>
<path d="M1.19091 5.64987L13.6244 13.9392C14.0951 14.253 14.6345 14.4099 15.1739 14.4099C15.7134 14.4099 16.2528 14.2529 16.7235 13.9392L29.157 5.64987C29.901 5.15414 30.3452 4.32446 30.3452 3.429C30.3452 1.8893 29.0926 0.636719 27.5529 0.636719H2.79497C1.25532 0.636778 0.00268702 1.88936 0.00268702 3.43048C0.00222544 3.86974 0.110486 4.30229 0.317814 4.68954C0.525141 5.07679 0.825089 5.40671 1.19091 5.64987Z" fill="white"/>
</svg>
