<svg width="24" height="6" viewBox="0 0 24 6" xmlns="http://www.w3.org/2000/svg">
<path fill-rule="evenodd" clip-rule="evenodd" d="M2.76923 5.76917C2.03479 5.76917 1.33042 5.47742 0.811089 4.95809C0.291757 4.43875 0 3.73439 0 2.99994C0 2.2655 0.291757 1.56113 0.811089 1.0418C1.33042 0.52247 2.03479 0.230713 2.76923 0.230713C3.50368 0.230713 4.20804 0.52247 4.72737 1.0418C5.2467 1.56113 5.53846 2.2655 5.53846 2.99994C5.53846 3.73439 5.2467 4.43875 4.72737 4.95809C4.20804 5.47742 3.50368 5.76917 2.76923 5.76917ZM12 5.76917C11.2656 5.76917 10.5612 5.47742 10.0419 4.95809C9.52253 4.43875 9.23077 3.73439 9.23077 2.99994C9.23077 2.2655 9.52253 1.56113 10.0419 1.0418C10.5612 0.52247 11.2656 0.230713 12 0.230713C12.7344 0.230713 13.4388 0.52247 13.9581 1.0418C14.4775 1.56113 14.7692 2.2655 14.7692 2.99994C14.7692 3.73439 14.4775 4.43875 13.9581 4.95809C13.4388 5.47742 12.7344 5.76917 12 5.76917ZM21.2308 5.76917C20.4963 5.76917 19.792 5.47742 19.2726 4.95809C18.7533 4.43875 18.4615 3.73439 18.4615 2.99994C18.4615 2.2655 18.7533 1.56113 19.2726 1.0418C19.792 0.52247 20.4963 0.230713 21.2308 0.230713C21.9652 0.230713 22.6696 0.52247 23.1889 1.0418C23.7082 1.56113 24 2.2655 24 2.99994C24 3.73439 23.7082 4.43875 23.1889 4.95809C22.6696 5.47742 21.9652 5.76917 21.2308 5.76917Z"/>
</svg>
