<svg width="12" height="14" viewBox="0 0 12 14" xmlns="http://www.w3.org/2000/svg">
<path d="M8.45216 9.0139L8.61172 8.8958C9.03714 8.60846 9.1961 8.69726 9.4829 9.09733L11.0328 11.2345C11.4951 11.871 11.742 12.016 11.1592 12.4494L10.9996 12.5675L8.45216 9.0139ZM8.08654 9.31818L10.5609 12.7698C9.84392 13.1323 7.94222 13.9445 6.76887 13.1885C5.72177 12.5089 5.70894 12.2584 4.96695 11.5059C3.75052 10.025 2.48764 8.20523 1.54542 6.79117C1.07388 5.84257 0.795191 5.76126 0.535566 4.55155C0.261486 3.26352 1.64364 1.7017 2.20993 1.12062L4.68429 4.57222L3.45168 5.17938C3.10112 5.35509 3.35449 5.99105 3.6919 6.46172C4.28352 7.27869 5.48019 8.95629 5.98873 9.6075C6.32051 10.0703 6.84204 10.5236 7.1319 10.2549L8.08654 9.31818ZM2.54628 0.783821L2.71262 0.666861C3.29185 0.294959 3.35541 0.574734 3.80415 1.209L5.33146 3.35614C5.60471 3.75393 5.65164 3.92742 5.26008 4.22044L5.0949 4.3307L2.54628 0.783821Z"/>
</svg>
