<svg width="26" height="26" viewBox="0 0 26 26" fill="none" xmlns="http://www.w3.org/2000/svg">
<path d="M24.8196 18.8475L21.3307 15.3587C20.0847 14.1126 17.9665 14.6111 17.4681 16.2309C17.0943 17.3523 15.8483 17.9753 14.7269 17.7261C12.2349 17.1031 8.87065 13.8634 8.24765 11.2468C7.87384 10.1254 8.62145 8.87936 9.74286 8.50561C11.3627 8.0072 11.8611 5.88899 10.6151 4.64298L7.12624 1.15415C6.12943 0.281948 4.63422 0.281948 3.76201 1.15415L1.3946 3.52157C-0.972819 6.01359 1.6438 12.6174 7.50004 18.4737C13.3563 24.3299 19.9601 27.0712 22.4521 24.5791L24.8196 22.2117C25.6918 21.2149 25.6918 19.7197 24.8196 18.8475Z" fill="white"/>
</svg>
