<svg width="34" height="34" viewBox="0 0 34 34" xmlns="http://www.w3.org/2000/svg">
<path d="M5.91414 11.6838H8.83722V14.6069C8.83722 14.6834 8.9137 14.7429 9.00717 14.7429H11.0465C11.14 14.7429 11.2165 14.6834 11.2165 14.6027V11.6838H14.1396C14.216 11.6838 14.2755 11.6073 14.2755 11.5139V9.47452C14.2755 9.38105 14.216 9.30457 14.1353 9.30457H11.2165V6.38149C11.2165 6.30502 11.14 6.24554 11.0465 6.24554H9.00717C8.9137 6.24554 8.83722 6.30502 8.83722 6.38149V9.30457H5.91414C5.83766 9.30457 5.77818 9.38105 5.77818 9.47452V11.5139C5.77818 11.6073 5.83766 11.6838 5.91414 11.6838ZM19.8498 11.6838H28.0752C28.1516 11.6838 28.2111 11.6073 28.2111 11.5139V9.47452C28.2111 9.38105 28.1516 9.30457 28.0709 9.30457H19.8498C19.7733 9.30457 19.7138 9.38105 19.7138 9.47452V11.5139C19.7138 11.6073 19.7733 11.6838 19.8498 11.6838ZM19.8498 22.9428H28.0752C28.1516 22.9428 28.2111 22.8663 28.2111 22.7728V20.7335C28.2111 20.64 28.1516 20.5635 28.0709 20.5635H19.8498C19.7733 20.5635 19.7138 20.64 19.7138 20.7335V22.7728C19.7138 22.8663 19.7733 22.9428 19.8498 22.9428ZM19.8498 27.3614H28.0752C28.1516 27.3614 28.2111 27.2849 28.2111 27.1914V25.1521C28.2111 25.0586 28.1516 24.9821 28.0709 24.9821H19.8498C19.7733 24.9821 19.7138 25.0586 19.7138 25.1521V27.1914C19.7138 27.2849 19.7733 27.3614 19.8498 27.3614ZM11.5351 23.92L14.1353 20.7377C14.318 20.5168 14.165 20.1812 13.8846 20.1812H11.7263C11.6286 20.1812 11.5351 20.2236 11.4756 20.3044L10.0311 22.0718L8.58655 20.3044C8.55616 20.2669 8.51801 20.2365 8.47473 20.2153C8.43146 20.194 8.38408 20.1823 8.33588 20.1812H6.17331C5.8929 20.1812 5.73994 20.5168 5.92264 20.7377L8.52282 23.92L5.85891 27.1829C5.67197 27.4039 5.82492 27.7395 6.10533 27.7395H8.26365C8.36137 27.7395 8.45484 27.697 8.51432 27.6163L10.0226 25.7681L11.5309 27.6163C11.5946 27.6928 11.6881 27.7395 11.7815 27.7395H13.9399C14.2203 27.7395 14.3732 27.4039 14.1905 27.1829L11.5351 23.92ZM32.6297 0H1.35957C0.607559 0 0 0.607559 0 1.35957V32.6297C0 33.3817 0.607559 33.9893 1.35957 33.9893H32.6297C33.3817 33.9893 33.9893 33.3817 33.9893 32.6297V1.35957C33.9893 0.607559 33.3817 0 32.6297 0ZM31.1002 31.1002H2.88909V2.88909H31.1002V31.1002Z"/>
</svg>
