<svg width="40" height="38" viewBox="0 0 40 38" xmlns="http://www.w3.org/2000/svg">
<path fill-rule="evenodd" clip-rule="evenodd" d="M6.695 27.235C6.95449 27.4955 7.15333 27.81 7.27735 28.1561C7.40137 28.5023 7.44752 28.8715 7.4125 29.2375C7.2368 30.9314 6.90369 32.6053 6.4175 34.2375C9.905 33.43 12.035 32.495 13.0025 32.005C13.5513 31.7271 14.1832 31.6612 14.7775 31.82C16.4811 32.2742 18.2369 32.5028 20 32.5C29.99 32.5 37.5 25.4825 37.5 17.5C37.5 9.52 29.99 2.5 20 2.5C10.01 2.5 2.5 9.52 2.5 17.5C2.5 21.17 4.0425 24.575 6.695 27.235ZM5.4625 36.9975C4.87017 37.1149 4.27592 37.2224 3.68 37.32C3.18 37.4 2.8 36.88 2.9975 36.415C3.21948 35.8915 3.42294 35.3603 3.6075 34.8225L3.615 34.7975C4.235 32.9975 4.74 30.9275 4.925 29C1.8575 25.925 0 21.9 0 17.5C0 7.835 8.955 0 20 0C31.045 0 40 7.835 40 17.5C40 27.165 31.045 35 20 35C18.0191 35.0027 16.0465 34.7455 14.1325 34.235C12.8325 34.8925 10.035 36.09 5.4625 36.9975Z"/>
<path fill-rule="evenodd" clip-rule="evenodd" d="M10 11.25C10 10.9185 10.1317 10.6005 10.3661 10.3661C10.6005 10.1317 10.9185 10 11.25 10H28.75C29.0815 10 29.3995 10.1317 29.6339 10.3661C29.8683 10.6005 30 10.9185 30 11.25C30 11.5815 29.8683 11.8995 29.6339 12.1339C29.3995 12.3683 29.0815 12.5 28.75 12.5H11.25C10.9185 12.5 10.6005 12.3683 10.3661 12.1339C10.1317 11.8995 10 11.5815 10 11.25ZM10 17.5C10 17.1685 10.1317 16.8505 10.3661 16.6161C10.6005 16.3817 10.9185 16.25 11.25 16.25H28.75C29.0815 16.25 29.3995 16.3817 29.6339 16.6161C29.8683 16.8505 30 17.1685 30 17.5C30 17.8315 29.8683 18.1495 29.6339 18.3839C29.3995 18.6183 29.0815 18.75 28.75 18.75H11.25C10.9185 18.75 10.6005 18.6183 10.3661 18.3839C10.1317 18.1495 10 17.8315 10 17.5ZM10 23.75C10 23.4185 10.1317 23.1005 10.3661 22.8661C10.6005 22.6317 10.9185 22.5 11.25 22.5H21.25C21.5815 22.5 21.8995 22.6317 22.1339 22.8661C22.3683 23.1005 22.5 23.4185 22.5 23.75C22.5 24.0815 22.3683 24.3995 22.1339 24.6339C21.8995 24.8683 21.5815 25 21.25 25H11.25C10.9185 25 10.6005 24.8683 10.3661 24.6339C10.1317 24.3995 10 24.0815 10 23.75Z"/>
</svg>
