<svg width="45" height="45" viewBox="0 0 45 45" xmlns="http://www.w3.org/2000/svg">
<path d="M16.9746 44.8514C16.4202 45.1685 15.7134 44.961 15.4183 44.3946L12.4578 38.7115L6.1161 38.352C5.48292 38.316 5.00455 37.7641 5.05893 37.1323L5.61029 30.726L0.460342 26.9543C-0.0483245 26.5817 -0.151554 25.8639 0.231514 25.3631L4.12334 20.2753L1.80742 14.2844C1.57958 13.695 1.8817 13.0337 2.47636 12.82L8.46497 10.6685L9.72174 4.36826C9.8463 3.74385 10.4638 3.34715 11.0835 3.49343L17.2661 4.95286L21.6884 0.345932C22.1312 -0.115311 22.8688 -0.115311 23.3116 0.345932L27.7339 4.95286L33.9165 3.49343C34.5362 3.34715 35.1537 3.74385 35.2783 4.36826L36.535 10.6685L42.5236 12.82C43.1183 13.0337 43.4204 13.695 43.1926 14.2844L40.8767 20.2753L44.7685 25.3631C45.1516 25.8639 45.0483 26.5817 44.5397 26.9543L39.3897 30.726L39.9411 37.1323C39.9954 37.7641 39.5171 38.316 38.8839 38.352L32.5422 38.7115L29.5817 44.3946C29.2866 44.961 28.5798 45.1685 28.0254 44.8514L22.5 41.6912L16.9746 44.8514ZM16.8732 42.3174L21.9415 39.4187C22.2875 39.2208 22.7125 39.2208 23.0585 39.4187L28.1268 42.3174L30.8423 37.1048C31.0255 36.7531 31.3804 36.5238 31.7763 36.5014L37.6 36.1711L37.0938 30.2887C37.0601 29.8973 37.233 29.5167 37.5499 29.2846L42.2835 25.8178L38.7064 21.1414C38.4684 20.8303 38.4094 20.4177 38.5506 20.0523L40.6785 14.5479L35.1758 12.571C34.8044 12.4375 34.5301 12.1193 34.4529 11.7323L33.2996 5.95088L27.6256 7.29025C27.2382 7.3817 26.8312 7.26159 26.5556 6.97441L22.5 2.74953L18.4444 6.97441C18.1688 7.26159 17.7618 7.3817 17.3744 7.29025L11.7004 5.95088L10.5471 11.7323C10.4699 12.1193 10.1956 12.4375 9.8242 12.571L4.32154 14.5479L6.44937 20.0523C6.59063 20.4177 6.53162 20.8303 6.29361 21.1414L2.71653 25.8178L7.45012 29.2846C7.76703 29.5167 7.93993 29.8973 7.90624 30.2887L7.39997 36.1711L13.2237 36.5014C13.6196 36.5238 13.9745 36.7531 14.1577 37.1048L16.8732 42.3174ZM27.2095 13.9711C27.5707 13.4655 28.2733 13.3484 28.7789 13.7095C29.2845 14.0706 29.4016 14.7733 29.0404 15.2788L17.7905 31.0288C17.4293 31.5344 16.7267 31.6515 16.2211 31.2904C15.7155 30.9292 15.5984 30.2266 15.9596 29.721L27.2095 13.9711ZM15.75 15.7499V17.9999H18V15.7499H15.75ZM15.75 13.5H18C19.2427 13.5 20.25 14.5073 20.25 15.7499V17.9999C20.25 19.2426 19.2427 20.2499 18 20.2499H15.75C14.5074 20.2499 13.5 19.2426 13.5 17.9999V15.7499C13.5 14.5073 14.5074 13.5 15.75 13.5ZM27 26.9999V29.2499H29.25V26.9999H27ZM27 24.7499H29.25C30.4926 24.7499 31.5 25.7573 31.5 26.9999V29.2499C31.5 30.4925 30.4926 31.4999 29.25 31.4999H27C25.7573 31.4999 24.75 30.4925 24.75 29.2499V26.9999C24.75 25.7573 25.7573 24.7499 27 24.7499V24.7499Z"/>
</svg>
