<svg width="12" height="10" viewBox="0 0 12 10" xmlns="http://www.w3.org/2000/svg">
<path fill-rule="evenodd" clip-rule="evenodd" d="M0.455992 4.99993C0.455992 5.17544 0.525714 5.34377 0.649818 5.46787C0.773923 5.59198 0.942246 5.6617 1.11776 5.6617L8.78496 5.6617L5.94334 8.50199C5.88182 8.56352 5.83301 8.63656 5.79971 8.71695C5.76641 8.79735 5.74927 8.88351 5.74927 8.97052C5.74927 9.05754 5.76641 9.1437 5.79971 9.22409C5.83301 9.30448 5.88182 9.37752 5.94334 9.43905C6.00487 9.50058 6.07792 9.54939 6.15831 9.58269C6.2387 9.61598 6.32486 9.63312 6.41187 9.63312C6.49889 9.63312 6.58505 9.61598 6.66544 9.58269C6.74583 9.54939 6.81888 9.50058 6.8804 9.43905L10.851 5.46846C10.9126 5.40699 10.9615 5.33396 10.9949 5.25357C11.0282 5.17317 11.0454 5.08698 11.0454 4.99993C11.0454 4.91289 11.0282 4.8267 10.9949 4.7463C10.9615 4.6659 10.9126 4.59288 10.851 4.5314L6.8804 0.560816C6.75614 0.436554 6.58761 0.366745 6.41187 0.366745C6.23614 0.366745 6.06761 0.436554 5.94335 0.560816C5.81908 0.685078 5.74927 0.853613 5.74927 1.02935C5.74927 1.20508 5.81908 1.37361 5.94335 1.49788L8.78496 4.33817L1.11776 4.33817C0.942246 4.33817 0.773923 4.40789 0.649818 4.532C0.525714 4.6561 0.455993 4.82442 0.455992 4.99993Z"/>
</svg>
