<svg width="37" height="37" viewBox="0 0 37 37" xmlns="http://www.w3.org/2000/svg">
<rect class="vk-icon-bg" x="0.985352" y="0.140625" width="36" height="36"/>
<g clip-path="url(#clip0_1_424)">
<path fill-rule="evenodd" clip-rule="evenodd" d="M10.1917 11.9131H7.8578C7.19099 11.9131 7.05762 12.2368 7.05762 12.5936C7.05762 13.231 7.84887 16.392 10.7417 20.5727C12.6704 23.4279 15.3876 24.9755 17.8601 24.9755C19.3437 24.9755 19.5272 24.6318 19.5272 24.0397V21.8818C19.5272 21.1943 19.6677 21.0571 20.1374 21.0571C20.4836 21.0571 21.0771 21.2355 22.4617 22.6121C24.0441 24.2436 24.305 24.9755 25.1951 24.9755H27.5289C28.1958 24.9755 28.5292 24.6318 28.3369 23.9534C28.1264 23.2773 27.3709 22.2964 26.3683 21.1336C25.8243 20.4708 25.0084 19.757 24.7611 19.4001C24.415 18.9412 24.5139 18.7373 24.7611 18.3295C24.7611 18.3295 27.6046 14.1996 27.9013 12.7976C28.0496 12.2878 27.9013 11.9131 27.1955 11.9131H24.8616C24.2682 11.9131 23.9946 12.2368 23.8462 12.5936C23.8462 12.5936 22.6594 15.5762 20.9781 17.5137C20.4341 18.0745 20.1869 18.253 19.8901 18.253C19.7418 18.253 19.5271 18.0745 19.5271 17.5647V12.7976C19.5271 12.1858 19.3549 11.9131 18.8602 11.9131H15.1927C14.8219 11.9131 14.5989 12.197 14.5989 12.4662C14.5989 13.0461 15.4396 13.1799 15.5262 14.8114V18.3549C15.5262 19.1318 15.3901 19.2727 15.0934 19.2727C14.3022 19.2727 12.3776 16.2767 11.2361 12.8485C11.0126 12.1822 10.7882 11.9131 10.1917 11.9131Z"/>
</g>
</svg>
