<svg width="62" height="62" viewBox="0 0 62 62" fill="none" xmlns="http://www.w3.org/2000/svg">
<g clip-path="url(#clip0_29_308)">
<path d="M54.25 10.6562H49.4062V5.8125C49.4062 3.14166 47.2333 0.96875 44.5625 0.96875H17.4375C14.7667 0.96875 12.5938 3.14166 12.5938 5.8125V26.1562H7.75C4.01159 26.1562 0.96875 29.1981 0.96875 32.9375V42.625C0.96875 46.3644 4.01159 49.4062 7.75 49.4062H12.5938V56.1875C12.5938 58.8583 14.7667 61.0312 17.4375 61.0312H44.5625C47.2333 61.0312 49.4062 58.8583 49.4062 56.1875V33.9062H54.25C57.9884 33.9062 61.0312 30.8644 61.0312 27.125V17.4375C61.0312 13.6981 57.9884 10.6562 54.25 10.6562ZM17.4375 2.90625H44.5625C46.1648 2.90625 47.4688 4.21019 47.4688 5.8125V6.78125H14.5312V5.8125C14.5312 4.21019 15.8352 2.90625 17.4375 2.90625ZM2.90625 42.625V32.9375C2.90625 30.2667 5.07916 28.0938 7.75 28.0938H23.25C25.9208 28.0938 28.0938 30.2667 28.0938 32.9375V42.625C28.0938 45.2958 25.9208 47.4688 23.25 47.4688H7.75C5.07916 47.4688 2.90625 45.2958 2.90625 42.625ZM44.5625 59.0938H17.4375C15.8352 59.0938 14.5312 57.7898 14.5312 56.1875V53.2812H47.4688V56.1875C47.4688 57.7898 46.1648 59.0938 44.5625 59.0938ZM47.4688 51.3438H14.5312V49.4062H23.25C26.9884 49.4062 30.0312 46.3644 30.0312 42.625V32.9375C30.0312 29.1981 26.9884 26.1562 23.25 26.1562H14.5312V8.71875H47.4688V10.6562H38.75C35.0116 10.6562 31.9688 13.6981 31.9688 17.4375V27.125C31.9688 30.8644 35.0116 33.9062 38.75 33.9062H47.4688V51.3438ZM42.625 20.3438C42.625 18.2067 44.3629 16.4688 46.5 16.4688C48.6371 16.4688 50.375 18.2067 50.375 20.3438C50.375 22.4808 48.6371 24.2188 46.5 24.2188C44.3629 24.2188 42.625 22.4808 42.625 20.3438ZM40.6875 31.9688C40.6875 28.7632 43.2944 26.1562 46.5 26.1562C49.7056 26.1562 52.3125 28.7632 52.3125 31.9688H40.6875ZM59.0938 27.125C59.0938 29.7958 56.9208 31.9688 54.25 31.9688C54.25 28.9269 52.484 26.2957 49.9265 25.0277C50.6649 24.49 51.266 23.7855 51.6806 22.9715C52.0952 22.1576 52.3117 21.2572 52.3125 20.3438C52.3125 17.1382 49.7056 14.5312 46.5 14.5312C43.2944 14.5312 40.6875 17.1382 40.6875 20.3438C40.6875 22.2667 41.6301 23.9698 43.0735 25.0277C40.516 26.2957 38.75 28.9269 38.75 31.9688C36.0792 31.9688 33.9062 29.7958 33.9062 27.125V17.4375C33.9062 14.7667 36.0792 12.5938 38.75 12.5938H54.25C56.9208 12.5938 59.0938 14.7667 59.0938 17.4375V27.125Z" fill="#00A0DC"/>
<path d="M25.1875 55.2188H36.8125V57.1562H25.1875V55.2188ZM26.1562 36.8125H18.8267L16.5976 40.5277L12.6451 31.6374L10.0576 36.8125H4.84375V38.75H11.2549L12.5424 36.1751L16.3399 44.7223L19.9233 38.75H26.1562V36.8125ZM28.0938 20.3438H30.0312V22.2812H28.0938V20.3438ZM24.2188 20.3438H26.1562V22.2812H24.2188V20.3438ZM20.3438 20.3438H22.2812V22.2812H20.3438V20.3438ZM39.7188 38.75H41.6562V40.6875H39.7188V38.75ZM35.8438 38.75H37.7812V40.6875H35.8438V38.75ZM31.9688 38.75H33.9062V40.6875H31.9688V38.75Z" fill="#00A0DC"/>
</g>
<defs>
<clipPath id="clip0_29_308">
<rect width="62" height="62" fill="white"/>
</clipPath>
</defs>
</svg>
