<svg width="69" height="70" viewBox="0 0 69 70" fill="none" xmlns="http://www.w3.org/2000/svg">
<path d="M32.2789 0.579943C19.8893 2.00164 11.2022 14.1949 13.8863 26.4288C15.6451 34.3703 21.7144 40.6745 29.5817 42.7003C39.6178 45.2623 50.2617 39.6287 54.1623 29.6887C56.7008 23.1829 55.9473 16.0331 52.073 10.0908C47.7625 3.47794 39.9214 -0.291559 32.2789 0.579943ZM38.52 2.96764C42.2225 3.77264 45.3296 5.48974 48.0137 8.21274C50.6978 10.9224 52.3773 14.0612 53.197 17.9112C53.62 19.8964 53.62 23.8941 53.197 25.8793C52.3773 29.702 50.6847 32.8807 48.0137 35.5771C45.3558 38.2868 42.2225 40.0039 38.4538 40.8355C36.4969 41.2646 32.5563 41.2646 30.5995 40.8355C26.8045 40.0039 23.7105 38.3001 21.0395 35.5771C18.3423 32.8408 16.676 29.7286 15.8563 25.8786C15.4333 23.8934 15.4333 19.8957 15.8563 17.9105C17.1259 11.9815 20.6959 7.26004 25.9185 4.59024C27.7298 3.67814 29.7798 3.06074 32.3445 2.65894C33.3636 2.51194 37.2773 2.69954 38.52 2.96764Z" fill="#0EADFF" stroke="#0EADFF" stroke-width="0.3"/>
<path d="M32.4777 4.87234C28.7358 5.38194 25.4431 7.04514 22.6666 9.83534C17.219 15.3079 16.0688 23.5581 19.8369 30.2249C22.1242 34.3024 25.893 37.2536 30.3221 38.4611C34.5794 39.628 39.2073 38.9574 43.0023 36.6369C44.523 35.7115 45.2896 35.0808 46.6786 33.6325C49.7856 30.3726 51.3726 26.4155 51.3726 21.8956C51.3726 19.7494 51.1746 18.502 50.5267 16.5028C48.6354 10.7614 43.5184 6.20094 37.6741 5.06064C36.312 4.79184 33.7073 4.69804 32.4777 4.87234ZM38.2288 7.31394C41.4284 8.15884 44.1525 9.91654 46.0431 12.3441C47.4714 14.1683 48.4098 16.0863 48.9783 18.3935C49.362 19.9629 49.3882 23.4237 49.0315 25.1142C47.8019 30.8955 43.399 35.3622 37.6996 36.6103C36.0333 36.9722 32.6226 36.9456 31.0749 36.5564C28.8007 35.9796 26.9101 35.0269 25.1119 33.5786C22.6397 31.5934 20.7884 28.5351 20.0211 25.1814C19.8362 24.3365 19.7831 23.5987 19.7962 21.7605C19.8093 19.6815 19.8493 19.2657 20.1529 18.1121C21.6999 12.1964 26.3146 7.95794 32.2251 7.00525C32.6481 6.93805 33.9046 6.91144 34.9886 6.93804C36.5632 6.97864 37.2373 7.04584 38.2288 7.31394Z" fill="#0EADFF" stroke="#0EADFF" stroke-width="0.3"/>
<path d="M23.9492 21.8949V22.968H25.007H26.0648V21.8949V20.8218H25.007H23.9492V21.8949Z" fill="#0EADFF" stroke="#0EADFF" stroke-width="0.3"/>
<path d="M42.989 21.8949V22.968H44.0468H45.1046V21.8949V20.8218H44.0468H42.989V21.8949Z" fill="#0EADFF" stroke="#0EADFF" stroke-width="0.3"/>
<path d="M3.83779 22.0965C2.92561 22.3912 1.98652 23.0891 1.49731 23.8269C0.651369 25.1142 0.664479 24.9133 0.703809 35.1214L0.743139 44.3635L1.09987 45.2623C1.74778 46.9122 2.31634 47.5961 6.95728 52.3449C12.0343 57.5361 12.1668 57.7237 12.2861 59.5346L12.3393 60.5006L11.9556 60.5811C11.4264 60.7015 10.6729 61.3588 10.4087 61.9223C10.2368 62.3115 10.1968 62.9149 10.1968 65.745V69.112H11.2546H12.3124V65.8927V62.6734H19.1889H26.0648V65.8927V69.112H27.1225H28.1803V65.745C28.1803 62.9149 28.141 62.3108 27.9685 61.9223C27.7042 61.3588 26.9507 60.7015 26.4477 60.5944L26.091 60.5139L26.0247 56.0605C25.9716 51.0842 25.9323 50.8959 24.9801 48.8575C24.4508 47.7305 24.3722 47.65 18.6072 41.7749L12.776 35.8186L11.5196 35.8725C10.5011 35.9257 10.1313 36.0069 9.57583 36.2883C8.5843 36.7979 8.05507 37.3348 7.55275 38.2868C7.16911 39.0246 7.10356 39.2661 7.06354 40.3924L6.9973 41.6804L10.8447 45.5703L14.6922 49.4602L15.4457 48.6825L16.2122 47.9181L12.6553 44.3096L9.09835 40.7011L9.16459 39.95C9.27016 38.7026 10.0243 37.9914 11.2539 37.9914H11.8487L17.3625 43.5851C22.0296 48.3199 22.9287 49.3125 23.2068 49.9299C23.8947 51.4587 23.9471 51.9557 23.9471 56.3958V60.5272H19.2006H14.4672L14.3879 59.4807C14.3085 58.2865 13.8725 57.0125 13.1583 55.8722C12.8678 55.4025 10.8578 53.2297 8.14684 50.4661C4.35184 46.5762 3.55834 45.704 3.24163 45.0334L2.85799 44.2284L2.81866 34.9058C2.79244 26.2272 2.80555 25.5566 3.01669 25.1268C3.41344 24.3484 3.86263 24.1076 4.90729 24.1076C5.95195 24.1076 6.40114 24.3491 6.78478 25.1268C6.99661 25.5293 7.02283 26.0655 7.02283 30.1703V34.7721H8.0806H9.15148L9.11146 30.0373C9.07144 25.4495 9.05833 25.3018 8.76784 24.6585C7.84393 22.6061 5.68906 21.4924 3.83779 22.0965Z" fill="#0EADFF" stroke="#0EADFF" stroke-width="0.3"/>
<path d="M63.2723 22.016C62.6113 22.1903 61.5135 22.8609 61.0905 23.3306C60.8787 23.5854 60.5482 24.095 60.3371 24.4842L59.9803 25.1814L59.9403 29.9701L59.901 34.7721H60.9587H62.0296V30.171C62.0296 26.0662 62.0558 25.53 62.2677 25.1275C62.6513 24.3491 63.1005 24.1083 64.1452 24.1083C65.1898 24.1083 65.639 24.3498 66.0358 25.1275C66.2476 25.5566 66.2607 26.2272 66.2345 34.9065L66.1952 44.2291L65.8115 45.0341C65.4941 45.718 64.7144 46.5769 60.9063 50.4668C58.1691 53.257 56.186 55.4032 55.8948 55.8729C55.1676 57.0132 54.7446 58.2872 54.6653 59.4814L54.5859 60.5279H49.8525H45.1053V56.3965C45.1053 51.9564 45.1584 51.4601 45.8457 49.9306C46.1237 49.3132 47.0228 48.3206 51.69 43.5858L57.2038 37.9921H57.7985C59.0281 37.9921 59.7816 38.7033 59.8879 39.9507L59.9541 40.7018L56.3972 44.3103L52.8402 47.9188L53.6068 48.6832L54.3603 49.4609L58.2077 45.571L62.042 41.6811L62.0027 40.4736C61.9234 38.5017 61.1036 37.1332 59.4904 36.3016C58.9219 36.0069 58.5651 35.9257 57.5336 35.8725L56.2778 35.8186L50.4466 41.7742C44.6816 47.6493 44.6023 47.7298 44.0731 48.8568C43.1209 50.8959 43.0815 51.0835 43.0284 56.0598L42.9622 60.5132L42.6054 60.5937C42.1031 60.7008 41.3489 61.3581 41.0847 61.9216C40.9129 62.3108 40.8735 62.9142 40.8735 65.7443V69.1113H41.9313H42.9891V65.892V62.6727H49.8649H56.7408V65.892V69.112H57.7985H58.8563V65.745C58.8563 62.9149 58.817 62.3108 58.6445 61.9223C58.3802 61.3588 57.626 60.7015 57.0975 60.5811L56.7139 60.5006L56.767 59.5346C56.8857 57.7237 57.0182 57.5361 62.0959 52.3449C64.5681 49.7962 66.8293 47.3679 67.0942 46.9521C67.3723 46.523 67.7552 45.7719 67.954 45.2756L68.3107 44.3635V34.8393V25.3151L67.9671 24.564C67.2929 23.115 65.8909 22.0825 64.4501 21.9614C64.0258 21.9355 63.4973 21.9488 63.2723 22.016Z" fill="#0EADFF" stroke="#0EADFF" stroke-width="0.3"/>
<path d="M33.7742 12.7462C33.6229 12.7844 32.9033 12.8791 32.2035 12.9357C30.1026 13.1442 30.1782 12.8975 30.1782 18.7846V23.8007L29.5724 23.8572C29.0048 23.9138 28.9475 23.9711 28.891 24.6143C28.8344 25.3149 28.8344 25.3333 29.4968 25.3333H30.1782V26.8283C30.1782 28.6451 30.3868 28.9292 31.6168 28.9292C33.0928 28.9292 33.2066 28.778 33.2066 26.9414V25.3325H35.024H36.8224L36.7658 24.6136L36.7093 23.9131L34.9682 23.8565C33.2645 23.8 33.208 23.7809 33.208 23.3645C33.208 22.9291 33.2645 22.9291 35.0629 22.8344C37.1447 22.7396 38.3754 22.3042 39.416 21.3011C40.5329 20.2224 40.8736 19.3897 40.8736 17.5722C40.8736 16.1528 40.817 15.8495 40.3434 15.074C39.7758 14.1091 38.7536 13.3895 37.4663 13.0488C36.6138 12.841 34.2097 12.6331 33.7742 12.7462ZM36.8789 15.4911C37.6925 15.9831 38.0333 16.6837 38.0149 17.8006C37.9958 18.7846 37.6551 19.4285 36.7276 20.11C36.3304 20.4125 35.8567 20.5263 34.7024 20.5829L33.2073 20.6395V17.8946C33.2073 15.1879 33.2073 15.1313 33.6427 15.0366C34.4557 14.8662 36.2731 15.1122 36.8789 15.4911Z" fill="#0EADFF" stroke="#0EADFF" stroke-width="0.3"/>
</svg>
