<svg width="55" height="67" viewBox="0 0 55 67" fill="none" xmlns="http://www.w3.org/2000/svg">
<path d="M37.8037 22.5499C37.8037 14.5264 31.2761 7.99874 23.2526 7.99874C15.2291 7.99874 8.70142 14.5264 8.70142 22.5499C8.70142 30.5734 15.2291 37.101 23.2526 37.101C31.2761 37.101 37.8037 30.5734 37.8037 22.5499ZM35.1561 21.2609H29.7387C29.6211 18.0431 29.0658 15.0414 28.144 12.6999C27.9563 12.2231 27.755 11.7801 27.5416 11.3717C31.6471 12.9525 34.6691 16.7324 35.1561 21.2609ZM23.2526 34.5229C21.9575 34.5229 19.6058 30.8586 19.3452 23.839H27.1599C26.8994 30.8586 24.5477 34.5229 23.2526 34.5229ZM19.3452 21.2609C19.6058 14.2411 21.9575 10.5769 23.2526 10.5769C24.5477 10.5769 26.8994 14.2411 27.1599 21.2609H19.3452ZM18.9636 11.3718C18.7503 11.7801 18.5489 12.2231 18.3613 12.6999C17.4395 15.0414 16.8841 18.0431 16.7666 21.2609H11.3491C11.8362 16.7324 14.8581 12.9525 18.9636 11.3718ZM11.3491 23.839H16.7666C16.8841 27.0568 17.4395 30.0585 18.3613 32.3998C18.5489 32.8766 18.7502 33.3197 18.9636 33.7279C14.8581 32.1474 11.8362 28.3673 11.3491 23.839ZM27.5416 33.728C27.7549 33.3198 27.9561 32.8767 28.144 32.3998C29.0658 30.0583 29.6211 27.0566 29.7387 23.839H35.1561C34.6691 28.3675 31.6471 32.1474 27.5416 33.728Z" fill="#0EADFF"/>
<path d="M53.3221 43.8704C49.0627 43.8704 46.3334 41.9518 45.3901 41.1616V28.0006C45.3901 27.2887 44.8128 26.7116 44.101 26.7116C43.3892 26.7116 42.8119 27.2887 42.8119 28.0006V41.1238C40.5638 42.8532 37.7231 43.8704 34.8805 43.8704C34.1687 43.8704 33.5914 44.4475 33.5914 45.1595V53.7421C33.5914 55.0102 33.8011 56.2832 34.2127 57.4828H5.69686C4.46735 57.4828 3.46704 56.4825 3.46704 55.253V5.59197C3.46704 4.36246 4.46735 3.36215 5.69686 3.36215H40.5821C41.8116 3.36215 42.8119 4.36246 42.8119 5.59197V16.6363C42.8119 17.3482 43.3892 17.9253 44.101 17.9253C44.8128 17.9253 45.3901 17.3482 45.3901 16.6363V5.59197C45.3901 2.94089 43.2332 0.784027 40.5821 0.784027H5.69686C3.04565 0.784027 0.888916 2.94089 0.888916 5.59197V55.2528C0.888916 57.9039 3.04565 60.0608 5.69686 60.0608H35.4648C37.3234 62.9956 40.3983 65.4161 43.6271 66.6937C43.7795 66.7539 43.9405 66.784 44.1014 66.784C44.2623 66.784 44.4233 66.7539 44.5756 66.6937C44.6776 66.6533 47.1017 65.6821 49.5382 63.6475C52.857 60.8759 54.6113 57.4507 54.6113 53.7421V45.1595C54.6111 44.4475 54.0339 43.8704 53.3221 43.8704ZM52.033 53.7421C52.033 59.863 45.8736 63.2388 44.0995 64.084C40.0514 62.1687 36.1699 58.5196 36.1699 53.7419V46.3931C39.0038 46.1468 41.7759 45.0789 44.0724 43.4049C45.3862 44.4175 48.1039 46.0874 52.033 46.398V53.7421Z" fill="#0EADFF"/>
<path d="M41.6974 52.2007C41.194 51.6973 40.3781 51.6973 39.8743 52.2007C39.3709 52.704 39.3709 53.5203 39.8743 54.0236L42.0968 56.2462C42.5925 56.7421 43.4239 56.742 43.9199 56.2462L48.7692 51.3969C49.2726 50.8935 49.2726 50.0773 48.7692 49.5739C48.2658 49.0706 47.4499 49.0706 46.9461 49.5739L43.0083 53.5118L41.6974 52.2007Z" fill="#0EADFF"/>
<path d="M29.1145 43.8393H11.1531C10.4413 43.8393 9.86401 44.4164 9.86401 45.1284C9.86401 45.8403 10.4413 46.4174 11.1531 46.4174H29.1145C29.8263 46.4174 30.4035 45.8403 30.4035 45.1284C30.4035 44.4164 29.8263 43.8393 29.1145 43.8393Z" fill="#0EADFF"/>
<path d="M29.1145 49.8422H16.9666C16.2548 49.8422 15.6776 50.4193 15.6776 51.1312C15.6776 51.8432 16.2548 52.4203 16.9666 52.4203H29.1145C29.8263 52.4203 30.4035 51.8432 30.4035 51.1312C30.4035 50.4193 29.8263 49.8422 29.1145 49.8422Z" fill="#0EADFF"/>
<path d="M45.173 21.4386C44.7811 20.8559 43.9708 20.6902 43.3851 21.0815C42.8005 21.4721 42.6415 22.285 43.0293 22.8695C43.4181 23.4555 44.2322 23.6125 44.8158 23.2252C45.4013 22.8367 45.5615 22.0224 45.173 21.4386Z" fill="#0EADFF"/>
</svg>
