<svg width="60" height="59" viewBox="0 0 60 59" fill="none" xmlns="http://www.w3.org/2000/svg">
<g clip-path="url(#clip0_1267_9609)">
<path d="M60 44.6998C59.8435 45.4199 59.7183 46.1556 59.5304 46.86C59.0765 48.5662 58.2468 50.0846 57.1041 51.4152C56.6345 51.9787 56.1179 52.057 55.6953 51.6813C55.304 51.3213 55.3196 50.8204 55.7579 50.2881C60.8766 44.0424 57.6363 34.9477 49.7313 33.3823C43.9551 32.2396 38.1477 36.5756 37.5998 42.4301C37.0832 48.0027 40.6209 52.7301 46.1153 53.7632C48.2599 54.1702 50.3105 53.8415 52.2828 52.9492C52.4394 52.871 52.5959 52.7927 52.7524 52.7144C53.269 52.5109 53.7386 52.6675 53.9578 53.1058C54.1769 53.5597 54.0204 54.0293 53.5195 54.2798C52.1889 54.9842 50.7801 55.4225 49.293 55.579C45.4892 55.9704 42.2176 54.8433 39.4313 52.2292C39.306 52.1039 39.0086 52.057 38.8364 52.1196C37.9129 52.4327 37.005 52.7614 36.0971 53.1371C35.9405 53.1997 35.7683 53.4345 35.737 53.6067C35.6901 54.045 35.7214 54.4989 35.7214 54.9529C35.7057 56.9096 34.4065 58.2088 32.4341 58.2245C31.1506 58.2401 29.8513 58.2245 28.5677 58.2245C27.472 58.2245 26.3762 58.2401 25.2805 58.2245C23.3707 58.1932 22.1028 56.9096 22.0558 55.0155C22.0402 54.5459 22.0872 54.0763 22.0402 53.6067C22.0245 53.4345 21.8524 53.1997 21.6802 53.1371C20.1774 52.4953 18.659 51.8848 17.1563 51.243C16.8745 51.1178 16.7023 51.1334 16.4988 51.3526C16.1701 51.7126 15.8257 52.057 15.4657 52.3857C14.1821 53.6067 12.3663 53.638 11.0984 52.4014C9.31387 50.6795 7.57633 48.9106 5.83878 47.1418C4.5865 45.8582 4.60215 44.0267 5.87009 42.7275C6.29274 42.2892 6.74669 41.8978 7.09107 41.5848C6.38666 39.769 5.72921 38.094 5.05611 36.4191C5.00915 36.2939 4.77434 36.1686 4.63346 36.1686C4.08559 36.1373 3.53771 36.1686 2.98984 36.153C1.37753 36.106 0.0469749 34.8068 0.0156678 33.1945C-0.0156393 30.6429 -0.0156393 28.0758 0.0156678 25.5242C0.0313213 23.8963 1.36187 22.6127 2.97419 22.5501C3.52206 22.5344 4.06993 22.5657 4.61781 22.5188C4.79 22.5031 5.0248 22.3309 5.08741 22.1587C5.74486 20.5308 6.371 18.9028 7.10672 17.04C6.82496 16.8052 6.371 16.4452 5.96401 16.0382C4.57085 14.645 4.57085 12.8136 5.96401 11.4204C7.62329 9.74547 9.29821 8.07054 10.9731 6.41127C12.382 5.01811 14.1978 5.03376 15.6066 6.41127C16.0136 6.80261 16.3893 7.4131 16.8432 7.50702C17.2815 7.58529 17.7981 7.06872 18.299 6.86522C19.3634 6.42692 20.4279 5.98862 21.508 5.62859C21.9463 5.48771 22.0872 5.28422 22.0558 4.84592C22.0245 4.32935 22.0245 3.78148 22.0872 3.26491C22.2593 1.66825 23.4334 0.509887 25.03 0.47858C27.5815 0.431619 30.1487 0.431619 32.7002 0.47858C34.4065 0.509887 35.6275 1.82478 35.6901 3.54667C35.7057 4.04759 35.6588 4.56415 35.7057 5.06507C35.7214 5.23725 35.8936 5.47206 36.0501 5.55033C37.5685 6.20777 39.1025 6.83392 40.6366 7.46006C40.7931 7.52267 41.0592 7.49136 41.1688 7.38179C41.5758 7.02176 41.9358 6.61477 42.3428 6.23908C43.5481 5.12768 45.364 5.06507 46.538 6.20777C48.4007 7.99228 50.2166 9.82374 52.0011 11.6709C53.1438 12.8605 53.0968 14.6607 51.9541 15.866C51.5158 16.3356 51.0305 16.7583 50.6392 17.1496C51.2653 18.7149 51.8915 20.1707 52.455 21.6578C52.7837 22.5188 52.7524 22.5188 53.676 22.5501C54.2552 22.5657 54.8657 22.5344 55.4135 22.6753C56.7754 22.9884 57.6989 24.178 57.6989 25.5712C57.7146 28.0914 57.6989 30.6116 57.6989 33.1319C57.6989 33.9928 57.3389 34.7129 56.7284 35.3547C56.838 35.4955 56.9319 35.6364 57.0415 35.7617C58.5755 37.5931 59.5148 39.675 59.8122 42.0387C59.8278 42.1483 59.8748 42.2579 59.9217 42.3674C60 43.1501 60 43.9328 60 44.6998ZM33.2794 44.6998C34.0308 44.4181 34.6726 44.1519 35.33 43.9171C35.6901 43.7919 35.7683 43.5884 35.784 43.2284C36.0188 37.9688 39.1965 33.7423 44.2056 32.0518C44.5343 31.9422 44.6439 31.77 44.6752 31.4413C45.5988 24.6163 41.9045 17.807 35.6275 14.9424C30.9314 12.7979 26.251 12.9388 21.6175 15.1929C20.9758 15.506 20.4592 15.3807 20.2244 14.8798C19.9896 14.3789 20.2087 13.9406 20.8349 13.6275C24.3256 11.8744 28.0198 11.2639 31.8706 11.937C41.0749 13.5493 47.352 21.7987 46.5067 31.0969C46.491 31.2378 46.5067 31.3787 46.5067 31.5352C49.4495 31.2691 52.5333 31.8483 55.6327 34.2119C55.7736 33.7736 56.0084 33.398 56.024 33.0066C56.0553 30.5803 56.0553 28.1697 56.0397 25.7434C56.0397 24.8511 55.5075 24.3189 54.6152 24.3033C53.8325 24.2876 53.0498 24.3033 52.2672 24.3033C51.7193 24.3033 51.3749 24.0371 51.2497 23.5206C50.7175 21.47 49.9035 19.5289 48.839 17.6975C48.5416 17.1966 48.6199 16.7739 49.0269 16.3826C49.5591 15.866 50.0757 15.3338 50.6079 14.8016C51.2966 14.0972 51.3123 13.3771 50.6392 12.6883C48.9643 10.9978 47.2737 9.30717 45.5831 7.63225C44.8787 6.94349 44.143 6.95914 43.4229 7.66355C42.8907 8.18012 42.3741 8.71234 41.8419 9.24456C41.4506 9.6359 41.0279 9.68286 40.574 9.41675C38.7425 8.35231 36.8015 7.55398 34.7509 7.02176C34.1873 6.86522 33.9525 6.52084 33.9682 5.95732C33.9838 5.2216 33.9838 4.47023 33.9682 3.73452C33.9525 2.764 33.436 2.24743 32.4654 2.24743C30.0861 2.23178 27.7068 2.23178 25.3118 2.24743C24.3413 2.24743 23.8403 2.764 23.8247 3.75017C23.809 4.48589 23.809 5.23725 23.8247 5.97297C23.8403 6.5365 23.6055 6.89653 23.042 7.03741C20.9914 7.56963 19.0504 8.38362 17.2189 9.44806C16.7493 9.71417 16.3267 9.66721 15.951 9.27587C15.4187 8.72799 14.8865 8.19577 14.3387 7.66355C13.6812 7.02176 12.9142 6.99045 12.2724 7.63225C10.5662 9.30717 8.87557 11.0134 7.18499 12.7196C6.51189 13.4084 6.52754 14.1285 7.21629 14.8329C7.71721 15.3494 8.23377 15.866 8.75034 16.3669C9.20429 16.7896 9.26691 17.2279 8.93818 17.7757C7.8894 19.5446 7.10672 21.4543 6.5745 23.4736C6.41796 24.0528 6.07359 24.3189 5.47875 24.3033C4.71173 24.2876 3.96036 24.2876 3.19334 24.3033C2.33239 24.3189 1.78452 24.8355 1.78452 25.6808C1.76886 28.1227 1.76886 30.5647 1.78452 33.0066C1.78452 33.8676 2.33239 34.3841 3.17768 34.3998C3.96036 34.4154 4.74304 34.4154 5.52571 34.3998C6.08924 34.3998 6.43362 34.6659 6.5745 35.2138C7.10672 37.2487 7.90505 39.1741 8.95384 40.9743C9.26691 41.4908 9.18864 41.9291 8.75034 42.3361C8.21812 42.8527 7.6859 43.3693 7.16933 43.9171C6.51188 44.5902 6.49623 45.326 7.15368 45.9834C8.84426 47.6896 10.5348 49.3959 12.2411 51.0865C12.8985 51.7283 13.6499 51.7283 14.3073 51.0865C14.8396 50.5699 15.3718 50.0533 15.8884 49.5055C16.2953 49.0672 16.7336 48.9889 17.2502 49.302C19.066 50.3664 20.9914 51.1647 23.0107 51.6969C23.5742 51.8378 23.8247 52.1666 23.809 52.7457C23.7934 53.5128 23.7934 54.2641 23.809 55.0312C23.8404 55.9704 24.3413 56.4869 25.2805 56.4869C27.6755 56.5026 30.0861 56.5026 32.4811 56.4869C33.4047 56.4869 33.9212 55.9547 33.9369 55.0155C33.9525 54.3581 33.9369 53.6849 33.9369 53.0275C33.9369 52.01 34.0308 51.9161 35.0326 51.6187C36.0188 51.3213 36.9737 50.9769 37.9911 50.6325C36.8954 49.0515 36.2379 47.4235 35.8936 45.6234C35.6744 45.7016 35.5179 45.7486 35.3614 45.8112C32.0741 47.1105 28.6773 47.4705 25.2492 46.6722C18.3616 45.0598 13.7125 40.8334 11.8497 34.0084C10.0026 27.2305 11.8497 21.2821 16.9058 16.3826C17.6102 15.7095 18.0798 15.6312 18.5025 16.0695C18.9251 16.5078 18.7999 17.0244 18.1112 17.6505C9.25125 25.806 12.3507 40.536 23.7934 44.4337C24.0125 44.512 24.2317 44.5589 24.5291 44.6372C24.5291 44.3711 24.5291 44.1676 24.5291 43.9798C24.5291 41.3969 24.5135 38.8297 24.5448 36.2469C24.5448 35.8086 24.4039 35.6208 24.0125 35.4016C20.7096 33.6015 18.7999 30.8308 18.5651 27.0739C18.3303 23.2232 19.9426 20.1864 23.1359 18.0105C23.856 17.5253 24.6543 17.1026 25.5309 17.6035C26.3919 18.0888 26.3919 18.9654 26.3919 19.8107C26.3762 21.8457 26.3606 23.865 26.3762 25.8999C26.3919 27.2618 27.472 28.4514 28.7712 28.5923C29.82 28.7019 31.0723 27.6688 31.354 26.4478C31.401 26.2286 31.4167 25.9782 31.4167 25.7434C31.4167 23.9432 31.4167 22.1431 31.4167 20.3586C31.4167 19.9516 31.3854 19.5289 31.4167 19.1219C31.5262 17.6975 32.5437 17.0557 33.8743 17.5722C34.0621 17.6349 34.2343 17.7288 34.4065 17.8227C37.6624 19.6698 39.7287 23.8023 39.2278 27.4966C38.7425 31.0969 36.8954 33.758 33.6551 35.4486C33.3734 35.5895 33.2638 35.746 33.2638 36.0747C33.2794 37.0139 33.2638 37.9531 33.2638 38.8924C33.2794 40.8021 33.2794 42.6649 33.2794 44.6998ZM24.6074 19.1846C24.263 19.3881 24.0282 19.5133 23.8247 19.6698C21.2888 21.5639 20.0365 24.0841 20.334 27.2148C20.647 30.4394 22.3846 32.7718 25.3587 34.0867C26.0632 34.3998 26.3293 34.7911 26.3136 35.5425C26.2823 38.4854 26.298 41.4439 26.298 44.3867C26.298 44.5902 26.298 44.8094 26.298 45.0285C28.0668 45.3416 29.773 45.3416 31.5262 45.0285C31.5262 44.7937 31.5262 44.5746 31.5262 44.3711C31.5262 41.4752 31.5575 38.5949 31.5106 35.699C31.4949 34.8381 31.7767 34.3841 32.575 34.0241C35.4709 32.7092 37.1615 30.4081 37.4746 27.2618C37.7876 24.1311 36.551 21.5952 34.0308 19.7011C33.796 19.5289 33.5142 19.3881 33.1855 19.2002C33.1855 19.4663 33.1855 19.6229 33.1855 19.7794C33.1855 21.7517 33.2012 23.7241 33.2012 25.6964C33.2012 26.1191 33.1699 26.5574 33.0603 26.9644C32.5907 28.9837 30.4774 30.596 28.646 30.3768C26.6736 30.142 25.0926 28.7019 24.7169 26.7296C24.6074 26.1034 24.623 25.446 24.623 24.8042C24.6074 22.9884 24.6074 21.1569 24.6074 19.1846Z" fill="#0EADFF"/>
<path d="M46.5224 42.2111C47.5086 41.0371 48.4948 39.8787 49.4653 38.7047C50.1697 37.8438 51.0619 37.4211 52.189 37.5307C54.4901 37.7655 55.7423 40.3953 54.3335 42.2268C52.6429 44.4183 50.8271 46.5158 49.0113 48.5977C48.0095 49.7405 46.2876 49.8187 45.0823 48.8795C44.0335 48.0499 43.0004 47.1733 42.0142 46.2654C40.8402 45.1853 40.7619 43.3851 41.7637 42.1955C42.7969 40.9588 44.5501 40.7397 45.865 41.6789C46.0528 41.8198 46.2563 42.0076 46.5224 42.2111ZM53.1908 40.5362C53.0656 40.2388 53.0186 39.9726 52.8777 39.7848C52.4081 39.0804 51.4376 39.096 50.8271 39.8005C49.6844 41.1467 48.5417 42.5242 47.399 43.886C46.8981 44.4652 46.4754 44.4965 45.8963 44.0113C45.5675 43.7451 45.2545 43.4477 44.9101 43.1816C44.2996 42.6964 43.5952 42.7433 43.1256 43.2599C42.6403 43.8078 42.6873 44.5435 43.2978 45.0757C44.19 45.8584 45.0979 46.6254 46.0215 47.3924C46.6633 47.9246 47.3364 47.862 47.8843 47.2359C49.5279 45.2948 51.1559 43.3538 52.7682 41.3971C52.956 41.1467 53.0499 40.8179 53.1908 40.5362Z" fill="#0EADFF"/>
</g>
<defs>
<clipPath id="clip0_1267_9609">
<rect width="60" height="57.8085" fill="white" transform="translate(0 0.447266)"/>
</clipPath>
</defs>
</svg>
