<svg width="60" height="61" viewBox="0 0 60 61" fill="none" xmlns="http://www.w3.org/2000/svg">
<g clip-path="url(#clip0_1267_9598)">
<path d="M45.2602 45.5623C45.7322 46.0827 46.3009 46.6999 46.8576 47.3292C47.3417 47.8737 47.3296 48.2731 46.8092 48.7935C46.1799 49.4349 45.5143 50.0641 44.8971 50.7297C44.7156 50.9234 44.5825 51.2501 44.5704 51.5042C44.5462 53.2953 44.5583 55.0863 44.5583 56.8774C44.5462 59.0678 43.215 60.4232 41.0246 60.4232C28.5236 60.4232 16.0226 60.4232 3.50948 60.4232C1.31908 60.4232 0 59.0557 0 56.7927C0 44.5458 0 32.311 0 20.0641C0 17.5107 0 14.9451 0 12.3917C0 10.1287 1.30698 8.84591 3.56999 8.84591C5.60307 8.84591 7.63614 8.84591 9.66922 8.84591C9.86285 8.84591 10.0686 8.84591 10.3469 8.84591C10.3469 8.15612 10.3348 7.52683 10.3469 6.88544C10.359 6.01412 10.6374 5.73578 11.5208 5.73578C12.4405 5.73578 13.3602 5.73578 14.3284 5.73578C14.3526 5.36063 14.3647 5.04599 14.3889 4.73135C14.5825 2.43203 16.3735 0.592581 18.6729 0.50787C21.069 0.423158 23.4651 0.423158 25.8612 0.50787C28.2816 0.592581 30.0968 2.57725 30.1815 5.02179C30.1936 5.26382 30.1815 5.50585 30.1815 5.8326C31.1134 5.8326 32.0089 5.8326 32.9044 5.8326C33.9451 5.8326 34.1872 6.06253 34.1993 7.10327C34.1993 7.62364 34.2114 8.14401 34.2235 8.67649C34.2235 8.71279 34.2598 8.7491 34.3082 8.84591C34.4897 8.84591 34.7075 8.84591 34.9254 8.84591C36.9948 8.84591 39.0762 8.83381 41.1456 8.84591C43.2029 8.85801 44.5462 10.2013 44.5583 12.2586C44.5704 14.1948 44.5583 16.119 44.5583 18.0553C44.5583 18.2731 44.5583 18.4909 44.6793 18.7572C44.8003 18.6119 44.9213 18.4788 45.0303 18.3336C47.499 15.2598 49.9677 12.1739 52.4365 9.10004C53.6466 7.59944 55.3772 7.01856 56.9262 7.76886C58.9835 8.7733 60.2057 10.1529 59.9516 12.1618C59.879 12.7305 59.637 13.3477 59.286 13.7955C54.8568 19.3986 50.3913 24.9774 45.9137 30.5563C45.6232 30.9072 45.6232 31.1614 45.8048 31.5607C46.2041 32.4199 46.543 33.3033 46.8334 34.1989C46.9786 34.6466 47.1722 34.804 47.6321 34.8161C48.3098 34.8282 48.9996 34.9008 49.6773 34.9371C50.234 34.9734 50.5365 35.288 50.5486 35.8205C50.5728 37.1033 50.5728 38.3981 50.5486 39.6809C50.5365 40.2618 50.1735 40.5401 49.6168 40.5764C48.8786 40.6249 48.1283 40.6612 47.3901 40.7338C47.2207 40.7459 47.0028 40.9274 46.9423 41.0726C46.3856 42.549 45.8411 43.9891 45.2602 45.5623ZM41.0972 49.931C39.5361 50.5119 38.096 51.0444 36.668 51.6132C36.4986 51.6737 36.3171 51.9157 36.305 52.0972C36.2202 52.8354 36.1839 53.5857 36.1355 54.3239C36.0992 54.9048 35.7483 55.2194 35.2037 55.2315C33.933 55.2558 32.6624 55.2558 31.4038 55.2315C30.8592 55.2194 30.5204 54.9048 30.4962 54.3118C30.4599 53.5857 30.3873 52.8717 30.3509 52.1456C30.3388 51.8189 30.2057 51.6858 29.8911 51.5647C28.5962 51.0686 27.3255 50.5482 26.0549 49.9794C25.7402 49.8463 25.5708 49.8463 25.3288 50.0762C24.7842 50.5845 24.2154 51.0686 23.6466 51.5526C23.1021 52.0125 22.739 52.0004 22.2186 51.5163C21.3836 50.7297 20.5607 49.931 19.7378 49.1202C19.2053 48.5877 19.2053 48.1158 19.7257 47.5349C20.1856 47.0266 20.6333 46.5063 21.1174 46.0222C21.3715 45.7681 21.3231 45.5986 21.2021 45.2961C20.6454 44.0254 20.125 42.7547 19.6289 41.4599C19.5079 41.1452 19.3868 41.0121 19.048 41.0121C18.3461 41 17.6442 40.9395 16.9423 40.8911C16.313 40.8427 15.9742 40.5401 15.9621 39.8988C15.9379 38.6765 15.9379 37.4421 15.9621 36.2198C15.9742 35.5906 16.313 35.2638 16.9423 35.2275C17.6079 35.1791 18.2735 35.1186 18.927 35.1065C19.3626 35.1065 19.52 34.9371 19.6773 34.5256C20.1493 33.2549 20.6817 31.9964 21.2263 30.7499C21.3594 30.4474 21.3352 30.29 21.1295 30.0722C20.6454 29.5639 20.1735 29.0436 19.7015 28.5111C19.1932 27.9302 19.1932 27.5551 19.7378 26.9984C20.5244 26.1997 21.3231 25.401 22.1339 24.6023C22.6785 24.0577 23.1868 24.0456 23.7798 24.5539C24.3122 25.0137 24.8326 25.4978 25.3893 25.9213C25.5466 26.0424 25.8612 26.0666 26.0549 25.994C27.3618 25.4857 28.6567 24.9532 29.9395 24.3965C30.121 24.3118 30.3267 24.0577 30.3509 23.8641C30.4478 23.1622 30.4599 22.4603 30.5204 21.7584C30.5809 21.0323 30.8471 20.766 31.5974 20.7539C32.7592 20.7418 33.933 20.7418 35.0948 20.7539C35.8209 20.766 36.1113 21.0323 36.1718 21.7705C36.2445 22.6055 36.2929 23.4526 36.3413 24.2029C37.3457 24.566 38.2654 24.8927 39.1731 25.2558C39.4998 25.3889 39.645 25.2437 39.8144 25.0258C40.71 23.8883 41.6297 22.7628 42.5131 21.6253C42.6462 21.4679 42.7672 21.238 42.7672 21.0444C42.7793 18.0674 42.7914 15.0783 42.7672 12.1013C42.7551 11.3389 42.2106 10.7822 41.4603 10.7822C39.1004 10.758 36.7527 10.7822 34.3929 10.7822C34.3566 10.7822 34.3324 10.8185 34.2477 10.879C34.2477 11.5688 34.2477 12.2828 34.2477 13.0089C34.2356 14.0617 34.0056 14.2917 32.977 14.3038C25.8854 14.3038 18.806 14.3038 11.7144 14.3038C10.6253 14.3038 10.4074 14.0738 10.3953 12.9968C10.3953 12.2586 10.3953 11.5204 10.3953 10.7701C7.93869 10.7701 5.57886 10.758 3.23114 10.7822C2.44453 10.7943 1.93626 11.3389 1.87576 12.1255C1.86365 12.3312 1.86365 12.5248 1.86365 12.7305C1.86365 21.6132 1.86365 30.4958 1.86365 39.3663C1.86365 45.2235 1.86365 51.0807 1.86365 56.95C1.86365 58.2207 2.34772 58.6805 3.6305 58.6926C3.71521 58.6926 3.78782 58.6926 3.87253 58.6926C12.8883 58.6926 21.9161 58.6926 30.9318 58.6926C34.3203 58.6926 37.6967 58.6926 41.0851 58.6926C42.259 58.6926 42.7793 58.1601 42.7793 56.9984C42.7793 55.2921 42.7914 53.5736 42.7672 51.8673C42.7672 51.6616 42.7188 51.4074 42.5857 51.2743C42.0411 50.7539 41.4845 50.282 41.0972 49.931ZM45.0182 48.14C44.4978 47.5591 44.0137 47.0145 43.5297 46.4821C42.8762 45.756 42.852 45.526 43.4086 44.7515C44.401 43.3719 45.0424 41.8471 45.3449 40.1771C45.5022 39.3058 45.6716 39.1484 46.5672 39.0879C47.2812 39.0274 47.9952 38.9911 48.7213 38.9427C48.7213 38.2166 48.7213 37.5631 48.7213 36.8612C47.9589 36.8007 47.2086 36.7523 46.4704 36.6797C45.6716 36.6071 45.5506 36.4619 45.3328 35.6995C45.0545 34.7434 44.6914 33.8116 44.3889 32.9282C43.3723 33.8358 42.4405 34.6587 41.545 35.5059C41.424 35.6269 41.3998 35.9415 41.4482 36.1351C42.9488 42.428 37.0432 48.0432 30.835 46.24C27.1077 45.1509 24.4695 41.4478 24.7479 37.7205C25.0625 33.5212 28.1 30.2053 32.1783 29.7818C33.4369 29.6487 34.7196 29.8665 35.9661 29.9149C36.6075 28.9831 37.3215 27.9665 38.1081 26.829C37.0795 26.5506 36.1476 26.2723 35.1916 26.0545C34.647 25.9334 34.405 25.643 34.3687 25.1105C34.3324 24.4449 34.2961 23.7793 34.2235 23.1259C34.2114 22.9685 34.0662 22.6902 33.9693 22.6902C33.3522 22.6539 32.735 22.666 32.1057 22.666C32.0452 23.4647 31.9847 24.1908 31.9484 24.9169C31.9 25.7277 31.7426 25.9334 30.9318 26.0787C29.2618 26.3812 27.7249 26.9863 26.3211 27.9302C25.6192 28.4022 25.2925 28.378 24.6632 27.8092C24.1065 27.3251 23.5619 26.829 23.0294 26.3449C22.5091 26.8532 22.0613 27.3009 21.5772 27.7729C22.1097 28.3417 22.6301 28.8862 23.1505 29.4429C23.6829 30.0117 23.7071 30.2779 23.2715 30.9193C22.2549 32.4199 21.5046 34.0294 21.2142 35.8326C21.1295 36.353 20.8512 36.6434 20.2824 36.6797C19.4837 36.7281 18.685 36.8007 17.862 36.8733C17.862 37.6115 17.862 38.3013 17.862 39.0395C18.5639 39.0879 19.2416 39.1484 19.9193 39.1848C20.8875 39.2332 21.069 39.3663 21.2626 40.2981C21.6136 41.9439 22.267 43.4808 23.1989 44.8846C23.6345 45.526 23.6103 45.8649 23.09 46.4457C22.5817 47.0145 22.0734 47.5712 21.662 48.0311C22.146 48.5877 22.5817 49.0839 23.0173 49.5922C23.6587 49.0597 24.2638 48.5635 24.8689 48.0674C25.5587 47.4986 25.7281 47.4865 26.4663 47.9706C27.9306 48.9387 29.5038 49.6043 31.2465 49.8463C31.7789 49.9189 32.0694 50.1973 32.1057 50.7539C32.1541 51.5647 32.2388 52.3756 32.2993 53.1985C33.0254 53.1985 33.691 53.1985 34.3687 53.1985C34.4292 52.3877 34.5018 51.6011 34.5502 50.8265C34.5865 50.2457 34.877 49.9431 35.4336 49.8584C37.2005 49.5922 38.7858 48.9266 40.2622 47.9342C40.8552 47.5349 41.1819 47.5591 41.7144 48.0311C42.2953 48.5514 42.8762 49.0718 43.4691 49.6043C44.0016 49.1081 44.4857 48.6483 45.0182 48.14ZM32.3356 12.549C32.3356 10.879 32.3356 9.29367 32.3356 7.68415C25.6071 7.68415 18.927 7.68415 12.2227 7.68415C12.2227 9.31787 12.2227 10.9153 12.2227 12.549C18.9391 12.549 25.6192 12.549 32.3356 12.549ZM42.3921 32.2142C46.5551 27.0226 50.6817 21.8552 54.8447 16.6636C53.5861 15.647 52.3639 14.6668 51.1174 13.6624C46.9544 18.8661 42.8157 24.0214 38.6527 29.213C39.9113 30.2295 41.1335 31.2098 42.3921 32.2142ZM35.361 31.718C32.9165 30.6168 29.5643 31.7301 27.858 34.1505C26.0186 36.7644 26.309 40.2618 28.5478 42.5611C30.7745 44.8604 34.284 45.2356 36.9463 43.4687C39.1488 42.0044 40.5526 38.737 39.766 36.8249C39.5119 37.0065 39.282 37.188 39.0399 37.3695C36.8737 39.0032 34.7075 40.637 32.5534 42.2949C32.1299 42.6216 31.7305 42.7305 31.2949 42.3917C30.8592 42.0407 30.8834 41.6051 31.1134 41.1452C31.1981 40.9879 31.2586 40.8185 31.3433 40.6491C32.6624 37.6842 34.0056 34.7192 35.361 31.718ZM28.2574 5.71158C28.451 3.77532 27.3013 2.33522 25.5466 2.31102C23.3199 2.27471 21.0811 2.27471 18.8544 2.31102C17.0633 2.34732 15.8532 3.90843 16.192 5.71158C20.1977 5.71158 24.2033 5.71158 28.2574 5.71158ZM55.9338 15.2961C56.1759 15.0057 56.3695 14.7515 56.5752 14.5095C56.9625 14.0254 57.3618 13.5414 57.7491 13.0452C58.4147 12.1981 58.3542 11.2057 57.616 10.4917C56.3211 9.25737 55.123 8.95482 54.3001 9.78984C53.5498 10.5522 52.9205 11.4357 52.2186 12.2828C53.4651 13.3114 54.6753 14.2796 55.9338 15.2961ZM37.6724 30.8709C36.5107 33.4244 35.361 35.9415 34.2235 38.4587C34.2598 38.4829 34.2961 38.5071 34.3324 38.5192C36.547 36.8491 38.7737 35.1912 41.0246 33.497C39.8628 32.5894 38.7858 31.7422 37.6724 30.8709Z" fill="#0EADFF"/>
<path d="M9.36688 25.4856C11.9082 23.4283 14.3649 21.4194 16.8578 19.4469C17.124 19.229 17.6081 19.0838 17.9348 19.1685C18.6488 19.338 18.7094 20.2214 18.0801 20.7418C16.7005 21.8793 15.3088 23.0048 13.9292 24.1423C12.6464 25.1831 11.3758 26.2238 10.093 27.2645C9.31847 27.8938 8.8102 27.8212 8.25352 26.9983C7.44271 25.8002 6.644 24.5901 5.84529 23.392C5.45804 22.799 5.50645 22.2666 5.96631 21.964C6.47458 21.6252 6.98285 21.7704 7.38221 22.3876C8.03569 23.392 8.67708 24.4086 9.36688 25.4856Z" fill="#0EADFF"/>
<path d="M9.40261 55.3284C7.82939 55.3284 6.26828 55.3284 4.69506 55.3284C4.1989 55.3284 3.77534 55.1953 3.66642 54.6265C3.53331 53.9368 3.92056 53.5132 4.70717 53.5132C6.69184 53.5011 8.68861 53.5132 10.6733 53.5132C11.835 53.5132 13.0089 53.5011 14.1707 53.5253C14.8968 53.5374 15.284 54.0094 15.1509 54.6507C15.0299 55.2195 14.6063 55.3405 14.0981 55.3405C12.5369 55.3284 10.9758 55.3284 9.40261 55.3284Z" fill="#0EADFF"/>
<path d="M9.40288 49.5921C7.85387 49.5921 6.30486 49.5921 4.75585 49.5921C4.00555 49.5921 3.6667 49.3138 3.6546 48.7087C3.6425 48.0915 3.99345 47.7769 4.71954 47.7769C7.82967 47.7769 10.9519 47.7769 14.062 47.7769C14.7518 47.7769 15.127 48.0794 15.1754 48.624C15.2238 49.2412 14.8607 49.5921 14.1588 49.5921C12.5735 49.5921 10.9882 49.5921 9.40288 49.5921Z" fill="#0EADFF"/>
<path d="M9.4033 42.0527C10.9886 42.0527 12.5739 42.0406 14.1593 42.0527C14.8854 42.0527 15.2847 42.5126 15.1516 43.1661C15.0548 43.6623 14.6917 43.868 14.2319 43.868C11.0128 43.8801 7.80588 43.8801 4.58684 43.868C3.94546 43.868 3.63081 43.517 3.64291 42.9362C3.65502 42.3553 3.95756 42.0648 4.62315 42.0527C6.22057 42.0406 7.81799 42.0527 9.4033 42.0527Z" fill="#0EADFF"/>
<path d="M9.37866 30.5923C10.964 30.5923 12.5493 30.5802 14.1467 30.5923C14.8365 30.5923 15.2117 30.9553 15.1754 31.5604C15.1511 32.0687 14.8244 32.3954 14.2677 32.3954C11.0366 32.4075 7.79334 32.4075 4.5622 32.3954C3.95712 32.3954 3.63037 31.9961 3.65458 31.4273C3.67878 30.8827 3.99342 30.5923 4.61061 30.5923C6.19592 30.5923 7.79334 30.5923 9.37866 30.5923Z" fill="#0EADFF"/>
<path d="M8.61628 38.1199C7.3093 38.1199 6.00232 38.1199 4.69534 38.1199C3.98134 38.1199 3.6667 37.8416 3.6546 37.2365C3.6425 36.6314 3.99345 36.3047 4.71954 36.3047C7.3335 36.2926 9.94746 36.3047 12.5614 36.3047C13.2875 36.3047 13.6385 36.6314 13.6385 37.2244C13.6385 37.8174 13.2875 38.1078 12.5372 38.1078C11.2302 38.132 9.92326 38.1199 8.61628 38.1199Z" fill="#0EADFF"/>
</g>
<defs>
<clipPath id="clip0_1267_9598">
<rect width="60" height="59.9879" fill="white" transform="translate(0 0.447266)"/>
</clipPath>
</defs>
</svg>
