<svg width="60" height="61" viewBox="0 0 60 61" fill="none" xmlns="http://www.w3.org/2000/svg">
<g clip-path="url(#clip0_1267_9592)">
<path d="M0 20.7341C0 18.5477 0 16.3614 0 14.175C0.585424 12.7293 1.02748 12.4307 2.59259 12.4307C3.23775 12.4307 3.88292 12.4068 4.52808 12.4426C4.93429 12.4665 5.10155 12.2992 5.26882 11.9528C5.60334 11.2718 5.97372 10.6027 6.40382 9.98143C6.64277 9.63495 6.63082 9.38406 6.42772 9.06148C6.0215 8.40437 5.62724 7.72336 5.25687 7.04236C4.6356 5.9193 4.92234 4.83209 6.02151 4.18692C7.6822 3.19529 9.35484 2.23949 11.0394 1.2837C12.1505 0.650485 13.2378 0.949171 13.8949 2.04833C14.325 2.76518 14.7192 3.51787 15.1613 4.22277C15.2688 4.37808 15.5436 4.50951 15.7467 4.50951C16.583 4.54535 17.4194 4.49756 18.2557 4.5334C18.5783 4.54535 18.7455 4.47366 18.9008 4.18692C19.2593 3.51787 19.6535 2.86076 20.0358 2.20365C20.8124 0.877486 21.8399 0.602695 23.19 1.37928C24.4922 2.13197 25.7945 2.87271 27.0968 3.63734C27.3955 3.81655 27.6105 3.84045 27.9331 3.63734C32.6284 0.734117 37.6941 -0.173888 43.1063 0.829697C54.7909 3.00413 62.3536 15.0232 59.3429 26.5645C58.5544 29.6111 57.1565 32.359 55.1613 34.7843C55.0538 34.9157 55.0299 35.1188 54.9582 35.2861C55.1254 35.3219 55.2808 35.3936 55.448 35.3936C56.2485 35.4056 57.049 35.3936 57.8495 35.4056C59.1876 35.4295 60 36.2419 60 37.58C60.0119 39.4557 60 41.3315 60 43.2072C60 44.6051 59.1876 45.4056 57.7658 45.4175C56.9892 45.4175 56.2007 45.4295 55.4241 45.4175C55.1016 45.4056 54.9582 45.525 54.8148 45.8118C54.4325 46.5525 53.9665 47.2574 53.5723 47.9982C53.4767 48.1774 53.4648 48.4761 53.5484 48.6553C53.9188 49.3841 54.3608 50.077 54.7551 50.7939C55.4002 51.9408 55.1135 53.04 53.9904 53.6971C52.3417 54.6648 50.681 55.6206 49.0203 56.5645C47.8734 57.2216 46.7861 56.9229 46.1171 55.7998C45.6989 55.0949 45.2808 54.39 44.8984 53.6732C44.7431 53.3864 44.5639 53.3267 44.2413 53.3387C43.405 53.3745 42.5687 53.3267 41.7324 53.3626C41.5293 53.3745 41.2545 53.5059 41.1469 53.6612C40.7168 54.3303 40.3345 55.0352 39.9403 55.7281C39.2234 56.9587 38.1481 57.2335 36.9056 56.5286C35.2927 55.6087 33.6918 54.6887 32.0908 53.7568C30.8961 53.0639 30.5974 51.9647 31.2784 50.7819C31.7324 49.9695 32.2103 49.1571 32.6284 48.4163C32.1147 47.4725 31.6368 46.5764 31.1231 45.7042C31.0394 45.5609 30.7885 45.4534 30.6213 45.4534C29.7849 45.4295 28.9367 45.4534 28.1004 45.4414C26.8339 45.4175 26.0335 44.5812 26.0215 43.3148C26.0215 43.0878 26.0215 42.8488 26.0215 42.7652C25.2449 42.6815 24.5281 42.5979 23.8112 42.5501C23.6679 42.5382 23.4767 42.6218 23.3692 42.7293C22.497 43.5776 21.6487 44.4259 20.8005 45.298C20.693 45.4056 20.6093 45.6565 20.6571 45.7998C21.0992 47.1738 20.6691 48.261 19.6894 49.2407C16.4277 52.4665 13.2019 55.7401 9.94026 58.954C9.40263 59.4916 8.70968 59.8858 8.10036 60.3518C7.51493 60.3518 6.92951 60.3518 6.34409 60.3518C5.68698 59.8261 4.98208 59.3363 4.36081 58.7628C3.40502 57.8667 2.50896 56.9109 1.57706 56.0029C0.908005 55.3578 0.310633 54.6887 0.0119474 53.7927C0.0119474 53.3984 0.0119474 53.0161 0.0119474 52.6218C0.358423 52.0483 0.621266 51.3793 1.07527 50.9133C4.45639 47.4725 7.8853 44.0794 11.2903 40.6624C12.2103 39.7425 13.2855 39.4199 14.552 39.7544C14.7312 39.8022 15.0179 39.7425 15.1493 39.6111C16.0215 38.7747 16.8817 37.9145 17.718 37.0424C17.8256 36.9229 17.8853 36.66 17.8375 36.5047C17.491 35.2861 17.73 34.2347 18.626 33.3267C19.0084 32.9444 19.6177 32.5501 19.6416 32.12C19.6774 31.6421 19.1876 31.1164 18.8769 30.6505C18.7814 30.4952 18.5185 30.3757 18.3393 30.3637C17.4791 30.3399 16.6189 30.3279 15.7706 30.3637C15.5556 30.3757 15.2688 30.531 15.1493 30.7222C14.7192 31.3912 14.3489 32.1081 13.9307 32.7891C13.2616 33.9121 12.1505 34.2228 11.0275 33.5896C9.35484 32.6338 7.6822 31.666 6.00956 30.6863C4.93429 30.0531 4.64755 28.9539 5.24492 27.8667C5.65113 27.1379 6.05735 26.3972 6.4994 25.6923C6.67861 25.4056 6.63082 25.2383 6.46356 24.9635C6.0215 24.2706 5.61529 23.5657 5.23297 22.8369C5.07766 22.5262 4.89845 22.4068 4.56392 22.4187C3.89486 22.4426 3.23775 22.4307 2.5687 22.4307C1.03943 22.4426 0.585424 22.1439 0 20.7341ZM38.9725 2.45455C28.4827 2.50234 20.0119 11.0089 20.0478 21.451C20.0836 32.0483 28.626 40.4593 39.307 40.4235C49.5102 40.3876 58.0406 31.7138 58.0048 21.4151C57.957 10.8894 49.4385 2.40676 38.9725 2.45455ZM6.92951 5.95514C7.55078 7.03041 8.11231 8.02205 8.69773 9.01369C8.96057 9.46769 8.98447 9.8978 8.63799 10.316C7.77778 11.3434 7.12067 12.4784 6.66667 13.7449C6.4994 14.1869 6.16487 14.4259 5.67503 14.4259C5.3405 14.4259 5.00597 14.4259 4.68339 14.4259C3.81123 14.4259 2.93907 14.4259 2.05496 14.4259C2.05496 16.4569 2.05496 18.4044 2.05496 20.3996C2.27001 20.4115 2.46117 20.4354 2.65233 20.4354C3.57228 20.4354 4.49223 20.4354 5.40024 20.4354C6.24851 20.4354 6.40382 20.6146 6.77419 21.3554C7.27599 22.359 7.82557 23.3506 8.44683 24.2945C8.98447 25.0949 9.05615 25.2383 8.57826 26.0746C8.04062 27.0185 7.50299 27.9504 6.94146 28.9301C8.69773 29.9456 10.3943 30.9253 12.1266 31.9169C12.7121 30.9014 13.2616 29.9456 13.8232 28.9778C14.2413 28.261 14.4803 28.1654 15.3166 28.2849C16.595 28.4761 17.8614 28.488 19.1398 28.2013C18.8769 27.2096 18.626 26.2777 18.3751 25.3458C14.1935 25.5848 11.2186 24.0077 9.73716 20.758C8.37515 17.7831 8.99642 14.2467 11.2306 11.893C13.1422 9.88585 16.9295 8.32074 21.1111 10.531C22.3417 8.5119 23.8829 6.74367 25.7587 5.17856C24.4444 4.42587 23.2019 3.70903 21.9235 2.96829C21.3381 3.98382 20.7885 4.93961 20.2389 5.90735C19.8447 6.60031 19.5938 6.6481 18.8053 6.61225C17.6225 6.55252 16.4277 6.55252 15.2449 6.61225C14.4564 6.6481 14.2174 6.60031 13.8112 5.90735C13.2497 4.95156 12.7001 3.98382 12.1147 2.96829C10.3823 3.95992 8.68578 4.93961 6.92951 5.95514ZM32.9271 51.905C34.6714 52.9086 36.3799 53.9002 38.1123 54.9038C38.7216 53.8285 39.307 52.8369 39.8686 51.8452C40.1553 51.3434 40.5615 51.212 41.1469 51.2479C42.3297 51.3195 43.5245 51.3434 44.7073 51.2837C45.6153 51.2359 45.8184 51.2598 46.2724 52.0483C46.822 52.9922 47.3596 53.9241 47.9211 54.9157C49.6774 53.9002 51.374 52.9205 53.1063 51.9169C52.509 50.8775 51.9355 49.8858 51.362 48.8942C51.0753 48.4044 51.1111 47.9862 51.4337 47.4844C52.1147 46.3972 52.7479 45.2861 53.3453 44.1511C53.5962 43.6851 53.8949 43.4223 54.4325 43.4223C54.7431 43.4223 55.0538 43.4223 55.3644 43.4223C56.2366 43.4223 57.1087 43.4223 57.9809 43.4223C57.9809 41.3912 57.9809 39.4438 57.9809 37.4247C56.9415 37.4247 55.9379 37.4247 54.9223 37.4247C54.2891 37.4247 53.6559 37.4844 53.3572 36.7795C52.5806 37.3888 51.8996 37.9743 51.1708 38.4999C50.8961 38.7031 50.8244 38.9062 50.8722 39.2287C51.5412 43.5179 48.8172 47.4725 44.6117 48.3446C40.4659 49.2048 36.3799 46.6481 35.2808 42.4665C35.1852 42.1081 35.0179 42.0005 34.6953 41.9408C32.9032 41.5943 31.2067 40.985 29.5699 40.1726C29.2593 40.0173 28.9725 39.7544 28.6619 40.1845C28.4588 40.4832 28.0645 40.7341 28.0287 41.0448C27.9331 41.8094 27.9928 42.586 27.9928 43.4223C29.1756 43.4223 30.2867 43.4223 31.3978 43.4223C32.2222 43.4223 32.3536 43.5896 32.724 44.3064C33.2497 45.3458 33.8351 46.3614 34.4683 47.3291C34.9343 48.0459 35.006 48.2371 34.5878 48.9659C34.0502 49.9336 33.5006 50.9014 32.9271 51.905ZM5.22103 49.5513C7.12067 51.451 8.98447 53.3148 10.8483 55.1786C13.3811 52.6457 15.9737 50.077 18.5424 47.4964C18.9725 47.0663 18.9486 46.5406 18.5066 46.0866C17.1207 44.6768 15.7348 43.2909 14.325 41.905C13.871 41.451 13.3214 41.451 12.8674 41.905C10.2987 44.4617 7.72999 47.0304 5.22103 49.5513ZM19.9403 12.2634C18.172 10.8894 14.8626 11.224 12.8913 13.0758C10.7646 15.071 10.4062 18.3566 12.043 20.7819C13.3931 22.7891 16.4158 24.0077 17.8973 23.3028C18.0526 21.3673 18.0645 19.5035 18.399 17.6875C18.7575 15.8715 19.4146 14.1152 19.9403 12.2634ZM48.9247 39.9217C45.2808 41.8452 41.4576 42.6457 37.4074 42.347C38.0765 45.0113 41.2186 46.8512 44.0621 46.3016C47.1446 45.7162 49.3429 42.8727 48.9247 39.9217ZM27.276 38.8225C24.994 37.2455 23.1422 35.3936 21.6368 33.2072C21.0275 33.7927 20.4182 34.3303 19.8805 34.9277C19.5221 35.3219 19.5938 35.8237 19.9642 36.1941C21.374 37.6278 22.7957 39.0495 24.2174 40.4474C24.6356 40.8655 25.1374 40.8536 25.5795 40.4593C26.141 39.9575 26.6786 39.408 27.276 38.8225ZM9.28315 56.8034C7.34767 54.8679 5.48387 53.0041 3.62007 51.1284C3.21386 51.5346 2.7718 51.9647 2.3417 52.4187C1.88769 52.8966 1.8638 53.4103 2.3178 53.8763C3.71565 55.298 5.12545 56.6959 6.53524 58.0937C6.92951 58.488 7.46714 58.5119 7.86141 58.1654C8.3632 57.7234 8.8411 57.2335 9.28315 56.8034ZM16.5711 41.1045C17.491 42.0244 18.411 42.9563 19.2593 43.8046C20.1314 42.9205 21.0514 42.0005 21.8996 41.1523C21.0275 40.2801 20.1075 39.3721 19.2115 38.4761C18.3393 39.3363 17.4313 40.2443 16.5711 41.1045Z" fill="#0EADFF"/>
<path d="M56.0937 21.4029C56.1056 30.7338 48.4951 38.3802 39.1642 38.3921C29.7257 38.4041 22.0674 30.7577 22.0674 21.3073C22.0674 11.9764 29.654 4.40169 39.0447 4.36585C48.3517 4.33 56.0817 12.048 56.0937 21.4029ZM49.7496 31.8091C49.8332 31.7255 49.9168 31.6657 49.9766 31.594C52.5214 28.8222 53.8117 25.5486 54.0268 21.8091C54.0865 20.698 53.7639 20.0289 52.7364 19.6227C52.1391 19.3838 51.9837 19.3718 51.6492 19.9334C50.801 21.4029 49.9288 22.8605 49.1164 24.342C48.7818 24.9513 48.3398 25.2022 47.6468 25.0827C45.6755 24.7362 43.6803 24.7362 41.709 25.0827C41.0041 25.2022 40.574 24.9513 40.2394 24.342C39.427 22.8724 38.5787 21.4268 37.7424 19.9811C37.384 19.3599 37.2048 19.3121 36.5716 19.6705C34.0865 21.1042 31.6014 22.5379 29.1283 23.9716C28.4712 24.3539 28.4234 24.5212 28.8057 25.1783C29.6421 26.6359 30.4784 28.0815 31.3147 29.5391C31.7329 30.2679 31.697 30.5188 31.1952 31.1759C30.7173 31.8091 30.2633 32.4543 29.7735 33.1233C31.47 34.4495 33.286 35.3455 35.2812 35.8473C38.1964 30.7099 44.5524 28.9417 49.7496 31.8091ZM48.9133 10.1126C48.7579 10.3037 48.6385 10.4829 48.4832 10.6382C46.6313 12.514 44.7914 14.4017 42.9276 16.2655C41.6851 17.508 40.2155 17.508 38.9611 16.2655C37.9694 15.2977 36.9778 14.33 36.01 13.3384C35.7233 13.0516 35.5082 13.0158 35.102 13.1353C33.5728 13.6012 32.0315 14.0074 30.4903 14.4017C30.1916 14.4853 30.0244 14.569 29.9527 14.8915C29.5943 16.3491 29.2119 17.7948 28.8177 19.2523C28.4115 20.7458 27.0973 21.4865 25.6158 21.1042C25.1379 20.9728 24.648 20.8414 24.0746 20.686C23.9551 25.011 25.329 28.655 28.2442 31.7852C28.5548 31.3431 28.8057 30.9489 29.1044 30.6024C29.3314 30.3396 29.3314 30.1245 29.1642 29.8258C28.4234 28.5833 27.7066 27.3288 26.9897 26.0863C26.1415 24.6167 26.5238 23.1831 27.9814 22.3348C30.5262 20.8533 33.0829 19.3838 35.6277 17.9142C37.1331 17.0421 38.5309 17.4244 39.4031 18.9178C40.12 20.1484 40.8368 21.379 41.5297 22.6215C41.709 22.9441 41.9121 23.0038 42.2705 22.9919C43.8714 22.956 45.4605 22.956 47.0614 22.9919C47.4676 23.0038 47.6468 22.8963 47.826 22.5618C48.5429 21.2834 49.2717 20.017 50.0124 18.7625C50.5979 17.7589 51.482 17.3408 52.617 17.4722C52.9156 17.508 53.2024 17.6275 53.5489 17.7231C52.7603 14.7123 51.2908 12.2153 48.9133 10.1126ZM24.3016 18.6311C24.8989 18.8103 25.4246 18.9537 25.9384 19.109C26.6313 19.3001 26.7747 19.2165 26.9658 18.4997C27.3959 16.839 27.838 15.1783 28.2562 13.5176C28.4115 12.9083 28.7579 12.5857 29.3912 12.5259C31.4103 12.3467 33.3338 11.7852 35.1737 10.9489C35.8906 10.6144 36.1773 10.6741 36.7388 11.2356C37.9336 12.4184 39.1283 13.5893 40.3231 14.7721C40.8965 15.3336 41.0638 15.3336 41.6134 14.7721C43.4174 12.9441 45.2335 11.1042 47.0375 9.26429C47.145 9.15677 47.2287 9.04924 47.384 8.88198C42.5333 5.95486 37.5751 5.48891 32.4975 7.91423C28.0053 10.0648 25.3529 13.7207 24.3016 18.6311ZM48.1247 33.2786C44.0148 31.2356 39.1403 33.2308 37.5154 36.2655C41.4222 36.6 44.9228 35.6442 48.1247 33.2786Z" fill="#0EADFF"/>
</g>
<defs>
<clipPath id="clip0_1267_9592">
<rect width="60" height="59.8805" fill="white" transform="translate(0 0.447266)"/>
</clipPath>
</defs>
</svg>
