<svg width="81" height="57" viewBox="0 0 81 57" fill="none" xmlns="http://www.w3.org/2000/svg">
<g clip-path="url(#clip0_1587_14699)">
<path d="M38.7685 40.6794H41.7315V43.6075H38.7685V40.6794Z" fill="#0EADFF"/>
<path d="M44.6944 40.6794H47.6574V43.6075H44.6944V40.6794Z" fill="#0EADFF"/>
<path d="M50.6204 40.6794H53.5833V43.6075H50.6204V40.6794Z" fill="#0EADFF"/>
<path d="M59.5092 39.2155H62.4722V45.0717H59.5092V39.2155Z" fill="#0EADFF"/>
<path d="M65.4352 39.2155H68.3981V45.0717H65.4352V39.2155Z" fill="#0EADFF"/>
<path d="M71.3611 39.2155H74.3241V45.0717H71.3611V39.2155Z" fill="#0EADFF"/>
<path d="M77.287 33.3593C78.9233 33.3593 80.25 32.0482 80.25 30.4312V21.6469C80.25 20.0298 78.9233 18.7188 77.287 18.7188H35.8056C34.1693 18.7188 32.8426 20.0298 32.8426 21.6469V30.4312C32.8426 32.0482 34.1693 33.3593 35.8056 33.3593H37.287V34.8233H35.8056C34.1693 34.8233 32.8426 36.1344 32.8426 37.7514V46.5357C32.8426 48.1528 34.1693 49.4638 35.8056 49.4638H37.287V52.392C37.287 53.2005 37.9504 53.856 38.7685 53.856H44.6944C45.5126 53.856 46.1759 53.2005 46.1759 52.392V49.4638H66.9167V52.392C66.9167 53.2005 67.58 53.856 68.3981 53.856H74.3241C75.1422 53.856 75.8056 53.2005 75.8056 52.392V49.4638H77.287C78.9233 49.4638 80.25 48.1528 80.25 46.5357V37.7514C80.25 36.1344 78.9233 34.8233 77.287 34.8233H75.8056V33.3593H77.287ZM35.8056 21.6469H77.287V30.4312H35.8056V21.6469ZM46.1759 34.8233V33.3593H66.9167V34.8233H46.1759ZM40.25 33.3593H43.213V34.8233H40.25V33.3593ZM43.213 50.9279H40.25V49.4638H43.213V50.9279ZM72.8426 50.9279H69.8796V49.4638H72.8426V50.9279ZM77.287 46.5357H35.8056V37.7514H77.287V46.5357ZM72.8426 34.8233H69.8796V33.3593H72.8426V34.8233Z" fill="#0EADFF"/>
<path d="M38.7685 24.5749H41.7315V27.503H38.7685V24.5749Z" fill="#0EADFF"/>
<path d="M44.6944 24.5749H47.6574V27.503H44.6944V24.5749Z" fill="#0EADFF"/>
<path d="M50.6204 24.5749H53.5833V27.503H50.6204V24.5749Z" fill="#0EADFF"/>
<path d="M59.5092 23.1109H62.4722V28.9671H59.5092V23.1109Z" fill="#0EADFF"/>
<path d="M65.4352 23.1109H68.3981V28.9671H65.4352V23.1109Z" fill="#0EADFF"/>
<path d="M71.3611 23.1109H74.3241V28.9671H71.3611V23.1109Z" fill="#0EADFF"/>
<path d="M4.69444 12.8625C7.14887 12.8625 9.13889 10.8959 9.13889 8.47038C9.13889 6.04482 7.14887 4.07822 4.69444 4.07822C2.24002 4.07822 0.25 6.04482 0.25 8.47038C0.25 10.8959 2.24002 12.8625 4.69444 12.8625ZM4.69444 7.00632C5.51259 7.00632 6.17593 7.66186 6.17593 8.47038C6.17593 9.27889 5.51259 9.93443 4.69444 9.93443C3.8763 9.93443 3.21296 9.27889 3.21296 8.47038C3.21296 7.66186 3.8763 7.00632 4.69444 7.00632Z" fill="#0EADFF"/>
<path d="M4.69444 56.7841C7.14887 56.7841 9.13889 54.8175 9.13889 52.392C9.13889 49.9664 7.14887 47.9998 4.69444 47.9998C2.24002 47.9998 0.25 49.9664 0.25 52.392C0.25 54.8175 2.24002 56.7841 4.69444 56.7841ZM4.69444 50.9279C5.51259 50.9279 6.17593 51.5835 6.17593 52.392C6.17593 53.2005 5.51259 53.856 4.69444 53.856C3.8763 53.856 3.21296 53.2005 3.21296 52.392C3.21296 51.5835 3.8763 50.9279 4.69444 50.9279Z" fill="#0EADFF"/>
<path d="M19.5093 15.7906H29.8796C32.334 15.7906 34.3241 13.824 34.3241 11.3985V8.47038C34.3241 7.66186 34.9874 7.00632 35.8055 7.00632H44.6944V4.07822H35.8055C33.3511 4.07822 31.3611 6.04482 31.3611 8.47038V11.3985C31.3611 12.207 30.6978 12.8625 29.8796 12.8625H19.5093V11.3985C19.5093 8.97293 17.5192 7.00632 15.0648 7.00632H12.1019V9.93443H15.0648C15.883 9.93443 16.5463 10.59 16.5463 11.3985V26.039H12.1019V28.9671H16.5463V37.7514C16.5463 38.5599 15.883 39.2155 15.0648 39.2155H7.65741C5.20298 39.2155 3.21297 41.1821 3.21297 43.6076V45.0717H6.17593V43.6076C6.17593 42.7991 6.83927 42.1436 7.65741 42.1436H15.0648C17.5192 42.1436 19.5093 40.177 19.5093 37.7514V36.2874H22.4722V42.1436C22.4722 43.7606 23.7989 45.0717 25.4352 45.0717H29.8796V42.1436H25.4352V27.5031H29.8796V24.5749H25.4352C23.7989 24.5749 22.4722 25.886 22.4722 27.5031V33.3593H19.5093V15.7906Z" fill="#0EADFF"/>
<path d="M47.6574 5.54218C47.6574 7.96773 49.6474 9.93434 52.1019 9.93434C54.5563 9.93434 56.5463 7.96773 56.5463 5.54218C56.5463 3.11663 54.5563 1.15002 52.1019 1.15002C49.6474 1.15002 47.6574 3.11663 47.6574 5.54218ZM53.5833 5.54218C53.5833 6.3507 52.92 7.00623 52.1019 7.00623C51.2837 7.00623 50.6204 6.3507 50.6204 5.54218C50.6204 4.73366 51.2837 4.07813 52.1019 4.07813C52.92 4.07813 53.5833 4.73366 53.5833 5.54218Z" fill="#0EADFF"/>
<path d="M4.69444 31.8952C7.14887 31.8952 9.13889 29.9286 9.13889 27.5031C9.13889 25.0775 7.14887 23.1109 4.69444 23.1109C2.24002 23.1109 0.25 25.0775 0.25 27.5031C0.25 29.9286 2.24002 31.8952 4.69444 31.8952ZM4.69444 26.039C5.51259 26.039 6.17593 26.6946 6.17593 27.5031C6.17593 28.3116 5.51259 28.9671 4.69444 28.9671C3.8763 28.9671 3.21296 28.3116 3.21296 27.5031C3.21296 26.6946 3.8763 26.039 4.69444 26.039Z" fill="#0EADFF"/>
</g>
<defs>
<clipPath id="clip0_1587_14699">
<rect width="80" height="56" fill="white" transform="translate(0.25 0.784027)"/>
</clipPath>
</defs>
</svg>
