<svg width="56" height="61" viewBox="0 0 56 61" fill="none" xmlns="http://www.w3.org/2000/svg">
<g clip-path="url(#clip0_1267_9615)">
<path d="M38.3246 0.447266C38.8571 0.838808 39.4992 1.1677 39.8908 1.66888C40.204 2.06042 40.251 2.67123 40.3293 3.20373C40.3763 3.53262 40.4389 3.7049 40.7835 3.83019C41.7389 4.19041 42.6629 4.58196 43.587 4.98916C43.8689 5.11445 44.0411 5.13012 44.2917 4.89519C45.576 3.64225 47.0325 3.67358 48.3168 4.94218C49.1938 5.80357 50.0709 6.68063 50.9323 7.55768C52.0756 8.73231 52.1069 10.2358 50.9636 11.4105C50.6974 11.6924 50.6504 11.8803 50.8227 12.2562C51.2455 13.1332 51.5901 14.0416 51.9503 14.95C52.0599 15.2476 52.1696 15.4199 52.5454 15.4355C54.3465 15.4825 55.3489 16.5162 55.3489 18.3173C55.3489 19.5232 55.3489 20.7448 55.3489 21.9508C55.3332 23.6266 54.2682 24.7073 52.6081 24.7229C52.2322 24.7229 52.0756 24.8325 51.9503 25.1928C51.6057 26.1481 51.1985 27.0722 50.7913 27.9962C50.666 28.2625 50.6817 28.4347 50.8853 28.654C52.1539 30.0009 52.1226 31.4261 50.8227 32.726C49.9613 33.5874 49.1155 34.4488 48.2541 35.2946C47.0639 36.4692 45.5603 36.4849 44.3544 35.3102C44.0881 35.044 43.8845 35.0283 43.5556 35.1849C42.6786 35.5921 41.7702 35.968 40.8618 36.3126C40.5329 36.4379 40.3763 36.5632 40.3606 36.9547C40.3293 38.6618 39.2643 39.7112 37.5572 39.7268C36.3512 39.7425 35.1296 39.7268 33.9237 39.7268C32.1696 39.7112 31.1046 38.6932 31.0732 36.939C31.0732 36.5788 30.948 36.4379 30.6191 36.3282C29.695 35.9837 28.771 35.5921 27.8626 35.1849C27.565 35.044 27.3771 35.0127 27.0952 35.2789C25.7953 36.5162 24.3544 36.4849 23.0701 35.2163C22.2087 34.3549 21.3473 33.5091 20.5016 32.6477C19.327 31.4574 19.2956 29.9383 20.4703 28.748C20.7678 28.4504 20.7522 28.2468 20.5799 27.9022C20.1727 27.0252 19.8125 26.1168 19.4679 25.2084C19.3426 24.8952 19.233 24.7542 18.8571 24.7542C17.103 24.7229 16.0693 23.6579 16.0693 21.9195C16.0693 20.7135 16.0693 19.4919 16.0693 18.286C16.0693 16.5632 17.103 15.4982 18.8101 15.4668C19.186 15.4668 19.3426 15.3415 19.4679 14.9813C19.7968 14.073 20.1727 13.1646 20.5799 12.2875C20.7365 11.9586 20.7522 11.7707 20.4859 11.4888C19.2956 10.2515 19.3113 8.76363 20.5173 7.55768C21.3787 6.68063 22.2557 5.81923 23.1328 4.94218C24.3544 3.73622 25.8422 3.7049 27.0639 4.91085C27.3458 5.1771 27.5337 5.1771 27.8626 5.02048C28.771 4.59762 29.695 4.26872 30.6034 3.86152C30.7757 3.78321 31.0263 3.56395 31.0106 3.42299C30.948 1.91947 31.731 1.02675 33.0466 0.494251C34.8164 0.447266 36.5705 0.447266 38.3246 0.447266ZM31.0419 34.073C31.0419 32.4441 31.0263 30.9876 31.0576 29.5154C31.0733 29.0769 30.9166 28.8733 30.5408 28.6697C24.6363 25.5686 23.1798 17.7221 27.565 12.6947C28.4891 11.6454 29.5071 10.7057 30.8853 10.2672C32.1226 9.87561 33.1719 10.5334 33.4068 11.802C33.4538 12.0839 33.4852 12.3815 33.4852 12.6791C33.4695 14.6524 33.4538 16.6258 33.4382 18.5992C33.4382 18.8968 33.4695 19.1943 33.5165 19.4762C33.7357 20.4786 34.6911 21.34 35.6465 21.387C36.4922 21.4183 37.5102 20.6352 37.8078 19.6798C37.8861 19.4449 37.9331 19.1787 37.9331 18.9281C37.9331 16.939 37.9018 14.95 37.9174 12.9453C37.9174 12.4285 37.9644 11.8803 38.1054 11.3948C38.3403 10.5804 39.0451 10.0949 39.8908 10.1732C40.3606 10.2202 40.8618 10.3611 41.269 10.5961C44.8399 12.5381 47.0012 17.1583 46.2494 21.1677C45.6073 24.5663 43.7749 27.1035 40.7365 28.748C40.5799 28.8419 40.3763 29.0455 40.3763 29.1865C40.345 30.7683 40.3606 32.3345 40.3606 33.9633C40.5642 33.9007 40.7209 33.8694 40.8618 33.8067C41.7232 33.3995 42.5846 32.9923 43.4303 32.5381C44.1194 32.1779 44.558 32.2092 45.1218 32.7417C45.4037 33.008 45.6856 33.2899 45.9519 33.5718C46.1711 33.791 46.3591 33.8224 46.594 33.5874C47.4711 32.6947 48.3638 31.8177 49.2408 30.9406C49.4758 30.7213 49.4601 30.5177 49.2408 30.2985C48.9276 30.0009 48.63 29.7033 48.3325 29.3901C47.8783 28.9046 47.7999 28.4504 48.1288 27.9022C49.0059 26.477 49.6167 24.9422 50.0396 23.329C50.2119 22.6712 50.5877 22.405 51.2768 22.3737C51.6684 22.358 52.0599 22.358 52.4515 22.3737C52.8587 22.3893 53.0153 22.2327 52.9996 21.8255C52.984 20.9328 52.9996 20.0244 52.9996 19.1317C52.9996 17.7535 52.9996 17.7535 51.5901 17.7535C51.4961 17.7535 51.4021 17.7535 51.2925 17.7535C50.5721 17.7065 50.2119 17.4559 50.0239 16.7511C49.6167 15.1536 49.0059 13.6344 48.1445 12.2405C47.8156 11.708 47.8939 11.1912 48.3168 10.737C48.5987 10.4394 48.8806 10.1419 49.1938 9.85995C49.4601 9.60936 49.5071 9.40576 49.2252 9.12385C48.3481 8.26246 47.4711 7.3854 46.6097 6.50835C46.3904 6.27342 46.1868 6.27342 45.9675 6.50835C45.67 6.82158 45.3724 7.11915 45.0592 7.41673C44.558 7.88658 44.1038 7.94922 43.5086 7.589C42.0991 6.72761 40.5956 6.1168 38.9824 5.7096C38.3246 5.55298 38.0427 5.16144 38.0114 4.48799C37.9957 4.08078 37.9957 3.67358 38.0114 3.25071C38.027 2.90615 37.8861 2.74954 37.5259 2.74954C36.2886 2.7652 35.067 2.7652 33.8297 2.74954C33.5008 2.74954 33.3755 2.89049 33.3755 3.20373C33.3912 3.62659 33.3912 4.06512 33.3755 4.48799C33.3442 5.09879 33.0623 5.53732 32.4515 5.67828C30.8227 6.06982 29.3035 6.71195 27.8783 7.57334C27.2988 7.9179 26.8446 7.83959 26.3434 7.36974C26.0458 7.08783 25.7483 6.80592 25.4664 6.49268C25.2314 6.2421 25.0278 6.22644 24.7772 6.49268C23.9159 7.36974 23.0388 8.2468 22.1617 9.10819C21.8955 9.35878 21.9425 9.56238 22.1774 9.79731C22.475 10.0792 22.7725 10.3611 23.0388 10.6744C23.5086 11.1755 23.5713 11.6454 23.2267 12.2249C22.3653 13.6344 21.7545 15.1379 21.3473 16.7511C21.1907 17.4089 20.8148 17.6908 20.1257 17.7221C19.7185 17.7378 19.3113 17.7378 18.8884 17.7221C18.5595 17.7065 18.3716 17.8318 18.3873 18.192C18.4029 19.4293 18.4029 20.6509 18.3873 21.8881C18.3873 22.2484 18.5595 22.358 18.9041 22.358C19.3113 22.3423 19.7185 22.3423 20.1414 22.358C20.7522 22.3737 21.1907 22.6556 21.3473 23.2664C21.7545 24.9109 22.381 26.4457 23.2737 27.9022C23.587 28.4034 23.5086 28.9202 23.1014 29.3588C22.8665 29.6094 22.6316 29.8756 22.3497 30.1105C21.9268 30.4551 21.8798 30.737 22.334 31.1442C23.0075 31.755 23.6339 32.4285 24.2917 33.0863C25.2314 34.026 25.0122 34.026 25.9675 33.0706C26.9386 32.1152 27.1422 32.0996 28.3481 32.7574C29.1938 33.2272 30.0866 33.6188 31.0419 34.073ZM40.298 12.7104C40.298 14.7307 40.3137 16.6415 40.2823 18.5522C40.2667 19.1317 40.2197 19.7268 40.0631 20.2906C39.5149 22.2484 37.5259 23.7832 35.6621 23.7362C33.5008 23.6892 31.3708 21.8568 31.1985 19.6485C31.0263 17.5185 31.1202 15.3572 31.1046 13.2116C31.1046 13.0706 31.0889 12.9296 31.0889 12.7574C30.9793 12.82 30.9323 12.8357 30.8853 12.867C28.4264 14.6368 27.1735 17.033 27.3927 20.0557C27.6277 23.2664 29.3191 25.5686 32.2635 26.8842C33.0779 27.2444 33.4225 27.7456 33.4068 28.6227C33.3755 31.3008 33.4068 33.979 33.3755 36.6415C33.3755 37.221 33.5635 37.3776 34.1116 37.3619C35.161 37.3306 36.226 37.3306 37.2753 37.3619C37.8391 37.3776 38.0114 37.2053 38.0114 36.6258C37.9801 33.9163 38.0114 31.1912 37.9957 28.4817C37.9957 27.73 38.262 27.2444 38.9824 26.9469C42.4906 25.459 44.417 22.1857 43.9472 18.4112C43.6496 15.9993 42.381 14.1356 40.298 12.7104Z" fill="#0EADFF"/>
<path d="M10.9475 43.9399C10.9475 47.0879 10.9475 50.2202 10.9475 53.3526C11.0102 53.3839 11.0415 53.4152 11.0728 53.4152C13.6883 53.1646 16.1159 54.026 18.5748 54.6838C22.4589 55.7331 26.343 56.7668 30.2114 57.8318C32.0438 58.333 33.7353 58.1137 35.3171 57.0957C36.3038 56.4536 37.2435 55.7801 38.2146 55.1067C38.9193 54.6212 39.6085 54.6838 40.0157 55.2633C40.4385 55.8428 40.2819 56.5319 39.5615 57.0174C38.2929 57.8788 37.0243 58.7715 35.693 59.5389C33.5474 60.7605 31.2921 60.5883 28.9898 59.9461C24.0251 58.5679 19.0603 57.2053 14.0799 55.9367C13.1088 55.6862 12.0282 55.8114 10.9945 55.7958C10.8849 55.7958 10.7126 55.9681 10.65 56.109C10.0078 57.3306 9.00548 57.9414 7.61159 57.9101C6.13939 57.8945 4.68285 57.9101 3.21065 57.9101C1.33125 57.8945 0.0156617 56.5945 0 54.6995C0 50.6744 0 46.6493 0 42.6243C0 40.7449 1.33125 39.4136 3.21065 39.398C4.69851 39.3823 6.18637 39.3823 7.65857 39.398C8.98982 39.398 9.96085 39.9931 10.6186 41.1678C10.7126 41.34 10.9789 41.5123 11.1825 41.528C12.2161 41.6063 13.2185 41.481 14.2208 41.0581C15.8653 40.369 17.5881 39.9305 19.3892 39.8678C22.2866 39.7582 24.7612 40.8702 26.9695 42.6243C27.1887 42.7966 27.4236 42.9375 27.5959 43.1568C28.332 44.0808 29.2717 44.2688 30.3994 44.2061C31.8403 44.1278 33.2968 44.2218 34.7377 44.1748C36.2255 44.1278 37.5724 44.3941 38.6531 45.506C41.6758 43.9555 44.6515 42.4207 47.6429 40.9015C48.0814 40.6822 48.52 40.463 48.9898 40.3533C50.9945 39.8365 52.9679 40.6979 53.8606 42.4363C54.7533 44.1905 54.3148 46.3988 52.7016 47.6674C51.2921 48.7793 49.8042 49.7817 48.332 50.8154C47.7839 51.2069 47.0791 51.0503 46.7189 50.5491C46.343 50.0166 46.4526 49.3118 47.0164 48.889C48.2694 47.9806 49.5223 47.1035 50.7753 46.1952C51.0415 46.0072 51.3077 45.788 51.5113 45.5374C52.0595 44.8796 52.1065 44.0182 51.6993 43.3604C51.2764 42.7026 50.4777 42.405 49.6476 42.6086C49.3657 42.6869 49.0994 42.7966 48.8332 42.9219C45.9671 44.3941 43.1167 45.8663 40.2349 47.3228C39.906 47.4951 39.8121 47.6517 39.8434 48.0276C40.094 50.6274 38.1989 52.8044 35.5677 52.8357C32.1691 52.8827 28.7706 52.8514 25.372 52.8514C24.5732 52.8514 24.0407 52.3659 24.0564 51.6768C24.0564 50.972 24.5732 50.5178 25.3876 50.5178C28.6139 50.5178 31.8402 50.5178 35.0509 50.5178C35.2388 50.5178 35.4424 50.5178 35.6304 50.5021C36.758 50.4082 37.5568 49.5311 37.5254 48.4504C37.4941 47.3854 36.6641 46.5554 35.5521 46.5397C33.4847 46.5241 31.4174 46.5084 29.3344 46.5397C28.3007 46.5554 27.4706 46.1952 26.6875 45.5217C25.6852 44.6603 24.6359 43.8302 23.4926 43.1724C21.0493 41.7942 18.4808 42.0135 15.9593 42.9219C14.4088 43.4857 12.8739 44.0495 11.1825 43.8929C11.1041 43.8772 11.0258 43.9242 10.9475 43.9399ZM8.56695 48.701C8.56695 46.712 8.56695 44.723 8.56695 42.7339C8.56695 42.0135 8.3007 41.7472 7.58027 41.7472C6.17071 41.7472 4.77682 41.7472 3.36727 41.7472C2.6155 41.7472 2.36492 42.0135 2.34926 42.7809C2.34926 46.6963 2.34926 50.6274 2.34926 54.5428C2.34926 55.3259 2.59984 55.5765 3.3516 55.5765C4.76116 55.5765 6.15505 55.5765 7.5646 55.5765C8.34769 55.5765 8.56695 55.3416 8.56695 54.5585C8.56695 52.6008 8.56695 50.6431 8.56695 48.701Z" fill="#0EADFF"/>
<path d="M43.3517 54.0572C42.7096 54.0572 42.2084 53.5717 42.1927 52.9296C42.1771 52.2718 42.7096 51.7236 43.3517 51.7236C43.9782 51.7236 44.5107 52.2405 44.5263 52.8669C44.542 53.5091 44.0251 54.0416 43.3517 54.0572Z" fill="#0EADFF"/>
</g>
<defs>
<clipPath id="clip0_1267_9615">
<rect width="55.3328" height="60" fill="white" transform="translate(0 0.447266)"/>
</clipPath>
</defs>
</svg>
