<svg width="156" height="30" viewBox="0 0 156 30" fill="none" xmlns="http://www.w3.org/2000/svg">
<path d="M84.8898 29.7387C84.3278 29.7387 83.8582 29.5613 83.4811 29.2063C83.1076 28.8477 82.9209 28.3873 82.9209 27.8253C82.9209 27.2633 83.1076 26.8048 83.4811 26.4498C83.8582 26.0912 84.3278 25.9119 84.8898 25.9119C85.5812 25.9119 86.097 26.2132 86.4372 26.8159L85.7606 27.1487C85.6792 26.9934 85.5591 26.8658 85.4001 26.766C85.2448 26.6624 85.0747 26.6107 84.8898 26.6107C84.5533 26.6107 84.276 26.7253 84.0579 26.9545C83.8397 27.1838 83.7306 27.474 83.7306 27.8253C83.7306 28.1766 83.8397 28.4668 84.0579 28.6961C84.276 28.9253 84.5533 29.0399 84.8898 29.0399C85.0747 29.0399 85.2448 28.99 85.4001 28.8902C85.5591 28.7903 85.6792 28.6609 85.7606 28.5019L86.4372 28.8292C86.0859 29.4356 85.5701 29.7387 84.8898 29.7387Z" fill="#232323"/>
<path d="M87.6658 29.6722H86.906V25.9729H87.6936V28.3633L89.4073 25.9729H90.2171V29.6722H89.4295V27.193L87.6658 29.6722Z" fill="#232323"/>
<path d="M92.7379 29.7387C92.1759 29.7387 91.7063 29.5613 91.3292 29.2063C90.9557 28.8477 90.769 28.3873 90.769 27.8253C90.769 27.2633 90.9557 26.8048 91.3292 26.4498C91.7063 26.0912 92.1759 25.9119 92.7379 25.9119C93.4294 25.9119 93.9452 26.2132 94.2853 26.8159L93.6087 27.1487C93.5273 26.9934 93.4072 26.8658 93.2482 26.766C93.0929 26.6624 92.9228 26.6107 92.7379 26.6107C92.4015 26.6107 92.1242 26.7253 91.906 26.9545C91.6878 27.1838 91.5788 27.474 91.5788 27.8253C91.5788 28.1766 91.6878 28.4668 91.906 28.6961C92.1242 28.9253 92.4015 29.0399 92.7379 29.0399C92.9228 29.0399 93.0929 28.99 93.2482 28.8902C93.4072 28.7903 93.5273 28.6609 93.6087 28.5019L94.2853 28.8292C93.9341 29.4356 93.4183 29.7387 92.7379 29.7387Z" fill="#232323"/>
<path d="M96.4013 29.6722H95.6082V26.6661H94.5267V25.9729H97.4773V26.6661H96.4013V29.6722Z" fill="#232323"/>
<path d="M100.6 29.6722H97.9822V25.9729H100.6V26.6661H98.7698V27.4482H100.561V28.1414H98.7698V28.9789H100.6V29.6722Z" fill="#232323"/>
<path d="M105.226 29.6722H104.432V27.0821L103.39 29.6722H103.046L102.003 27.0821V29.6722H101.216V25.9729H102.319L103.218 28.208L104.116 25.9729H105.226V29.6722Z" fill="#232323"/>
<path d="M109.288 29.6722H108.495V28.1192H106.748V29.6722H105.96V25.9729H106.748V27.426H108.495V25.9729H109.288V29.6722Z" fill="#232323"/>
<path d="M110.017 25.9729H110.805V27.2873H111.747C112.132 27.2873 112.435 27.4019 112.657 27.6312C112.879 27.8604 112.99 28.1433 112.99 28.4798C112.99 28.8199 112.879 29.1046 112.657 29.3339C112.439 29.5594 112.136 29.6722 111.747 29.6722H110.017V25.9729ZM111.642 27.9806H110.805V28.9789H111.642C111.801 28.9789 111.931 28.9345 112.03 28.8458C112.134 28.7534 112.186 28.6313 112.186 28.4798C112.186 28.3282 112.134 28.208 112.03 28.1192C111.931 28.0268 111.801 27.9806 111.642 27.9806ZM114.094 29.6722H113.3V25.9729H114.094V29.6722Z" fill="#232323"/>
<path d="M115.587 29.6722H114.827V25.9729H115.614V28.3633L117.328 25.9729H118.138V29.6722H117.35V27.193L115.587 29.6722ZM117.456 25.3129C117.215 25.6382 116.892 25.8009 116.485 25.8009C116.082 25.8009 115.757 25.6382 115.509 25.3129L115.819 25.0522C115.982 25.2814 116.204 25.3961 116.485 25.3961C116.759 25.3961 116.979 25.2814 117.145 25.0522L117.456 25.3129Z" fill="#232323"/>
<path d="M121.046 29.6722H120.286V25.9729H121.074V28.3633L122.788 25.9729H123.597V29.6722H122.81V27.193L121.046 29.6722Z" fill="#232323"/>
<path d="M127.654 29.6722H126.861V28.1192H125.114V29.6722H124.327V25.9729H125.114V27.426H126.861V25.9729H127.654V29.6722Z" fill="#232323"/>
<path d="M130.031 29.6722H129.238V26.6661H128.156V25.9729H131.107V26.6661H130.031V29.6722Z" fill="#232323"/>
<path d="M134.229 29.6722H131.612V25.9729H134.229V26.6661H132.399V27.4482H134.191V28.1414H132.399V28.9789H134.229V29.6722Z" fill="#232323"/>
<path d="M135.633 29.6722H134.845V25.9729H137.463V26.6661H135.633V29.6722Z" fill="#232323"/>
<path d="M138.801 29.6722H138.014V25.9729H139.744C140.132 25.9729 140.435 26.0875 140.654 26.3167C140.875 26.5423 140.986 26.8251 140.986 27.1653C140.986 27.5018 140.875 27.7846 140.654 28.0139C140.432 28.2431 140.129 28.3577 139.744 28.3577H138.801V29.6722ZM139.639 27.6645C139.798 27.6645 139.927 27.6201 140.027 27.5313C140.13 27.4389 140.182 27.3169 140.182 27.1653C140.182 27.0137 140.13 26.8935 140.027 26.8048C139.927 26.7124 139.798 26.6661 139.639 26.6661H138.801V27.6645H139.639Z" fill="#232323"/>
<path d="M144.513 29.6722H143.614L143.387 29.0455H141.801L141.568 29.6722H140.669L142.1 25.9729H143.087L144.513 29.6722ZM143.17 28.3522L142.594 26.7604L142.017 28.3522H143.17Z" fill="#232323"/>
<path d="M146.144 29.6722H145.351V26.6661H144.269V25.9729H147.22V26.6661H146.144V29.6722Z" fill="#232323"/>
<path d="M149.342 29.7387C148.784 29.7387 148.322 29.5594 147.956 29.2008C147.593 28.8384 147.412 28.3799 147.412 27.8253C147.412 27.2707 147.593 26.814 147.956 26.4554C148.322 26.093 148.784 25.9119 149.342 25.9119C149.904 25.9119 150.366 26.0912 150.729 26.4498C151.095 26.8085 151.278 27.267 151.278 27.8253C151.278 28.3836 151.095 28.8421 150.729 29.2008C150.366 29.5594 149.904 29.7387 149.342 29.7387ZM148.527 28.6961C148.734 28.9253 149.006 29.0399 149.342 29.0399C149.679 29.0399 149.95 28.9253 150.157 28.6961C150.364 28.4668 150.468 28.1766 150.468 27.8253C150.468 27.474 150.364 27.1838 150.157 26.9545C149.95 26.7253 149.679 26.6107 149.342 26.6107C149.006 26.6107 148.734 26.7253 148.527 26.9545C148.323 27.1838 148.222 27.474 148.222 27.8253C148.222 28.1766 148.323 28.4668 148.527 28.6961Z" fill="#232323"/>
<path d="M152.618 29.6722H151.83V25.9729H153.561C153.949 25.9729 154.252 26.0875 154.47 26.3167C154.692 26.5423 154.803 26.8251 154.803 27.1653C154.803 27.5018 154.692 27.7846 154.47 28.0139C154.249 28.2431 153.945 28.3577 153.561 28.3577H152.618V29.6722ZM153.455 27.6645C153.614 27.6645 153.744 27.6201 153.844 27.5313C153.947 27.4389 153.999 27.3169 153.999 27.1653C153.999 27.0137 153.947 26.8935 153.844 26.8048C153.744 26.7124 153.614 26.6661 153.455 26.6661H152.618V27.6645H153.455Z" fill="#232323"/>
<path d="M57.8758 13.8569L54.4156 16.3734C54.8176 17.2821 55.4118 18.1122 56.1982 18.8637C56.9845 19.5976 57.9107 20.1743 58.9767 20.5937C60.0602 21.0306 61.2311 21.2491 62.4893 21.2491C63.3806 21.2491 64.2543 21.118 65.1106 20.8559C65.9669 20.6112 66.7271 20.2442 67.3912 19.7549C68.0727 19.2481 68.6057 18.619 68.9902 17.8676C69.3921 17.1161 69.5931 16.2511 69.5931 15.2725C69.5931 14.5385 69.4795 13.8744 69.2523 13.2803C69.0251 12.6861 68.7018 12.1618 68.2824 11.7075C67.863 11.2356 67.365 10.8337 66.7883 10.5017C66.2291 10.1521 65.6087 9.85507 64.9271 9.61041C64.1407 9.3308 63.4417 9.07741 62.8301 8.85023C62.2359 8.60557 61.7641 8.35218 61.4146 8.09005C61.0825 7.81044 60.9165 7.46967 60.9165 7.06773C60.9165 6.71822 61.0651 6.43862 61.3621 6.22891C61.6592 6.01921 62.0612 5.91435 62.568 5.91435C62.9699 5.91435 63.3631 5.99299 63.7475 6.15027C64.132 6.30755 64.4902 6.53473 64.8223 6.83181C65.1718 7.11142 65.4776 7.46967 65.7397 7.90655L69.5669 5.78329C69.2348 5.15417 68.763 4.53379 68.1514 3.92215C67.5397 3.29304 66.7621 2.77751 65.8184 2.37558C64.8747 1.95616 63.7563 1.74646 62.4631 1.74646C61.2223 1.74646 60.0952 1.95616 59.0816 2.37558C58.068 2.79499 57.2554 3.40663 56.6438 4.2105C56.0321 4.99689 55.7263 5.96678 55.7263 7.12016C55.7263 8.02888 55.8923 8.81528 56.2244 9.47935C56.5739 10.1434 57.002 10.7026 57.5088 11.157C58.0331 11.6113 58.5748 11.9871 59.134 12.2842C59.6932 12.5638 60.2 12.7909 60.6544 12.9657C61.5806 13.3152 62.2971 13.6123 62.8039 13.8569C63.3281 14.1016 63.6951 14.3463 63.9048 14.5909C64.1145 14.8181 64.2194 15.1064 64.2194 15.4559C64.2194 15.9453 64.0359 16.321 63.6689 16.5831C63.3019 16.8278 62.8388 16.9501 62.2796 16.9501C61.7029 16.9501 61.1437 16.8278 60.602 16.5831C60.0602 16.3385 59.5622 15.9889 59.1078 15.5346C58.6534 15.0627 58.2428 14.5035 57.8758 13.8569Z" fill="black"/>
<path d="M85.1752 8.50946H80.5879L77.8934 15.2639L75.188 8.50946H70.2599L75.6598 19.8073L72.8288 26.3344H77.3112L85.1752 8.50946Z" fill="black"/>
<path d="M86.9818 15.9802L85.3304 19.0734C85.9595 19.4753 86.6148 19.8335 87.2964 20.1481C87.9779 20.4627 88.7032 20.7073 89.4721 20.8821C90.2585 21.0568 91.0886 21.1442 91.9623 21.1442C93.4652 21.1442 94.6186 20.8209 95.4225 20.1743C96.2438 19.5277 96.6545 18.5229 96.6545 17.1598C96.6545 16.4084 96.4885 15.8055 96.1564 15.3511C95.8419 14.8967 95.4225 14.5297 94.8982 14.2501C94.3914 13.9531 93.8322 13.6909 93.2206 13.4637C92.574 13.2191 92.041 13.0269 91.6216 12.8871C91.2022 12.7473 90.8876 12.6074 90.6779 12.4676C90.4682 12.3104 90.3633 12.1094 90.3633 11.8647C90.3633 11.69 90.4332 11.5414 90.573 11.4191C90.7303 11.2968 90.975 11.2356 91.307 11.2356C91.8313 11.2356 92.4342 11.3929 93.1157 11.7075C93.8147 12.0045 94.4438 12.3977 95.0031 12.8871L96.3399 9.87254C95.7982 9.55798 95.2477 9.28711 94.6885 9.05993C94.1293 8.81528 93.5351 8.62305 92.906 8.48324C92.2944 8.32596 91.6303 8.24732 90.9138 8.24732C89.9876 8.24732 89.175 8.38713 88.476 8.66674C87.777 8.92887 87.2265 9.32206 86.8246 9.84633C86.4226 10.3531 86.2216 10.9822 86.2216 11.7337C86.2216 12.5201 86.3789 13.1667 86.6935 13.6735C87.0255 14.1628 87.4537 14.556 87.9779 14.853C88.5022 15.1327 89.0527 15.3686 89.6294 15.5608C90.3284 15.788 90.8526 15.9802 91.2022 16.1375C91.5691 16.2948 91.8138 16.452 91.9361 16.6093C92.0759 16.7491 92.1458 16.9239 92.1458 17.1336C92.1458 17.3782 92.0672 17.5705 91.9099 17.7103C91.7526 17.8501 91.508 17.92 91.1759 17.92C90.9662 17.92 90.6691 17.8763 90.2847 17.7889C89.9002 17.7015 89.4371 17.5181 88.8954 17.2384C88.3537 16.9588 87.7158 16.5394 86.9818 15.9802Z" fill="black"/>
<path d="M99.5295 4.31535V8.50946V12.1793V20.5675H103.855V12.1793V8.50946V4.31535H99.5295Z" fill="black"/>
<path d="M142.038 12.756C142.038 11.7948 141.924 10.9822 141.697 10.3182C141.47 9.63662 141.085 9.1211 140.544 8.77159C140.002 8.4046 139.242 8.22111 138.263 8.22111C137.442 8.22111 136.699 8.39587 136.035 8.74537C135.388 9.07741 134.838 9.54051 134.384 10.1347C134.139 9.50556 133.746 9.03372 133.204 8.71916C132.662 8.38713 131.911 8.22111 130.95 8.22111C130.093 8.22111 129.368 8.41334 128.774 8.7978C128.197 9.16479 127.743 9.67157 127.411 10.3182V8.50946H123.086V20.5675H127.411V13.2278C127.411 12.7735 127.472 12.4065 127.594 12.1269C127.717 11.8298 127.892 11.6113 128.119 11.4715C128.346 11.3317 128.599 11.2618 128.879 11.2618C129.351 11.2618 129.683 11.4366 129.875 11.7861C130.085 12.1181 130.19 12.5987 130.19 13.2278V20.5675H134.724V13.2278C134.724 12.7735 134.786 12.4065 134.908 12.1269C135.03 11.8298 135.205 11.6113 135.432 11.4715C135.659 11.3317 135.913 11.2618 136.192 11.2618C136.664 11.2618 136.996 11.4366 137.188 11.7861C137.398 12.1181 137.503 12.5987 137.503 13.2278V20.5675H142.038V12.756Z" fill="black"/>
<path d="M145.577 15.9802L143.926 19.0734C144.555 19.4753 145.21 19.8335 145.892 20.1481C146.574 20.4627 147.299 20.7073 148.068 20.8821C148.854 21.0568 149.684 21.1442 150.558 21.1442C152.061 21.1442 153.214 20.8209 154.018 20.1743C154.839 19.5277 155.25 18.5229 155.25 17.1598C155.25 16.4084 155.084 15.8055 154.752 15.3511C154.438 14.8967 154.018 14.5297 153.494 14.2501C152.987 13.9531 152.428 13.6909 151.816 13.4637C151.17 13.2191 150.637 13.0269 150.217 12.8871C149.798 12.7473 149.483 12.6074 149.274 12.4676C149.064 12.3104 148.959 12.1094 148.959 11.8647C148.959 11.69 149.029 11.5414 149.169 11.4191C149.326 11.2968 149.571 11.2356 149.903 11.2356C150.427 11.2356 151.03 11.3929 151.711 11.7075C152.41 12.0045 153.04 12.3977 153.599 12.8871L154.936 9.87254C154.394 9.55798 153.843 9.28711 153.284 9.05993C152.725 8.81528 152.131 8.62305 151.502 8.48324C150.89 8.32596 150.226 8.24732 149.509 8.24732C148.583 8.24732 147.771 8.38713 147.072 8.66674C146.373 8.92887 145.822 9.32206 145.42 9.84633C145.018 10.3531 144.817 10.9822 144.817 11.7337C144.817 12.5201 144.975 13.1667 145.289 13.6735C145.621 14.1628 146.049 14.556 146.574 14.853C147.098 15.1327 147.648 15.3686 148.225 15.5608C148.924 15.788 149.448 15.9802 149.798 16.1375C150.165 16.2948 150.409 16.452 150.532 16.6093C150.672 16.7491 150.741 16.9239 150.741 17.1336C150.741 17.3782 150.663 17.5705 150.506 17.7103C150.348 17.8501 150.104 17.92 149.772 17.92C149.562 17.92 149.265 17.8763 148.88 17.7889C148.496 17.7015 148.033 17.5181 147.491 17.2384C146.949 16.9588 146.311 16.5394 145.577 15.9802Z" fill="black"/>
<path d="M3.8869 20.5675H13.1401V16.452H3.8869V20.5675ZM3.8869 6.33375H13.1401V2.21829H3.8869V6.33375ZM3.8869 13.0181H12.6159V9.03371H3.8869V13.0181ZM0.426758 2.21829V20.5675H3.8869V2.21829H0.426758Z" fill="#0EADFF"/>
<path d="M26.9844 2.21829L24.3631 7.09394L21.7942 2.21829H15.4768L21.2175 11.2094L14.8215 20.5675H21.1389L24.3106 14.9317L27.3776 20.5675H33.7212L27.4562 11.2094L33.328 2.21829H26.9844Z" fill="#0EADFF"/>
<path d="M43.6463 9.74147L46.0842 15.2462L45.7958 16.5569L47.8929 20.5675H53.6598L43.6463 0.986267L33.6591 20.5675H39.426L41.5493 16.3734L41.2347 15.2462L43.6463 9.74147Z" fill="#0EADFF"/>
<path d="M40.9256 17.6054H46.3441L45.7958 16.5569L46.0842 15.2462L45.4689 13.8569H41.8434L41.2347 15.2462L41.5493 16.3734L40.9256 17.6054Z" fill="#0EADFF"/>
<path fill-rule="evenodd" clip-rule="evenodd" d="M114.152 20.8296C115.76 20.8296 117.114 20.5238 118.215 19.9122C119.333 19.3005 120.216 18.3743 120.862 17.1336L116.773 16.321C116.511 16.7753 116.144 17.1249 115.672 17.3695C115.218 17.5967 114.659 17.7103 113.995 17.7103C113.453 17.7103 112.998 17.588 112.631 17.3433C112.264 17.0812 111.985 16.7142 111.793 16.2423L111.587 15.4822H120.705C120.723 15.3249 120.731 15.1501 120.731 14.9579C120.749 14.7482 120.757 14.5385 120.757 14.3288C120.757 13.0181 120.495 11.9172 119.971 11.0259C119.447 10.1172 118.687 9.42692 117.691 8.95508C116.694 8.48324 115.462 8.24732 113.995 8.24732C112.527 8.24732 111.268 8.50072 110.22 9.00751C109.171 9.5143 108.367 10.2395 107.808 11.1832C107.249 12.1094 106.969 13.2278 106.969 14.5385C106.969 15.8317 107.258 16.9501 107.834 17.8938C108.411 18.82 109.232 19.5452 110.298 20.0695C111.382 20.5763 112.666 20.8296 114.152 20.8296ZM112.579 11.4978C112.229 11.7424 111.967 12.1181 111.793 12.6249L111.649 13.1492H115.923C115.895 12.7847 115.811 12.4701 115.672 12.2055C115.515 11.856 115.279 11.5939 114.964 11.4191C114.667 11.2269 114.309 11.1308 113.89 11.1308C113.365 11.1308 112.929 11.2531 112.579 11.4978Z" fill="black"/>
<path d="M106.03 12.1793V8.50946H103.855V12.1793H106.03Z" fill="black"/>
<path d="M97.3539 8.50946V12.1793H99.5295V8.50946H97.3539Z" fill="black"/>
</svg>
