<svg width="170" height="29" viewBox="0 0 170 29" fill="none" xmlns="http://www.w3.org/2000/svg">
<path d="M62.8515 14.4652L59.0659 17.2184C59.5057 18.2126 60.1557 19.1207 61.0161 19.9428C61.8764 20.7458 62.8897 21.3767 64.056 21.8356C65.2413 22.3136 66.5223 22.5526 67.8989 22.5526C68.8739 22.5526 69.8299 22.4092 70.7667 22.1224C71.7035 21.8547 72.5352 21.4532 73.2617 20.9179C74.0074 20.3634 74.5905 19.6752 75.0111 18.853C75.4508 18.0309 75.6707 17.0845 75.6707 16.0139C75.6707 15.2109 75.5464 14.4844 75.2979 13.8343C75.0494 13.1843 74.6957 12.6107 74.2368 12.1136C73.7779 11.5974 73.2331 11.1577 72.6021 10.7944C71.9903 10.412 71.3116 10.087 70.566 9.81934C69.7056 9.51344 68.9408 9.23621 68.2717 8.98767C67.6216 8.72 67.1054 8.44278 66.7231 8.15599C66.3598 7.85009 66.1782 7.47727 66.1782 7.03754C66.1782 6.65516 66.3407 6.34925 66.6657 6.11983C66.9907 5.8904 67.4305 5.77569 67.9849 5.77569C68.4246 5.77569 68.8548 5.86172 69.2754 6.03379C69.696 6.20586 70.088 6.45441 70.4512 6.77943C70.8336 7.08533 71.1682 7.47727 71.455 7.95525L75.642 5.6323C75.2788 4.94401 74.7626 4.26529 74.0934 3.59613C73.4242 2.90785 72.5734 2.34384 71.541 1.9041C70.5086 1.44525 69.285 1.21582 67.8702 1.21582C66.5127 1.21582 65.2796 1.44525 64.1707 1.9041C63.0618 2.36296 62.1727 3.03212 61.5036 3.91159C60.8344 4.77194 60.4998 5.83304 60.4998 7.09489C60.4998 8.08908 60.6815 8.94943 61.0447 9.67595C61.4271 10.4025 61.8955 11.0143 62.45 11.5114C63.0235 12.0085 63.6162 12.4195 64.228 12.7445C64.8398 13.0504 65.3943 13.299 65.8914 13.4902C66.9047 13.8726 67.6886 14.1976 68.243 14.4652C68.8166 14.7329 69.2181 15.0006 69.4475 15.2682C69.6769 15.5168 69.7916 15.8322 69.7916 16.2146C69.7916 16.75 69.5909 17.161 69.1894 17.4478C68.7879 17.7155 68.2812 17.8493 67.6694 17.8493C67.0385 17.8493 66.4267 17.7155 65.834 17.4478C65.2413 17.1801 64.6964 16.7978 64.1994 16.3007C63.7023 15.7844 63.253 15.1726 62.8515 14.4652Z" fill="white"/>
<path d="M92.7182 8.61485H87.6995L83.4551 19.2545L86.0648 19.2832L81.7918 8.61485H76.4002L82.308 20.9752L79.2107 28.1162H84.1147L92.7182 8.61485Z" fill="white"/>
<path d="M94.6948 16.7882L92.8881 20.1722C93.5763 20.612 94.2933 21.0039 95.0389 21.3481C95.7846 21.6922 96.578 21.9599 97.4192 22.1511C98.2796 22.3422 99.1878 22.4378 100.144 22.4378C101.788 22.4378 103.05 22.0841 103.929 21.3767C104.828 20.6693 105.277 19.57 105.277 18.0787C105.277 17.2566 105.096 16.597 104.732 16.0999C104.388 15.6028 103.929 15.2013 103.356 14.8954C102.801 14.5704 102.189 14.2836 101.52 14.0351C100.813 13.7674 100.23 13.5571 99.7709 13.4041C99.312 13.2512 98.9679 13.0982 98.7385 12.9453C98.509 12.7732 98.3943 12.5533 98.3943 12.2857C98.3943 12.0945 98.4708 11.932 98.6237 11.7982C98.7958 11.6643 99.0635 11.5974 99.4267 11.5974C100 11.5974 100.66 11.7695 101.406 12.1136C102.17 12.4386 102.859 12.8688 103.47 13.4041L104.933 10.1061C104.34 9.76198 103.738 9.46564 103.126 9.2171C102.514 8.94943 101.864 8.73912 101.176 8.58617C100.507 8.4141 99.7804 8.32806 98.9966 8.32806C97.9833 8.32806 97.0942 8.48102 96.3295 8.78692C95.5647 9.0737 94.9625 9.50388 94.5227 10.0774C94.083 10.6319 93.8631 11.3202 93.8631 12.1423C93.8631 13.0026 94.0352 13.71 94.3793 14.2645C94.7426 14.7998 95.211 15.23 95.7846 15.555C96.3581 15.8609 96.9604 16.119 97.5913 16.3293C98.3561 16.5779 98.9296 16.7882 99.312 16.9603C99.7135 17.1323 99.9812 17.3044 100.115 17.4765C100.268 17.6294 100.344 17.8206 100.344 18.05C100.344 18.3177 100.258 18.528 100.086 18.681C99.9143 18.8339 99.6466 18.9104 99.2833 18.9104C99.0539 18.9104 98.7289 18.8626 98.3083 18.767C97.8877 18.6714 97.381 18.4707 96.7883 18.1648C96.1956 17.8589 95.4978 17.4 94.6948 16.7882Z" fill="white"/>
<path d="M106.042 8.61485V12.6298H115.535V8.61485H106.042ZM108.423 4.02631V21.8069H113.155V4.02631H108.423Z" fill="white"/>
<path d="M124.42 22.0937C126.179 22.0937 127.661 21.7591 128.865 21.09C130.089 20.4208 131.054 19.4075 131.762 18.05L127.288 17.161C127.001 17.6581 126.6 18.0405 126.083 18.3081C125.586 18.5567 124.974 18.681 124.248 18.681C123.655 18.681 123.158 18.5471 122.757 18.2795C122.355 17.9927 122.049 17.5912 121.839 17.075C121.629 16.5588 121.533 15.9278 121.552 15.1822C121.552 14.341 121.648 13.6527 121.839 13.1174C122.03 12.5629 122.317 12.1519 122.699 11.8842C123.082 11.6165 123.56 11.4827 124.133 11.4827C124.592 11.4827 124.984 11.5878 125.309 11.7982C125.653 11.9893 125.911 12.2761 126.083 12.6585C126.275 13.0218 126.37 13.4711 126.37 14.0064C126.37 14.1402 126.332 14.3027 126.255 14.4939C126.179 14.6851 126.093 14.8572 125.997 15.0101L127.058 13.6909H119.287V16.2433H131.59C131.609 16.0712 131.618 15.88 131.618 15.6697C131.637 15.4403 131.647 15.2109 131.647 14.9815C131.647 13.5475 131.36 12.343 130.787 11.368C130.213 10.3738 129.381 9.61859 128.292 9.10238C127.202 8.58617 125.854 8.32806 124.248 8.32806C122.642 8.32806 121.265 8.60529 120.118 9.15974C118.971 9.71419 118.092 10.5076 117.48 11.54C116.868 12.5533 116.562 13.777 116.562 15.2109C116.562 16.6257 116.878 17.8493 117.508 18.8817C118.139 19.895 119.038 20.6885 120.204 21.262C121.39 21.8165 122.795 22.0937 124.42 22.0937Z" fill="white"/>
<path d="M154.929 13.2607C154.929 12.2092 154.804 11.3202 154.556 10.5937C154.307 9.84802 153.887 9.28401 153.294 8.90163C152.701 8.50014 151.87 8.29939 150.799 8.29939C149.9 8.29939 149.088 8.49058 148.361 8.87295C147.654 9.23621 147.052 9.74287 146.555 10.3929C146.287 9.70463 145.857 9.18842 145.264 8.84428C144.671 8.48102 143.849 8.29939 142.798 8.29939C141.861 8.29939 141.067 8.50969 140.417 8.93031C139.786 9.33181 139.289 9.88626 138.926 10.5937V8.61485H134.194V21.8069H138.926V13.777C138.926 13.2799 138.993 12.8784 139.127 12.5725C139.261 12.2474 139.452 12.0085 139.7 11.8555C139.949 11.7026 140.226 11.6261 140.532 11.6261C141.048 11.6261 141.412 11.8173 141.622 12.1996C141.851 12.5629 141.966 13.0887 141.966 13.777V21.8069H146.927V13.777C146.927 13.2799 146.994 12.8784 147.128 12.5725C147.262 12.2474 147.453 12.0085 147.702 11.8555C147.95 11.7026 148.227 11.6261 148.533 11.6261C149.05 11.6261 149.413 11.8173 149.623 12.1996C149.853 12.5629 149.967 13.0887 149.967 13.777V21.8069H154.929V13.2607Z" fill="white"/>
<path d="M158.801 16.7882L156.994 20.1722C157.683 20.612 158.4 21.0039 159.145 21.3481C159.891 21.6922 160.684 21.9599 161.526 22.1511C162.386 22.3422 163.294 22.4378 164.25 22.4378C165.894 22.4378 167.156 22.0841 168.036 21.3767C168.934 20.6693 169.383 19.57 169.383 18.0787C169.383 17.2566 169.202 16.597 168.839 16.0999C168.494 15.6028 168.036 15.2013 167.462 14.8954C166.908 14.5704 166.296 14.2836 165.627 14.0351C164.919 13.7674 164.336 13.5571 163.877 13.4041C163.418 13.2512 163.074 13.0982 162.845 12.9453C162.615 12.7732 162.501 12.5533 162.501 12.2857C162.501 12.0945 162.577 11.932 162.73 11.7982C162.902 11.6643 163.17 11.5974 163.533 11.5974C164.107 11.5974 164.766 11.7695 165.512 12.1136C166.277 12.4386 166.965 12.8688 167.577 13.4041L169.039 10.1061C168.447 9.76198 167.844 9.46564 167.233 9.2171C166.621 8.94943 165.971 8.73912 165.282 8.58617C164.613 8.4141 163.887 8.32806 163.103 8.32806C162.09 8.32806 161.201 8.48102 160.436 8.78692C159.671 9.0737 159.069 9.50388 158.629 10.0774C158.189 10.6319 157.969 11.3202 157.969 12.1423C157.969 13.0026 158.142 13.71 158.486 14.2645C158.849 14.7998 159.317 15.23 159.891 15.555C160.464 15.8609 161.067 16.119 161.698 16.3293C162.462 16.5779 163.036 16.7882 163.418 16.9603C163.82 17.1323 164.087 17.3044 164.221 17.4765C164.374 17.6294 164.451 17.8206 164.451 18.05C164.451 18.3177 164.365 18.528 164.193 18.681C164.021 18.8339 163.753 18.9104 163.39 18.9104C163.16 18.9104 162.835 18.8626 162.415 18.767C161.994 18.6714 161.487 18.4707 160.895 18.1648C160.302 17.8589 159.604 17.4 158.801 16.7882Z" fill="white"/>
<path d="M3.78555 21.8068H13.909V17.3043H3.78555V21.8068ZM3.78555 6.23443H13.909V1.73192H3.78555V6.23443ZM3.78555 13.5474H13.3355V9.1883H3.78555V13.5474ZM0 1.73192V21.8068H5.33418V1.73192H0Z" fill="#0EADFF"/>
<path d="M29.0553 1.73192L26.1874 7.0661L23.3769 1.73192H16.4654L22.746 11.5686L15.7485 21.8068H22.66L26.1301 15.6409L29.4854 21.8068H36.4256L29.5715 11.5686L35.9954 1.73192H29.0553Z" fill="#0EADFF"/>
<path d="M42.036 18.5661H52.6471L52.5037 14.4651H42.2081L42.036 18.5661ZM47.2842 9.96262L49.9513 15.9851L49.6358 17.419L51.9301 21.8068H58.2393L47.2842 0.384033L36.3577 21.8068H42.667L44.9899 17.2183L44.6458 15.9851L47.2842 9.96262Z" fill="#0EADFF"/>
</svg>
