<svg width="137" height="42" viewBox="0 0 137 42" fill="none" xmlns="http://www.w3.org/2000/svg">
<path d="M8.85163 18.9722L0.546875 19.0006V35.8882L3.34087 35.8598L3.32683 29.234H8.4234C10.017 29.234 11.3016 28.7724 12.2353 27.8634C13.183 26.9473 13.6674 25.6832 13.6674 24.1066C13.6674 22.5372 13.2392 21.2802 12.3968 20.3641C11.5403 19.4409 10.3469 18.9722 8.85163 18.9722ZM10.8524 24.1421C10.8524 25.9317 10.0029 26.7271 8.08644 26.7271H3.34087V21.479H8.37426C10.0872 21.479 10.8524 22.3028 10.8524 24.1421Z" fill="#1090CF"/>
<path d="M20.2174 24.0142C18.2939 24.0142 16.7775 24.6249 15.7105 25.8251C14.7417 26.8903 14.2573 28.339 14.2573 30.1286C14.2573 31.8969 14.7557 33.3599 15.7526 34.489C16.3072 35.0927 16.9671 35.5401 17.7042 35.8241C18.4202 36.094 19.2697 36.236 20.2174 36.236C22.2321 36.236 23.7976 35.6395 24.8787 34.4606C25.8405 33.4096 26.3319 31.9467 26.3319 30.1286C26.3319 28.2893 25.8405 26.8264 24.8647 25.7754C23.8046 24.6107 22.2392 24.0142 20.2174 24.0142ZM16.8407 30.1286C16.8407 29.5108 16.925 28.964 17.0794 28.4953C17.2338 28.0408 17.4515 27.6573 17.7323 27.3448C18.329 26.6986 19.1433 26.379 20.2174 26.379C22.6253 26.379 23.7485 27.5721 23.7485 30.1286C23.7485 30.7536 23.6783 31.3075 23.5379 31.7691C23.4045 32.2094 23.2079 32.5645 22.9271 32.877C22.3515 33.5516 21.4669 33.8783 20.2174 33.8783C19.1082 33.8783 18.2939 33.5658 17.7182 32.9054C17.1285 32.2236 16.8407 31.3146 16.8407 30.1286Z" fill="#1090CF"/>
<path d="M37.0092 29.5751C36.4336 29.2769 35.4578 29.0496 34.0397 28.8934C32.2356 28.6661 31.5546 28.5099 31.3089 28.4247C30.7192 28.1974 30.642 27.9133 30.642 27.6648C30.642 27.2103 30.7965 26.912 31.1334 26.7061C31.4283 26.5285 32.025 26.3155 33.2114 26.3155C35.4648 26.3155 35.7526 27.26 35.7526 28.0909V28.4886H38.3711V28.0909C38.3711 26.2445 37.4796 24.043 33.2535 24.043C32.4672 24.043 31.7652 24.1069 31.1545 24.2347C30.5227 24.3625 29.9821 24.5543 29.5118 24.8241C28.5641 25.4562 28.0797 26.422 28.0797 27.6932C28.0797 29.007 28.6483 29.9728 29.7294 30.4912C30.0243 30.6262 30.6701 30.8463 32.9236 31.1801C34.9875 31.4855 35.3665 31.5778 35.4297 31.5991C35.9211 31.7979 36.1317 32.0962 36.1317 32.6004C36.1317 32.9697 36.1317 33.9497 33.4781 33.9497C31.9407 33.9497 31.2738 33.6514 30.9509 33.3745C30.6631 33.1543 30.5086 32.8064 30.4595 32.3447H27.7778C27.848 32.9342 27.9744 33.4526 28.1639 33.8716C28.3886 34.3829 28.7045 34.8019 29.0836 35.1073C29.568 35.505 30.1857 35.7961 30.9298 35.9666C31.6248 36.1228 32.4813 36.208 33.4781 36.208C37.8516 36.208 38.7713 34.1486 38.7713 32.4229C38.7713 31.102 38.1535 30.1148 37.0092 29.5751Z" fill="#1090CF"/>
<path d="M96.8484 29.5751C96.2798 29.2769 95.304 29.0496 93.8789 28.8934C92.0748 28.6661 91.3938 28.5099 91.1481 28.4247C90.5654 28.1974 90.4812 27.9133 90.4812 27.6648C90.4812 27.2103 90.6356 26.912 90.9726 26.7061C91.2674 26.5285 91.8642 26.3155 93.0505 26.3155C95.311 26.3155 95.5988 27.26 95.5988 28.0909V28.4886H98.2103V28.0909C98.2103 26.2445 97.3258 24.043 93.0927 24.043C92.3134 24.043 91.6044 24.1069 90.9937 24.2347C90.3619 24.3625 89.8283 24.5543 89.351 24.8241C88.4033 25.4562 87.9259 26.422 87.9259 27.6932C87.9259 29.007 88.4945 29.9728 89.5756 30.4912C89.8634 30.6262 90.5163 30.8463 92.7627 31.1801C94.8336 31.4855 95.2057 31.5778 95.2689 31.5991C95.7603 31.7979 95.9709 32.0962 95.9709 32.6004C95.9709 32.9697 95.9709 33.9497 93.3173 33.9497C91.7869 33.9497 91.113 33.6514 90.7971 33.3745C90.5093 33.1543 90.3548 32.8064 90.3057 32.3447H87.624C87.6942 32.9342 87.8206 33.4526 88.0031 33.8716C88.2348 34.3829 88.5437 34.8019 88.9298 35.1073C89.4071 35.505 90.0319 35.7961 90.776 35.9666C91.471 36.1228 92.3275 36.208 93.3173 36.208C97.6978 36.208 98.6175 34.1486 98.6175 32.4229C98.6175 31.102 97.9997 30.1148 96.8484 29.5751Z" fill="#1090CF"/>
<path d="M61.7128 25.1433C61.5865 25.0155 61.4882 24.9374 61.411 24.8806C60.5475 24.3053 59.4383 24.0142 58.1115 24.0142C56.174 24.0142 54.6647 24.5752 53.6187 25.6688C52.6148 26.6844 52.1094 28.1473 52.1094 30.0008C52.1094 30.9169 52.2357 31.7407 52.4814 32.4651C52.7271 33.2036 53.1062 33.8499 53.6047 34.3896C54.6577 35.4477 56.1389 35.9875 58.0062 35.9875C59.5296 35.9875 60.7722 35.6324 61.7199 34.9293V35.185C61.7058 37.3013 61.4671 37.6635 60.9617 38.2032C60.4703 38.7216 59.5928 38.9843 58.3572 38.9843C56.876 38.9843 56.1951 38.6932 55.8862 38.4446C55.5913 38.2103 55.3667 37.7203 55.2333 37.0314L55.135 36.4988L52.5727 36.5272L52.5867 37.2516C52.6218 37.5285 52.671 37.7984 52.7342 38.054C52.9799 38.9986 53.4221 39.7371 54.061 40.2342C54.9595 40.9515 56.3776 41.2995 58.3994 41.2995C63.3134 41.2995 64.3384 38.3381 64.3384 35.8525V24.3479H61.7199L61.7128 25.1433ZM59.7964 33.3599C59.4032 33.5232 58.9259 33.6013 58.3994 33.6013C55.8932 33.6013 54.777 32.4935 54.777 30.0008C54.777 28.8504 55.0718 27.9911 55.6826 27.3661C56.2863 26.7483 57.1428 26.4429 58.2941 26.4429C59.4524 26.4429 60.2878 26.7483 60.8564 27.3661C61.432 28.0053 61.7199 28.8433 61.7199 29.944C61.7199 31.1371 61.425 32.0532 60.8494 32.6568C60.5405 32.9622 60.1895 33.2036 59.7964 33.3599Z" fill="#1090CF"/>
<path d="M69.0489 24.6817C68.9998 24.7172 68.9577 24.7456 68.9226 24.7811V24.355H66.3462L66.3602 35.8525H68.9226V30.221C68.9226 26.9045 70.4178 26.521 71.5481 26.521C71.8499 26.521 73.275 26.5352 73.275 26.5352V24.0142H71.7727C70.5933 24.0142 69.7088 24.2272 69.0489 24.6817Z" fill="#1090CF"/>
<path d="M83.1451 32.3443C82.6466 33.3954 81.734 33.8925 80.323 33.8925C79.1226 33.8925 78.231 33.5445 77.6132 32.8202C77.185 32.3301 76.9323 31.7336 76.848 31.0092H86.2269V30.3772C86.2269 28.4953 85.7565 26.9755 84.8158 25.8748C84.2893 25.2427 83.6294 24.7669 82.8502 24.4616C82.092 24.1633 81.2145 24.0142 80.2247 24.0142C78.3503 24.0142 76.8621 24.561 75.8021 25.6404C74.742 26.7199 74.2085 28.1828 74.2085 30.0008C74.2085 31.8117 74.721 33.2889 75.7319 34.3683C76.827 35.5898 78.3784 36.2076 80.337 36.2076C81.1092 36.2076 81.8393 36.094 82.5062 35.8738C83.1802 35.6537 83.7769 35.3341 84.3034 34.908C85.1177 34.205 85.6582 33.3457 85.939 32.3443H83.1451ZM77.7466 27.1886C78.0625 26.8761 78.4205 26.6418 78.8207 26.4926C79.2279 26.3364 79.6982 26.2583 80.2247 26.2583C81.2356 26.2583 82.0289 26.5778 82.6537 27.2383C83.124 27.7283 83.4188 28.2538 83.5382 28.8219H76.9393C77.1148 28.1331 77.3886 27.5863 77.7466 27.1886Z" fill="#1090CF"/>
<path d="M50.6493 35.4904V34.8655H48.115V35.5046C48.115 35.5046 48.115 35.8526 48.115 35.9662C48.108 36.1367 48.0168 36.7971 47.9817 36.9463C47.9044 37.2303 47.8132 37.557 47.764 37.7345C47.7219 37.8411 47.6798 37.9476 47.6307 38.047C47.1744 38.9418 46.1775 39.3608 45.2017 39.1904C43.7696 38.9347 42.7306 37.5712 42.9272 36.1012C43.0255 35.3626 43.194 34.6311 43.5309 33.9707C44.1627 32.7208 44.942 31.5419 45.7212 30.3915C45.8756 30.1713 46.4232 29.3475 47.0761 28.0692C47.743 28.3746 48.3256 28.5451 48.7188 28.6374C49.4348 28.8078 49.8701 28.8504 50.207 28.7652C50.2492 28.7581 50.5651 28.7084 50.6423 28.5806C50.6704 28.538 50.5931 28.4456 50.5089 28.4243C49.4418 28.1403 48.4099 27.7852 47.6026 26.9614C48.2905 25.4345 48.9926 23.4816 49.3997 21.2517C49.6946 19.6112 50.0526 17.9779 50.1228 16.2806C50.207 14.8816 50.1509 13.3121 49.9613 11.9983C49.5542 9.21448 48.3537 7.24023 46.4934 5.21627C44.0715 2.57447 40.6738 1.3601 37.1778 1.01922C33.4712 0.65704 31.316 1.70098 29.6733 3.07869C27.7147 4.71206 27.3286 6.2389 27.1882 8.4191C27.0759 10.1661 27.4058 11.1603 28.2763 12.9641C28.9081 14.2708 31.5406 16.5291 32.2777 17.779C32.9798 18.9792 32.7902 19.1283 33.3027 20.435C33.5554 21.0813 34.8401 22.1749 36.0265 22.0045C37.1988 21.8411 38.1325 20.996 38.7713 19.3272C39.01 18.7235 39.024 18.1412 39.0872 17.6228C39.2697 16.2309 39.2276 15.0946 39.361 13.3689C39.375 13.1843 39.3961 12.9499 39.3119 12.8505C39.0802 12.5664 38.7713 12.6801 38.6379 12.9499C38.5467 13.1275 38.5256 13.3334 38.4695 13.5252C37.9359 15.3503 36.8338 18.0063 36.7846 18.1625C36.6162 18.5957 36.209 19.455 35.9282 19.4266C35.7808 19.4053 35.6684 19.4053 35.5912 19.1283C35.507 18.8301 35.1279 17.4168 33.8573 15.8261C31.6108 13.0067 30.3753 11.6503 29.9611 9.78971C29.5048 7.74444 30.4244 5.57135 32.1584 4.59133C33.057 4.08002 34.9524 3.30594 36.9812 3.52609C39.4733 3.79595 42.2392 4.69075 43.9592 6.60819C46.009 8.8878 47.3218 10.1803 47.392 14.3276C47.4341 16.7635 46.9076 19.597 46.3179 21.9548C46.2477 22.182 46.1705 22.4235 46.0862 22.672C45.8756 23.3254 45.6791 23.8864 45.4895 24.3906C45.4334 24.3125 45.3351 24.1705 45.307 24.1279C44.9911 23.6876 44.7173 23.2757 44.4014 22.8993C44.0223 22.4377 43.6433 21.9548 43.1659 21.6139C42.5762 21.1807 41.9374 21.0742 41.4179 21.6565C41.1581 21.9477 40.9826 22.3667 41.1652 22.8354C41.7268 24.2486 42.8008 25.2854 43.9943 26.2583C44.0574 26.308 44.2751 26.4501 44.5208 26.6205C44.0996 27.4585 43.6292 28.2681 42.9974 29.3404C42.1059 30.8602 41.0809 32.6498 40.751 33.4807C40.1192 35.0643 40.056 36.6977 40.4421 38.3595C40.6106 39.0838 40.9686 39.6875 41.467 40.2343C43.0606 41.9529 45.7774 42.3648 47.8413 41.541C48.3116 41.3493 48.782 40.9942 49.1049 40.5894C49.9613 39.5241 50.4527 38.3382 50.6002 37.0386C50.6142 36.9036 50.6282 36.5273 50.6353 36.2006C50.6423 36.1367 50.6423 36.087 50.6423 36.0515C50.6493 35.9094 50.6493 35.4904 50.6493 35.4904ZM46.4794 17.5447C46.4794 18.2761 45.8897 18.8727 45.1666 18.8727C44.4435 18.8727 43.8609 18.2761 43.8609 17.5447C43.8609 16.8132 44.4435 16.2238 45.1666 16.2238C45.8897 16.2238 46.4794 16.8132 46.4794 17.5447Z" fill="#003D52"/>
<path d="M109.941 18.9722L101.636 19.0006V35.8882L104.43 35.8598L104.416 29.234H109.513C111.106 29.234 112.391 28.7724 113.325 27.8634C114.272 26.9473 114.757 25.6832 114.757 24.1066C114.757 22.5372 114.329 21.2802 113.486 20.3641C112.63 19.4409 111.436 18.9722 109.941 18.9722ZM111.942 24.1421C111.942 25.9317 111.092 26.7271 109.176 26.7271H104.43V21.479H109.464C111.177 21.479 111.942 22.3028 111.942 24.1421Z" fill="#1090CF"/>
<path d="M130.432 24.0142C128.509 24.0142 126.992 24.6249 125.925 25.8251C124.957 26.8903 124.472 28.339 124.472 30.1286C124.472 31.8969 124.971 33.3599 125.967 34.489C126.522 35.0927 127.182 35.5401 127.919 35.8241C128.635 36.094 129.485 36.236 130.432 36.236C132.447 36.236 134.012 35.6395 135.094 34.4606C136.055 33.4096 136.547 31.9467 136.547 30.1286C136.547 28.2893 136.055 26.8264 135.08 25.7754C134.019 24.6107 132.454 24.0142 130.432 24.0142ZM127.056 30.1286C127.056 29.5108 127.14 28.964 127.294 28.4953C127.449 28.0408 127.666 27.6573 127.947 27.3448C128.544 26.6986 129.358 26.379 130.432 26.379C132.84 26.379 133.963 27.5721 133.963 30.1286C133.963 30.7536 133.893 31.3075 133.753 31.7691C133.619 32.2094 133.423 32.5645 133.142 32.877C132.566 33.5516 131.682 33.8783 130.432 33.8783C129.323 33.8783 128.509 33.5658 127.933 32.9054C127.343 32.2236 127.056 31.3146 127.056 30.1286Z" fill="#1090CF"/>
<path d="M119.369 24.6817C119.327 24.7172 119.285 24.7456 119.242 24.7811V24.355H116.666L116.68 35.8525H119.242V30.221C119.242 26.9045 120.738 26.521 121.868 26.521C122.17 26.521 123.595 26.5352 123.595 26.5352V24.0142H122.093C120.913 24.0142 120.029 24.2272 119.369 24.6817Z" fill="#1090CF"/>
</svg>
