<svg width="58" height="58" viewBox="0 0 58 58" fill="none" xmlns="http://www.w3.org/2000/svg">
<g clip-path="url(#clip0_140_3919)">
<path d="M36.295 58H21.9363C21.8135 58 21.6919 57.9755 21.5785 57.9277C21.465 57.8799 21.3619 57.8099 21.2751 57.7215C21.1882 57.6332 21.1193 57.5284 21.0723 57.413C21.0253 57.2975 21.0011 57.1738 21.0011 57.0489V51.0743C18.5999 50.1617 16.3656 48.8469 14.3907 47.1843L9.30093 50.1747C9.08595 50.3004 8.83083 50.3342 8.59138 50.2689C8.35192 50.2036 8.14764 50.0445 8.02323 49.8263L0.843825 37.1737C0.719959 36.9551 0.68645 36.6953 0.750659 36.4516C0.814869 36.2078 0.971545 35.9999 1.18627 35.8736L6.26146 32.8924C5.83156 30.3159 5.83156 27.6841 6.26146 25.1076L1.18641 22.1264C0.971682 22.0001 0.815005 21.7922 0.750796 21.5484C0.686586 21.3047 0.720095 21.0449 0.843962 20.8263L8.02336 8.17372C8.14739 7.95511 8.35168 7.79559 8.59129 7.73024C8.83091 7.66489 9.08622 7.69908 9.30106 7.82526L14.3909 10.8153C16.3658 9.15286 18.6 7.83818 21.0012 6.92567V0.95166C21.0012 0.826722 21.0253 0.703001 21.0723 0.58756C21.1192 0.472119 21.188 0.367219 21.2748 0.27885C21.3616 0.19048 21.4647 0.120371 21.5781 0.0725259C21.6915 0.0246808 21.8131 3.64973e-05 21.9359 4.05313e-08H36.2951C36.4179 -3.64268e-05 36.5395 0.0245357 36.6529 0.0723134C36.7664 0.120091 36.8695 0.190139 36.9563 0.278457C37.0432 0.366775 37.1121 0.471634 37.1591 0.587047C37.2061 0.70246 37.2303 0.826167 37.2304 0.951104V6.92567C39.6315 7.83818 41.8658 9.15286 43.8407 10.8153L48.9305 7.82526C49.1454 7.69934 49.4006 7.6653 49.6402 7.73063C49.8797 7.79596 50.084 7.95531 50.2082 8.17372L57.3876 20.8263C57.5115 21.0449 57.545 21.3047 57.4808 21.5484C57.4165 21.7922 57.2599 22.0001 57.0451 22.1264L51.97 25.1076C52.3999 27.6841 52.3999 30.3159 51.97 32.8924L57.0451 35.8736C57.2599 35.9999 57.4165 36.2078 57.4808 36.4516C57.545 36.6953 57.5115 36.9551 57.3876 37.1737L50.2082 49.8263C50.0836 50.0443 49.8793 50.2033 49.6399 50.2685C49.4006 50.3338 49.1455 50.3001 48.9305 50.1747L43.8407 47.1843C41.8658 48.8469 39.6315 50.1617 37.2304 51.0743V57.0483C37.2304 57.1733 37.2062 57.297 37.1593 57.4124C37.1123 57.5279 37.0435 57.6328 36.9567 57.7211C36.8699 57.8095 36.7669 57.8796 36.6534 57.9275C36.54 57.9753 36.4184 58 36.2957 58H36.295ZM22.8714 56.0968H35.3597V50.4039C35.3598 50.2054 35.4208 50.0119 35.5343 49.8504C35.6478 49.689 35.8081 49.5676 35.9926 49.5034C38.6159 48.5935 41.038 47.1684 43.1217 45.309C43.2685 45.1782 43.4519 45.0974 43.6462 45.078C43.8404 45.0585 44.0358 45.1015 44.2048 45.2007L49.0553 48.0504L55.2995 37.0464L50.4645 34.206C50.2957 34.1068 50.1616 33.9563 50.0808 33.7757C50.0001 33.5951 49.9769 33.3934 50.0143 33.1987C50.5575 30.4269 50.5575 27.5732 50.0143 24.8015C49.9769 24.6067 50.0002 24.405 50.0809 24.2244C50.1616 24.0438 50.2957 23.8934 50.4645 23.7941L55.2995 20.9537L49.0553 9.94973L44.2048 12.799C44.0357 12.8982 43.8404 12.941 43.6462 12.9216C43.452 12.9022 43.2686 12.8215 43.1217 12.6907C41.0381 10.8313 38.6159 9.40634 35.9926 8.49677C35.8081 8.43256 35.6478 8.31125 35.5343 8.1498C35.4208 7.98835 35.3598 7.79484 35.3597 7.59634V1.90318H22.8714V7.59606C22.8713 7.79457 22.8103 7.98809 22.6968 8.14957C22.5833 8.31104 22.4231 8.43238 22.2385 8.49663C19.6152 9.4062 17.193 10.8312 15.1094 12.6906C14.9626 12.8214 14.7792 12.9022 14.585 12.9216C14.3907 12.941 14.1954 12.8981 14.0263 12.7989L9.17582 9.94973L2.93167 20.9536L7.7666 23.794C7.93544 23.8932 8.06959 24.0437 8.15031 24.2243C8.23103 24.4049 8.25429 24.6066 8.21683 24.8013C7.67368 27.5731 7.67368 30.4268 8.21683 33.1985C8.25424 33.3933 8.23097 33.595 8.15025 33.7756C8.06954 33.9562 7.93541 34.1066 7.7666 34.2059L2.93167 37.0463L9.17582 48.0501L14.0263 45.2004C14.1954 45.1011 14.3907 45.0582 14.585 45.0776C14.7792 45.097 14.9626 45.1778 15.1094 45.3087C17.1931 47.1682 19.6153 48.5932 22.2385 49.5031C22.4231 49.5673 22.5833 49.6886 22.6968 49.8501C22.8103 50.0115 22.8714 50.205 22.8714 50.4035V56.0968Z" fill="#00A0DC"/>
<path d="M29.116 47.0452C19.3217 47.0452 11.3818 38.966 11.3818 28.9999C11.3818 19.0338 19.3217 10.9546 29.116 10.9546C38.9103 10.9546 46.8502 19.0338 46.8502 28.9999C46.8391 38.9614 38.9058 47.0339 29.116 47.0452ZM29.116 12.8578C20.3547 12.8578 13.2522 20.0848 13.2522 28.9999C13.2522 37.9149 20.3547 45.142 29.116 45.142C37.8774 45.142 44.9798 37.9149 44.9798 28.9999C44.97 20.089 37.8733 12.8678 29.116 12.8578Z" fill="#00A0DC"/>
<path d="M35.3849 38.7312C35.2334 38.7312 35.0842 38.6937 34.9502 38.6221L29.1162 35.5014L23.2821 38.6221C23.1277 38.7048 22.9536 38.7418 22.7796 38.729C22.6055 38.7162 22.4385 38.654 22.2973 38.5496C22.1562 38.4452 22.0466 38.3027 21.9809 38.1382C21.9153 37.9737 21.8962 37.7938 21.9258 37.6188L23.0401 31.0091L18.3202 26.3281C18.1953 26.2041 18.107 26.047 18.0653 25.8746C18.0235 25.7022 18.03 25.5213 18.0839 25.3524C18.1379 25.1836 18.2372 25.0334 18.3706 24.919C18.504 24.8045 18.6662 24.7303 18.8389 24.7047L25.3607 23.7401L28.2778 17.7265C28.3638 17.5781 28.4864 17.4551 28.6334 17.3697C28.7805 17.2842 28.9469 17.2393 29.1162 17.2393C29.2856 17.2393 29.452 17.2842 29.599 17.3697C29.7461 17.4551 29.8686 17.5781 29.9547 17.7265L32.8718 23.7401L39.3936 24.7047C39.5663 24.7302 39.7286 24.8044 39.862 24.9189C39.9955 25.0333 40.0949 25.1835 40.1488 25.3524C40.2028 25.5213 40.2092 25.7022 40.1674 25.8747C40.1256 26.0471 40.0372 26.2043 39.9123 26.3283L35.1924 31.0092L36.3066 37.6189C36.3297 37.7555 36.3232 37.8956 36.2875 38.0293C36.2518 38.1631 36.1879 38.2873 36.1001 38.3933C36.0122 38.4992 35.9027 38.5844 35.7792 38.6427C35.6557 38.7011 35.5211 38.7313 35.3849 38.7312ZM29.116 33.4747C29.2675 33.4745 29.4167 33.512 29.5507 33.5838L34.1426 36.04L33.2659 30.8378C33.2403 30.6857 33.2514 30.5296 33.2982 30.3829C33.3449 30.2362 33.426 30.1032 33.5344 29.9954L37.2496 26.3112L32.1161 25.5519C31.966 25.5298 31.8234 25.4708 31.7007 25.3801C31.578 25.2893 31.4789 25.1695 31.4119 25.0311L29.1159 20.298L26.8198 25.0311C26.7529 25.1695 26.6537 25.2893 26.5311 25.3801C26.4084 25.4708 26.2658 25.5298 26.1157 25.5519L20.9821 26.3112L24.6974 29.9954C24.8058 30.1032 24.8869 30.2362 24.9336 30.3829C24.9804 30.5296 24.9914 30.6857 24.9659 30.8378L24.0891 36.04L28.6811 33.5839C28.8152 33.512 28.9645 33.4745 29.116 33.4747Z" fill="#00A0DC"/>
</g>
<defs>
<clipPath id="clip0_140_3919">
<rect width="57" height="58" fill="white" transform="translate(0.615234)"/>
</clipPath>
</defs>
</svg>
