<svg width="66" height="59" viewBox="0 0 66 59" fill="none" xmlns="http://www.w3.org/2000/svg">
<g clip-path="url(#clip0_140_3878)">
<path d="M49.973 31.7051V32.9631C49.973 46.9878 40.3149 54.6176 26.4997 58.1064C12.6845 54.6176 3.02637 46.9878 3.02637 32.9631V13.1298L12.0788 8.44302M13.6375 7.6363L26.4997 0.978271L49.973 13.1298V29.974" stroke="#0EADFF" stroke-width="1.77531" stroke-miterlimit="10"/>
<path d="M26.4998 28.5012C24.3064 28.5012 22.5283 26.7528 22.5283 24.5961V22.6993C22.5283 20.5425 24.3064 18.7942 26.4997 18.7942C28.693 18.7942 30.471 20.5427 30.471 22.6993V24.5961C30.4712 26.7528 28.6931 28.5012 26.4998 28.5012Z" stroke="#0EADFF" stroke-width="1.77531" stroke-miterlimit="10"/>
<path d="M29.0699 27.5743C30.9178 28.3825 35.3499 31.4945 35.3499 34.9995C35.3499 36.3918 34.2021 37.5205 32.7862 37.5205H20.2132C18.7973 37.5205 17.6494 36.3918 17.6494 34.9995C17.6494 31.4948 22.0815 28.3829 23.9299 27.574" stroke="#0EADFF" stroke-width="1.77531" stroke-miterlimit="10"/>
<path d="M23.8587 32.8937H25.6192M27.3797 32.8937H29.1402M42.0292 27.4166L44.6911 25.0534L42.5909 20.0673L39.0093 20.2473L35.952 17.2409L36.135 13.7191L31.0644 11.6538L28.6612 14.2713H24.3375L21.9343 11.6538L16.8638 13.7191L17.0467 17.2409L13.9894 20.2473L10.4079 20.0673L8.30762 25.0534L10.9695 27.4166V31.6682L8.30762 34.0313L10.4079 39.0174L13.9894 38.8375L17.0467 41.8438L16.8638 45.3657L21.9343 47.4309L24.3375 44.8134H28.6612L31.0644 47.4309L36.135 45.3657L35.952 41.8438L39.0093 38.8375L42.5909 39.0174L44.6911 34.0313L42.0292 31.6682V27.4166Z" stroke="#0EADFF" stroke-width="1.77531" stroke-miterlimit="10"/>
</g>
<defs>
<clipPath id="clip0_140_3878">
<rect width="65" height="59" fill="white" transform="translate(0.5)"/>
</clipPath>
</defs>
</svg>
